<?xml version="1.0" standalone="no"?>
<!DOCTYPE svg PUBLIC "-//W3C//DTD SVG 20010904//EN"
 "http://www.w3.org/TR/2001/REC-SVG-20010904/DTD/svg10.dtd">
<svg version="1.0" xmlns="http://www.w3.org/2000/svg"
 width="700.000000pt" height="700.000000pt" viewBox="0 0 700.000000 700.000000"
 preserveAspectRatio="xMidYMid meet">
<metadata>
Created by potrace 1.14, written by Peter Selinger 2001-2017
</metadata>
<g transform="translate(0.000000,700.000000) scale(0.100000,-0.100000)"
fill="#000000" stroke="none">
<path d="M1762 5231 c2 -5 178 -431 393 -946 284 -684 392 -932 397 -918 10
21 498 1851 498 1864 0 5 -281 9 -646 9 -388 0 -644 -4 -642 -9z"/>
<path d="M4052 5198 c-6 -24 -214 -801 -462 -1728 -247 -926 -450 -1690 -450
-1697 0 -10 99 -13 499 -13 275 0 502 4 505 8 3 5 161 591 351 1303 191 712
350 1297 354 1301 4 4 252 9 551 10 l545 3 107 400 c59 220 110 412 113 428
l7 27 -1055 0 -1055 0 -10 -42z"/>
<path d="M1326 3633 c-6 -22 -482 -1806 -491 -1845 l-7 -28 646 0 c355 0 646
2 646 5 0 7 -780 1878 -785 1883 -2 2 -6 -5 -9 -15z"/>
</g>
</svg>
