<?xml version="1.0" standalone="no"?>
<!DOCTYPE svg PUBLIC "-//W3C//DTD SVG 1.1//EN" "http://www.w3.org/Graphics/SVG/1.1/DTD/svg11.dtd" >
<svg xmlns="http://www.w3.org/2000/svg" xmlns:xlink="http://www.w3.org/1999/xlink" version="1.1">
<metadata>
Created by FontForge 20201107 at Wed Apr 10 05:48:42 2024
 By 
Copyright (c) 2019 by Emil Bertell. All rights reserved.
</metadata>
<defs>
<font id="AllisonScript-Regular" horiz-adv-x="1175" >
  <font-face 
    font-family="Allison Script"
    font-weight="400"
    font-stretch="normal"
    units-per-em="2048"
    panose-1="0 0 0 0 0 0 0 0 0 0"
    ascent="1536"
    descent="-512"
    x-height="258"
    cap-height="1239"
    bbox="-1212.53 -1393 2468.13 1667"
    underline-thickness="102"
    underline-position="-204"
    unicode-range="U+000D-FB06"
  />
<missing-glyph horiz-adv-x="450" 
 />
    <glyph glyph-name=".notdef" horiz-adv-x="450" 
 />
    <glyph glyph-name=".null" horiz-adv-x="0" 
 />
    <glyph glyph-name="nonmarkingreturn" horiz-adv-x="682" 
 />
    <glyph glyph-name="NULL" horiz-adv-x="0" 
 />
    <glyph glyph-name="NULL" horiz-adv-x="0" 
 />
    <glyph glyph-name="CR" unicode="&#xd;" horiz-adv-x="450" 
 />
    <glyph glyph-name="space" unicode=" " horiz-adv-x="450" 
 />
    <glyph glyph-name="exclam" unicode="!" horiz-adv-x="796" 
d="M102 -41q-7 0 -15.5 6.5t-10.5 18t12 28.5q43 49 86 49q11 -4 2 -25t-22 -36q-8 -10 -27 -25.5t-25 -15.5zM360 307q-14 0 -17 15t7 38q52 102 191 320q43 69 85.5 128t68.5 88.5t32 29.5q3 -4 6.5 -7.5t-18.5 -44.5t-70 -116q-38 -59 -111 -181.5t-119 -196t-55 -73.5z
" />
    <glyph glyph-name="quotedbl" unicode="&#x22;" horiz-adv-x="194" 
d="M115 461q-7 -1 -11.5 6.5t-1.5 13.5q0 2 3.5 10t6 16.5t4.5 26t-1 39.5t-9.5 36.5t-12.5 20.5t-7 9q0 10 12 18t25 -4q31 -40 31 -94q0 -96 -39 -98zM18 432q-8 0 -13 9t-3 16q1 1 5.5 7t8.5 12.5t7.5 22.5t3.5 38t-4.5 36.5t-8.5 21t-4 9.5q0 11 12.5 18.5t24.5 -8.5
q19 -27 19 -86q0 -34 -12.5 -65t-35.5 -31z" />
    <glyph glyph-name="numbersign" unicode="#" horiz-adv-x="532" 
d="M199 -180q-2 0 2 16t17 52t32 85q16 44 39 88q-67 9 -160 17l-59 -103q-47 -81 -52 -81q-15 0 26 84q6 11 18 35l14 28l18 37q-18 2 -53 2h-29q-20 0 -6 14q9 9 100 6l58 107l-58 -10l-28 -7q-12 -3 -13 2.5t5 10.5q7 13 108 28q129 225 162 275q31 39 47 31.5t16 -45.5
q0 -20 -6 -18q-7 4 -8 20q0 19 -19 -3q-18 -20 -48 -73l-103 -180q45 7 166 20l49 98q55 115 86 127q7 4 18.5 2.5t12.5 -8.5q1 -3 -9.5 -17.5t-42 -66t-67.5 -121.5q-4 -4 -4 -8q18 2 47.5 4t34.5 2q9 0 19 -17q11 -18 -6 -17h-3q-33 4 -106 0q-50 -95 -78 -152l88 -12
q7 -2 0 -16q-9 -20 -29 -13q-40 10 -71 14q-63 -127 -72 -149q-39 -88 -53 -88zM207 213l-66 -113q87 -3 160 -12q9 21 20.5 45t26.5 53t23 45q-95 -7 -164 -18z" />
    <glyph glyph-name="dollar" unicode="$" horiz-adv-x="522" 
d="M100 -127q-9 0 -9 8q0 15 38 96q-6 0 -17 1.5t-16 1.5q-34 4 -62 28t-30 49q-1 17 8 24.5t25 4.5q3 0 12 -13.5t24.5 -29.5t32.5 -20q21 -7 44 -7l16 35q41 84 110 246q-51 27 -68.5 48.5t-14.5 55.5q5 51 64.5 102t131.5 60l31 74q16 32 36 37q12 3 12 -11
q-1 -12 -11 -32q-21 -43 -31 -66q43 -3 61.5 -26t11 -47.5t-31.5 -32.5q-8 -3 -13 -3.5t-7 1t-2.5 4t0.5 6.5t2.5 8t3 9.5t2.5 9.5q0 10 0.5 19t-9.5 15t-32 7l-93 -218q129 -71 35 -225q-62 -100 -184 -112q-47 -107 -70 -107zM322 125q22 37 19 86t-36 72l-84 -191
l-31 -69q85 21 132 102zM252 420q-27 -53 41 -88l82 194q-36 -13 -73.5 -45.5t-49.5 -60.5z" />
    <glyph glyph-name="percent" unicode="%" horiz-adv-x="698" 
d="M180 -55q-11 0 -17.5 9t-6.5 19q0 25 143 215q42 58 97.5 121t86 96.5t29.5 34.5q-2 1 -18.5 -6t-51 -18.5t-71.5 -16.5q-41 -6 -65 -3.5t-33 0t-9 -18.5q0 -38 -28.5 -69.5t-75.5 -31.5q-48 0 -73.5 26.5t-25.5 68.5q0 31 31.5 59.5t69.5 28.5q21 0 39.5 -7t9.5 -22
q-5 -10 -10.5 -12.5t-16.5 0t-16 2.5q-32 0 -52 -13.5t-20 -41.5q0 -21 19 -36.5t49 -15.5q27 0 44 23t17 39q0 41 2 45t14.5 5.5t46 3.5t66.5 7q54 7 117 25.5t82 27.5q8 3 15 8.5t18.5 18t15.5 16.5q13 13 28 -5q16 -18 1 -31l-2 -2q-20 -14 -124 -130.5t-169 -201.5
q-38 -51 -77.5 -108t-58 -83t-20.5 -26zM596 141q-2 0 -14 2t-23 2q-14 0 -36.5 -18.5t-22.5 -32.5q0 -24 43 -24q12 0 29 14t20 29q2 17 13 6q7 -6 11 -17q8 -25 -12.5 -49t-58.5 -24q-35 0 -56.5 19.5t-21.5 47.5q0 34 29 61t61 27q29 0 44 -24q7 -16 -5 -19z" />
    <glyph glyph-name="ampersand" unicode="&#x26;" horiz-adv-x="696" 
d="M207 -514q-8 -39 -21 -40q-12 0 -8 36q11 74 109 493q-74 -24 -105 -24q-50 0 -72 23.5t-16 55t31 58.5q13 14 76 62q46 37 35 48q-3 3 -9 5q-30 13 -19 45.5t52 73.5q50 47 129 67q134 523 135 535q4 32 25 39q17 6 21 -17q2 -15 -5 -39q-20 -65 -133 -508q12 2 37 2
q40 0 65 -12.5t26.5 -26.5t-5.5 -24q-19 -19 -55 -32q-10 -4 -11 -1q-1 2 5 8q21 19 16 36.5t-41 17.5q-14 0 -47 -11l-80 -315q24 9 66 33q46 24 61 7q9 -11 -6 -26q-16 -19 -133 -63q-82 -323 -123 -506zM201 -2q30 0 96 25l14 55l23 98q-34 -9 -83 -44.5t-83 -72.5
q-22 -24 -22.5 -38t14 -18.5t41.5 -4.5zM326 213q12 0 16 -2l31 123q-43 -25 -84 -58q-26 -21 -33.5 -34.5t4 -19.5t26 -7.5t40.5 -1.5z" />
    <glyph glyph-name="quotesingle" unicode="'" horiz-adv-x="155" 
d="M49 455q-7 0 -9 8t3 14q1 1 3.5 5.5t5.5 10t6.5 15t7 23.5t6.5 32q3 22 -0.5 37t-8 22.5t-4.5 10.5q4 11 18.5 18t26.5 -8q16 -36 2 -104q-10 -36 -25.5 -61.5t-31.5 -22.5z" />
    <glyph glyph-name="parenleft" unicode="(" horiz-adv-x="604" 
d="M631 1210q33 8 -21 -34q-29 -23 -72.5 -66.5t-115 -124t-143 -195t-117.5 -233.5q-21 -55 -39 -113.5t-29.5 -113.5t-21 -106t-14.5 -101.5t-8 -89.5t-4 -80.5t-1.5 -63.5t0 -50t0.5 -29q0 -113 -11 -108q-5 3 -11 36q-7 40 -13 89t-8.5 146t5.5 192.5t35.5 218
t74.5 232.5q47 111 111.5 210.5t125.5 166t120 117t99 74t58 26.5z" />
    <glyph glyph-name="parenright" unicode=")" horiz-adv-x="579" 
d="M-27 -338q-13 -2 -13 3q0 6 32 32q24 19 72 72t117.5 138t141.5 205.5t119 239.5q24 62 43 128t31 122t20.5 116.5t12 104.5t5.5 93t2 75t-0.5 57.5t-0.5 34.5q0 102 11 106q5 2 12 -36q10 -54 15.5 -124t5.5 -192t-29 -269t-87 -283q-59 -136 -142 -259t-157 -197.5
t-131 -119t-80 -47.5z" />
    <glyph glyph-name="asterisk" unicode="*" horiz-adv-x="452" 
d="M131 487q-13 -7 -21.5 -4t-8.5 10t1 9q18 21 48 41h-68q-19 0 -5 15q10 11 21 13h76q-5 13 -15.5 34.5t-13.5 31.5q-5 12 0 21.5t16 9t17 -14.5q3 -11 14 -36.5t15 -36.5q97 61 117 61q34 0 16 -21q-10 -11 -27 -20l-43 -27q29 2 58 2q14 0 21 -16q6 -14 -7 -14
q-3 0 -22 -0.5t-47.5 -1t-53.5 -0.5l10 -27q5 -10 5.5 -19t-2 -13t-5.5 -5q-17 -9 -28 23q-6 12 -9 24z" />
    <glyph glyph-name="plus" unicode="+" horiz-adv-x="221" 
d="M78 188q-78 0 -78 17q0 7 25.5 17.5t37.5 10.5h46q6 72 14 127q1 12 11.5 16t21 0.5t10.5 -9.5q0 -16 -16 -134h45q9 0 28 -9.5t19 -16.5q0 -21 -37 -21q-35 0 -62 2l-8 -53q-3 -27 -17 -65.5t-24 -38.5q-4 0 -5.5 5t-0.5 15t2.5 21t4 28.5t3.5 32.5l6 55h-26z" />
    <glyph glyph-name="comma" unicode="," horiz-adv-x="288" 
d="M84 -80q-4 5 7 17t31.5 36t31.5 50q10 21 10 41.5t-3 32t-1 12.5q23 15 39 -7q11 -20 3 -53t-30 -65q-14 -19 -34 -36t-35.5 -24.5t-18.5 -3.5z" />
    <glyph glyph-name="hyphen" unicode="-" horiz-adv-x="575" 
d="M219 168q-22 0 -8 18q15 19 33 21q80 8 155 8q18 0 29 -22q8 -20 -10 -23q-16 0 -100.5 -1t-98.5 -1z" />
    <glyph glyph-name="period" unicode="." horiz-adv-x="200" 
d="M25 0q-7 0 -16 10.5t-9 22.5q0 5 22.5 22t32.5 17q5 0 14 -9.5t9 -17.5q0 -15 -22 -30t-31 -15z" />
    <glyph glyph-name="slash" unicode="/" horiz-adv-x="532" 
d="M-80 -203q-19 0 41 94q30 48 114 170.5t134 190.5q354 477 371 477h6t4.5 -0.5t3.5 -1.5t1.5 -3t0.5 -5q0 -9 -134.5 -189t-228.5 -301q-33 -42 -137 -194.5t-123 -177.5q-46 -60 -53 -60z" />
    <glyph glyph-name="zero" unicode="0" horiz-adv-x="385" 
d="M98 -4q-35 3 -57.5 37t-22.5 71q0 124 84 230q48 60 109.5 99.5t95.5 39.5q15 0 27 -5t15.5 -13.5t-5.5 -18.5l-4 -4q30 -35 27 -117q-3 -52 -34.5 -118.5t-74.5 -114.5q-81 -92 -160 -86zM324 336q3 73 -27 96q-34 -8 -77.5 -39t-80.5 -80q-80 -102 -80 -207
q0 -58 41 -65q57 -5 133 84q33 40 60.5 99t30.5 112z" />
    <glyph glyph-name="one" unicode="1" horiz-adv-x="278" 
d="M39 -55q-43 0 24 135q41 81 121 250t86 188q8 19 11 32.5t0.5 20.5t-9.5 7q-11 0 -33.5 -17.5t-63.5 -52t-75 -59.5q-25 -18 -35 -2q-9 14 10 28q2 1 3 2q30 20 73 57t72 57.5t51 20.5q32 0 41.5 -28t-10.5 -80q-165 -399 -207 -481q-23 -44 -35 -61t-24 -17z" />
    <glyph glyph-name="two" unicode="2" horiz-adv-x="595" 
d="M553 -57q0 -37 -49 -37q-53 0 -152 26q-35 10 -100 30t-103.5 31t-52.5 11q-7 0 -13 -0.5t-10 -1t-9.5 -2t-8 -2t-9 -4t-8 -4.5t-10.5 -6t-12 -7q-24 -17 -40 7q-14 22 -1 38q4 5 11 7q49 18 124.5 81.5t217.5 204.5q121 120 158 166.5t42 79.5q3 21 -13 37t-46 16
q-115 0 -209 -58t-94 -122q0 -15 4 -29t9 -22.5t8 -16t0.5 -12.5t-11.5 -8q-25 -10 -41 14t-16 80q0 50 49.5 100t131 82.5t165.5 32.5q52 0 83.5 -24.5t24.5 -73.5q-2 -25 -15.5 -51t-49 -66t-60 -65t-86.5 -86q-97 -95 -274 -238h2q25 0 127.5 -34.5t163.5 -47.5
q39 -8 73 -11t50.5 -1t29 2.5t16 -2.5t3.5 -14z" />
    <glyph glyph-name="three" unicode="3" horiz-adv-x="505" 
d="M201 467q-32 10 -49 37t-17 57q0 63 93.5 123.5t207.5 60.5q33 0 61.5 -24.5t28.5 -65.5q0 -25 -9.5 -47t-36.5 -50t-48 -46.5t-72 -60.5q-18 -15 -52 -40q-39 -27 -39 -35q-1 -7 25 -7h17q77 3 106.5 -23.5t26.5 -75.5q-7 -84 -139 -264q-76 -100 -144.5 -147
t-117.5 -47q-42 0 -64.5 41t-17.5 102q2 33 9.5 58t16 36t18 18.5t16 6t8.5 -1.5q7 -3 5.5 -14.5t-5.5 -20t-11 -33t-10 -51.5q-6 -43 1 -70.5t28 -27.5q91 0 227 186q127 178 127 246q0 41 -65 47q-40 2 -113 -2q-29 0 -29 22q0 8 13.5 18.5t52.5 37.5t76 57
q87 70 117 113.5t30 78.5q0 19 -14.5 32.5t-36.5 13.5q-48 0 -105 -21t-99 -57t-42 -74q0 -16 21 -33t22 -18q9 -10 1.5 -24t-19.5 -11z" />
    <glyph glyph-name="four" unicode="4" horiz-adv-x="432" 
d="M121 -98q-8 2 -10 11.5t3 28.5t12.5 39t19.5 51q9 24 14 36q7 21 39 94h-133q-47 1 -55.5 25.5t22.5 62.5q68 81 184.5 215.5t151.5 165.5q25 24 45.5 28.5t29 -3.5t7.5 -21q-1 -7 -28.5 -72t-74.5 -175t-76 -181h52q65 0 72 -3t3 -11q-15 -31 -84 -31h-61l-33 -88
q-27 -64 -42.5 -98.5t-26.5 -52.5t-17 -21t-14 0zM92 203q14 -2 125 2q66 147 166 356q11 26 6.5 26.5t-24.5 -16.5q-11 -11 -134.5 -154t-136.5 -157q-14 -15 -21 -25t-7.5 -17t6 -10.5t20.5 -4.5z" />
    <glyph glyph-name="five" unicode="5" horiz-adv-x="555" 
d="M553 692q-10 -20 -57 -20q-163 0 -168 -4q-4 -3 -26.5 -36t-49 -74.5t-27.5 -43.5q-21 -31 -14 -32q3 0 10 3q37 13 82 13q102 0 152.5 -55.5t50.5 -174.5q0 -93 -39.5 -175t-102.5 -135.5t-140 -84.5t-154 -31q-91 0 -130 63.5t-10 137.5q19 50 57 79.5t70 37.5
q27 6 34 -11q6 -17 -17 -24q-26 -8 -55 -32t-42 -62q-20 -56 6 -101t87 -45q64 0 131.5 27.5t125.5 76t95 125.5t37 167q0 178 -170 178q-58 0 -127 -49q-11 -9 -29.5 0t-11.5 26q8 21 83 141t83 123q9 3 93.5 10t108.5 7q25 0 47.5 -7.5t16.5 -17.5z" />
    <glyph glyph-name="six" unicode="6" horiz-adv-x="493" 
d="M127 156q-13 -6 -12 5q1 13 20 25q78 50 137 50q54 0 81.5 -41.5t27.5 -102.5q0 -42 -15.5 -89t-44.5 -91t-78 -73t-108 -29q-64 0 -99.5 48.5t-35.5 118.5q0 84 43 211t150 277q108 148 205 215.5t149 67.5q30 0 57.5 -23.5t30.5 -48.5q2 -35 -12 -43q-6 -4 -11 4
q-1 2 -9 16.5t-13.5 23t-17 17t-23.5 8.5q-48 0 -136.5 -66t-170.5 -183q-95 -134 -144 -256.5t-49 -208.5q0 -59 25.5 -98.5t62.5 -39.5q58 0 104 42t66.5 94.5t20.5 99.5q0 104 -74 104q-48 0 -127 -34z" />
    <glyph glyph-name="seven" unicode="7" horiz-adv-x="499" 
d="M254 502q-22 1 -34 10t-11.5 18.5t6.5 16.5q14 5 19 0.5t41.5 -12t84.5 -7.5t86.5 3t44 4.5t17.5 -0.5q9 -4 10.5 -15.5t-4.5 -15.5q-1 -1 -10 -4.5t-23.5 -11.5t-34.5 -20.5t-50.5 -36t-63.5 -54.5q-78 -71 -177.5 -196.5t-131.5 -180.5q-13 -23 -30 -10q-18 15 -11 39
q12 28 111 150t177 192q118 107 158 129q-20 -2 -74 -2q-50 0 -100 4z" />
    <glyph glyph-name="eight" unicode="8" horiz-adv-x="387" 
d="M385 649q-129 3 -156 -53q-17 -32 2 -170q64 59 134 111q33 24 44 36.5t13 24.5q1 7 -2 13t-5.5 8.5t-1 3.5t10.5 2q37 3 42.5 -24.5t-30.5 -53.5q-2 -1 -22 -15t-29 -20.5t-31 -22.5t-37.5 -29t-37 -32t-41.5 -39q0 -8 4 -24q4 -27 15.5 -77.5t17.5 -90.5t4 -80
q-4 -105 -58 -171.5t-129 -66.5q-16 0 -33 8t-31.5 26t-24 42.5t-9 60t11 77t38.5 95.5t71 113q29 39 80 90q-3 24 -8 58.5t-7 49.5t-3 36t0.5 36.5t6.5 32.5q14 44 70 62t115 10q31 -3 29 -17q-2 -10 -13 -10zM229 121q3 41 -1.5 77t-14.5 80t-14 68q-30 -34 -49 -61
q-44 -60 -71 -119.5t-34 -104t-3 -79.5t17.5 -53.5t30.5 -18.5q53 0 94.5 66t44.5 145z" />
    <glyph glyph-name="nine" unicode="9" horiz-adv-x="380" 
d="M287 365q10 27 24 86q-52 -58 -78 -74q-24 -15 -47 -15q-50 0 -69 52t14 112q53 109 164 109q28 0 48.5 -29.5t23.5 -93t-35 -162.5q-48 -126 -126 -233t-153 -180q-23 -26 -45.5 -36t-32.5 -3q-13 9 15 35q16 15 26 26q190 184 271 406zM188 395q51 0 131 99
q4 37 -1.5 62.5t-14.5 34.5t-18 9q-28 0 -62 -18t-55 -60q-24 -52 -17 -89.5t37 -37.5z" />
    <glyph glyph-name="colon" unicode=":" horiz-adv-x="430" 
d="M131 -45q-5 -1 -12.5 3t-12 14.5t4.5 29.5q13 23 32.5 39.5t34.5 19.5q17 2 3 -36q-6 -15 -11 -21q-7 -14 -19.5 -31t-19.5 -18zM283 334q-13 -3 -13 13q-1 19 13 42q2 5 7 14.5t7 13t5.5 10t6.5 9t7 5t8 3.5q10 1 16 -5.5t4.5 -20t-12.5 -31.5q-24 -47 -49 -53z" />
    <glyph glyph-name="semicolon" unicode=";" horiz-adv-x="436" 
d="M84 -80q-4 5 7 17t31.5 36t31.5 50q10 21 10 41.5t-3 32t-1 12.5q23 15 39 -7q11 -20 3 -53t-30 -65q-14 -19 -34 -36t-35.5 -24.5t-18.5 -3.5zM295 430q-12 -2 -9 23q1 10 5 26q10 47 39 53q11 2 17 -1t4.5 -15t-13.5 -31q-6 -8 -12 -18.5t-9 -15.5t-7 -10.5t-7.5 -7.5
t-7.5 -3z" />
    <glyph glyph-name="less" unicode="&#x3c;" horiz-adv-x="219" 
d="M213 180q10 0 18.5 -6.5t8.5 -11.5q0 -8 -13 -12.5t-67 -16.5q-84 -20 -84 -33q0 -4 11 -8t31.5 -10t31.5 -10q34 -14 43.5 -20.5t9.5 -18.5q1 -16 -13 -15.5t-96 35.5q-62 24 -78 32t-16 15q0 21 111 52q81 26 102 28z" />
    <glyph glyph-name="equal" unicode="=" horiz-adv-x="262" 
d="M268 256h-221q-23 0 -9 17q16 18 34 20q100 10 180 10q15 0 26 -21q9 -23 -10 -26zM0 121q0 8 92.5 15t118.5 7q9 0 22 -12t13 -20q0 -6 -10.5 -10.5t-18.5 -4.5q-3 0 -74.5 -2t-79.5 -2q-13 0 -38 9t-25 20z" />
    <glyph glyph-name="greater" unicode="&#x3e;" horiz-adv-x="219" 
d="M29 18q-8 0 -18.5 9t-10.5 14q0 8 13 12.5t65 16.5q74 17 79 24q1 2 1 4q0 3 -9 7t-28 11.5t-29 12.5q-55 19 -55 39q-1 12 11 11q7 0 83 -31q7 -2 14 -5q92 -38 95 -49q0 -16 -111 -47q-15 -5 -32.5 -11t-26.5 -9t-20 -5.5t-21 -3.5z" />
    <glyph glyph-name="question" unicode="?" horiz-adv-x="716" 
d="M147 0q-7 0 -15.5 10.5t-8.5 22.5q0 5 22.5 22t32.5 17q5 0 14 -9.5t9 -17.5q0 -15 -22.5 -30t-31.5 -15zM266 186q-18 0 -18 25q0 8 31 52t81.5 102.5t92.5 93.5q15 12 59.5 46.5t69 56t56.5 54t47 64t15 63.5q0 19 -17 31t-46 12q-21 0 -43 -13t-23 -13q-6 0 -11 6.5
t-5 11.5q0 16 26.5 30.5t59.5 14.5q34 0 65 -21t31 -65q0 -37 -17.5 -75t-53.5 -77t-62 -63.5t-74.5 -63.5t-58.5 -48q-37 -32 -87 -88.5t-83 -96t-35 -39.5z" />
    <glyph glyph-name="at" unicode="@" horiz-adv-x="1036" 
d="M389 4q-30 -5 -48.5 7t-18.5 36q0 43 51.5 93t109.5 50q41 0 66 -18t22 -35q0 -8 -2 -12q-8 -15 -13 -38t-5 -40.5t6 -17.5q20 0 78 42t102 91q59 69 99.5 159t40.5 173q0 77 -44 120t-122 43q-96 0 -210.5 -58t-219.5 -181q-109 -130 -146 -233.5t-37 -198.5
q0 -271 217 -271q61 0 116 13t106.5 40t85.5 49.5t86 61.5q14 10 22 -8q12 -24 -10 -45l-2 -2q-73 -62 -178.5 -108t-200.5 -46q-129 0 -204 74.5t-75 235.5q0 231 189 462q88 108 212 180t222 72q99 0 164 -48.5t65 -153.5q0 -196 -159 -371q-51 -54 -116 -94.5t-93 -40.5
q-17 0 -22 15.5t-3 45.5q1 15 -4 15q-3 1 -29 -17q-44 -34 -98 -41zM395 39q11 2 23.5 7.5t25.5 14t23.5 16t23 18.5t19.5 17.5t18 16.5t13 12q-21 21 -54 21q-38 0 -84.5 -36t-46.5 -67q0 -16 8 -20.5t31 0.5z" />
    <glyph glyph-name="A" unicode="A" horiz-adv-x="1622" 
d="M1217 -719q2 7 22 223l-10 66q-17 105 -132.5 220.5t-271.5 184.5q-173 74 -274 121q-355 -592 -537 -1018q-19 -44 -39 -43q-16 0 -15 23q0 8 3 16q101 238 218 464t325 579q-33 14 -88 41q-36 18 -30 51q7 46 91 70q54 15 133 16l58 92q111 184 233 345t221 265
t186 179.5t140 108t72 30.5q43 -5 63.5 -32.5t11.5 -72.5q-3 -20 -34 -150t-81 -352.5t-93 -437.5q52 -12 88 -30q8 -4 26 -14q33 -16 33 -20q-1 -11 -147 9h-11q-49 -259 -66 -386t-30 -308q-1 -3 -1 -9.5t-1 -9.5q18 -121 14 -178q-1 -21 -22 -42t-33 -19q-3 0 -8.5 0.5
t-7 1t-5.5 2t-2.5 5t1.5 9.5zM672 295q229 2 678 -19q45 229 97.5 455t83.5 347t32 132q6 26 1 47.5t-30 24.5q-12 1 -72 -50t-152 -143.5t-194 -205.5t-211 -253t-190 -268zM840 6q337 -160 411 -366q21 229 86 581q-258 27 -700 17q-31 -47 -64 -105zM446 193l82 -39
l50 82q-126 -9 -138 -34q-3 -7 6 -9z" />
    <glyph glyph-name="B" unicode="B" horiz-adv-x="1605" 
d="M649 1083q-70 -210 -256 -1009q127 275 279 518q159 247 266.5 349.5t208.5 102.5q56 0 103.5 -45t47.5 -125q0 -83 -48 -153.5t-146 -147.5q-49 -39 -96.5 -73t-71 -50.5t-42.5 -31t-25.5 -23t-6.5 -18.5q0 -31 133 -39q207 -10 301 -131q24 5 47 9.5t45.5 8.5t32.5 6
q87 15 99 1q3 -4 -7 -8q-5 -2 -12 -3q-44 -6 -182 -49q25 -44 35 -84q12 -43 13 -91.5t-11.5 -105t-38 -114t-71.5 -118.5t-108 -117.5t-151 -113t-196 -104.5q-145 -64 -290 -92.5t-251.5 -21t-175 44t-72.5 94.5q-5 72 64.5 173t207.5 210q31 150 78 338q212 887 248 1003
q8 29 31 35q18 4 20 -13q0 -5 -2 -12zM227 -557q-7 22 33 227q-114 -96 -171 -181.5t-46 -141.5t126.5 -75.5t283.5 5.5t315 88q147 62 263 152t183.5 187t93.5 196.5t3 185.5q-14 44 -31 72q-312 -97 -614 -238q-191 -89 -344 -203q-17 -71 -31 -138.5t-20 -96t-9 -33.5
q-8 -13 -19.5 -16t-15.5 10zM369 -104l-33 -117q141 98 289 170q350 172 628 246q-88 101 -282 112q-87 4 -118 19t-36 45q-1 14 8 28.5t33 35t51.5 41.5t76 60.5t93.5 77.5q172 148 172 273q0 46 -29 79t-77 33q-179 3 -438 -415q-138 -218 -199 -339q-93 -182 -139 -349z
" />
    <glyph glyph-name="C" unicode="C" horiz-adv-x="1191" 
d="M330 -526q128 0 294.5 58.5t301.5 137.5t213 154q19 17 31 6q11 -9 -3 -25q-147 -163 -384.5 -274t-428.5 -111q-157 0 -252.5 83.5t-95.5 211.5q0 324 350 772q224 287 438.5 436.5t376.5 149.5q58 0 90.5 -30.5t32.5 -84.5q0 -47 -36 -75q-21 -15 -25 -5q-2 4 4 15
q9 17 12.5 38.5t0 43t-22.5 35.5t-51 14q-42 0 -117 -31t-177.5 -94.5t-234.5 -184t-258 -276.5q-342 -418 -342 -723q0 -72 45 -129t108.5 -84.5t129.5 -27.5z" />
    <glyph glyph-name="D" unicode="D" horiz-adv-x="1603" 
d="M205 498q0 -111 114 -189q10 -7 -7 -10q-24 -5 -42 8q-38 28 -69 85t-31 118q0 98 65.5 197.5t182.5 181.5q153 108 317 161.5t303 53.5q72 0 139 -16.5t131 -55t110.5 -96t75 -147.5t28.5 -201q0 -234 -115.5 -506.5t-314.5 -478.5q-169 -177 -390.5 -288.5
t-388.5 -111.5q-157 0 -235 72t-78 195q0 78 25 163t76.5 176.5t141 185.5t208.5 177q7 4 37 24t47 29q123 477 159 572q11 32 21 30q13 -1 11 -41q-1 -15 -5 -30q-68 -231 -139 -504q106 56 215 86.5t158 34.5t71 2q13 -1 13 -7q-1 -13 -45 -19q-6 -1 -13 -1
q-63 -5 -174.5 -43t-245.5 -125q-102 -397 -135 -555q-7 -34 -16 -33q-10 1 -11 31q-1 7 0 12q26 166 115 512l-41 -30q-210 -161 -326 -342t-116 -305q0 -86 72.5 -142.5t213.5 -56.5q164 0 395 115t345 249q198 226 304.5 476.5t106.5 509.5q0 197 -114 314.5t-324 117.5
q-129 0 -286 -56t-287 -143q-122 -81 -187 -178t-65 -178z" />
    <glyph glyph-name="E" unicode="E" horiz-adv-x="1056" 
d="M860 236l-592 -68l-37 -115q-56 -172 -93.5 -325t-35.5 -179q2 -25 14.5 -39.5t37.5 -13.5q80 4 234 41t298 82q172 55 207 86q14 14 42 -2q21 -15 11 -27q-18 -16 -98 -50.5t-172 -61.5q-330 -100 -463 -105q-91 -5 -104 11q-44 35 -46 75q-2 36 26.5 176.5t86.5 339.5
q7 27 31 101q-95 -12 -115 -12q-17 -1 -13 17q3 20 20 25q2 1 3 1q7 2 23.5 4t45 5.5t50.5 6.5q103 315 252 698q-108 -27 -198 -56t-119 -42q-28 -13 -35 8q-6 22 20 41q24 18 123.5 50t231.5 57q45 114 86 204q46 96 69 119q6 8 22 6q19 -3 3 -20q-30 -41 -33 -76
q-1 -8 -6.5 -20.5t-14.5 -31t-28.5 -65t-42.5 -106.5q85 14 154 22q327 40 569 31q29 -1 27 -12q-3 -12 -29 -18q-4 -1 -8 -1q-1 0 -107.5 -1t-213.5 -9.5t-228 -28.5q-57 -9 -185 -36l-4 -13q-106 -286 -241 -694q458 51 469 53q74 10 129 24q19 5 22 -1q4 -12 -9 -32
t-36 -23z" />
    <glyph glyph-name="F" unicode="F" horiz-adv-x="1079" 
d="M834 1219q-7 -31 -97 -271q445 62 738 23q64 -8 102 -18.5t47.5 -15.5t34.5 -22q57 -39 19 -34q-8 1 -21 4q-59 12 -162 30q-308 48 -774 -8l-43 -119q-62 -161 -164 -495q124 0 250 -4q106 0 166 8q13 1 18 0t3 -4.5t-11 -9.5q-18 -12 -45 -19t-123.5 -14t-255.5 -6h-16
q-69 -227 -111 -383q-102 -369 -45 -422q22 -20 4 -21t-57 21q-20 10 -27 36.5t-1 81t20.5 124t42.5 184.5q36 156 114 379q-141 -2 -223.5 -14t-104.5 -24.5t-32 -31.5q-8 -21 -18 -9q-6 8 -3 21q19 64 154 90q84 17 244 17q133 368 166 471q10 32 47 135
q-117 -15 -256 -45q-92 -20 -163 -42.5t-109.5 -42t-58.5 -35.5t-22 -29q-2 -9 -10 -12t-9 7q0 5 1 11q7 50 75 87t195 70q184 46 373 74q30 78 58 135t42.5 83t18.5 40q10 39 24 43q5 1 6 -6q1 -6 -1 -18z" />
    <glyph glyph-name="G" unicode="G" horiz-adv-x="1519" 
d="M1165 893q72 126 72 194q0 22 -8.5 36t-24 20t-29.5 8t-34 2q-155 0 -332 -108.5t-346 -305.5q-156 -183 -254 -422t-98 -448q0 -213 78.5 -304t238.5 -91q94 0 201.5 41t203 106.5t185 147t154 161.5t103 150.5t38.5 114.5q0 22 -16.5 30t-53.5 8q-39 0 -202 -41.5
t-271 -82.5q-11 -4 -10 4q2 18 32 43q14 13 27 18q206 89 369 103q162 8 168 -72q0 -64 -42 -149.5t-111.5 -173t-164.5 -173t-195.5 -151.5t-210.5 -107t-204 -41q-79 0 -142.5 25.5t-104.5 68t-68.5 102t-39.5 125t-12 138.5q0 213 82 432.5t275 466.5q152 193 346 310.5
t358 117.5q68 0 110 -24.5t42 -71.5q0 -49 -22.5 -118t-45.5 -95q-25 -25 -40 -17q-11 5 -1 23z" />
    <glyph glyph-name="H" unicode="H" horiz-adv-x="1210" 
d="M543 1157q-7 -20 -16.5 -57t-22.5 -99.5t-23.5 -115t-28.5 -147.5t-27.5 -149t-30.5 -168t-29 -159l-9 -39q298 22 570 6l59 310q23 125 98 491q12 67 52 101q23 19 28 4v-7q0 -8 -1 -17.5t-4 -27.5t-7 -36.5t-11.5 -55.5t-15 -71.5t-20.5 -97t-25 -120.5
q-41 -195 -86 -477q6 0 17.5 -1t17.5 -1q107 -8 156 -33q21 -12 -13 -13q-24 0 -147 11q-6 0 -18.5 1t-18.5 1v-6q-24 -143 -79.5 -411.5t-65.5 -393.5l-6 -57q29 -108 24 -141q0 -20 -20 -38.5t-39 -14.5q-2 0 -7 0.5t-6.5 1t-5.5 2t-4 3t-1.5 5t1.5 8.5q11 65 19 168
l-6 22q-18 78 -65.5 151.5t-119 137t-148 115.5t-171.5 104q-54 -304 -37 -360q11 -50 -10 -56q-15 -4 -28 21q-7 14 -7 31q-6 153 28 391q-89 46 -317 150q-64 31 -54 68q13 49 163 85q124 27 266 41q0 9 4 21l147 800q22 119 86 179q29 25 28 -7q-1 -20 -13 -53zM920 193
v4q-246 12 -572 -25l-55 -285q403 -220 512 -465q5 49 13 110t14 105t20 133.5t19.5 123.5t24.5 152t24 147zM-61 49q198 -80 301 -133l41 246q-146 -20 -230 -39q-140 -32 -132 -59q2 -10 20 -15z" />
    <glyph glyph-name="I" unicode="I" 
d="M213 -29q-39 18 -70.5 72.5t-31.5 116.5q0 252 237 600q147 214 317.5 346.5t325.5 132.5q60 0 99 -31t53.5 -88t14.5 -131.5t-17.5 -168.5t-42.5 -191t-62 -206.5t-73.5 -208t-79.5 -202.5q-56 -140 -132 -269t-172 -242.5t-213.5 -182t-236.5 -68.5q-77 0 -132.5 33
t-78 89.5t-17.5 124.5t48.5 145t118.5 143q43 39 91.5 66t90.5 40t85 19t73 5.5t57 -3.5q111 -12 139 -38q13 -12 -11 -14q-16 -1 -44 5q-50 9 -104 10t-115 -8.5t-121 -38t-107 -74.5q-59 -57 -95.5 -123t-44.5 -126t5.5 -109.5t54.5 -79t101 -29.5q64 0 131 25t142 82
t147.5 143t149.5 214.5t147 289.5q101 231 165 423.5t87.5 324.5t17.5 224t-38.5 134.5t-86.5 42.5q-119 0 -293 -141t-289 -314q-122 -183 -189 -335.5t-67 -245.5q0 -102 89 -156q25 -15 12 -27q-12 -10 -35 0z" />
    <glyph glyph-name="J" unicode="J" horiz-adv-x="1337" 
d="M348 -18q-38 16 -68 70t-30 118q0 67 16 150.5t72.5 220.5t148.5 270q151 220 314.5 349.5t328.5 129.5q56 0 93.5 -28t53 -80t17.5 -120t-12.5 -154.5t-36 -176.5t-54 -193t-66.5 -197.5t-74 -195.5q85 12 123 35q17 9 25 7.5t5.5 -11t-14.5 -18.5q-50 -38 -158 -58
l-14 -37q-47 -115 -96 -223.5t-114.5 -237t-130.5 -238t-143 -214t-154 -178t-160.5 -118t-164.5 -44.5q-76 0 -141.5 32.5t-110.5 88.5t-60.5 137.5t1 172.5t82 200t174.5 215q107 103 251 191.5t284.5 145t255 91.5t202.5 51q95 222 155 407t82 312.5t16 216t-37.5 129.5
t-84.5 41q-79 0 -190.5 -69.5t-214 -172.5t-176.5 -213q-118 -175 -187 -350t-69 -272q0 -110 84 -156q24 -17 12.5 -27t-35.5 1zM49 -1153q197 0 427 316t497 927q-104 -20 -217.5 -56t-240 -91.5t-253 -138t-227.5 -179.5q-78 -76 -130.5 -158.5t-73.5 -156.5t-23.5 -145
t17.5 -127.5t51.5 -100t77 -67t95.5 -23.5z" />
    <glyph glyph-name="K" unicode="K" horiz-adv-x="1382" 
d="M57 -485q-16 -6 -22.5 2.5t4.5 31.5q16 39 80 359q-58 15 -89.5 37t-31.5 47q0 128 203 362l12 74q20 124 55 354t60.5 393.5t27.5 176.5q2 18 20 18q23 1 31 -28q4 -16 1 -37q-9 -61 -164 -904q163 174 377 353q157 133 299 240t234.5 167t161.5 100.5t106.5 60
t43.5 24.5q37 32 38 13q1 -8 -7 -24q-9 -18 -46.5 -48t-110.5 -79t-162 -109.5t-225.5 -162.5t-276.5 -215q-292 -236 -453 -428l-65 -352q193 -33 481 -13q230 17 372 45.5t193 53.5q52 25 50 9q-1 -5 -9 -13q-12 -14 -67 -37t-192.5 -55t-313.5 -50q-309 -28 -522 19
l-31 -160q-40 -192 -46 -208q-6 -14 -16 -17zM41 -6q0 -28 86 -47l53 293q-71 -89 -105 -154.5t-34 -91.5z" />
    <glyph glyph-name="L" unicode="L" horiz-adv-x="974" 
d="M1247 -346q-1025 -498 -1149 -498q-65 0 -84 40.5t-8 117.5q10 69 65 269t148 525t150 537q41 153 77 263t58.5 163.5t44.5 83.5t30.5 34.5t20.5 6.5q24 2 53 18q11 6 10 -7q-2 -27 -32 -54l-10 -8q-26 -18 -48.5 -60.5t-60.5 -152.5q-5 -14 -24.5 -67.5t-25 -69.5
t-21.5 -61t-24.5 -71t-22 -69t-25.5 -85t-25 -91q-252 -927 -268 -1047q-20 -149 30 -149q25 0 60.5 8.5t140.5 48t275 111.5q160 66 320.5 139t252.5 117t105 49q12 2 19 -7q8 -14 -32 -34z" />
    <glyph glyph-name="M" unicode="M" horiz-adv-x="1806" 
d="M1329 -750q-3 -11 -11 -16.5t-13.5 0.5t-1.5 23q1 4 34.5 133t72.5 286t84.5 360t70.5 347q35 203 51.5 310t32.5 239.5t10 190t-33 57.5q-62 0 -218 -148t-378 -450q-131 -180 -244 -355.5t-153.5 -236t-61.5 -60.5q-18 0 -29 13t-13.5 40.5t-1.5 60t6.5 81t12 94.5
t14 109.5t11.5 117.5q4 47 14 150.5t14 158t5 122.5t-10 98.5t-33 30.5q-26 0 -70.5 -46t-94 -123.5t-100 -196.5t-83.5 -249q-40 -160 -58.5 -304.5t-13.5 -238t31 -122.5q25 -29 13.5 -38.5t-34.5 15.5l-4 4q-49 64 -42.5 273.5t63.5 425.5q41 149 109.5 296.5t145 246
t132.5 98.5q20 0 35.5 -15t24 -45.5t14 -62.5t5.5 -81.5t-0.5 -86t-5 -92t-7 -84t-7.5 -77t-6 -57.5q-4 -41 -14 -111t-18 -127t-14 -113t-3.5 -88t14.5 -32l53 89q53 89 155.5 247t205.5 293q477 633 637 633q30 0 48.5 -25.5t25 -79.5t4.5 -123t-14.5 -171t-28.5 -207.5
t-41 -247.5q-30 -177 -77.5 -375.5t-83.5 -325t-79 -269t-49 -163.5z" />
    <glyph glyph-name="N" unicode="N" horiz-adv-x="1406" 
d="M745 -545q-37 0 -64.5 46.5t-43 127t-26.5 188.5t-13.5 231t-4 255t0.5 260q3 346 -5 456q-14 191 -59 191q-53 0 -133.5 -173.5t-146.5 -440.5q-65 -263 -105 -477.5t-30 -268.5q7 -37 -8 -40q-9 -2 -16 17q-4 8 -5 19q-11 82 24.5 317t92.5 445q33 121 68.5 227.5
t77.5 204t87.5 154.5t87.5 57q26 0 47 -20.5t34.5 -62.5t23.5 -84t14.5 -108.5t7.5 -110.5t2.5 -115t-1 -97.5t-1.5 -81.5q-22 -1075 97 -1075q41 0 99.5 70t118.5 184t118 276.5t94 331.5q50 234 72.5 577t6.5 521q-1 22 13 21q15 -2 22 -20q2 -4 2 -9q22 -201 0 -513
t-84 -607q-40 -193 -100 -360.5t-123 -277.5t-126.5 -172.5t-115.5 -62.5z" />
    <glyph glyph-name="O" unicode="O" horiz-adv-x="1099" 
d="M999 178q-63 -44 -145 -86q-47 -164 -133 -358q-28 -62 -65 -126.5t-89 -135.5t-107 -125t-122 -89.5t-131 -35.5q-51 0 -96 19t-85 59.5t-63.5 114.5t-23.5 173q0 145 54.5 306t147.5 307q-45 86 -45 202q0 159 61.5 323t154 285.5t205 199t210.5 77.5
q118 0 174.5 -123.5t56.5 -349.5q0 -341 -92 -676q61 27 119 66q43 28 47 14q3 -14 -27 -36q-3 -3 -6 -5zM436 55q169 -19 365 56q108 379 108 725q0 119 -14 202t-40.5 127t-57 62t-70.5 18q-92 0 -196.5 -80t-188.5 -201t-139.5 -273t-55.5 -285q0 -86 25 -156
q116 171 256 276q34 26 51 19q15 -7 -14 -35q-152 -145 -268 -311q75 -127 239 -144zM676 -240q61 141 110 303q-166 -64 -346 -49q-179 14 -272 142q-180 -286 -180 -574q0 -156 57 -237.5t150 -81.5q61 0 123 33t113 83.5t99 119t82.5 132t63.5 129.5z" />
    <glyph glyph-name="P" unicode="P" horiz-adv-x="1200" 
d="M1155 786q7 77 -12.5 144t-64.5 120.5t-126.5 84t-189.5 30.5q-188 0 -379 -108.5t-320 -278.5q-117 -152 -130 -310.5t81 -256.5q29 -30 5 -36q-26 -7 -58 16q-14 9 -22 22q-37 37 -53.5 103.5t-11 148t44.5 176.5t108 180q151 183 339.5 283t399.5 100q119 0 208.5 -35
t140 -95.5t72.5 -134.5t17 -159q-10 -180 -130 -324.5t-312 -226.5t-420 -92q-35 -176 -60.5 -329.5t-37 -234.5t-15.5 -97q-6 -33 -34 -57q-21 -17 -21 1v5q41 332 117 712h-4q-29 0 -38 21q-8 19 14 27q9 3 22 3h16q5 30 8 39q50 243 94.5 404.5t102.5 292.5q7 15 14 23.5
t12 9.5t8.5 -3t2.5 -15t-6 -26q-94 -264 -177 -692l-8 -33q140 5 277.5 50t250.5 120t188 187t87 241z" />
    <glyph glyph-name="Q" unicode="Q" horiz-adv-x="1251" 
d="M686 -860q2 69 -63 407q-49 -14 -113 -14q-223 0 -339.5 173.5t-78.5 467.5q19 149 83.5 294t151.5 254t187.5 184.5t194.5 99.5q26 10 72.5 3t84.5 -3q42 4 42 -4q-1 -10 -42 -19q-13 -3 -26 -4q-94 -3 -146 -25q-139 -60 -257.5 -185.5t-194.5 -286.5t-97 -328
q-21 -163 21.5 -297.5t132 -209.5t205.5 -75q47 0 110 18l-6 31q-21 108 -57.5 230.5t-50.5 158.5q-8 21 0.5 30.5t25.5 -11.5q16 -24 54 -145t65 -234q2 -16 10 -43q134 61 236 223q76 124 138.5 315.5t72.5 401.5q15 390 -53 508q-22 39 -6 43q17 4 39 -29l8 -12
q28 -53 48 -190t11 -328q-14 -215 -74 -417.5t-149 -324.5q-131 -181 -262 -235q63 -276 69 -414q1 -9 -11 -16t-24 -5t-12 13z" />
    <glyph glyph-name="R" unicode="R" horiz-adv-x="1239" 
d="M63 901q-37 -21 -45 -6t21 39q8 6 18 12q306 170 559 256q75 252 105 320q8 23 28 25q14 2 15 -14q0 -7 -4 -17q-25 -64 -94 -297q170 53 303 53q228 0 341 -54.5t113 -179.5q0 -72 -39.5 -143.5t-108.5 -133.5t-147.5 -112.5t-171.5 -97.5q-120 -61 -538 -268l-41 -160
l616 27q41 1 52 -23q9 -18 -12 -26q-6 -3 -15 -3q-150 -9 -653 -24q-106 -427 -117 -486q-18 -88 -12 -89q2 -1 6 1q11 5 10 -4q-1 -13 -29 -43q-34 -37 -43 -10q-7 20 4 65l142 564q-254 -8 -267 -6q-45 2 -56.5 29t40.5 52q42 17 344 170l62 256q71 295 149 570
q-279 -98 -535 -242zM487 571l-55 -229l477 244q238 120 359 238.5t121 224.5q0 84 -113.5 130t-306.5 46q-117 0 -322 -66q-99 -338 -160 -588zM338 121l35 141q-131 -66 -189 -88q-90 -37 -89 -50q0 -9 50 -9q55 0 193 6z" />
    <glyph glyph-name="S" unicode="S" 
d="M1020 821q89 31 106 109q25 123 -114 147q-83 14 -228.5 -15.5t-289.5 -96.5q-146 -70 -254 -160.5t-131 -188.5q-23 -104 31 -200t210 -240q106 -99 154 -149q145 59 393 134t307 87q38 9 44 -2q5 -8 -15 -15q-8 -4 -21 -6q-61 -13 -297.5 -87.5t-384.5 -137.5
q120 -126 163 -216t28 -187q-12 -80 -77 -138t-160 -83t-201 -15q-145 13 -219 85.5t-60 160.5q35 184 412 379q7 5 24.5 12t22.5 10q-19 20 -141 142q-119 113 -179.5 186t-84 143t-7.5 146q25 114 124 204.5t294 176.5q327 146 551 110q88 -14 124.5 -67.5t20.5 -128.5
q-13 -56 -59 -93t-74 -39q-19 -3 -24.5 11.5t12.5 21.5zM674 -393q12 80 -27 163t-158 212q-15 -6 -47 -25q-193 -105 -286.5 -186.5t-108.5 -163.5q-13 -74 52 -132t186 -67q150 -9 262 50.5t127 148.5z" />
    <glyph glyph-name="T" unicode="T" horiz-adv-x="937" 
d="M664 1206q-12 -47 -19 -84q202 13 561 25q115 4 224.5 7t170.5 4t112.5 2t77 3t36.5 6q34 10 31 -3q-1 -7 -9 -15q-9 -11 -31 -24t-44 -13q-10 -1 -99.5 -2t-227.5 -3.5t-251 -6.5q-344 -13 -561 -29q-52 -245 -94 -573q-21 -163 -58 -401t-65 -412t-31 -197
q-5 -56 -32 -93q-17 -23 -20 -2q-1 4 -1 9q0 114 153 1088q56 362 105 579q-217 -17 -338 -35q-446 -70 -457 -137q-4 -25 -18 -26t-21 18q-2 12 -2.5 24t18.5 26.5t54 30t103.5 36t166.5 43.5q200 47 504 67q17 71 33 115t24 55.5t19 22.5q22 21 38 5q13 -12 0 -23
q-1 -2 -3 -3q-19 -11 -29.5 -28.5t-19.5 -55.5z" />
    <glyph glyph-name="U" unicode="U" horiz-adv-x="1214" 
d="M506 1063q-65 -63 -168 -286t-166 -445q-61 -211 -81.5 -405.5t0.5 -309.5t77 -115q246 0 852 1286l10 21q27 101 31 113q98 348 120 399q18 40 38 44q5 1 12 1q26 0 21 -44q-11 -95 -179 -519l-8 -37q-86 -362 -128.5 -653.5t-41.5 -470.5t24.5 -283.5t67.5 -138.5
q31 -25 24 -45q-6 -19 -37 -4q-11 6 -24 16q-31 26 -55.5 81.5t-41 165t-15 254.5t32.5 367.5t92 485.5q-125 -267 -273 -511t-292 -408.5t-230 -164.5q-43 0 -75 32t-50 101.5t-18.5 171t22.5 250.5t70 330q153 586 350 743q31 23 45 8q12 -12 -6 -30z" />
    <glyph glyph-name="V" unicode="V" horiz-adv-x="1140" 
d="M451 1145q-44 -102 -133 -374.5t-146 -485.5q-114 -420 -121 -652q-2 -21 -1 -47.5t3.5 -49.5t13.5 -38.5t29 -15.5q27 0 72.5 23.5t112.5 78.5t141 132.5t164.5 199t175.5 264.5q208 351 303 662.5t88 490.5q-6 86 -47 86q-19 0 -41 -33q-2 -3 -4.5 -7t-4 -6t-3 -4.5
t-3 -3.5t-3.5 -1q-10 0 -12.5 13t5.5 26q21 46 70 49q38 0 63 -35t27 -76q15 -203 -103 -560t-290 -627q-178 -281 -384 -491t-327 -210q-51 0 -74 48t-20 124q6 123 39 309.5t82 370.5q46 174 139 445t141 383q19 42 39 34q14 -5 10 -20q-1 -1 -1 -2z" />
    <glyph glyph-name="W" unicode="W" horiz-adv-x="1499" 
d="M123 4q0 -79 19.5 -132.5t52.5 -53.5q17 0 36 20t41 60t42.5 82t52 105.5t57.5 111.5q23 42 52 97.5t43.5 83.5t32 57t30 40.5t24.5 11.5q77 0 68 -145q-7 -109 -61 -345t-62 -337q-11 -150 7.5 -216.5t70.5 -66.5q64 0 204 146.5t267 400.5q136 273 226.5 620t90.5 560
q0 288 -42 317q-10 6 -23 2q-23 -8 -22 7q2 17 24 27q10 6 20 5q12 -1 22.5 -10.5t22 -34.5t20 -63t14 -102t5.5 -146q0 -309 -88.5 -625.5t-232.5 -603.5q-126 -248 -260 -391t-240 -143q-51 0 -84.5 30t-45 76t-15 101t5.5 106q14 118 69.5 362.5t61.5 323.5q4 54 1 77
t-16 23q-31 0 -165 -278q-7 -15 -37.5 -80t-51.5 -104.5t-51 -91.5t-56 -78.5t-48 -26.5q-56 0 -89.5 57t-33.5 164q0 134 45.5 322t136.5 393q74 165 155 289.5t148 183.5q22 18 20 1q-6 -44 -116 -199q-1 -1 -2 -3q-38 -55 -70 -112.5t-49 -93t-61 -132.5
q-73 -167 -119.5 -348t-46.5 -301z" />
    <glyph glyph-name="X" unicode="X" horiz-adv-x="798" 
d="M115 1157q14 -80 80.5 -361t130.5 -515q5 -26 16 -62q43 62 86 119q107 146 254 343t226.5 304t84.5 117q10 16 33 13q23 -4 17 -23q-2 -6 -7 -13q-50 -64 -557 -753l-119 -164q67 -214 161 -443.5t159 -351.5q55 -104 133 -208.5t123 -151.5q34 -32 31 -54
q-2 -14 -19 -4q-1 0 -12 7.5t-23 17t-22 20.5q-69 69 -184 240q-21 29 -60 92q-173 298 -325 780q-39 -57 -67.5 -102.5t-58.5 -95.5t-44 -72q-55 -87 -85 -164t-22 -112q5 -19 -6 -18q-14 2 -28 31q-11 26 -11 58q0 107 303 535l-29 104q-69 240 -115 443t-60.5 299.5
t-12.5 124.5q4 46 16 48q8 1 13 -28z" />
    <glyph glyph-name="Y" unicode="Y" horiz-adv-x="1304" 
d="M1178 -338q-201 -14 -283 -27q-49 -109 -99.5 -210.5t-109 -206t-116 -193t-121 -167t-124 -133.5t-124.5 -86.5t-123 -31.5q-121 0 -184.5 72t-55.5 201q4 82 46.5 172.5t131.5 188t211 175.5q320 203 637 256q119 253 187 455q88 266 161 560.5t78 377.5q2 42 -3 60
t-19 18q-22 0 -70 -75q-37 -56 -273 -468q-54 -96 -104 -182q-66 -113 -130 -229t-103.5 -189.5t-78.5 -145t-63.5 -111.5t-49 -72.5t-44.5 -45t-41 -12.5q-93 0 -145.5 96.5t-52.5 267.5q0 32 2.5 64.5t8.5 67t11.5 62.5t16 65.5t17 59t19.5 60t18 53t19.5 52.5t16.5 45
q20 56 48 117t55.5 115.5t35.5 72.5q17 39 32 38q13 -1 6 -29q-2 -7 -5 -15q-95 -212 -140 -328q-114 -303 -114 -491q0 -149 39.5 -247.5t95.5 -98.5q24 0 55 35t76 112.5t89.5 161.5t119 223t141.5 256q259 456 326 563q118 187 162 187q65 0 59 -121q-22 -350 -231 -938
q-79 -216 -179 -441q101 11 154 11q31 2 97 0.5t75 -6.5q14 -8 -15 -15q-17 -4 -46 -6zM76 -1343q80 0 181 83t203.5 224t199 308t184.5 353q-312 -56 -600 -241q-106 -67 -187 -157.5t-123.5 -179.5t-46.5 -165q-7 -112 44 -168.5t145 -56.5z" />
    <glyph glyph-name="Z" unicode="Z" horiz-adv-x="1284" 
d="M1327 903q105 -7 -8 -135q-73 -79 -690 -596q-69 -59 -206 -176t-241 -205.5t-141 -118.5q121 26 316 39.5t429 1.5q394 -21 687 -87t417 -171q35 -31 24 -43q-11 -10 -39 13q-2 1 -3 2q-97 84 -423 154.5t-665 84.5q-411 18 -749 -47q-27 -5 -42.5 8.5t-10.5 37.5t32 44
q26 19 78.5 67.5t185 163.5t328.5 271q226 180 427 352t247 223q63 68 45 80q-4 3 -12 4q-64 10 -281.5 7.5t-402.5 -23.5q-471 -52 -545 -184q-35 -62 25 -127q21 -22 3 -35q-19 -13 -46 6q-38 27 -44 81q-10 94 108 169q153 96 491 131q354 35 706 8z" />
    <glyph glyph-name="bracketleft" unicode="[" horiz-adv-x="272" 
d="M102 -317q20 0 20 -7q0 -9 -22 -16q-5 -2 -10 -2q-14 -4 -49 -0.5t-39 16.5q-4 9 5.5 82t33 234.5t37.5 261.5q17 120 29 275t19.5 234.5t18.5 82.5q14 4 62 -2.5t61 -5.5q24 0 23 -12q-2 -14 -29 -13q-77 0 -82 -2q-4 -2 -9.5 -77.5t-16.5 -220.5t-25 -265
q-15 -128 -40.5 -266.5t-40.5 -211.5t-13 -77q1 -2 1.5 -3.5t2.5 -2.5t3.5 -1.5t4.5 -1t6.5 -0.5h8.5t10.5 0.5t13.5 0.5h16z" />
    <glyph glyph-name="backslash" unicode="\" horiz-adv-x="245" 
d="M6 1165q13 4 29 -16.5t34.5 -70.5t34.5 -122q100 -446 132 -964q30 -435 30 -490q0 -74 -20 -80q-12 -3 -25.5 12.5t-13.5 30.5q-4 54 -4 134q0 153 -19 405q-56 619 -123 957q-21 107 -54 179q-6 14 -6.5 17.5t5.5 7.5z" />
    <glyph glyph-name="bracketright" unicode="]" horiz-adv-x="274" 
d="M193 827q-20 1 -20 8q0 9 24 16q4 1 8 1q14 4 49 0.5t39 -16.5q4 -9 -6.5 -84t-34 -231t-37.5 -263q-16 -119 -29 -275t-20.5 -235t-18.5 -82q-14 -5 -62.5 2.5t-59.5 7.5q-24 -1 -23 11q0 12 25 12h4q77 0 82 2q4 2 9.5 77.5t17 220.5t26.5 265q15 128 40.5 266.5
t40.5 211.5t13 77q-1 2 -1.5 3.5t-2 2.5t-3 1.5t-5 1t-6.5 0.5h-8.5t-10.5 -0.5t-13.5 -0.5h-16.5z" />
    <glyph glyph-name="underscore" unicode="_" horiz-adv-x="653" 
d="M18 -35q-12 -3 -19 6.5t-6 20.5t7 12q11 4 436 31q23 4 66.5 1t46.5 -13q1 -4 -4 -6.5t-15 -4.5t-21 -3.5t-28.5 -3.5t-31.5 -5q-31 -4 -220.5 -18t-210.5 -17z" />
    <glyph glyph-name="grave" unicode="`" horiz-adv-x="172" 
d="M178 324q-14 0 -84 79q-19 19 -41.5 38t-36 29.5t-14.5 12.5t1.5 6.5t9 8.5t14.5 4q20 0 93 -73t73 -85q0 -20 -15 -20z" />
    <glyph glyph-name="a" unicode="a" horiz-adv-x="913" 
d="M344 -10q94 0 322.5 93.5t361.5 166.5q10 6 25 2q18 -5 -6 -21q-115 -75 -363 -179.5t-342 -104.5q-68 0 -98.5 31t-30.5 71q0 18 2 36t3 22.5t-1 9.5q-9 9 -84 -31q-43 -25 -86 -43t-59 -18q-20 0 -34.5 10t-14.5 20q0 75 102 150q79 61 141 61q33 0 54 -39
q16 -28 5 -33q-1 -1 -3 -1q-10 0 -24 20t-26 20q-38 0 -118 -55q-37 -24 -66 -60t-29 -50q0 -7 9 -7q25 0 110 43q18 9 43 21t38.5 18.5t29 13.5t26 10t17.5 3q26 0 26 -18q0 -4 -10 -39t-10 -62q0 -26 25 -43.5t65 -17.5z" />
    <glyph glyph-name="b" unicode="b" horiz-adv-x="677" 
d="M809 262q25 0 27 -13q1 -8 -11 -11l-8 -2q-103 -16 -308.5 -65t-291.5 -89q-6 -20 -31 -68q-23 -38 -51.5 -66.5t-54.5 -42t-50.5 -19t-41.5 -1.5t-25 15q-9 15 7.5 44t67.5 70.5t126 75.5l8 4q23 62 8 86q-18 28 -98 -43q-96 -88 -121 -84q-33 4 -6 109q1 3 91 334.5
t149 513.5q33 101 55 140t43 21q14 -12 9.5 -54t-26.5 -83q-15 -30 -25 -55t-20 -55.5t-12 -36.5q-68 -195 -136 -422.5t-93 -302.5q-1 -4 -4 -13t-5.5 -17.5t-4.5 -17t-2 -13.5t3 -5q12 0 82 70q50 49 92 64.5t60 -1.5q34 -24 16 -112q138 53 330 99t252 46zM143 33l7 14
q-66 -39 -109.5 -74.5t-36.5 -48.5q5 -7 30.5 4.5t57.5 40.5t51 64z" />
    <glyph glyph-name="c" unicode="c" horiz-adv-x="626" 
d="M-59 41q-5 37 20.5 82.5t79.5 89.5q79 66 152 66q31 0 36 -24q3 -16 -7 -19q-3 -2 -7 0q-52 19 -143 -48q-92 -68 -88 -133q1 -31 40 -45t93 -8q102 11 297 92t334 156q11 6 26 1q16 -5 -6 -20q-117 -74 -326.5 -160.5t-312.5 -101.5q-78 -11 -129.5 5.5t-58.5 66.5z" />
    <glyph glyph-name="d" unicode="d" horiz-adv-x="638" 
d="M283 254q72 123 315 524l49 133q66 177 81 212.5t28 35.5q14 0 31 -23t14 -38q-4 -18 -135 -256q-17 -52 -64.5 -192t-76 -225t-69.5 -217t-73 -247q-29 -102 -49.5 -189t-30.5 -144t-14.5 -98t-3 -59.5t7.5 -19.5q11 -3 2 -16q-13 -17 -31 -8q-55 28 86 555
q80 298 199 651q-141 -238 -236 -389q42 -19 66 -39q9 -9 3.5 -17t-17.5 -2l-70 31q-189 -296 -236 -361t-75 -65q-26 0 -47 32.5t-21 80.5q0 83 36.5 166.5t105 140.5t147.5 57q34 0 78 -14zM-16 -172q16 0 116.5 145t163.5 252q-24 4 -37 4q-73 0 -135.5 -53.5
t-95.5 -127.5t-33 -142q0 -78 21 -78z" />
    <glyph glyph-name="e" unicode="e" horiz-adv-x="604" 
d="M141 -25q-78 -6 -111 50t1 127q28 65 78.5 97t87.5 25q29 -4 37.5 -27.5t-3.5 -58.5q-18 -44 -65.5 -78t-108.5 -55q12 -44 72 -41q20 2 42 6.5t54 16t60 22.5t80.5 33.5t94.5 41t121.5 53.5t143.5 63q20 9 24 -5q4 -11 -8 -16q-107 -47 -255.5 -119t-221 -101.5
t-123.5 -33.5zM68 137q-15 -35 -15 -57q45 15 90.5 52.5t57.5 70.5q5 13 2 25.5t-13 15.5q-22 6 -60.5 -21.5t-61.5 -85.5z" />
    <glyph glyph-name="f" unicode="f" horiz-adv-x="598" 
d="M754 225q-5 -8 -78 -18q-19 -2 -59 -10t-140 -36.5t-209 -68.5q-121 -47 -190 -80q-21 -135 -31 -221q77 -59 131.5 -147.5t54.5 -192.5q0 -76 -35 -175t-87.5 -171t-96.5 -72q-22 0 -36 33.5t-17 100.5t-3 129.5t7.5 158.5t12 148t12.5 135q4 32 4 45l-41 20
q-24 11 -52.5 22.5t-44 18t-30.5 13.5t-21 12.5t-6 11.5q0 40 221 148q8 59 91 546q108 633 204 666q20 8 37 -3t23 -36q2 -9 3 -14.5t-2 -8t-4 -3.5t-7.5 -1.5t-8.5 -0.5q-84 -5 -180 -592q-26 -162 -56.5 -330t-35.5 -195l119 54q99 43 225 80.5t208 54.5t99 16
q39 -5 19 -37zM197 -541q0 180 -154 293l-4 -59q-25 -281 -28 -440t20 -166q13 0 40 31t55.5 79.5t49.5 120t21 141.5zM-2 -174q3 40 16 160q-45 -23 -80.5 -44t-52 -33t-16.5 -15q0 -4 16 -10.5t50.5 -22t66.5 -35.5z" />
    <glyph glyph-name="g" unicode="g" horiz-adv-x="901" 
d="M-4 -848q-49 0 -89 35t-40 106q0 120 82.5 274.5t253.5 328.5q91 94 239 178q-6 166 -80 166q-9 0 -17.5 -2.5t-20 -9.5t-16.5 -10t-20 -14.5t-18 -13.5q-27 -23 -43.5 -35.5t-41 -25t-44.5 -12.5q-41 0 -51 42q-12 49 28 96q23 26 56 42q41 20 75.5 17t55 -14t31.5 -26
q4 0 14 1t15 1q47 0 78.5 -47t37.5 -135q153 78 315 121t236 43q22 0 27 -17q0 -15 -17 -18q-84 0 -244 -42.5t-315 -129.5v-2q0 -146 -42.5 -319t-114.5 -299q-71 -127 -160 -203t-170 -76zM287 -541q71 123 114 287t43 274v9q-115 -67 -206 -162q-171 -172 -250.5 -325
t-79.5 -255q0 -45 18.5 -70.5t53.5 -25.5q63 0 148.5 69.5t158.5 198.5zM244 223q36 32 63 43q-66 34 -125 -6q-59 -38 -62 -80q1 -26 21 -28q7 0 15 3.5t19.5 12t20 15t24 20t24.5 20.5z" />
    <glyph glyph-name="h" unicode="h" horiz-adv-x="786" 
d="M113 670q118 553 180 553q12 0 17 -25.5t1 -42.5q-3 -11 -11 -28.5t-22 -44t-22 -44.5q-2 -6 -17 -63.5t-38 -153t-41 -178.5q-78 -350 -111 -612q18 12 46.5 31.5t43 29t35.5 23t33 20t26.5 14t25.5 10.5t20 3q27 0 35 -19t8 -57v-16.5v-15v-12t1 -11t2.5 -8.5t4 -7
t5.5 -4t8 -3t11 -1q64 0 170.5 41.5t186 84t192.5 108.5q19 9 28 -5q9 -15 -18 -28q-47 -25 -125 -70.5t-120.5 -68t-100.5 -50t-107 -39t-98 -12.5q-42 0 -65 26t-23 66q0 7 0.5 16.5t1 14.5t0 10.5t-2.5 8t-5 2.5q-14 0 -77.5 -35.5t-127.5 -77.5q-33 -25 -45 -25
q-10 0 -15 18t-1 48q37 282 111 629z" />
    <glyph glyph-name="i" unicode="i" horiz-adv-x="618" 
d="M758 258q8 0 11.5 -11t-3.5 -14q-8 -2 -47 -20t-123.5 -52t-187.5 -69q-218 -74 -267 -74q-36 0 -52.5 20.5t-16.5 49.5q0 61 20 119q7 24 17.5 35.5t35.5 15.5q5 1 10 -2.5t6 -11t-5 -19.5q-33 -66 -41 -135q-1 -18 4.5 -27.5t13.5 -9.5q64 0 258 68q84 30 177 65.5
t139 53.5t51 18zM186 403q-7 3 -12 23t-2 31q3 10 14 21.5t19 10.5q13 -3 21 -18t5 -29q-4 -13 -20 -27t-25 -12z" />
    <glyph glyph-name="j" unicode="j" horiz-adv-x="585" 
d="M143 0l-4 -16q130 72 257.5 122t162.5 50q14 0 18 -12q4 -11 -8 -11q-37 0 -170 -55.5t-266 -136.5q-83 -462 -174 -660q-66 -136 -154 -206t-174 -70q-50 0 -89.5 34.5t-39.5 106.5q0 119 93.5 289t265.5 344q86 90 231 176q35 229 37 281q1 21 23 18q23 -3 29 -24
q2 -6 1 -13q-3 -21 -10 -61t-16.5 -88t-12.5 -68zM-82 -696q50 107 95 273.5t73 332.5q-112 -73 -199 -160q-170 -173 -257 -341t-87 -269q0 -45 18.5 -71.5t53.5 -26.5q41 0 95 28.5t113 90.5t95 143zM184 395q-9 1 -15.5 13.5t-6.5 23.5q2 10 17 31.5t22 21.5q6 0 12 -14
t4 -22q0 -15 -10 -35q-13 -19 -23 -19z" />
    <glyph glyph-name="k" unicode="k" horiz-adv-x="753" 
d="M397 383q-6 0 -12.5 4t-7.5 4q-2 0 -34 -16t-76.5 -40t-76.5 -42q-99 -62 -114 -76q-4 -13 -8 -43q50 -18 254 0q224 21 430 72q14 3 18.5 -5t0 -18t-12.5 -12q-147 -48 -434 -78q-172 -16 -265 -4l-20 -117q-8 -50 -13 -95.5t-6 -70t-2.5 -43.5t-4 -25.5t-9.5 -6.5
q-9 0 -13.5 17.5t-4 52.5t4 78.5t9.5 105.5q8 71 14 112q-25 8 -32 23q-10 31 49 82q25 167 88 432q48 213 84.5 338.5t58.5 169t41 43.5q11 0 16 -26.5t0 -39.5q-3 -11 -11 -28.5t-22 -44t-22 -44.5q-3 -5 -18.5 -64t-38.5 -152.5t-41 -178.5q-15 -66 -76 -360q12 10 37 24
q49 32 111.5 66t104 53t48.5 19q10 0 20.5 -13.5t10.5 -21.5q0 -9 -7 -20t-18 -11z" />
    <glyph glyph-name="l" unicode="l" horiz-adv-x="266" 
d="M-2 -512q-14 -1 -24 24.5t-13.5 76.5t2.5 128q31 446 150 961q125 553 184 553q12 0 17 -27.5t-1 -40.5q-3 -11 -11 -28t-22 -43.5t-22 -44.5q-3 -6 -18 -63.5t-38.5 -154t-41.5 -178.5q-123 -575 -158 -950q-9 -111 1 -190q1 -8 1.5 -11t0 -6.5t-2 -4.5t-4.5 -1z" />
    <glyph glyph-name="m" unicode="m" horiz-adv-x="1222" 
d="M705 -106q-38 0 -42 43t17 147q21 113 24 138.5t-4 31.5q-10 6 -53.5 -35.5t-85.5 -93.5q-48 -58 -74.5 -78.5t-46.5 -17.5q-12 2 -16.5 14.5t-1.5 50t16 107.5q35 173 11 188q-13 7 -27.5 -3t-47 -53.5t-87.5 -131.5q-32 -54 -62.5 -108t-46.5 -84.5t-30.5 -56t-24 -36
t-19.5 -10.5q-26 0 -20 45q23 142 29 276q1 19 15 27t27 -1t11 -30q-3 -27 -18.5 -105.5t-18.5 -94.5q-2 -15 13 6q3 5 112 188q77 127 121 174t78 41q40 -8 41.5 -70.5t-21.5 -162.5l-18 -101q-5 -26 3.5 -29t28.5 21q29 29 43 47q137 166 183 166q16 0 25.5 -13.5
t9.5 -31.5q0 -40 -29 -176q-32 -146 -10 -153q2 -1 4 -1q65 0 223 84t410 238q5 3 15.5 0t13 -10t-12.5 -17q-503 -329 -657 -329z" />
    <glyph glyph-name="n" unicode="n" horiz-adv-x="905" 
d="M119 240q1 4 3 7t3.5 4.5t5 3t5.5 1.5t6 1t5 1q19 0 17 -22q-2 -17 -9.5 -44.5t-16 -53t-9.5 -29.5q-2 -3 0 -6t6 -3q5 0 107 50q101 53 131 53q24 0 39.5 -18t15.5 -48q-6 -92 16 -94q27 -6 109.5 18t163.5 58l315 131q13 6 18 -8q5 -15 -12 -23q-47 -24 -309 -137
q-90 -38 -177.5 -62t-129.5 -16q-56 10 -49 109q3 41 -6 47q-13 8 -72 -23q-153 -74 -164 -74t-30 10t-19 21q0 4 7 26t16.5 56.5t13.5 63.5z" />
    <glyph glyph-name="o" unicode="o" horiz-adv-x="567" 
d="M-10 84q17 37 55 90q-21 21 -27 35q-28 58 12.5 114t108.5 56q67 0 106.5 -58t39.5 -155v-6q16 0 26 2q72 6 190 34t189 54q12 5 18 -9q3 -9 -3 -12q-54 -22 -187.5 -59.5t-212.5 -44.5q-8 -2 -22 -2q-13 -140 -97.5 -248t-160.5 -108q-45 0 -68 45.5t-15 120t48 151.5z
M16 -197q72 0 140.5 94.5t81.5 225.5q-96 0 -158 29q-38 -54 -49 -76q-36 -71 -46.5 -137t0 -101t31.5 -35zM154 242q0 -2 -6.5 -9l-19.5 -21t-24 -28q55 -24 138 -24v20q0 76 -32 120t-77 44q-44 0 -71.5 -35.5t-6.5 -79.5q1 -3 17 -24q48 51 63 51q19 0 19 -14z" />
    <glyph glyph-name="p" unicode="p" horiz-adv-x="819" 
d="M432 197q-18 0 -50 -21.5t-74.5 -63t-96.5 -117t-105 -171.5q-65 -219 -94 -299q-39 -112 -57.5 -154.5t-28.5 -42.5q-9 -1 -17.5 6.5t-10.5 18.5q0 9 10.5 54t42.5 140t76 191q14 34 53 110q57 194 117 537q3 20 20 16q18 -4 19 -24v-6q-26 -179 -91 -410
q82 126 158.5 196t132.5 70q24 0 46 -29.5t22 -80.5q0 -5 -1 -15.5t-1 -15.5q244 119 442 174q20 5 32 -6q10 -10 -9 -14q-203 -56 -475 -197q-24 -84 -89 -152q-53 -53 -108 -73.5t-88 -10t-33 38.5q0 35 74 91.5t196 119.5q11 45 13 70q1 32 -6 51t-19 19zM365 -78
q39 36 61 88q-205 -109 -205 -151q0 -12 15 -14.5t50 16t79 61.5z" />
    <glyph glyph-name="q" unicode="q" horiz-adv-x="516" 
d="M211 100q-5 1 -6.5 4.5t-1 7t2 8t1.5 5.5q0 38 -8 61q-13 41 -25 43q-7 0 -20.5 -8.5t-39.5 -39t-53 -77.5q-80 -137 -86 -200q-5 -35 7 -35q29 0 170 141q59 61 131 158q26 124 33 137q6 10 18 10q15 0 31 -32q7 -20 6.5 -28t-10.5 -39q-2 -7 -3 -11
q-10 -30 -21.5 -74.5t-21 -84.5t-27 -112t-30.5 -124q-88 -366 -108 -525q-5 -37 -7.5 -71.5t-2.5 -52t-1 -31.5t-4 -18.5t-10 -4.5q-43 0 -16 205q27 201 102 524q11 46 21 92t20 91.5t14 64.5q-98 -111 -183.5 -182.5t-107.5 -71.5q-18 0 -28 21t-6 59q9 87 92 229
q39 68 68.5 101.5t54.5 33.5q40 0 63 -81q12 -49 12 -70q-4 -23 -20 -23z" />
    <glyph glyph-name="r" unicode="r" horiz-adv-x="724" 
d="M201 -63q-24 3 -38.5 19.5t-13 52t24.5 83.5q35 79 35 82q0 13 -49 31q-38 14 -50.5 46.5t-3.5 67.5q12 50 46.5 73t62.5 18q13 -3 25.5 -17.5t11.5 -25.5q-8 -71 -94 -119q7 -7 18 -10q57 -23 71.5 -32.5t14.5 -23.5q0 -7 -5.5 -19.5t-19.5 -39.5t-24 -47
q-16 -32 -21 -51.5t0.5 -30t22.5 -12.5q97 -12 285 61t338 201q16 15 29 5q9 -7 -3 -18q-101 -96 -242.5 -169t-253 -103t-167.5 -22zM147 309q-7 -21 -2 -37q72 45 76 97q0 6 -4 8q-15 4 -38.5 -19.5t-31.5 -48.5z" />
    <glyph glyph-name="s" unicode="s" horiz-adv-x="501" 
d="M225 514q-56 -33 -80.5 -73t-15.5 -79q5 -21 33 -92.5t43 -115.5q122 98 235 149q5 3 19 5t20 1q14 -5 -10 -17q-5 -3 -6 -3q-92 -36 -246 -174q45 -148 45 -267q0 -77 -30 -145t-76 -111t-97.5 -67.5t-97.5 -24.5q-86 0 -111 74q-30 93 48 236q57 104 161 208
q59 58 111 105q-6 18 -36 99t-38 116q-22 79 16 140.5t89 66.5q38 5 38 -13q0 -11 -14 -18zM225 -125q0 84 -41 209l-88 -86q-165 -166 -202 -318q-23 -95 14 -131q13 -14 33 -14q103 0 193.5 102t90.5 238z" />
    <glyph glyph-name="t" unicode="t" horiz-adv-x="344" 
d="M39 -530q-14 -3 -24 22t-15 78t-4 127q4 135 30 401t66 484q16 84 43 204h-68q-260 0 -315.5 4t-60.5 25q-3 13 27 27t42 6q32 -19 95 -19l290 -2q31 124 63 210.5t54.5 122.5t38.5 36q11 0 19.5 -26.5t5.5 -41.5q-2 -8 -5 -9.5t-7 -0.5t-10.5 -5.5t-14.5 -22.5
q-3 -4 -15 -37.5t-32.5 -97t-38.5 -128.5q20 0 101.5 -3t199.5 -3q29 0 57.5 0.5t48.5 1t39.5 0.5t32 0.5t24 0t18.5 -1.5t12.5 -2.5t8 -4t3.5 -6.5q2 -12 -27 -17q-34 -6 -223 -6h-308q-38 -154 -49 -227q-43 -241 -75 -493q-14 -101 -23.5 -269.5t-1.5 -236.5
q2 -12 3.5 -23.5t3.5 -19t3.5 -14.5t2.5 -11.5t1 -8t-0.5 -5.5t-2.5 -4t-5 -2.5t-8 -1.5z" />
    <glyph glyph-name="u" unicode="u" horiz-adv-x="937" 
d="M268 -35q23 109 76 209q-45 -51 -76 -84q-55 -58 -125.5 -111t-97.5 -53q-46 0 -41 70q5 53 47 145q19 42 44 77t40 38q13 1 19 -7.5t6 -15.5t-13 -22.5t-33 -41t-32 -48.5q-28 -55 -41 -107q-4 -23 0 -35t12 -12q23 0 88 51.5t103 92.5q16 17 42.5 46.5t38.5 42.5
t28.5 28.5t27 20.5t18.5 3q23 -5 -7 -66q-4 -10 -7 -16q-53 -113 -78 -209q-23 -96 27 -96q67 0 201 72.5t303 181.5t225 139q15 6 27 -1q11 -5 -9 -19q-32 -20 -129.5 -86.5t-170 -113t-165 -101t-166 -84t-120.5 -29.5q-96 0 -62 141z" />
    <glyph glyph-name="v" unicode="v" horiz-adv-x="610" 
d="M145 143q14 0 57.5 41t71.5 84q-8 11 -8 27q0 12 14.5 29.5t28.5 17.5q20 0 17 -23q-2 -17 -19 -51q47 -42 203 -47q122 -3 221 31q12 2 22 -10q7 -8 -3 -13q-86 -43 -203 -41q-180 0 -254 60l-25 -35q-21 -27 -64 -70t-67 -43q-22 0 -32.5 32.5t-6.5 64.5q2 24 14 42.5
t31 18.5q8 0 8.5 -7t-4.5 -21q-4 -14 -6 -23q-6 -26 -5 -45t9 -19z" />
    <glyph glyph-name="w" unicode="w" horiz-adv-x="849" 
d="M233 391q-50 -86 -90.5 -193.5t-42.5 -154.5q-3 -57 23 -57q10 0 21.5 6t33.5 25t34 30.5t48 46.5q55 51 80.5 69.5t44.5 18.5q18 0 31.5 -12t13.5 -27q0 -9 -4 -46t-4 -44q-1 -18 1 -23t9 -5q36 0 90 69q35 47 43 72q16 37 27 37q6 1 14.5 -3.5t30.5 -10t59 -3.5
q59 4 148 26t141 40q20 6 24 -3t-14 -18q-36 -21 -116 -44t-150 -29q-48 -3 -73.5 0t-36 5t-11.5 1q-2 -1 -7.5 -13t-18 -34.5t-25.5 -42.5q-22 -34 -57 -59t-68 -25q-47 0 -47 51q0 17 5 51t5 45q0 17 -8 17q-5 0 -9 -2.5t-11.5 -10t-16.5 -17t-27.5 -27.5t-39.5 -38
q-67 -64 -99 -87.5t-55 -26.5q-33 -5 -50.5 19t-17.5 54q0 42 26.5 126t62.5 163q28 59 42.5 81t26.5 22q13 0 16.5 -3.5t-2.5 -15.5z" />
    <glyph glyph-name="x" unicode="x" horiz-adv-x="1179" 
d="M145 -168q116 69 226 168q-99 69 -146 179.5t-28 211.5q1 6 5.5 9.5t10 3.5t10.5 -1.5t8 -6t2 -11.5q-15 -97 35.5 -193.5t143.5 -154.5q209 202 340 440q8 16 21 -1q16 -22 5 -42q-136 -247 -325 -418q80 -34 155 -34q55 0 123 16.5t153.5 52.5t139 61t153.5 76t123 62
q9 6 25 1q18 -6 -6 -20q-508 -309 -703 -309q-113 0 -208 53q-105 -92 -234 -168q-23 -13 -37 1q-13 13 8 24z" />
    <glyph glyph-name="y" unicode="y" horiz-adv-x="860" 
d="M451 213q-24 0 -58 -30t-96 -97q-65 -70 -112 -109.5t-79 -39.5q-23 0 -36 20t-4 53q27 100 47 160q5 17 8 34t3.5 25t4 14t10.5 7q13 1 21 -6.5t8 -14.5q0 -14 -25 -79q-35 -101 -39 -119q-11 -47 9 -47t67 35t92 87q13 15 31 34.5t28 30.5t23.5 25.5t21.5 22t18.5 17
t17.5 14t15.5 9t16 6t15.5 1.5q58 0 63 -151q110 65 213 106t137 41q22 0 28 -17q0 -15 -17 -18q-37 0 -143 -43t-218 -114q-3 -144 -51 -332t-117 -311q-72 -127 -159.5 -203t-167.5 -76q-49 0 -89 35t-40 106q0 118 92 282.5t266 340.5q93 96 227 178q-2 64 -8 93.5
t-24 29.5zM317 -545q68 118 115.5 297t50.5 293q-109 -70 -198 -162q-172 -173 -259 -336.5t-87 -263.5q0 -45 18 -70.5t53 -25.5q63 0 148.5 69.5t158.5 198.5z" />
    <glyph glyph-name="z" unicode="z" horiz-adv-x="552" 
d="M133 233q-27 14 -14 33q12 17 30 12q7 -2 11 -8q8 -15 31 -18.5t61 2t113 22.5q62 13 70 -18q9 -37 -67 -99q-36 -30 -87 -59q-65 -37 -115 -68t-55 -34q121 -1 257 -26.5t195 -53.5q38 -20 29 -30q-9 -9 -37 1q-175 57 -455 70q-55 3 -59 18q-3 15 30.5 39.5
t170.5 106.5q164 96 156 121q-5 10 -31 2q-67 -22 -129.5 -27t-104.5 14z" />
    <glyph glyph-name="braceleft" unicode="{" horiz-adv-x="731" 
d="M735 870q-4 0 -11 20.5t-24 41t-47 20.5q-55 0 -112.5 -70.5t-87.5 -197.5q-37 -152 -68.5 -215t-79.5 -63q-18 0 -27 -1t-13 -7.5t-4.5 -11.5t-0.5 -21q0 -29 -25.5 -80.5t-72.5 -102.5q-121 -130 -121 -225q0 -36 22 -56t58 -20q24 0 62.5 19.5t49.5 13.5
q16 -7 -11 -33q-49 -39 -105 -43q-55 0 -86 33t-31 86q0 16 3 32.5t6.5 29t13 31t14 28t20 31.5t20.5 29.5t25 34.5t25 34q71 96 85 122q29 54 11 83q-10 17 -1.5 26.5t32.5 5.5q44 -10 83 41t69 187q32 152 95 236.5t146 84.5q68 0 94 -58q18 -37 5 -58q-4 -7 -11 -7z" />
    <glyph glyph-name="bar" unicode="|" horiz-adv-x="247" 
d="M29 -389q-6 -37 -19 -40q-11 -3 -8 32q1 21 16.5 141t35.5 265.5t26 199.5q9 67 75.5 451.5t67.5 410.5q2 33 22 42q17 7 22 -15q3 -15 -3 -39q-14 -71 -114 -681.5t-121 -766.5z" />
    <glyph glyph-name="braceright" unicode="}" horiz-adv-x="681" 
d="M143 -193q-36 0 -63 12.5t-42.5 35t-21.5 36t-12 33.5q-8 25 13 33q17 6 21 -6q1 -1 1 -2q0 -10 3 -23.5t11.5 -32t27.5 -31t46 -12.5q103 0 160 273q5 25 11 48.5t12 41.5t11.5 33.5t11.5 28.5t10.5 22t10 17.5t8.5 12.5t7 9t4 6q4 7 -9 33t-8 47q2 8 10 21t21.5 31.5
t27 36.5t34.5 44.5t35.5 44.5t38.5 47.5t36 44.5q107 130 107 166q0 21 -54 21q-10 0 -30.5 -6t-36.5 -11t-32.5 -6t-18.5 8q-5 13 15.5 26t48.5 20.5t48 7.5q34 0 65 -14t31 -42q0 -75 -88 -176q-186 -213 -213 -260q-9 -16 -10.5 -26t6.5 -13.5t14.5 -4.5t20.5 0t17 1
q15 0 16 -15q2 -21 -30 -32q-7 -3 -15 -4q-37 -7 -55.5 -55t-48.5 -189q-5 -22 -7 -33q-28 -133 -73 -190.5t-93 -57.5z" />
    <glyph glyph-name="asciitilde" unicode="~" horiz-adv-x="524" 
d="M14 348q-14 0 -14 27q0 22 67.5 53t116.5 31q78 0 109 -76q5 -15 8 -21t10 -16.5t17 -15t24 -4.5q21 0 95.5 30.5t76.5 30.5q21 0 21 -16q0 -11 -83.5 -46.5t-117.5 -35.5q-66 0 -92 76q-18 53 -70 53q-32 0 -98.5 -35t-69.5 -35z" />
    <glyph glyph-name="cent" unicode="&#xa2;" horiz-adv-x="489" 
d="M82 256q-21 -63 0.5 -105.5t62.5 -52.5q1 3 4.5 12t4.5 15q-31 7 -38.5 42t9.5 87q26 67 66.5 123.5t76.5 56.5q9 0 13 -2l16 39q-12 6 -29 6q-47 0 -101.5 -68t-84.5 -153zM281 432q10 0 30 -8q-75 -181 -94 -244q-13 -39 -16 -51q-20 -4 -31 -4h-16l16 41
q57 151 111 266zM309 186q-50 -45 -108 -57l-13 -33q32 4 74 21.5t66 34.5q17 13 18 24.5t-11 13.5t-26 -4zM326 459q-2 1 -12.5 6t-16.5 6q10 23 26 55t21 43q18 46 27 43q11 -3 0 -41l-4 -12zM135 0q-8 0 -10 8t2.5 30t17.5 60q12 -4 23 -4q12 0 20 2q-34 -96 -53 -96z
M389 377q2 12 -17 38.5t-46 43.5l-15 -35q22 -12 38 -29t18 -30q1 -14 7 -13q9 1 15 25z" />
    <glyph glyph-name="sterling" unicode="&#xa3;" horiz-adv-x="602" 
d="M131 289q-13 1 -14 17q-1 20 22 22h6q4 -1 14 -1.5t26 -1t28 -1.5l27 47q78 138 131.5 185.5t115.5 47.5q37 0 57.5 -21.5t14.5 -62.5q-7 -49 -51 -84q-22 -16 -35 1q-9 12 0 16q1 1 8.5 6.5t10.5 7.5t9.5 8t9.5 10.5t7 12t6 14.5q6 23 -3.5 38t-37.5 15q-42 0 -86.5 -41
t-117.5 -170l-19 -35q111 -12 119 -22q14 -14 9 -22t-30 -1q-16 5 -120 9q-76 -132 -127 -183q8 -5 52 -36.5t75 -46.5t61 -15q22 0 50.5 16.5t37.5 34.5q11 20 23 16q11 -3 4 -22q-7 -25 -45.5 -56.5t-75.5 -31.5q-33 0 -76.5 23.5t-85 52.5t-59.5 35q-15 -9 -27 -9
q-15 -2 -32.5 14t-10.5 38q8 38 70 8q42 38 116 164q-21 0 -57 4z" />
    <glyph glyph-name="currency" unicode="&#xa4;" horiz-adv-x="462" 
d="M250 637q56 0 78 -39q132 78 141 78q5 0 9.5 -4t4.5 -10q-2 -6 -143 -97q5 -25 -4 -61q-16 -50 -45 -76q13 -16 29 -41t16 -29q0 -14 -12 -14q-8 0 -60 64q-28 -19 -57 -19q-63 0 -90 49q-50 -30 -64 -37q-10 -6 -22.5 -8.5t-21.5 -1.5t-9 6q0 1 37 27l67 43q-7 40 5 70
q11 30 22 45q-37 46 -37 51v3q-1 3 -1.5 5.5t0.5 5.5t3 4q4 4 12 1.5t13 -7.5l31 -43q38 35 98 35zM213 428q32 0 65 43t33 72q0 27 -15.5 44t-41.5 17q-42 0 -80.5 -37t-38.5 -75q0 -30 20 -47t58 -17z" />
    <glyph glyph-name="yen" unicode="&#xa5;" horiz-adv-x="460" 
d="M362 322q-57 0 -94 2l-37 -48q49 -6 82 -6q25 0 27 -14q1 -13 -21 -18q-9 -2 -20 -2q-46 0 -90 8q-28 -42 -54.5 -85t-60.5 -101t-51 -85q-14 -23 -32 -19q-12 4 -5 15q3 4 28 47t65 110.5t77 123.5q-35 6 -59 16q-28 10 -16 21q10 9 32 4q29 -7 64 -10l13 19
q12 18 19 26q-53 2 -104 8q-23 4 -22 15q1 14 28 14q5 0 10 -1q19 -4 109 -8l8 11q-18 23 -37.5 69.5t-19.5 83.5q0 28 5 45.5t11.5 21t13.5 -0.5q3 -2 4 -6t0.5 -11t-2 -15t-3 -19.5t-1.5 -22.5q0 -24 17 -62.5t33 -58.5v2q127 166 157 166q25 0 25 -27q0 -5 -17 -18.5
t-60.5 -56t-92.5 -103.5h55q15 0 24 -16q8 -14 -8 -14z" />
    <glyph glyph-name="brokenbar" unicode="&#xa6;" horiz-adv-x="247" 
d="M168 492q-3 -22 -14 -25t-20 7.5t-7 21.5q96 573 96 575q2 33 22 42q17 7 22 -15q3 -15 -3 -39q-7 -29 -96 -567zM84 229q3 16 22 19t20 -15q0 -3 -1 -6q-87 -548 -96 -616q-6 -37 -19 -40q-11 -3 -8 32q1 28 38 293.5t44 332.5z" />
    <glyph glyph-name="section" unicode="&#xa7;" horiz-adv-x="370" 
d="M338 596q-22 0 -3 37q6 10 13 20q7 15 2 28.5t-29 22.5t-59 9q-49 0 -106 -88q-5 -81 73 -254q9 -19 29.5 -65t26.5 -61.5t17 -46.5t14 -55.5t3 -54.5q0 -96 -61 -149q45 -127 45 -191q0 -131 -65.5 -201.5t-137.5 -70.5q-52 0 -76 37.5t-24 72.5q0 20 21 25q19 5 22 -10
q1 -3 0 -7q-1 -3 -3.5 -13t-2.5 -13.5t-0.5 -11.5t3.5 -12t10 -8.5t17 -6.5t27 -2q56 0 107 76t51 153q0 72 -28.5 165.5t-69.5 164.5q-115 195 -115 328q0 56 33 139t86 148t102 65q67 0 99 -33.5t32 -64.5q0 -22 -20 -47t-33 -25zM211 57l31 -71q12 22 22 58t10 62
q0 82 -75 246q-67 142 -80 203q-35 -82 -35 -141q0 -28 6.5 -61t13.5 -57t24.5 -64.5t25 -57t30.5 -63t27 -54.5z" />
    <glyph glyph-name="dieresis" unicode="&#xa8;" horiz-adv-x="188" 
d="M16 403q-7 3 -12 23t-2 31q3 10 14 21.5t19 10.5q13 -3 21 -18t5 -29q-4 -13 -20 -27t-25 -12zM121 408q-6 0 -11.5 9.5t-5.5 22.5q0 6 16 23.5t25 17.5q5 0 14 -9t9 -17q0 -15 -19.5 -31t-27.5 -16z" />
    <glyph glyph-name="copyright" unicode="&#xa9;" horiz-adv-x="473" 
d="M225 18q-26 0 -54.5 6.5t-59.5 23t-55 40.5t-40 63.5t-16 88.5q0 112 87 206.5t198 94.5q78 0 75 -21q0 -14 -79 -14q-88 0 -164 -82.5t-76 -177.5q0 -96 54.5 -142.5t131.5 -46.5q79 0 153.5 81.5t74.5 176.5q0 36 -10.5 69t-24 52.5t-26 37.5t-18 25t0.5 15q7 5 21 -1
t30.5 -23.5t31 -42.5t24.5 -62t10 -78q0 -111 -79 -200t-190 -89zM299 229q-51 -77 -98 -77q-25 0 -44.5 23.5t-22 59t21.5 76.5q32 54 75 80.5t68 26.5q22 0 43 -27.5t4 -54.5q-20 -32 -39 -23q-11 5 -4 15t7 31.5t-11 21.5q-20 0 -51.5 -19t-50.5 -59q-13 -29 -17.5 -55
t1 -42t18.5 -16q33 0 67 43q18 18 32 10q7 -5 1 -14z" />
    <glyph glyph-name="guillemotleft" unicode="&#xab;" horiz-adv-x="391" 
d="M272 82q-6 -1 -10 1t-6.5 5t-8 10.5t-11.5 14.5q-38 37 -66 47q-10 4 -10 14t10 14l106 62q9 5 17.5 11t14.5 10t11.5 7.5t9 6t6.5 3.5t5 1t4 -2q18 -14 -20 -35q-32 -21 -65 -39.5t-46.5 -26t-13.5 -10.5q0 -4 4.5 -8.5t21.5 -17.5t29 -23q33 -25 26 -40q-2 -5 -8 -5z
M184 252q-23 -14 -57 -30.5t-35 -16.5q-33 -17 -6 -31q13 -5 41 -26.5t37 -34.5q7 -7 4 -13t-10 -6t-13 4q-8 9 -38 30.5t-50 31.5q-11 6 -19 9.5t-11 4t-4 2.5l-1 4q-1 5 -0.5 8t7 9t18.5 12l113 59q30 16 33 0q2 -9 -9 -16z" />
    <glyph glyph-name="registered" unicode="&#xae;" horiz-adv-x="442" 
d="M344 469q4 0 16 -4.5t30 -16.5t34 -29.5t27.5 -47t11.5 -64.5q0 -48 -18 -98.5t-51 -94t-87 -71t-119 -27.5q-48 0 -84.5 15.5t-55.5 36.5t-30.5 48.5t-14.5 46t-3 34.5q0 81 53.5 160.5t129 127t141.5 47.5q11 0 23 -4.5t18.5 -11t1.5 -12.5q-5 -5 -12 -6t-18 0.5
t-15 1.5q-60 0 -128.5 -50t-113.5 -122.5t-45 -134.5q0 -65 39 -104.5t114 -39.5q65 0 122 42.5t87.5 102t30.5 113.5q0 36 -11 65t-28 45t-28 23.5t-19 10.5q-10 3 -8 10.5t10 7.5zM119 147q-5 0 -7 5.5t1.5 15t11.5 18.5q13 16 50 69t40 60q3 4 0.5 15.5t-0.5 17.5
q9 17 86 2q23 -5 38 -13t19 -15t4 -13q-2 -11 -27.5 -36.5t-53.5 -36.5q-42 -14 -42 -19q0 -2 3 -4q9 -7 32 -30.5t23 -30.5q0 -13 -18 -13q-12 0 -62 62q-20 26 -18 32q-9 -15 -33 -47q-33 -39 -47 -39zM256 322q-3 -2 -11 -14.5t-22 -35t-24 -36.5l6 4q2 1 16.5 7.5
t29.5 13.5t31 15.5t26.5 16.5t10.5 12q0 12 -28.5 18t-34.5 -1z" />
    <glyph glyph-name="macron" unicode="&#xaf;" horiz-adv-x="157" 
d="M156 375q-156 0 -156 18q0 19 45 19q10 0 56 1t49 1q8 0 18 -7t10 -14t-7 -12.5t-15 -5.5z" />
    <glyph glyph-name="degree" unicode="&#xb0;" horiz-adv-x="256" 
d="M178 709q30 0 48 -22.5t18 -49.5q0 -30 -26.5 -58t-74.5 -28q-29 0 -47.5 24t-11.5 58q4 29 33.5 52.5t60.5 23.5zM147 590q21 0 38 13t20 34q2 15 -6.5 26t-24.5 11q-21 0 -37.5 -12.5t-19.5 -30.5t6.5 -29.5t23.5 -11.5z" />
    <glyph glyph-name="plusminus" unicode="&#xb1;" horiz-adv-x="618" 
d="M324 352q-78 0 -78 17q0 7 25.5 17.5t37.5 10.5h45q5 57 15 127q1 12 11.5 16t21 0t10.5 -10q0 -8 -17 -133h45q9 0 28 -9.5t19 -16.5q0 -21 -36 -21q-35 0 -62 2l-8 -53q-3 -27 -17 -65.5t-24 -38.5q-4 0 -5.5 5t-0.5 15t2.5 21t4 28.5t3.5 32.5l6 55h-26zM199 106
q-22 0 -8 18q14 19 32 21q90 9 156 9q18 0 29 -22q7 -20 -11 -23q-16 0 -100 -1.5t-98 -1.5z" />
    <glyph glyph-name="acute" unicode="&#xb4;" horiz-adv-x="159" 
d="M162 473q7 0 12.5 -5t5.5 -13q0 -18 -28 -33q-8 -4 -43 -26t-66 -41t-33 -19q-10 0 -10 12q0 4 54.5 49t70.5 56q23 20 37 20z" />
    <glyph glyph-name="mu" unicode="&#xb5;" horiz-adv-x="720" 
d="M100 256q0 1 1 3.5t1 4.5q10 24 11 31q5 14 8 28t4 22t2.5 14.5t4.5 9.5t9 4q12 1 19.5 -8t7.5 -15q0 -10 -23 -78q-35 -92 -41 -118q-5 -24 -0.5 -35t13.5 -13q43 -3 149 119q89 108 120 134q32 28 54 28q20 0 24.5 -26.5t-9.5 -75.5q-15 -43 -43.5 -105t-38.5 -88
q-38 -96 8 -96q61 0 146.5 34.5t181.5 104.5q8 8 25 5q16 -2 -5 -19q-193 -168 -352 -168q-46 0 -57 37t14 106q13 35 43.5 105t38.5 94q8 19 8.5 28.5t-6.5 10.5q-21 0 -129 -129q-50 -60 -102.5 -103t-80.5 -43q-18 0 -32 17q-54 -168 -66 -172q-4 -1 -6 3.5t-0.5 15.5
t4.5 26t9.5 38.5t14 49t19 61.5t23.5 73t28 85z" />
    <glyph glyph-name="paragraph" unicode="&#xb6;" horiz-adv-x="739" 
d="M600 412q79 -18 120 -39.5t38 -33.5t-4 -20q-8 -6 -30.5 5.5t-25.5 7.5q-1 -1 -14 -24.5t-34.5 -60.5t-46.5 -79.5t-54.5 -90t-54.5 -83.5q-64 -92 -134 -150.5t-127 -72.5q-13 -3 -37.5 -9.5t-35 -9t-26.5 -6.5t-27.5 -5t-22.5 -1q-36 0 -63 45.5t-19 81.5q8 35 21 19
q7 -9 10 -29q5 -74 57 -74q32 0 94 61.5t129 161.5q58 82 90 141q-33 2 -62 9t-54 22.5t-31 39t6 58.5q34 79 124.5 121t213.5 15zM500 96q21 34 48.5 78t44 69.5t32 51.5t22 39.5t4.5 17.5q-3 9 -20 13t-29 2q-4 -2 -14.5 -19.5t-34 -60t-45.5 -80.5q-43 -70 -153 -213
t-156 -187q27 -4 90 35q45 27 93.5 86t117.5 168z" />
    <glyph glyph-name="cedilla" unicode="&#xb8;" horiz-adv-x="294" 
d="M115 -211q-11 0 -18 9.5t-1 15.5q3 5 51 55.5t54 58.5q13 13 34 6q13 -4 7 -12q-3 -3 -26.5 -30.5t-37.5 -41.5q18 3 43 3q39 0 66.5 -27t27.5 -76q0 -74 -72 -141.5t-153 -67.5q-42 0 -66 22t-24 40q0 15 20 22q19 6 19 -6q0 -13 16.5 -24t40.5 -11q54 0 115 62.5
t61 105.5q0 27 -17.5 48.5t-49.5 21.5q-27 0 -57.5 -16.5t-32.5 -16.5z" />
    <glyph glyph-name="guillemotright" unicode="&#xbb;" horiz-adv-x="495" 
d="M201 289q6 1 10 -1t6.5 -5t9 -10.5t13.5 -14.5q36 -36 65 -49q11 -3 11 -13t-11 -14q-3 -2 -106 -63q-12 -7 -23.5 -14.5t-17.5 -11.5t-13 -8.5t-9 -4t-7 1.5q-15 15 21 37q33 21 66.5 39.5t46.5 26t13 10.5q0 4 -5.5 8.5t-21 15.5t-30.5 23q-33 28 -25 43q2 4 7 4z
M291 119q16 10 33.5 19t34.5 16.5t24 11.5q16 7 17 16t-11 15q-12 4 -40.5 25.5t-39.5 33.5q-9 13 1.5 18.5t19.5 -2.5q8 -9 38 -30.5t48 -30.5q5 -3 10 -5t8.5 -3.5t6.5 -2.5l4.5 -1.5l3 -1t2 -1t0.5 -1.5l1 -3q2 -3 2 -4.5t-0.5 -4.5t-3.5 -6t-8.5 -7t-13.5 -8l-113 -60
q-28 -15 -33 -1q-5 10 9 18z" />
    <glyph glyph-name="Agrave" unicode="&#xc0;" horiz-adv-x="1622" 
d="M1217 -719q2 7 22 223l-10 66q-17 105 -132.5 220.5t-271.5 184.5q-173 74 -274 121q-355 -592 -537 -1018q-19 -44 -39 -43q-16 0 -15 23q0 8 3 16q101 238 218 464t325 579q-33 14 -88 41q-36 18 -30 51q7 46 91 70q54 15 133 16l58 92q111 184 233 345t221 265
t186 179.5t140 108t72 30.5q43 -5 63.5 -32.5t11.5 -72.5q-3 -20 -34 -150t-81 -352.5t-93 -437.5q52 -12 88 -30q8 -4 26 -14q33 -16 33 -20q-1 -11 -147 9h-11q-49 -259 -66 -386t-30 -308q-1 -3 -1 -9.5t-1 -9.5q18 -121 14 -178q-1 -21 -22 -42t-33 -19q-3 0 -8.5 0.5
t-7 1t-5.5 2t-2.5 5t1.5 9.5zM672 295q229 2 678 -19q45 229 97.5 455t83.5 347t32 132q6 26 1 47.5t-30 24.5q-12 1 -72 -50t-152 -143.5t-194 -205.5t-211 -253t-190 -268zM840 6q337 -160 411 -366q21 229 86 581q-258 27 -700 17q-31 -47 -64 -105zM446 193l82 -39
l50 82q-126 -9 -138 -34q-3 -7 6 -9zM1686 1325q-13 0 -84 80q-19 19 -42 38t-36.5 29.5t-14.5 12.5t1.5 6.5t9 8t14.5 3.5q20 0 93 -72.5t73 -84.5q0 -21 -14 -21z" />
    <glyph glyph-name="Aacute" unicode="&#xc1;" horiz-adv-x="1622" 
d="M1217 -719q2 7 22 223l-10 66q-17 105 -132.5 220.5t-271.5 184.5q-173 74 -274 121q-355 -592 -537 -1018q-19 -44 -39 -43q-16 0 -15 23q0 8 3 16q101 238 218 464t325 579q-33 14 -88 41q-36 18 -30 51q7 46 91 70q54 15 133 16l58 92q111 184 233 345t221 265
t186 179.5t140 108t72 30.5q43 -5 63.5 -32.5t11.5 -72.5q-3 -20 -34 -150t-81 -352.5t-93 -437.5q52 -12 88 -30q8 -4 26 -14q33 -16 33 -20q-1 -11 -147 9h-11q-49 -259 -66 -386t-30 -308q-1 -3 -1 -9.5t-1 -9.5q18 -121 14 -178q-1 -21 -22 -42t-33 -19q-3 0 -8.5 0.5
t-7 1t-5.5 2t-2.5 5t1.5 9.5zM672 295q229 2 678 -19q45 229 97.5 455t83.5 347t32 132q6 26 1 47.5t-30 24.5q-12 1 -72 -50t-152 -143.5t-194 -205.5t-211 -253t-190 -268zM840 6q337 -160 411 -366q21 229 86 581q-258 27 -700 17q-31 -47 -64 -105zM446 193l82 -39
l50 82q-126 -9 -138 -34q-3 -7 6 -9zM1649 1516q7 0 12.5 -5.5t5.5 -13.5q0 -18 -29 -33q-8 -4 -43 -26t-65.5 -41t-32.5 -19q-10 0 -10 13q0 4 54.5 48t70.5 56q24 21 37 21z" />
    <glyph glyph-name="Acircumflex" unicode="&#xc2;" horiz-adv-x="1622" 
d="M1217 -719q2 7 22 223l-10 66q-17 105 -132.5 220.5t-271.5 184.5q-173 74 -274 121q-355 -592 -537 -1018q-19 -44 -39 -43q-16 0 -15 23q0 8 3 16q101 238 218 464t325 579q-33 14 -88 41q-36 18 -30 51q7 46 91 70q54 15 133 16l58 92q111 184 233 345t221 265
t186 179.5t140 108t72 30.5q43 -5 63.5 -32.5t11.5 -72.5q-3 -20 -34 -150t-81 -352.5t-93 -437.5q52 -12 88 -30q8 -4 26 -14q33 -16 33 -20q-1 -11 -147 9h-11q-49 -259 -66 -386t-30 -308q-1 -3 -1 -9.5t-1 -9.5q18 -121 14 -178q-1 -21 -22 -42t-33 -19q-3 0 -8.5 0.5
t-7 1t-5.5 2t-2.5 5t1.5 9.5zM672 295q229 2 678 -19q45 229 97.5 455t83.5 347t32 132q6 26 1 47.5t-30 24.5q-12 1 -72 -50t-152 -143.5t-194 -205.5t-211 -253t-190 -268zM840 6q337 -160 411 -366q21 229 86 581q-258 27 -700 17q-31 -47 -64 -105zM446 193l82 -39
l50 82q-126 -9 -138 -34q-3 -7 6 -9zM1516 1391q-6 -2 -12.5 4.5t-6.5 13.5q-1 7 27.5 32t54.5 42q61 37 84 39q10 1 24 -8.5t17 -20.5l27 -109q0 -15 -19 -20q-12 0 -22 37q-22 74 -27 74q-4 0 -36.5 -19t-55.5 -35q-48 -30 -55 -30z" />
    <glyph glyph-name="Atilde" unicode="&#xc3;" horiz-adv-x="1622" 
d="M1217 -719q2 7 22 223l-10 66q-17 105 -132.5 220.5t-271.5 184.5q-173 74 -274 121q-355 -592 -537 -1018q-19 -44 -39 -43q-16 0 -15 23q0 8 3 16q101 238 218 464t325 579q-33 14 -88 41q-36 18 -30 51q7 46 91 70q54 15 133 16l58 92q111 184 233 345t221 265
t186 179.5t140 108t72 30.5q43 -5 63.5 -32.5t11.5 -72.5q-3 -20 -34 -150t-81 -352.5t-93 -437.5q52 -12 88 -30q8 -4 26 -14q33 -16 33 -20q-1 -11 -147 9h-11q-49 -259 -66 -386t-30 -308q-1 -3 -1 -9.5t-1 -9.5q18 -121 14 -178q-1 -21 -22 -42t-33 -19q-3 0 -8.5 0.5
t-7 1t-5.5 2t-2.5 5t1.5 9.5zM672 295q229 2 678 -19q45 229 97.5 455t83.5 347t32 132q6 26 1 47.5t-30 24.5q-12 1 -72 -50t-152 -143.5t-194 -205.5t-211 -253t-190 -268zM840 6q337 -160 411 -366q21 229 86 581q-258 27 -700 17q-31 -47 -64 -105zM446 193l82 -39
l50 82q-126 -9 -138 -34q-3 -7 6 -9zM1427 1427q-14 0 -14 27q0 18 46 41t85 23q27 0 43 -16.5t15 -45.5q0 -31 16 -31q21 0 87.5 31t68.5 31q20 0 20 -17q0 -11 -74.5 -45t-107.5 -34q-42 0 -45 53q-3 33 -25 33q-20 0 -64.5 -25t-50.5 -25z" />
    <glyph glyph-name="Adieresis" unicode="&#xc4;" horiz-adv-x="1622" 
d="M1217 -719q2 7 22 223l-10 66q-17 105 -132.5 220.5t-271.5 184.5q-173 74 -274 121q-355 -592 -537 -1018q-19 -44 -39 -43q-16 0 -15 23q0 8 3 16q101 238 218 464t325 579q-33 14 -88 41q-36 18 -30 51q7 46 91 70q54 15 133 16l58 92q111 184 233 345t221 265
t186 179.5t140 108t72 30.5q43 -5 63.5 -32.5t11.5 -72.5q-3 -20 -34 -150t-81 -352.5t-93 -437.5q52 -12 88 -30q8 -4 26 -14q33 -16 33 -20q-1 -11 -147 9h-11q-49 -259 -66 -386t-30 -308q-1 -3 -1 -9.5t-1 -9.5q18 -121 14 -178q-1 -21 -22 -42t-33 -19q-3 0 -8.5 0.5
t-7 1t-5.5 2t-2.5 5t1.5 9.5zM672 295q229 2 678 -19q45 229 97.5 455t83.5 347t32 132q6 26 1 47.5t-30 24.5q-12 1 -72 -50t-152 -143.5t-194 -205.5t-211 -253t-190 -268zM840 6q337 -160 411 -366q21 229 86 581q-258 27 -700 17q-31 -47 -64 -105zM446 193l82 -39
l50 82q-126 -9 -138 -34q-3 -7 6 -9zM1522 1399q-7 3 -12.5 22.5t-2.5 30.5q4 11 14.5 22.5t18.5 10.5q13 -3 21.5 -18t5.5 -29q-4 -13 -20 -27t-25 -12zM1626 1403q-6 0 -11 10t-5 23q0 6 16 23.5t25 17.5q5 0 13.5 -9.5t8.5 -17.5q0 -15 -19.5 -31t-27.5 -16z" />
    <glyph glyph-name="Aring" unicode="&#xc5;" horiz-adv-x="1622" 
d="M1217 -719q2 7 22 223l-10 66q-17 105 -132.5 220.5t-271.5 184.5q-173 74 -274 121q-355 -592 -537 -1018q-19 -44 -39 -43q-16 0 -15 23q0 8 3 16q101 238 218 464t325 579q-33 14 -88 41q-36 18 -30 51q7 46 91 70q54 15 133 16l58 92q111 184 233 345t221 265
t186 179.5t140 108t72 30.5q43 -5 63.5 -32.5t11.5 -72.5q-3 -20 -34 -150t-81 -352.5t-93 -437.5q52 -12 88 -30q8 -4 26 -14q33 -16 33 -20q-1 -11 -147 9h-11q-49 -259 -66 -386t-30 -308q-1 -3 -1 -9.5t-1 -9.5q18 -121 14 -178q-1 -21 -22 -42t-33 -19q-3 0 -8.5 0.5
t-7 1t-5.5 2t-2.5 5t1.5 9.5zM672 295q229 2 678 -19q45 229 97.5 455t83.5 347t32 132q6 26 1 47.5t-30 24.5q-12 1 -72 -50t-152 -143.5t-194 -205.5t-211 -253t-190 -268zM840 6q337 -160 411 -366q21 229 86 581q-258 27 -700 17q-31 -47 -64 -105zM446 193l82 -39
l50 82q-126 -9 -138 -34q-3 -7 6 -9zM1642 1544q30 0 48 -22t18 -49q0 -30 -26 -58.5t-74 -28.5q-29 0 -48 24t-12 58q4 29 33.5 52.5t60.5 23.5zM1612 1425q21 0 37.5 13.5t19.5 34.5q2 15 -6.5 25.5t-24.5 10.5q-21 0 -37.5 -12.5t-19.5 -30.5t7 -29.5t24 -11.5z" />
    <glyph glyph-name="AE" unicode="&#xc6;" horiz-adv-x="2224" 
d="M1321 -504q80 4 234 41t298 82q172 55 207 86q13 13 41 -2q23 -15 13 -27q-18 -16 -98 -50.5t-173 -61.5q-330 -100 -463 -105q-78 -3 -94 4q12 -86 8 -139q-1 -21 -22 -42t-33 -19q-3 0 -8.5 0.5t-7 1t-5.5 2t-2.5 5t1.5 9.5q2 7 22 223q0 2 -1 7.5t-1 7.5q-6 12 -6 26
v13q-2 4 -2 12q-17 105 -132.5 220.5t-271.5 184.5q-173 74 -274 121q-355 -592 -537 -1018q-19 -44 -39 -43q-16 0 -15 23q0 8 3 16q101 238 218 464t325 579q-33 14 -88 41q-36 18 -30 51q7 46 91 70q54 15 133 16l58 92q111 184 233 345t221 265t186 179.5t140 108
t72 30.5q43 -5 63.5 -32.5t11.5 -72.5q-2 -11 -10.5 -47.5t-23.5 -100t-29 -126.5q82 21 129 29q45 114 86 204q45 94 70 119q6 8 23 5q16 -2 1 -19q-30 -41 -33 -76q-1 -8 -6.5 -20.5t-14.5 -31t-28.5 -65t-42.5 -106.5q85 14 154 22q327 40 569 31q29 -1 27 -12
q-3 -12 -29 -18q-4 -1 -8 -1q-1 0 -107.5 -1t-213.5 -9.5t-228 -28.5q-53 -8 -184 -36l-4 -13q-72 -202 -213 -606h370q75 -10 123 -37q8 -5 27 -14q32 -15 32 -20q-1 -10 -147 10q-125 15 -422 12l-65 -201q-57 -172 -103 -358q-2 -21 -7 -80t-7 -94q0 -1 -1 -3.5t-1 -4.5
q14 -17 41 -17zM674 295q140 4 680 8q61 307 123 559q-123 -38 -154 -53q-28 -13 -35 8q-5 22 21 41q41 27 182 66q16 64 35 138t27.5 107t9.5 41q6 26 1 47.5t-30 24.5q-12 1 -72 -50t-152 -143.5t-194 -205.5t-211 -253t-190 -268zM840 6q325 -154 405 -350q7 44 17 90
q23 206 81 508q-167 -2 -422.5 -9t-283.5 -7q-31 -47 -64 -105zM1520 874q-53 -221 -125 -571h24q95 277 221 604q-64 -15 -120 -33zM446 193l82 -39l50 82q-126 -9 -138 -34q-3 -7 6 -9zM1403 254h-17l-26 -133z" />
    <glyph glyph-name="Ccedilla" unicode="&#xc7;" horiz-adv-x="1191" 
d="M252 -698q-11 0 -18 9t-1 15q2 3 17.5 19.5t37.5 40t34 36.5q-144 9 -230 90t-86 203q0 324 350 772q224 287 438.5 436.5t376.5 149.5q58 0 90.5 -30.5t32.5 -84.5q0 -47 -36 -75q-21 -15 -25 -5q-2 4 4 15q9 17 12.5 38.5t0 43t-22.5 35.5t-51 14q-42 0 -117 -31
t-177.5 -94.5t-234.5 -184t-258 -276.5q-342 -418 -342 -723q0 -72 45 -129t108.5 -84.5t129.5 -27.5q128 0 294.5 58.5t301.5 137.5t213 154q19 17 31 6q11 -9 -3 -25q-146 -160 -377.5 -270t-422.5 -115q-35 -40 -52 -57q12 2 43 2q39 0 67 -27t28 -75q0 -74 -72.5 -141.5
t-153.5 -67.5q-42 0 -66 21.5t-24 39.5q0 15 20 22q19 7 19 -5q0 -13 16.5 -24t40.5 -11q54 0 115.5 62.5t61.5 105.5q0 26 -17.5 47.5t-50.5 21.5q-27 0 -57.5 -16t-32.5 -16z" />
    <glyph glyph-name="Egrave" unicode="&#xc8;" horiz-adv-x="1056" 
d="M860 236l-592 -68l-37 -115q-56 -172 -93.5 -325t-35.5 -179q2 -25 14.5 -39.5t37.5 -13.5q80 4 234 41t298 82q172 55 207 86q14 14 42 -2q21 -15 11 -27q-18 -16 -98 -50.5t-172 -61.5q-330 -100 -463 -105q-91 -5 -104 11q-44 35 -46 75q-2 36 26.5 176.5t86.5 339.5
q7 27 31 101q-95 -12 -115 -12q-17 -1 -13 17q3 20 20 25q2 1 3 1q7 2 23.5 4t45 5.5t50.5 6.5q103 315 252 698q-108 -27 -198 -56t-119 -42q-28 -13 -35 8q-6 22 20 41q24 18 123.5 50t231.5 57q45 114 86 204q46 96 69 119q6 8 22 6q19 -3 3 -20q-30 -41 -33 -76
q-1 -8 -6.5 -20.5t-14.5 -31t-28.5 -65t-42.5 -106.5q85 14 154 22q327 40 569 31q29 -1 27 -12q-3 -12 -29 -18q-4 -1 -8 -1q-1 0 -107.5 -1t-213.5 -9.5t-228 -28.5q-57 -9 -185 -36l-4 -13q-106 -286 -241 -694q458 51 469 53q74 10 129 24q19 5 22 -1q4 -12 -9 -32
t-36 -23zM1012 1190q-13 0 -84 80q-19 19 -41.5 38t-36 29.5t-14.5 12.5t1 6.5t8.5 8t14.5 3.5q20 0 93 -73t73 -85q0 -20 -14 -20z" />
    <glyph glyph-name="Eacute" unicode="&#xc9;" horiz-adv-x="1056" 
d="M860 236l-592 -68l-37 -115q-56 -172 -93.5 -325t-35.5 -179q2 -25 14.5 -39.5t37.5 -13.5q80 4 234 41t298 82q172 55 207 86q14 14 42 -2q21 -15 11 -27q-18 -16 -98 -50.5t-172 -61.5q-330 -100 -463 -105q-91 -5 -104 11q-44 35 -46 75q-2 36 26.5 176.5t86.5 339.5
q7 27 31 101q-95 -12 -115 -12q-17 -1 -13 17q3 20 20 25q2 1 3 1q7 2 23.5 4t45 5.5t50.5 6.5q103 315 252 698q-108 -27 -198 -56t-119 -42q-28 -13 -35 8q-6 22 20 41q24 18 123.5 50t231.5 57q45 114 86 204q46 96 69 119q6 8 22 6q19 -3 3 -20q-30 -41 -33 -76
q-1 -8 -6.5 -20.5t-14.5 -31t-28.5 -65t-42.5 -106.5q85 14 154 22q327 40 569 31q29 -1 27 -12q-3 -12 -29 -18q-4 -1 -8 -1q-1 0 -107.5 -1t-213.5 -9.5t-228 -28.5q-57 -9 -185 -36l-4 -13q-106 -286 -241 -694q458 51 469 53q74 10 129 24q19 5 22 -1q4 -12 -9 -32
t-36 -23zM995 1266q7 0 13 -5.5t6 -13.5q0 -18 -29 -33q-8 -4 -43 -26t-65.5 -41t-32.5 -19q-10 0 -10 13q0 4 54 48.5t70 55.5q24 21 37 21z" />
    <glyph glyph-name="Ecircumflex" unicode="&#xca;" horiz-adv-x="1056" 
d="M860 236l-592 -68l-37 -115q-56 -172 -93.5 -325t-35.5 -179q2 -25 14.5 -39.5t37.5 -13.5q80 4 234 41t298 82q172 55 207 86q14 14 42 -2q21 -15 11 -27q-18 -16 -98 -50.5t-172 -61.5q-330 -100 -463 -105q-91 -5 -104 11q-44 35 -46 75q-2 36 26.5 176.5t86.5 339.5
q7 27 31 101q-95 -12 -115 -12q-17 -1 -13 17q3 20 20 25q2 1 3 1q7 2 23.5 4t45 5.5t50.5 6.5q103 315 252 698q-108 -27 -198 -56t-119 -42q-28 -13 -35 8q-6 22 20 41q24 18 123.5 50t231.5 57q45 114 86 204q46 96 69 119q6 8 22 6q19 -3 3 -20q-30 -41 -33 -76
q-1 -8 -6.5 -20.5t-14.5 -31t-28.5 -65t-42.5 -106.5q85 14 154 22q327 40 569 31q29 -1 27 -12q-3 -12 -29 -18q-4 -1 -8 -1q-1 0 -107.5 -1t-213.5 -9.5t-228 -28.5q-57 -9 -185 -36l-4 -13q-106 -286 -241 -694q458 51 469 53q74 10 129 24q19 5 22 -1q4 -12 -9 -32
t-36 -23zM842 1194q-6 -2 -12.5 4.5t-6.5 13.5q-1 7 27.5 32t54.5 42q61 37 84 39q10 1 24 -8.5t17 -20.5l27 -108q0 -16 -19 -21q-12 0 -22 37q-22 74 -27 74q-4 0 -37 -19t-55 -34q-50 -31 -55 -31z" />
    <glyph glyph-name="Edieresis" unicode="&#xcb;" horiz-adv-x="1056" 
d="M860 236l-592 -68l-37 -115q-56 -172 -93.5 -325t-35.5 -179q2 -25 14.5 -39.5t37.5 -13.5q80 4 234 41t298 82q172 55 207 86q14 14 42 -2q21 -15 11 -27q-18 -16 -98 -50.5t-172 -61.5q-330 -100 -463 -105q-91 -5 -104 11q-44 35 -46 75q-2 36 26.5 176.5t86.5 339.5
q7 27 31 101q-95 -12 -115 -12q-17 -1 -13 17q3 20 20 25q2 1 3 1q7 2 23.5 4t45 5.5t50.5 6.5q103 315 252 698q-108 -27 -198 -56t-119 -42q-28 -13 -35 8q-6 22 20 41q24 18 123.5 50t231.5 57q45 114 86 204q46 96 69 119q6 8 22 6q19 -3 3 -20q-30 -41 -33 -76
q-1 -8 -6.5 -20.5t-14.5 -31t-28.5 -65t-42.5 -106.5q85 14 154 22q327 40 569 31q29 -1 27 -12q-3 -12 -29 -18q-4 -1 -8 -1q-1 0 -107.5 -1t-213.5 -9.5t-228 -28.5q-57 -9 -185 -36l-4 -13q-106 -286 -241 -694q458 51 469 53q74 10 129 24q19 5 22 -1q4 -12 -9 -32
t-36 -23zM899 1212q-7 3 -12 23t-2 31q3 10 14 21.5t19 10.5q13 -3 21 -18t5 -29q-4 -13 -20 -27t-25 -12zM1004 1217q-6 0 -11.5 9.5t-5.5 22.5q0 6 16 23.5t25 17.5q5 0 14 -9t9 -17q0 -15 -19.5 -31t-27.5 -16z" />
    <glyph glyph-name="Igrave" unicode="&#xcc;" 
d="M213 -29q-39 18 -70.5 72.5t-31.5 116.5q0 252 237 600q147 214 317.5 346.5t325.5 132.5q60 0 99 -31t53.5 -88t14.5 -131.5t-17.5 -168.5t-42.5 -191t-62 -206.5t-73.5 -208t-79.5 -202.5q-56 -140 -132 -269t-172 -242.5t-213.5 -182t-236.5 -68.5q-77 0 -132.5 33
t-78 89.5t-17.5 124.5t48.5 145t118.5 143q43 39 91.5 66t90.5 40t85 19t73 5.5t57 -3.5q111 -12 139 -38q13 -12 -11 -14q-16 -1 -44 5q-50 9 -104 10t-115 -8.5t-121 -38t-107 -74.5q-59 -57 -95.5 -123t-44.5 -126t5.5 -109.5t54.5 -79t101 -29.5q64 0 131 25t142 82
t147.5 143t149.5 214.5t147 289.5q101 231 165 423.5t87.5 324.5t17.5 224t-38.5 134.5t-86.5 42.5q-119 0 -293 -141t-289 -314q-122 -183 -189 -335.5t-67 -245.5q0 -102 89 -156q25 -15 12 -27q-12 -10 -35 0zM1210 1278q-13 0 -84 80q-19 19 -41.5 38t-36 29.5
t-14.5 12.5t1.5 6.5t9 8t14.5 3.5q20 0 93 -73t73 -85q0 -20 -15 -20z" />
    <glyph glyph-name="Iacute" unicode="&#xcd;" 
d="M213 -29q-39 18 -70.5 72.5t-31.5 116.5q0 252 237 600q147 214 317.5 346.5t325.5 132.5q60 0 99 -31t53.5 -88t14.5 -131.5t-17.5 -168.5t-42.5 -191t-62 -206.5t-73.5 -208t-79.5 -202.5q-56 -140 -132 -269t-172 -242.5t-213.5 -182t-236.5 -68.5q-77 0 -132.5 33
t-78 89.5t-17.5 124.5t48.5 145t118.5 143q43 39 91.5 66t90.5 40t85 19t73 5.5t57 -3.5q111 -12 139 -38q13 -12 -11 -14q-16 -1 -44 5q-50 9 -104 10t-115 -8.5t-121 -38t-107 -74.5q-59 -57 -95.5 -123t-44.5 -126t5.5 -109.5t54.5 -79t101 -29.5q64 0 131 25t142 82
t147.5 143t149.5 214.5t147 289.5q101 231 165 423.5t87.5 324.5t17.5 224t-38.5 134.5t-86.5 42.5q-119 0 -293 -141t-289 -314q-122 -183 -189 -335.5t-67 -245.5q0 -102 89 -156q25 -15 12 -27q-12 -10 -35 0zM1159 1438q7 0 13 -5.5t6 -13.5q0 -18 -29 -33
q-8 -4 -43 -26t-65.5 -41t-32.5 -19q-11 0 -11 13q0 4 54.5 48t70.5 56q24 21 37 21z" />
    <glyph glyph-name="Icircumflex" unicode="&#xce;" 
d="M213 -29q-39 18 -70.5 72.5t-31.5 116.5q0 252 237 600q147 214 317.5 346.5t325.5 132.5q60 0 99 -31t53.5 -88t14.5 -131.5t-17.5 -168.5t-42.5 -191t-62 -206.5t-73.5 -208t-79.5 -202.5q-56 -140 -132 -269t-172 -242.5t-213.5 -182t-236.5 -68.5q-77 0 -132.5 33
t-78 89.5t-17.5 124.5t48.5 145t118.5 143q43 39 91.5 66t90.5 40t85 19t73 5.5t57 -3.5q111 -12 139 -38q13 -12 -11 -14q-16 -1 -44 5q-50 9 -104 10t-115 -8.5t-121 -38t-107 -74.5q-59 -57 -95.5 -123t-44.5 -126t5.5 -109.5t54.5 -79t101 -29.5q64 0 131 25t142 82
t147.5 143t149.5 214.5t147 289.5q101 231 165 423.5t87.5 324.5t17.5 224t-38.5 134.5t-86.5 42.5q-119 0 -293 -141t-289 -314q-122 -183 -189 -335.5t-67 -245.5q0 -102 89 -156q25 -15 12 -27q-12 -10 -35 0zM1014 1335q-6 -1 -12.5 5t-6.5 14q-1 7 27.5 31.5t54.5 41.5
q61 37 84 39q10 1 24 -8t17 -20l27 -109q0 -15 -19 -20q-12 0 -22 37q-21 73 -27 73q-4 0 -37 -19t-55 -34q-50 -31 -55 -31z" />
    <glyph glyph-name="Idieresis" unicode="&#xcf;" 
d="M213 -29q-39 18 -70.5 72.5t-31.5 116.5q0 252 237 600q147 214 317.5 346.5t325.5 132.5q60 0 99 -31t53.5 -88t14.5 -131.5t-17.5 -168.5t-42.5 -191t-62 -206.5t-73.5 -208t-79.5 -202.5q-56 -140 -132 -269t-172 -242.5t-213.5 -182t-236.5 -68.5q-77 0 -132.5 33
t-78 89.5t-17.5 124.5t48.5 145t118.5 143q43 39 91.5 66t90.5 40t85 19t73 5.5t57 -3.5q111 -12 139 -38q13 -12 -11 -14q-16 -1 -44 5q-50 9 -104 10t-115 -8.5t-121 -38t-107 -74.5q-59 -57 -95.5 -123t-44.5 -126t5.5 -109.5t54.5 -79t101 -29.5q64 0 131 25t142 82
t147.5 143t149.5 214.5t147 289.5q101 231 165 423.5t87.5 324.5t17.5 224t-38.5 134.5t-86.5 42.5q-119 0 -293 -141t-289 -314q-122 -183 -189 -335.5t-67 -245.5q0 -102 89 -156q25 -15 12 -27q-12 -10 -35 0zM1057 1313q-7 3 -12.5 22.5t-2.5 30.5q4 11 14.5 22.5
t18.5 10.5q13 -3 21.5 -18t5.5 -29q-4 -13 -20 -27t-25 -12zM1161 1317q-6 0 -11 10t-5 23q0 6 16 23.5t25 17.5q5 0 13.5 -9.5t8.5 -17.5q0 -15 -19.5 -31t-27.5 -16z" />
    <glyph glyph-name="Eth" unicode="&#xd0;" horiz-adv-x="1603" 
d="M498 373q-22 0 -8 18q14 19 32 21q4 0 62 4q76 282 110 381q11 32 21 30q13 -1 11 -41q-1 -15 -5 -30q-33 -109 -96 -338q15 0 33 1t20 1q18 0 29 -22q7 -20 -11 -23q-4 0 -33.5 -1t-50.5 -1l-30 -121q106 56 215 86.5t158 34.5t71 2q13 -1 13 -7q-1 -13 -45 -19
q-6 -1 -13 -1q-63 -5 -174.5 -43t-245.5 -125q-102 -397 -135 -555q-7 -34 -16 -33q-10 1 -11 31q-1 7 0 12q26 166 115 512l-41 -30q-210 -161 -326 -342t-116 -305q0 -86 72.5 -142.5t213.5 -56.5q164 0 395 115t345 249q198 226 304.5 476.5t106.5 509.5
q0 197 -114 314.5t-324 117.5q-129 0 -286 -56t-287 -143q-122 -81 -187 -178t-65 -178q0 -111 114 -189q10 -7 -7 -10q-24 -5 -42 8q-38 28 -69 85t-31 118q0 98 65.5 197.5t182.5 181.5q153 108 317 161.5t303 53.5q72 0 139 -16.5t131 -55t110.5 -96t75 -147.5t28.5 -201
q0 -234 -115.5 -506.5t-314.5 -478.5q-169 -177 -390.5 -288.5t-388.5 -111.5q-157 0 -235 72t-78 195q0 78 25 163t76.5 176.5t141 185.5t208.5 177q7 4 37 24t47 29q7 30 22 86t16 62h-75z" />
    <glyph glyph-name="Ntilde" unicode="&#xd1;" horiz-adv-x="1406" 
d="M745 -545q-37 0 -64.5 46.5t-43 127t-26.5 188.5t-13.5 231t-4 255t0.5 260q3 346 -5 456q-14 191 -59 191q-53 0 -133.5 -173.5t-146.5 -440.5q-65 -263 -105 -477.5t-30 -268.5q7 -37 -8 -40q-9 -2 -16 17q-4 8 -5 19q-11 82 24.5 317t92.5 445q33 121 68.5 227.5
t77.5 204t87.5 154.5t87.5 57q26 0 47 -20.5t34.5 -62.5t23.5 -84t14.5 -108.5t7.5 -110.5t2.5 -115t-1 -97.5t-1.5 -81.5q-22 -1075 97 -1075q41 0 99.5 70t118.5 184t118 276.5t94 331.5q50 234 72.5 577t6.5 521q-1 22 13 21q15 -2 22 -20q2 -4 2 -9q22 -201 0 -513
t-84 -607q-40 -193 -100 -360.5t-123 -277.5t-126.5 -172.5t-115.5 -62.5zM676 1468q-14 0 -14 27q0 18 46 41t85 23q27 0 42.5 -16.5t14.5 -45.5q0 -31 16 -31q21 0 87.5 31t68.5 31q20 0 20 -17q0 -11 -74.5 -45t-107.5 -34q-42 0 -45 53q-3 33 -24 33q-20 0 -64.5 -25
t-50.5 -25z" />
    <glyph glyph-name="Ograve" unicode="&#xd2;" horiz-adv-x="1099" 
d="M999 178q-63 -44 -145 -86q-47 -164 -133 -358q-28 -62 -65 -126.5t-89 -135.5t-107 -125t-122 -89.5t-131 -35.5q-51 0 -96 19t-85 59.5t-63.5 114.5t-23.5 173q0 145 54.5 306t147.5 307q-45 86 -45 202q0 159 61.5 323t154 285.5t205 199t210.5 77.5
q118 0 174.5 -123.5t56.5 -349.5q0 -341 -92 -676q61 27 119 66q43 28 47 14q3 -14 -27 -36q-3 -3 -6 -5zM436 55q169 -19 365 56q108 379 108 725q0 119 -14 202t-40.5 127t-57 62t-70.5 18q-92 0 -196.5 -80t-188.5 -201t-139.5 -273t-55.5 -285q0 -86 25 -156
q116 171 256 276q34 26 51 19q15 -7 -14 -35q-152 -145 -268 -311q75 -127 239 -144zM676 -240q61 141 110 303q-166 -64 -346 -49q-179 14 -272 142q-180 -286 -180 -574q0 -156 57 -237.5t150 -81.5q61 0 123 33t113 83.5t99 119t82.5 132t63.5 129.5zM858 1372
q-13 0 -84 80q-19 19 -41.5 38t-36 29.5t-14.5 12.5t1.5 6.5t9 8t14.5 3.5q20 0 92.5 -72.5t72.5 -84.5q0 -21 -14 -21z" />
    <glyph glyph-name="Oacute" unicode="&#xd3;" horiz-adv-x="1099" 
d="M999 178q-63 -44 -145 -86q-47 -164 -133 -358q-28 -62 -65 -126.5t-89 -135.5t-107 -125t-122 -89.5t-131 -35.5q-51 0 -96 19t-85 59.5t-63.5 114.5t-23.5 173q0 145 54.5 306t147.5 307q-45 86 -45 202q0 159 61.5 323t154 285.5t205 199t210.5 77.5
q118 0 174.5 -123.5t56.5 -349.5q0 -341 -92 -676q61 27 119 66q43 28 47 14q3 -14 -27 -36q-3 -3 -6 -5zM436 55q169 -19 365 56q108 379 108 725q0 119 -14 202t-40.5 127t-57 62t-70.5 18q-92 0 -196.5 -80t-188.5 -201t-139.5 -273t-55.5 -285q0 -86 25 -156
q116 171 256 276q34 26 51 19q15 -7 -14 -35q-152 -145 -268 -311q75 -127 239 -144zM676 -240q61 141 110 303q-166 -64 -346 -49q-179 14 -272 142q-180 -286 -180 -574q0 -156 57 -237.5t150 -81.5q61 0 123 33t113 83.5t99 119t82.5 132t63.5 129.5zM879 1579
q7 0 12.5 -5t5.5 -13q0 -18 -29 -33q-8 -4 -43 -26t-65.5 -41t-32.5 -19q-10 0 -10 12q0 4 54.5 49t70.5 56q23 20 37 20z" />
    <glyph glyph-name="Ocircumflex" unicode="&#xd4;" horiz-adv-x="1099" 
d="M999 178q-63 -44 -145 -86q-47 -164 -133 -358q-28 -62 -65 -126.5t-89 -135.5t-107 -125t-122 -89.5t-131 -35.5q-51 0 -96 19t-85 59.5t-63.5 114.5t-23.5 173q0 145 54.5 306t147.5 307q-45 86 -45 202q0 159 61.5 323t154 285.5t205 199t210.5 77.5
q118 0 174.5 -123.5t56.5 -349.5q0 -341 -92 -676q61 27 119 66q43 28 47 14q3 -14 -27 -36q-3 -3 -6 -5zM436 55q169 -19 365 56q108 379 108 725q0 119 -14 202t-40.5 127t-57 62t-70.5 18q-92 0 -196.5 -80t-188.5 -201t-139.5 -273t-55.5 -285q0 -86 25 -156
q116 171 256 276q34 26 51 19q15 -7 -14 -35q-152 -145 -268 -311q75 -127 239 -144zM676 -240q61 141 110 303q-166 -64 -346 -49q-179 14 -272 142q-180 -286 -180 -574q0 -156 57 -237.5t150 -81.5q61 0 123 33t113 83.5t99 119t82.5 132t63.5 129.5zM639 1389
q-6 -1 -12 5t-6 13q-1 7 27.5 32.5t53.5 41.5q61 37 84 39q10 1 24 -8.5t17 -20.5l27 -109q0 -16 -18 -20q-13 0 -23 37q-22 74 -27 74q-4 0 -36.5 -19t-55.5 -35q-48 -30 -55 -30z" />
    <glyph glyph-name="Otilde" unicode="&#xd5;" horiz-adv-x="1099" 
d="M999 178q-63 -44 -145 -86q-47 -164 -133 -358q-28 -62 -65 -126.5t-89 -135.5t-107 -125t-122 -89.5t-131 -35.5q-51 0 -96 19t-85 59.5t-63.5 114.5t-23.5 173q0 145 54.5 306t147.5 307q-45 86 -45 202q0 159 61.5 323t154 285.5t205 199t210.5 77.5
q118 0 174.5 -123.5t56.5 -349.5q0 -341 -92 -676q61 27 119 66q43 28 47 14q3 -14 -27 -36q-3 -3 -6 -5zM436 55q169 -19 365 56q108 379 108 725q0 119 -14 202t-40.5 127t-57 62t-70.5 18q-92 0 -196.5 -80t-188.5 -201t-139.5 -273t-55.5 -285q0 -86 25 -156
q116 171 256 276q34 26 51 19q15 -7 -14 -35q-152 -145 -268 -311q75 -127 239 -144zM676 -240q61 141 110 303q-166 -64 -346 -49q-179 14 -272 142q-180 -286 -180 -574q0 -156 57 -237.5t150 -81.5q61 0 123 33t113 83.5t99 119t82.5 132t63.5 129.5zM657 1411
q-14 0 -14 27q0 18 46 40.5t85 22.5q27 0 42.5 -16t14.5 -45q0 -31 17 -31q21 0 87.5 30.5t68.5 30.5q20 0 20 -16q0 -11 -74.5 -45.5t-107.5 -34.5q-42 0 -45 53q-3 33 -25 33q-20 0 -64.5 -24.5t-50.5 -24.5z" />
    <glyph glyph-name="Odieresis" unicode="&#xd6;" horiz-adv-x="1099" 
d="M999 178q-63 -44 -145 -86q-47 -164 -133 -358q-28 -62 -65 -126.5t-89 -135.5t-107 -125t-122 -89.5t-131 -35.5q-51 0 -96 19t-85 59.5t-63.5 114.5t-23.5 173q0 145 54.5 306t147.5 307q-45 86 -45 202q0 159 61.5 323t154 285.5t205 199t210.5 77.5
q118 0 174.5 -123.5t56.5 -349.5q0 -341 -92 -676q61 27 119 66q43 28 47 14q3 -14 -27 -36q-3 -3 -6 -5zM436 55q169 -19 365 56q108 379 108 725q0 119 -14 202t-40.5 127t-57 62t-70.5 18q-92 0 -196.5 -80t-188.5 -201t-139.5 -273t-55.5 -285q0 -86 25 -156
q116 171 256 276q34 26 51 19q15 -7 -14 -35q-152 -145 -268 -311q75 -127 239 -144zM676 -240q61 141 110 303q-166 -64 -346 -49q-179 14 -272 142q-180 -286 -180 -574q0 -156 57 -237.5t150 -81.5q61 0 123 33t113 83.5t99 119t82.5 132t63.5 129.5zM705 1382
q-7 3 -12.5 23t-2.5 31q3 10 14 21.5t19 10.5q13 -3 21.5 -18t5.5 -29q-4 -13 -20 -27t-25 -12zM809 1386q-6 0 -11 10t-5 23q0 6 16 23.5t25 17.5q5 0 13.5 -9t8.5 -17q0 -15 -19.5 -31.5t-27.5 -16.5z" />
    <glyph glyph-name="multiply" unicode="&#xd7;" horiz-adv-x="294" 
d="M113 236q-39 66 -27 75q7 3 29.5 -14t27.5 -27l23 -37q18 8 53.5 26.5t48.5 23.5q11 5 18.5 -1.5t7 -16t-4.5 -13.5q-56 -28 -105 -51l27 -43q4 -7 4.5 -28.5t-4.5 -25.5q-17 -12 -37 21q-1 1 -12.5 20.5t-18.5 34.5q-42 -18 -49 -20q-79 -33 -90 -17q-3 6 6.5 13
t34.5 19q19 9 31 15q3 2 21 9.5t28 13.5z" />
    <glyph glyph-name="Oslash" unicode="&#xd8;" horiz-adv-x="1099" 
d="M-141 -768q-19 0 41 94l61 99q-22 71 -22 163q0 145 54.5 306t147.5 307q-45 86 -45 202q0 159 61.5 323t154 285.5t205 199t210.5 77.5q167 0 213 -256q136 221 143 221t10 -0.5t5 -2.5t2 -7t-152 -262q10 -82 10 -166q0 -341 -92 -676q61 27 119 66q43 28 47 14
q3 -14 -27 -36q-3 -3 -6 -5q-63 -44 -145 -86q-47 -164 -133 -358q-28 -62 -65 -126.5t-89 -135.5t-107 -125t-122 -89.5t-131 -35.5q-72 0 -136 40t-98 124q-53 -84 -61 -95q-46 -59 -53 -59zM197 199q54 -91 157 -127l549 901q-25 272 -176 272q-92 0 -196.5 -80
t-188.5 -201t-139.5 -273t-55.5 -285q0 -86 25 -156q116 171 256 276q34 26 51 19q15 -7 -14 -35q-152 -145 -268 -311zM676 -240q61 141 110 303q-166 -64 -346 -49q-18 2 -65 11q-115 -186 -148 -238l-223 -352q24 -85 74 -128.5t117 -43.5q61 0 123 33t113 83.5t99 119
t82.5 132t63.5 129.5zM436 55q169 -19 365 56q108 379 108 725q0 50 -2 75q-389 -656 -510 -852q24 -4 39 -4zM-12 -418q0 -38 8 -100q189 312 199 328l137 225q-101 35 -164 121q-180 -286 -180 -574z" />
    <glyph glyph-name="Ugrave" unicode="&#xd9;" horiz-adv-x="1214" 
d="M506 1063q-65 -63 -168 -286t-166 -445q-61 -211 -81.5 -405.5t0.5 -309.5t77 -115q246 0 852 1286l10 21q27 101 31 113q98 348 120 399q18 40 38 44q5 1 12 1q26 0 21 -44q-11 -95 -179 -519l-8 -37q-86 -362 -128.5 -653.5t-41.5 -470.5t24.5 -283.5t67.5 -138.5
q31 -25 24 -45q-6 -19 -37 -4q-11 6 -24 16q-31 26 -55.5 81.5t-41 165t-15 254.5t32.5 367.5t92 485.5q-125 -267 -273 -511t-292 -408.5t-230 -164.5q-43 0 -75 32t-50 101.5t-18.5 171t22.5 250.5t70 330q153 586 350 743q31 23 45 8q12 -12 -6 -30zM956 1249
q-13 0 -84 80q-19 19 -41.5 38t-36 29.5t-14.5 12.5t1.5 6.5t9 8t14.5 3.5q20 0 93 -72.5t73 -84.5q0 -21 -15 -21z" />
    <glyph glyph-name="Uacute" unicode="&#xda;" horiz-adv-x="1214" 
d="M506 1063q-65 -63 -168 -286t-166 -445q-61 -211 -81.5 -405.5t0.5 -309.5t77 -115q246 0 852 1286l10 21q27 101 31 113q98 348 120 399q18 40 38 44q5 1 12 1q26 0 21 -44q-11 -95 -179 -519l-8 -37q-86 -362 -128.5 -653.5t-41.5 -470.5t24.5 -283.5t67.5 -138.5
q31 -25 24 -45q-6 -19 -37 -4q-11 6 -24 16q-31 26 -55.5 81.5t-41 165t-15 254.5t32.5 367.5t92 485.5q-125 -267 -273 -511t-292 -408.5t-230 -164.5q-43 0 -75 32t-50 101.5t-18.5 171t22.5 250.5t70 330q153 586 350 743q31 23 45 8q12 -12 -6 -30zM940 1399
q7 0 12.5 -5.5t5.5 -13.5q0 -17 -28 -32q-8 -4 -43 -26t-66 -41t-33 -19q-10 0 -10 12q0 4 54.5 48t70.5 56q25 21 37 21z" />
    <glyph glyph-name="Ucircumflex" unicode="&#xdb;" horiz-adv-x="1214" 
d="M506 1063q-65 -63 -168 -286t-166 -445q-61 -211 -81.5 -405.5t0.5 -309.5t77 -115q246 0 852 1286l10 21q27 101 31 113q98 348 120 399q18 40 38 44q5 1 12 1q26 0 21 -44q-11 -95 -179 -519l-8 -37q-86 -362 -128.5 -653.5t-41.5 -470.5t24.5 -283.5t67.5 -138.5
q31 -25 24 -45q-6 -19 -37 -4q-11 6 -24 16q-31 26 -55.5 81.5t-41 165t-15 254.5t32.5 367.5t92 485.5q-125 -267 -273 -511t-292 -408.5t-230 -164.5q-43 0 -75 32t-50 101.5t-18.5 171t22.5 250.5t70 330q153 586 350 743q31 23 45 8q12 -12 -6 -30zM795 1313
q-6 -2 -12.5 4.5t-6.5 13.5q-1 7 27.5 32t54.5 42q61 37 84 39q10 1 24 -8.5t17 -20.5l27 -108q0 -16 -19 -21q-12 0 -22 37q-22 74 -27 74q-4 0 -36.5 -19t-55.5 -35q-48 -30 -55 -30z" />
    <glyph glyph-name="Udieresis" unicode="&#xdc;" horiz-adv-x="1214" 
d="M506 1063q-65 -63 -168 -286t-166 -445q-61 -211 -81.5 -405.5t0.5 -309.5t77 -115q246 0 852 1286l10 21q27 101 31 113q98 348 120 399q18 40 38 44q5 1 12 1q26 0 21 -44q-11 -95 -179 -519l-8 -37q-86 -362 -128.5 -653.5t-41.5 -470.5t24.5 -283.5t67.5 -138.5
q31 -25 24 -45q-6 -19 -37 -4q-11 6 -24 16q-31 26 -55.5 81.5t-41 165t-15 254.5t32.5 367.5t92 485.5q-125 -267 -273 -511t-292 -408.5t-230 -164.5q-43 0 -75 32t-50 101.5t-18.5 171t22.5 250.5t70 330q153 586 350 743q31 23 45 8q12 -12 -6 -30zM805 1296
q-7 3 -12 23t-2 31q4 11 14 22t18 10q13 -3 21.5 -18t5.5 -29q-4 -13 -20 -27t-25 -12zM909 1300q-6 0 -11 10t-5 23q0 6 16 23.5t25 17.5q5 0 13.5 -9t8.5 -17q0 -15 -19.5 -31.5t-27.5 -16.5z" />
    <glyph glyph-name="Yacute" unicode="&#xdd;" horiz-adv-x="1304" 
d="M1178 -338q-201 -14 -283 -27q-49 -109 -99.5 -210.5t-109 -206t-116 -193t-121 -167t-124 -133.5t-124.5 -86.5t-123 -31.5q-121 0 -184.5 72t-55.5 201q4 82 46.5 172.5t131.5 188t211 175.5q320 203 637 256q119 253 187 455q88 266 161 560.5t78 377.5q2 42 -3 60
t-19 18q-22 0 -70 -75q-37 -56 -273 -468q-54 -96 -104 -182q-66 -113 -130 -229t-103.5 -189.5t-78.5 -145t-63.5 -111.5t-49 -72.5t-44.5 -45t-41 -12.5q-93 0 -145.5 96.5t-52.5 267.5q0 32 2.5 64.5t8.5 67t11.5 62.5t16 65.5t17 59t19.5 60t18 53t19.5 52.5t16.5 45
q20 56 48 117t55.5 115.5t35.5 72.5q17 39 32 38q13 -1 6 -29q-2 -7 -5 -15q-95 -212 -140 -328q-114 -303 -114 -491q0 -149 39.5 -247.5t95.5 -98.5q24 0 55 35t76 112.5t89.5 161.5t119 223t141.5 256q259 456 326 563q118 187 162 187q65 0 59 -121q-22 -350 -231 -938
q-79 -216 -179 -441q101 11 154 11q31 2 97 0.5t75 -6.5q14 -8 -15 -15q-17 -4 -46 -6zM76 -1343q80 0 181 83t203.5 224t199 308t184.5 353q-312 -56 -600 -241q-106 -67 -187 -157.5t-123.5 -179.5t-46.5 -165q-7 -112 44 -168.5t145 -56.5zM899 1223q7 0 13 -5.5t6 -13.5
q0 -18 -29 -33q-8 -4 -43 -26t-65.5 -41t-32.5 -19q-11 0 -11 13q0 4 54.5 48t70.5 56q24 21 37 21z" />
    <glyph glyph-name="Thorn" unicode="&#xde;" horiz-adv-x="1247" 
d="M174 -575q67 484 135 802q38 189 119 484q-221 -110 -365 -301q-117 -152 -130 -311t81 -257q29 -30 5 -36q-26 -7 -58 16q-14 9 -22 22q-37 37 -53.5 104t-11 148t44.5 176.5t108 180.5q188 226 417 317q100 358 158 492q7 15 14 23.5t12 9.5t8.5 -3t2.5 -15t-6 -26
q-56 -157 -135 -460q130 45 268 45q119 0 208.5 -35t140 -95.5t72.5 -134.5t17 -159q-6 -112 -57 -213.5t-137.5 -179t-199 -134.5t-247 -86.5t-276.5 -29.5q-9 0 -11 2q-12 -70 -22.5 -138.5t-16 -105.5t-8.5 -51q-6 -33 -34 -57q-21 -17 -21 1v5zM1155 418q7 77 -12.5 144
t-64.5 120.5t-126.5 84t-189.5 30.5q-135 0 -281 -62q-85 -324 -121 -514q-46 -228 -75 -401q147 -5 295.5 35.5t272 116t206.5 192.5t96 254z" />
    <glyph glyph-name="germandbls" unicode="&#xdf;" horiz-adv-x="419" 
d="M-266 -260q-9 -1 -16.5 3t-6 13.5t18.5 20.5q116 68 299 342q50 74 81 120t50.5 76.5t26 41.5t20.5 34.5t22 36.5q111 174 179 174q41 0 54 -31t-3 -83t-58 -113q-26 -39 -59.5 -69t-52.5 -44t-19 -22q0 -3 11 -44.5t14.5 -82t-14.5 -93.5q-45 -98 -146 -98
q-52 0 -75.5 43.5t-6.5 79.5q9 16 21 -3q6 -9 6 -17q0 -32 11.5 -48t45.5 -16q66 0 101 72q38 78 2 174q-9 21 -8 36.5t18 26.5q18 10 58 52.5t67 78.5q54 70 63 131q5 43 -22 43q-54 0 -168 -178q-30 -45 -80.5 -131t-101.5 -162q-76 -114 -186 -238.5t-146 -125.5z" />
    <glyph glyph-name="agrave" unicode="&#xe0;" horiz-adv-x="913" 
d="M344 -10q94 0 322.5 93.5t361.5 166.5q10 6 25 2q18 -5 -6 -21q-115 -75 -363 -179.5t-342 -104.5q-68 0 -98.5 31t-30.5 71q0 18 2 36t3 22.5t-1 9.5q-9 9 -84 -31q-43 -25 -86 -43t-59 -18q-20 0 -34.5 10t-14.5 20q0 75 102 150q79 61 141 61q33 0 54 -39
q16 -28 5 -33q-1 -1 -3 -1q-10 0 -24 20t-26 20q-38 0 -118 -55q-37 -24 -66 -60t-29 -50q0 -7 9 -7q25 0 110 43q18 9 43 21t38.5 18.5t29 13.5t26 10t17.5 3q26 0 26 -18q0 -4 -10 -39t-10 -62q0 -26 25 -43.5t65 -17.5zM356 336q-13 0 -84 80q-19 19 -41.5 38t-36 29.5
t-14.5 12.5t1.5 6.5t9 8t14.5 3.5q20 0 93 -73t73 -85q0 -20 -15 -20z" />
    <glyph glyph-name="aacute" unicode="&#xe1;" horiz-adv-x="913" 
d="M344 -10q94 0 322.5 93.5t361.5 166.5q10 6 25 2q18 -5 -6 -21q-115 -75 -363 -179.5t-342 -104.5q-68 0 -98.5 31t-30.5 71q0 18 2 36t3 22.5t-1 9.5q-9 9 -84 -31q-43 -25 -86 -43t-59 -18q-20 0 -34.5 10t-14.5 20q0 75 102 150q79 61 141 61q33 0 54 -39
q16 -28 5 -33q-1 -1 -3 -1q-10 0 -24 20t-26 20q-38 0 -118 -55q-37 -24 -66 -60t-29 -50q0 -7 9 -7q25 0 110 43q18 9 43 21t38.5 18.5t29 13.5t26 10t17.5 3q26 0 26 -18q0 -4 -10 -39t-10 -62q0 -26 25 -43.5t65 -17.5zM360 461q7 0 13 -5.5t6 -13.5q0 -17 -29 -32
q-8 -4 -43 -26t-65.5 -41t-32.5 -19q-10 0 -10 12q0 4 54.5 48t70.5 56q25 21 36 21z" />
    <glyph glyph-name="acircumflex" unicode="&#xe2;" horiz-adv-x="913" 
d="M344 -10q94 0 322.5 93.5t361.5 166.5q10 6 25 2q18 -5 -6 -21q-115 -75 -363 -179.5t-342 -104.5q-68 0 -98.5 31t-30.5 71q0 18 2 36t3 22.5t-1 9.5q-9 9 -84 -31q-43 -25 -86 -43t-59 -18q-20 0 -34.5 10t-14.5 20q0 75 102 150q79 61 141 61q33 0 54 -39
q16 -28 5 -33q-1 -1 -3 -1q-10 0 -24 20t-26 20q-38 0 -118 -55q-37 -24 -66 -60t-29 -50q0 -7 9 -7q25 0 110 43q18 9 43 21t38.5 18.5t29 13.5t26 10t17.5 3q26 0 26 -18q0 -4 -10 -39t-10 -62q0 -26 25 -43.5t65 -17.5zM166 367q-6 -2 -12.5 4.5t-6.5 13.5q-1 7 27.5 32
t54.5 42q61 37 84 39q10 1 24 -8.5t17 -20.5l27 -109q0 -15 -19 -20q-12 0 -22 37q-22 74 -27 74q-4 0 -36.5 -19t-55.5 -35q-48 -30 -55 -30z" />
    <glyph glyph-name="atilde" unicode="&#xe3;" horiz-adv-x="913" 
d="M344 -10q94 0 322.5 93.5t361.5 166.5q10 6 25 2q18 -5 -6 -21q-115 -75 -363 -179.5t-342 -104.5q-68 0 -98.5 31t-30.5 71q0 18 2 36t3 22.5t-1 9.5q-9 9 -84 -31q-43 -25 -86 -43t-59 -18q-20 0 -34.5 10t-14.5 20q0 75 102 150q79 61 141 61q33 0 54 -39
q16 -28 5 -33q-1 -1 -3 -1q-10 0 -24 20t-26 20q-38 0 -118 -55q-37 -24 -66 -60t-29 -50q0 -7 9 -7q25 0 110 43q18 9 43 21t38.5 18.5t29 13.5t26 10t17.5 3q26 0 26 -18q0 -4 -10 -39t-10 -62q0 -26 25 -43.5t65 -17.5zM168 401q-14 0 -14 27q0 18 46 41t85 23
q27 0 42.5 -16.5t14.5 -45.5q0 -31 16 -31q21 0 87.5 31t68.5 31q21 0 21 -17q0 -11 -75 -45t-108 -34q-42 0 -45 53q-3 33 -24 33q-20 0 -64.5 -25t-50.5 -25z" />
    <glyph glyph-name="adieresis" unicode="&#xe4;" horiz-adv-x="913" 
d="M344 -10q94 0 322.5 93.5t361.5 166.5q10 6 25 2q18 -5 -6 -21q-115 -75 -363 -179.5t-342 -104.5q-68 0 -98.5 31t-30.5 71q0 18 2 36t3 22.5t-1 9.5q-9 9 -84 -31q-43 -25 -86 -43t-59 -18q-20 0 -34.5 10t-14.5 20q0 75 102 150q79 61 141 61q33 0 54 -39
q16 -28 5 -33q-1 -1 -3 -1q-10 0 -24 20t-26 20q-38 0 -118 -55q-37 -24 -66 -60t-29 -50q0 -7 9 -7q25 0 110 43q18 9 43 21t38.5 18.5t29 13.5t26 10t17.5 3q26 0 26 -18q0 -4 -10 -39t-10 -62q0 -26 25 -43.5t65 -17.5zM197 371q-7 3 -12.5 22.5t-2.5 30.5
q4 11 14.5 22.5t18.5 10.5q13 -3 21.5 -18t5.5 -29q-4 -13 -20 -27t-25 -12zM301 375q-6 0 -11 10t-5 23q0 6 16 23.5t25 17.5q5 0 13.5 -9.5t8.5 -17.5q0 -15 -19.5 -31t-27.5 -16z" />
    <glyph glyph-name="aring" unicode="&#xe5;" horiz-adv-x="913" 
d="M344 -10q94 0 322.5 93.5t361.5 166.5q10 6 25 2q18 -5 -6 -21q-115 -75 -363 -179.5t-342 -104.5q-68 0 -98.5 31t-30.5 71q0 18 2 36t3 22.5t-1 9.5q-9 9 -84 -31q-43 -25 -86 -43t-59 -18q-20 0 -34.5 10t-14.5 20q0 75 102 150q79 61 141 61q33 0 54 -39
q16 -28 5 -33q-1 -1 -3 -1q-10 0 -24 20t-26 20q-38 0 -118 -55q-37 -24 -66 -60t-29 -50q0 -7 9 -7q25 0 110 43q18 9 43 21t38.5 18.5t29 13.5t26 10t17.5 3q26 0 26 -18q0 -4 -10 -39t-10 -62q0 -26 25 -43.5t65 -17.5zM326 496q30 0 47.5 -22.5t17.5 -49.5
q0 -30 -26 -58t-74 -28q-29 0 -48 24t-12 58q4 29 34 52.5t61 23.5zM295 377q21 0 37.5 13t19.5 34q2 15 -6 26t-24 11q-21 0 -38 -12.5t-20 -30.5t7 -29.5t24 -11.5z" />
    <glyph glyph-name="ae" unicode="&#xe6;" horiz-adv-x="952" 
d="M252 152l6 16q-11 -11 -65 -49q-105 -75 -138 -78q-20 -1 -35.5 8t-17.5 19q-8 72 84 161q72 69 135 76q33 4 58 -33q17 -26 6 -31q-1 -1 -2 -1q-9 -2 -25.5 16.5t-26.5 17.5q-40 -8 -112 -69q-34 -28 -58 -67.5t-22 -53.5q0 -6 8 -6q27 3 105 55l155 98l17 11
q22 13 17 -1q-2 -7 -9 -18q-8 -16 -53 -48q-21 -15 -19 -9q0 2 -2 2q30 57 77.5 85t82.5 21q29 -4 38 -27.5t-3 -58.5q-18 -44 -65.5 -78t-108.5 -55q12 -44 71 -41q20 2 42 6.5t54 16t60 22.5t80.5 33.5t94.5 41t121.5 53.5t143.5 63q20 9 25 -5q4 -11 -8 -16
q-106 -47 -255.5 -119t-222 -101.5t-123.5 -33.5q-78 -6 -111 50t1 127zM289 137q-15 -35 -15 -57q45 15 90.5 52.5t57.5 70.5q5 13 2.5 25.5t-12.5 15.5q-22 6 -61 -21.5t-62 -85.5z" />
    <glyph glyph-name="ccedilla" unicode="&#xe7;" horiz-adv-x="626" 
d="M-43 -164q-10 0 -17 9.5t-1 15.5q3 4 21 24t41.5 45t33.5 37q-39 5 -64.5 23.5t-29.5 50.5q-5 37 20.5 82.5t79.5 89.5q79 66 152 66q31 0 36 -24q3 -16 -7 -19q-3 -2 -7 0q-52 19 -143 -48q-92 -68 -88 -133q1 -31 40 -45t93 -8q102 11 297 92t334 156q11 6 26 1
q16 -5 -6 -20q-117 -74 -326.5 -160.5t-312.5 -101.5q-36 -4 -49 -4q-21 -28 -60 -67q12 2 43 2q39 0 67 -27.5t28 -75.5q0 -74 -72.5 -141.5t-153.5 -67.5q-42 0 -66 22t-24 40q0 15 20 22q19 6 19 -6q0 -13 17 -24t41 -11q54 0 115 62.5t61 105.5q0 27 -17.5 48.5
t-50.5 21.5q-27 0 -57.5 -16.5t-32.5 -16.5z" />
    <glyph glyph-name="egrave" unicode="&#xe8;" horiz-adv-x="604" 
d="M141 -25q-78 -6 -111 50t1 127q28 65 78.5 97t87.5 25q29 -4 37.5 -27.5t-3.5 -58.5q-18 -44 -65.5 -78t-108.5 -55q12 -44 72 -41q20 2 42 6.5t54 16t60 22.5t80.5 33.5t94.5 41t121.5 53.5t143.5 63q20 9 24 -5q4 -11 -8 -16q-107 -47 -255.5 -119t-221 -101.5
t-123.5 -33.5zM68 137q-15 -35 -15 -57q45 15 90.5 52.5t57.5 70.5q5 13 2 25.5t-13 15.5q-22 6 -60.5 -21.5t-61.5 -85.5zM338 387q-13 0 -84 80q-19 19 -41.5 38t-36 29.5t-14.5 12.5t1 6.5t8.5 8t14.5 3.5q20 0 93 -72.5t73 -84.5q0 -21 -14 -21z" />
    <glyph glyph-name="eacute" unicode="&#xe9;" horiz-adv-x="604" 
d="M141 -25q-78 -6 -111 50t1 127q28 65 78.5 97t87.5 25q29 -4 37.5 -27.5t-3.5 -58.5q-18 -44 -65.5 -78t-108.5 -55q12 -44 72 -41q20 2 42 6.5t54 16t60 22.5t80.5 33.5t94.5 41t121.5 53.5t143.5 63q20 9 24 -5q4 -11 -8 -16q-107 -47 -255.5 -119t-221 -101.5
t-123.5 -33.5zM68 137q-15 -35 -15 -57q45 15 90.5 52.5t57.5 70.5q5 13 2 25.5t-13 15.5q-22 6 -60.5 -21.5t-61.5 -85.5zM373 473q7 0 12.5 -5t5.5 -13q0 -18 -29 -33q-8 -4 -43 -26t-65.5 -41t-32.5 -19q-10 0 -10 12q0 4 54.5 49t70.5 56q23 20 37 20z" />
    <glyph glyph-name="ecircumflex" unicode="&#xea;" horiz-adv-x="604" 
d="M141 -25q-78 -6 -111 50t1 127q28 65 78.5 97t87.5 25q29 -4 37.5 -27.5t-3.5 -58.5q-18 -44 -65.5 -78t-108.5 -55q12 -44 72 -41q20 2 42 6.5t54 16t60 22.5t80.5 33.5t94.5 41t121.5 53.5t143.5 63q20 9 24 -5q4 -11 -8 -16q-107 -47 -255.5 -119t-221 -101.5
t-123.5 -33.5zM68 137q-15 -35 -15 -57q45 15 90.5 52.5t57.5 70.5q5 13 2 25.5t-13 15.5q-22 6 -60.5 -21.5t-61.5 -85.5zM133 367q-6 -1 -12 5t-6 13q-1 7 27.5 32t54.5 42q61 37 84 39q10 1 24 -8.5t17 -20.5l26 -109q0 -16 -18 -20q-13 0 -23 37q-22 74 -26 74
t-37.5 -19.5t-55.5 -34.5q-48 -30 -55 -30z" />
    <glyph glyph-name="edieresis" unicode="&#xeb;" horiz-adv-x="604" 
d="M141 -25q-78 -6 -111 50t1 127q28 65 78.5 97t87.5 25q29 -4 37.5 -27.5t-3.5 -58.5q-18 -44 -65.5 -78t-108.5 -55q12 -44 72 -41q20 2 42 6.5t54 16t60 22.5t80.5 33.5t94.5 41t121.5 53.5t143.5 63q20 9 24 -5q4 -11 -8 -16q-107 -47 -255.5 -119t-221 -101.5
t-123.5 -33.5zM68 137q-15 -35 -15 -57q45 15 90.5 52.5t57.5 70.5q5 13 2 25.5t-13 15.5q-22 6 -60.5 -21.5t-61.5 -85.5zM188 403q-7 3 -12 23t-2 31q3 10 14 21.5t19 10.5q13 -3 21 -18t5 -29q-4 -13 -20 -27t-25 -12zM293 408q-6 0 -11.5 9.5t-5.5 22.5q0 6 16 23.5
t25 17.5q5 0 14 -9t9 -17q0 -15 -19.5 -31t-27.5 -16z" />
    <glyph glyph-name="igrave" unicode="&#xec;" horiz-adv-x="618" 
d="M758 258q8 0 11.5 -11t-3.5 -14q-8 -2 -47 -20t-123.5 -52t-187.5 -69q-218 -74 -267 -74q-36 0 -52.5 20.5t-16.5 49.5q0 61 20 119q7 24 17.5 35.5t35.5 15.5q5 1 10 -2.5t6 -11t-5 -19.5q-33 -66 -41 -135q-1 -18 4.5 -27.5t13.5 -9.5q64 0 258 68q84 30 177 65.5
t139 53.5t51 18zM299 324q-14 0 -84 79q-19 19 -41.5 38t-36 29.5t-14.5 12.5t1 6.5t8.5 8.5t14.5 4q20 0 93 -73t73 -85q0 -20 -14 -20z" />
    <glyph glyph-name="iacute" unicode="&#xed;" horiz-adv-x="618" 
d="M758 258q8 0 11.5 -11t-3.5 -14q-8 -2 -47 -20t-123.5 -52t-187.5 -69q-218 -74 -267 -74q-36 0 -52.5 20.5t-16.5 49.5q0 61 20 119q7 24 17.5 35.5t35.5 15.5q5 1 10 -2.5t6 -11t-5 -19.5q-33 -66 -41 -135q-1 -18 4.5 -27.5t13.5 -9.5q64 0 258 68q84 30 177 65.5
t139 53.5t51 18zM297 494q7 0 12.5 -5.5t5.5 -13.5q0 -18 -28 -33q-8 -4 -43 -26t-66 -41t-33 -19q-10 0 -10 13q0 4 54.5 48t70.5 56q24 21 37 21z" />
    <glyph glyph-name="icircumflex" unicode="&#xee;" horiz-adv-x="618" 
d="M758 258q8 0 11.5 -11t-3.5 -14q-8 -2 -47 -20t-123.5 -52t-187.5 -69q-218 -74 -267 -74q-36 0 -52.5 20.5t-16.5 49.5q0 61 20 119q7 24 17.5 35.5t35.5 15.5q5 1 10 -2.5t6 -11t-5 -19.5q-33 -66 -41 -135q-1 -18 4.5 -27.5t13.5 -9.5q64 0 258 68q84 30 177 65.5
t139 53.5t51 18zM72 356q-6 -2 -12.5 5t-6.5 14q-1 7 27.5 32t54.5 42q59 36 84 38q10 1 24 -8t17 -20l27 -109q0 -15 -19 -20q-12 0 -22 37q-21 73 -27 73q-4 0 -37 -19t-55 -34q-50 -31 -55 -31z" />
    <glyph glyph-name="idieresis" unicode="&#xef;" horiz-adv-x="618" 
d="M758 258q8 0 11.5 -11t-3.5 -14q-8 -2 -47 -20t-123.5 -52t-187.5 -69q-218 -74 -267 -74q-36 0 -52.5 20.5t-16.5 49.5q0 61 20 119q7 24 17.5 35.5t35.5 15.5q5 1 10 -2.5t6 -11t-5 -19.5q-33 -66 -41 -135q-1 -18 4.5 -27.5t13.5 -9.5q64 0 258 68q84 30 177 65.5
t139 53.5t51 18zM125 383q-7 3 -12 22.5t-2 30.5q4 11 14 22.5t18 10.5q13 -3 21.5 -18t5.5 -29q-4 -13 -20 -27t-25 -12zM229 387q-6 0 -11 10t-5 23q0 6 16 23.5t25 17.5q5 0 13.5 -9.5t8.5 -17.5q0 -15 -19.5 -31t-27.5 -16z" />
    <glyph glyph-name="eth" unicode="&#xf0;" horiz-adv-x="380" 
d="M178 602q-19 -2 -18 6q2 10 37 17q28 4 53 14q-3 70 -23 90q-19 17 -10 24q11 7 29 -12q24 -27 30 -92q56 21 103 47q21 10 24 2q2 -5 -14 -14q-44 -31 -110 -55q3 -69 -17.5 -148t-68.5 -149q-139 -205 -230 -205q-33 0 -51 14.5t-18 36.5q0 36 45 87.5t98 51.5
q50 0 67 -49q55 70 60 78q78 110 86 272q-24 -8 -72 -16zM-41 160q47 0 125 84q-28 28 -47 28q-40 0 -74.5 -31.5t-34.5 -58.5q0 -22 31 -22z" />
    <glyph glyph-name="ntilde" unicode="&#xf1;" horiz-adv-x="905" 
d="M119 240q1 4 3 7t3.5 4.5t5 3t5.5 1.5t6 1t5 1q19 0 17 -22q-2 -17 -9.5 -44.5t-16 -53t-9.5 -29.5q-2 -3 0 -6t6 -3q5 0 107 50q101 53 131 53q24 0 39.5 -18t15.5 -48q-6 -92 16 -94q27 -6 109.5 18t163.5 58l315 131q13 6 18 -8q5 -15 -12 -23q-47 -24 -309 -137
q-90 -38 -177.5 -62t-129.5 -16q-56 10 -49 109q3 41 -6 47q-13 8 -72 -23q-153 -74 -164 -74t-30 10t-19 21q0 4 7 26t16.5 56.5t13.5 63.5zM231 403q-14 0 -14 27q0 18 46 41t85 23q27 0 43 -16.5t15 -45.5q0 -31 16 -31q21 0 87.5 31t68.5 31q20 0 20 -17
q0 -11 -74.5 -45t-107.5 -34q-42 0 -45 53q-3 33 -25 33q-20 0 -64.5 -25t-50.5 -25z" />
    <glyph glyph-name="ograve" unicode="&#xf2;" horiz-adv-x="567" 
d="M-10 84q17 37 55 90q-21 21 -27 35q-28 58 12.5 114t108.5 56q67 0 106.5 -58t39.5 -155v-6q16 0 26 2q72 6 190 34t189 54q12 5 18 -9q3 -9 -3 -12q-54 -22 -187.5 -59.5t-212.5 -44.5q-8 -2 -22 -2q-13 -140 -97.5 -248t-160.5 -108q-45 0 -68 45.5t-15 120t48 151.5z
M16 -197q72 0 140.5 94.5t81.5 225.5q-96 0 -158 29q-38 -54 -49 -76q-36 -71 -46.5 -137t0 -101t31.5 -35zM154 242q0 -2 -6.5 -9l-19.5 -21t-24 -28q55 -24 138 -24v20q0 76 -32 120t-77 44q-44 0 -71.5 -35.5t-6.5 -79.5q1 -3 17 -24q48 51 63 51q19 0 19 -14zM356 446
q-13 0 -84 80q-19 19 -41.5 38t-36 29.5t-14.5 12.5t1.5 6.5t9 8.5t14.5 4q20 0 93 -73t73 -85q0 -21 -15 -21z" />
    <glyph glyph-name="oacute" unicode="&#xf3;" horiz-adv-x="567" 
d="M-10 84q17 37 55 90q-21 21 -27 35q-28 58 12.5 114t108.5 56q67 0 106.5 -58t39.5 -155v-6q16 0 26 2q72 6 190 34t189 54q12 5 18 -9q3 -9 -3 -12q-54 -22 -187.5 -59.5t-212.5 -44.5q-8 -2 -22 -2q-13 -140 -97.5 -248t-160.5 -108q-45 0 -68 45.5t-15 120t48 151.5z
M16 -197q72 0 140.5 94.5t81.5 225.5q-96 0 -158 29q-38 -54 -49 -76q-36 -71 -46.5 -137t0 -101t31.5 -35zM154 242q0 -2 -6.5 -9l-19.5 -21t-24 -28q55 -24 138 -24v20q0 76 -32 120t-77 44q-44 0 -71.5 -35.5t-6.5 -79.5q1 -3 17 -24q48 51 63 51q19 0 19 -14zM381 569
q7 0 12.5 -5t5.5 -13q0 -18 -28 -33q-8 -4 -43 -26t-66 -41t-33 -19q-10 0 -10 12q0 4 54.5 49t70.5 56q23 20 37 20z" />
    <glyph glyph-name="ocircumflex" unicode="&#xf4;" horiz-adv-x="567" 
d="M-10 84q17 37 55 90q-21 21 -27 35q-28 58 12.5 114t108.5 56q67 0 106.5 -58t39.5 -155v-6q16 0 26 2q72 6 190 34t189 54q12 5 18 -9q3 -9 -3 -12q-54 -22 -187.5 -59.5t-212.5 -44.5q-8 -2 -22 -2q-13 -140 -97.5 -248t-160.5 -108q-45 0 -68 45.5t-15 120t48 151.5z
M16 -197q72 0 140.5 94.5t81.5 225.5q-96 0 -158 29q-38 -54 -49 -76q-36 -71 -46.5 -137t0 -101t31.5 -35zM154 242q0 -2 -6.5 -9l-19.5 -21t-24 -28q55 -24 138 -24v20q0 76 -32 120t-77 44q-44 0 -71.5 -35.5t-6.5 -79.5q1 -3 17 -24q48 51 63 51q19 0 19 -14zM160 485
q-6 -1 -12.5 5t-6.5 14q-1 7 27.5 32t54.5 42q59 36 84 38q10 1 24 -8t17 -20l27 -109q0 -15 -19 -20q-12 0 -22 37q-21 73 -27 73q-4 0 -37 -19t-55 -34q-50 -31 -55 -31z" />
    <glyph glyph-name="otilde" unicode="&#xf5;" horiz-adv-x="567" 
d="M-10 84q17 37 55 90q-21 21 -27 35q-28 58 12.5 114t108.5 56q67 0 106.5 -58t39.5 -155v-6q16 0 26 2q72 6 190 34t189 54q12 5 18 -9q3 -9 -3 -12q-54 -22 -187.5 -59.5t-212.5 -44.5q-8 -2 -22 -2q-13 -140 -97.5 -248t-160.5 -108q-45 0 -68 45.5t-15 120t48 151.5z
M16 -197q72 0 140.5 94.5t81.5 225.5q-96 0 -158 29q-38 -54 -49 -76q-36 -71 -46.5 -137t0 -101t31.5 -35zM154 242q0 -2 -6.5 -9l-19.5 -21t-24 -28q55 -24 138 -24v20q0 76 -32 120t-77 44q-44 0 -71.5 -35.5t-6.5 -79.5q1 -3 17 -24q48 51 63 51q19 0 19 -14zM119 459
q-15 0 -15 26q0 18 46.5 41t85.5 23q27 0 42.5 -16.5t14.5 -45.5q0 -30 16 -30q21 0 87.5 30.5t68.5 30.5q20 0 20 -16q0 -11 -74.5 -45.5t-107.5 -34.5q-42 0 -45 53q-3 33 -25 33q-20 0 -64 -24.5t-50 -24.5z" />
    <glyph glyph-name="odieresis" unicode="&#xf6;" horiz-adv-x="567" 
d="M-10 84q17 37 55 90q-21 21 -27 35q-28 58 12.5 114t108.5 56q67 0 106.5 -58t39.5 -155v-6q16 0 26 2q72 6 190 34t189 54q12 5 18 -9q3 -9 -3 -12q-54 -22 -187.5 -59.5t-212.5 -44.5q-8 -2 -22 -2q-13 -140 -97.5 -248t-160.5 -108q-45 0 -68 45.5t-15 120t48 151.5z
M16 -197q72 0 140.5 94.5t81.5 225.5q-96 0 -158 29q-38 -54 -49 -76q-36 -71 -46.5 -137t0 -101t31.5 -35zM154 242q0 -2 -6.5 -9l-19.5 -21t-24 -28q55 -24 138 -24v20q0 76 -32 120t-77 44q-44 0 -71.5 -35.5t-6.5 -79.5q1 -3 17 -24q48 51 63 51q19 0 19 -14zM217 457
q-7 3 -12 22.5t-2 30.5q4 11 14.5 22.5t18.5 10.5q13 -3 21 -18t5 -29q-4 -13 -20 -27t-25 -12zM322 461q-6 0 -11.5 10t-5.5 23q0 6 16 23.5t25 17.5q5 0 14 -9.5t9 -17.5q0 -15 -19.5 -31t-27.5 -16z" />
    <glyph glyph-name="divide" unicode="&#xf7;" horiz-adv-x="430" 
d="M131 -4q-5 -1 -12.5 3t-12 14.5t4.5 29.5q13 23 32.5 39.5t34.5 19.5q17 2 3 -36q-6 -15 -11 -21q-7 -14 -19.5 -31t-19.5 -18zM283 375q-13 -3 -13 13q-1 19 13 42q2 5 7 14.5t7 13t5.5 10t6.5 9t7 5t8 3.5q10 1 16 -5.5t4.5 -20t-12.5 -31.5q-24 -47 -49 -53zM117 209
q-22 0 -8 18q14 19 32 21q80 8 156 8q18 0 29 -22q7 -20 -11 -23q-16 0 -100 -1t-98 -1z" />
    <glyph glyph-name="oslash" unicode="&#xf8;" horiz-adv-x="567" 
d="M-78 -236q-17 0 27 72q-14 42 -3.5 110.5t44.5 137.5q17 37 55 90q-21 21 -27 35q-28 58 12.5 114t108.5 56q86 0 123 -92q52 67 69 85.5t25 18.5q7 0 10 -0.5t5 -2.5t2 -7q0 -3 -3.5 -10t-13.5 -20t-19.5 -24.5t-28.5 -35.5t-34 -43q11 -46 11 -82v-6q16 0 26 2
q72 6 190 34t189 54q12 5 18 -9q3 -9 -3 -12q-54 -22 -187.5 -59.5t-212.5 -44.5q-8 -2 -22 -2q-13 -140 -97.5 -248t-160.5 -108q-43 0 -64 38q-30 -41 -39 -41zM16 -197q72 0 140.5 94.5t81.5 225.5q-38 0 -56 2q-35 -48 -105.5 -153.5t-90.5 -133.5q9 -35 30 -35z
M154 242q0 -2 -6.5 -9l-19.5 -21t-24 -28q21 -10 68 -18l39 53q3 3 10 13.5t12 15.5q-12 46 -39.5 71t-60.5 25q-44 0 -71.5 -35.5t-6.5 -79.5q1 -3 17 -24q48 51 63 51q19 0 19 -14zM31 76q-51 -99 -51 -191q116 172 167 246q-41 7 -67 21q-38 -54 -49 -76zM209 160h33v20
q0 17 -2 23l-4 -6z" />
    <glyph glyph-name="ugrave" unicode="&#xf9;" horiz-adv-x="937" 
d="M268 -35q23 109 76 209q-45 -51 -76 -84q-55 -58 -125.5 -111t-97.5 -53q-46 0 -41 70q5 53 47 145q19 42 44 77t40 38q13 1 19 -7.5t6 -15.5t-13 -22.5t-33 -41t-32 -48.5q-28 -55 -41 -107q-4 -23 0 -35t12 -12q23 0 88 51.5t103 92.5q16 17 42.5 46.5t38.5 42.5
t28.5 28.5t27 20.5t18.5 3q23 -5 -7 -66q-4 -10 -7 -16q-53 -113 -78 -209q-23 -96 27 -96q67 0 201 72.5t303 181.5t225 139q15 6 27 -1q11 -5 -9 -19q-32 -20 -129.5 -86.5t-170 -113t-165 -101t-166 -84t-120.5 -29.5q-96 0 -62 141zM414 322q-14 0 -84 79
q-19 19 -41.5 38t-36 29.5t-14.5 12.5t1 6.5t8.5 8.5t14.5 4q20 0 93 -73t73 -85q0 -20 -14 -20z" />
    <glyph glyph-name="uacute" unicode="&#xfa;" horiz-adv-x="937" 
d="M268 -35q23 109 76 209q-45 -51 -76 -84q-55 -58 -125.5 -111t-97.5 -53q-46 0 -41 70q5 53 47 145q19 42 44 77t40 38q13 1 19 -7.5t6 -15.5t-13 -22.5t-33 -41t-32 -48.5q-28 -55 -41 -107q-4 -23 0 -35t12 -12q23 0 88 51.5t103 92.5q16 17 42.5 46.5t38.5 42.5
t28.5 28.5t27 20.5t18.5 3q23 -5 -7 -66q-4 -10 -7 -16q-53 -113 -78 -209q-23 -96 27 -96q67 0 201 72.5t303 181.5t225 139q15 6 27 -1q11 -5 -9 -19q-32 -20 -129.5 -86.5t-170 -113t-165 -101t-166 -84t-120.5 -29.5q-96 0 -62 141zM412 492q7 0 12.5 -5.5t5.5 -13.5
q0 -18 -29 -33q-8 -4 -43 -26t-65.5 -41t-32.5 -19q-10 0 -10 13q0 4 54.5 48t70.5 56q25 21 37 21z" />
    <glyph glyph-name="ucircumflex" unicode="&#xfb;" horiz-adv-x="937" 
d="M268 -35q23 109 76 209q-45 -51 -76 -84q-55 -58 -125.5 -111t-97.5 -53q-46 0 -41 70q5 53 47 145q19 42 44 77t40 38q13 1 19 -7.5t6 -15.5t-13 -22.5t-33 -41t-32 -48.5q-28 -55 -41 -107q-4 -23 0 -35t12 -12q23 0 88 51.5t103 92.5q16 17 42.5 46.5t38.5 42.5
t28.5 28.5t27 20.5t18.5 3q23 -5 -7 -66q-4 -10 -7 -16q-53 -113 -78 -209q-23 -96 27 -96q67 0 201 72.5t303 181.5t225 139q15 6 27 -1q11 -5 -9 -19q-32 -20 -129.5 -86.5t-170 -113t-165 -101t-166 -84t-120.5 -29.5q-96 0 -62 141zM219 360q-6 -1 -12 5t-6 14
q-1 7 27.5 32t54.5 42q61 37 84 39q10 1 24 -8.5t17 -20.5l26 -109q0 -16 -18 -20q-13 0 -23 37q-21 73 -26 73t-38 -19t-55 -34q-50 -31 -55 -31z" />
    <glyph glyph-name="udieresis" unicode="&#xfc;" horiz-adv-x="937" 
d="M268 -35q23 109 76 209q-45 -51 -76 -84q-55 -58 -125.5 -111t-97.5 -53q-46 0 -41 70q5 53 47 145q19 42 44 77t40 38q13 1 19 -7.5t6 -15.5t-13 -22.5t-33 -41t-32 -48.5q-28 -55 -41 -107q-4 -23 0 -35t12 -12q23 0 88 51.5t103 92.5q16 17 42.5 46.5t38.5 42.5
t28.5 28.5t27 20.5t18.5 3q23 -5 -7 -66q-4 -10 -7 -16q-53 -113 -78 -209q-23 -96 27 -96q67 0 201 72.5t303 181.5t225 139q15 6 27 -1q11 -5 -9 -19q-32 -20 -129.5 -86.5t-170 -113t-165 -101t-166 -84t-120.5 -29.5q-96 0 -62 141zM244 371q-7 3 -12.5 22.5t-2.5 30.5
q4 11 14.5 22.5t18.5 10.5q13 -3 21.5 -18t5.5 -29q-4 -13 -20 -27t-25 -12zM348 375q-6 0 -11 10t-5 23q0 6 16 23.5t25 17.5q5 0 13.5 -9.5t8.5 -17.5q0 -15 -19.5 -31t-27.5 -16z" />
    <glyph glyph-name="yacute" unicode="&#xfd;" horiz-adv-x="860" 
d="M451 213q-24 0 -58 -30t-96 -97q-65 -70 -112 -109.5t-79 -39.5q-23 0 -36 20t-4 53q27 100 47 160q5 17 8 34t3.5 25t4 14t10.5 7q13 1 21 -6.5t8 -14.5q0 -14 -25 -79q-35 -101 -39 -119q-11 -47 9 -47t67 35t92 87q13 15 31 34.5t28 30.5t23.5 25.5t21.5 22t18.5 17
t17.5 14t15.5 9t16 6t15.5 1.5q58 0 63 -151q110 65 213 106t137 41q22 0 28 -17q0 -15 -17 -18q-37 0 -143 -43t-218 -114q-3 -144 -51 -332t-117 -311q-72 -127 -159.5 -203t-167.5 -76q-49 0 -89 35t-40 106q0 118 92 282.5t266 340.5q93 96 227 178q-2 64 -8 93.5
t-24 29.5zM317 -545q68 118 115.5 297t50.5 293q-109 -70 -198 -162q-172 -173 -259 -336.5t-87 -263.5q0 -45 18 -70.5t53 -25.5q63 0 148.5 69.5t158.5 198.5zM406 483q7 0 12.5 -5t5.5 -13q0 -18 -29 -33q-8 -4 -43 -26t-65.5 -41t-32.5 -19q-10 0 -10 12q0 4 54.5 49
t70.5 56q23 20 37 20z" />
    <glyph glyph-name="thorn" unicode="&#xfe;" horiz-adv-x="417" 
d="M246 829q14 6 20.5 -4t3.5 -26q-2 -18 -14 -87.5t-39 -204.5t-57 -255l-6 -25q-3 -6 -11 -15t-10 -11q-8 -5 -18.5 -23t-14.5 -37q-10 -49 9 -92q-25 -96 -58 -216.5t-54 -198t-28 -107.5q-20 -78 -43 -147.5t-38.5 -105.5t-20.5 -38q-7 -3 -9.5 3.5t4.5 51t29 129.5
q4 16 34.5 122t58.5 206.5t66.5 245.5t66.5 264q48 196 79.5 344.5t38.5 187t11 39.5zM131 135q-17 -61 -22 -86q14 -36 38 -39q36 -8 80 28.5t70 98.5q26 63 15 114.5t-48 51.5q-50 0 -110 -76l-15 -53q77 96 121 90q14 -1 13.5 -31.5t-15.5 -66.5q-21 -57 -50.5 -88
t-51.5 -23q-33 8 -25 80zM125 154l12 16q0 4 2 6q2 10 1.5 16t-2.5 8t-5 1l-20 -39q-14 -28 -6 -26q5 1 18 18zM139 174l-8 -39q0 20 6 35q2 2 2 4z" />
    <glyph glyph-name="ydieresis" unicode="&#xff;" horiz-adv-x="860" 
d="M451 213q-24 0 -58 -30t-96 -97q-65 -70 -112 -109.5t-79 -39.5q-23 0 -36 20t-4 53q27 100 47 160q5 17 8 34t3.5 25t4 14t10.5 7q13 1 21 -6.5t8 -14.5q0 -14 -25 -79q-35 -101 -39 -119q-11 -47 9 -47t67 35t92 87q13 15 31 34.5t28 30.5t23.5 25.5t21.5 22t18.5 17
t17.5 14t15.5 9t16 6t15.5 1.5q58 0 63 -151q110 65 213 106t137 41q22 0 28 -17q0 -15 -17 -18q-37 0 -143 -43t-218 -114q-3 -144 -51 -332t-117 -311q-72 -127 -159.5 -203t-167.5 -76q-49 0 -89 35t-40 106q0 118 92 282.5t266 340.5q93 96 227 178q-2 64 -8 93.5
t-24 29.5zM317 -545q68 118 115.5 297t50.5 293q-109 -70 -198 -162q-172 -173 -259 -336.5t-87 -263.5q0 -45 18 -70.5t53 -25.5q63 0 148.5 69.5t158.5 198.5zM276 356q-7 3 -12 23t-2 31q3 10 14 21.5t19 10.5q13 -3 21.5 -18t5.5 -29q-4 -13 -20.5 -27t-25.5 -12z
M381 360q-6 0 -11 10t-5 23q0 6 16 23.5t25 17.5q5 0 13.5 -9t8.5 -17q0 -15 -19.5 -31.5t-27.5 -16.5z" />
    <glyph glyph-name="Amacron" unicode="&#x100;" horiz-adv-x="1622" 
d="M1217 -719q2 7 22 223l-10 66q-17 105 -132.5 220.5t-271.5 184.5q-173 74 -274 121q-355 -592 -537 -1018q-19 -44 -39 -43q-16 0 -15 23q0 8 3 16q101 238 218 464t325 579q-33 14 -88 41q-36 18 -30 51q7 46 91 70q54 15 133 16l58 92q111 184 233 345t221 265
t186 179.5t140 108t72 30.5q43 -5 63.5 -32.5t11.5 -72.5q-3 -20 -34 -150t-81 -352.5t-93 -437.5q52 -12 88 -30q8 -4 26 -14q33 -16 33 -20q-1 -11 -147 9h-11q-49 -259 -66 -386t-30 -308q-1 -3 -1 -9.5t-1 -9.5q18 -121 14 -178q-1 -21 -22 -42t-33 -19q-3 0 -8.5 0.5
t-7 1t-5.5 2t-2.5 5t1.5 9.5zM672 295q229 2 678 -19q45 229 97.5 455t83.5 347t32 132q6 26 1 47.5t-30 24.5q-12 1 -72 -50t-152 -143.5t-194 -205.5t-211 -253t-190 -268zM840 6q337 -160 411 -366q21 229 86 581q-258 27 -700 17q-31 -47 -64 -105zM446 193l82 -39
l50 82q-126 -9 -138 -34q-3 -7 6 -9zM1647 1397q-234 0 -234 18q0 19 68 19q17 0 85 1t72 1q12 0 27.5 -7t15.5 -14t-10.5 -12.5t-23.5 -5.5z" />
    <glyph glyph-name="amacron" unicode="&#x101;" horiz-adv-x="913" 
d="M344 -10q94 0 322.5 93.5t361.5 166.5q10 6 25 2q18 -5 -6 -21q-115 -75 -363 -179.5t-342 -104.5q-68 0 -98.5 31t-30.5 71q0 18 2 36t3 22.5t-1 9.5q-9 9 -84 -31q-43 -25 -86 -43t-59 -18q-20 0 -34.5 10t-14.5 20q0 75 102 150q79 61 141 61q33 0 54 -39
q16 -28 5 -33q-1 -1 -3 -1q-10 0 -24 20t-26 20q-38 0 -118 -55q-37 -24 -66 -60t-29 -50q0 -7 9 -7q25 0 110 43q18 9 43 21t38.5 18.5t29 13.5t26 10t17.5 3q26 0 26 -18q0 -4 -10 -39t-10 -62q0 -26 25 -43.5t65 -17.5zM334 387q-156 0 -156 19q0 18 45 18q10 0 56 1
t49 1q8 0 18 -6.5t10 -13.5t-7 -13t-15 -6z" />
    <glyph glyph-name="Abreve" unicode="&#x102;" horiz-adv-x="1622" 
d="M1217 -719q2 7 22 223l-10 66q-17 105 -132.5 220.5t-271.5 184.5q-173 74 -274 121q-355 -592 -537 -1018q-19 -44 -39 -43q-16 0 -15 23q0 8 3 16q101 238 218 464t325 579q-33 14 -88 41q-36 18 -30 51q7 46 91 70q54 15 133 16l58 92q111 184 233 345t221 265
t186 179.5t140 108t72 30.5q43 -5 63.5 -32.5t11.5 -72.5q-3 -20 -34 -150t-81 -352.5t-93 -437.5q52 -12 88 -30q8 -4 26 -14q33 -16 33 -20q-1 -11 -147 9h-11q-49 -259 -66 -386t-30 -308q-1 -3 -1 -9.5t-1 -9.5q18 -121 14 -178q-1 -21 -22 -42t-33 -19q-3 0 -8.5 0.5
t-7 1t-5.5 2t-2.5 5t1.5 9.5zM672 295q229 2 678 -19q45 229 97.5 455t83.5 347t32 132q6 26 1 47.5t-30 24.5q-12 1 -72 -50t-152 -143.5t-194 -205.5t-211 -253t-190 -268zM840 6q337 -160 411 -366q21 229 86 581q-258 27 -700 17q-31 -47 -64 -105zM446 193l82 -39
l50 82q-126 -9 -138 -34q-3 -7 6 -9zM1657 1393q-67 0 -91 30t-24 78q0 27 13 45.5t24 18.5q18 0 18 -21q0 -5 -8 -27.5t-8 -33.5q0 -21 21 -32t47 -11q41 0 77 24t60 56q15 21 33 15q16 -6 4 -24q-21 -37 -65.5 -77.5t-100.5 -40.5z" />
    <glyph glyph-name="abreve" unicode="&#x103;" horiz-adv-x="913" 
d="M344 -10q94 0 322.5 93.5t361.5 166.5q10 6 25 2q18 -5 -6 -21q-115 -75 -363 -179.5t-342 -104.5q-68 0 -98.5 31t-30.5 71q0 18 2 36t3 22.5t-1 9.5q-9 9 -84 -31q-43 -25 -86 -43t-59 -18q-20 0 -34.5 10t-14.5 20q0 75 102 150q79 61 141 61q33 0 54 -39
q16 -28 5 -33q-1 -1 -3 -1q-10 0 -24 20t-26 20q-38 0 -118 -55q-37 -24 -66 -60t-29 -50q0 -7 9 -7q25 0 110 43q18 9 43 21t38.5 18.5t29 13.5t26 10t17.5 3q26 0 26 -18q0 -4 -10 -39t-10 -62q0 -26 25 -43.5t65 -17.5zM281 360q-67 0 -91 30.5t-24 78.5q0 26 13 44.5
t24 18.5q18 0 18 -20q0 -5 -8 -27.5t-8 -33.5q0 -21 20.5 -32t46.5 -11q41 0 78 23.5t60 55.5q16 21 33 15q14 -5 3 -23q-8 -14 -21 -31.5t-34.5 -38.5t-50.5 -35t-59 -14z" />
    <glyph glyph-name="Aogonek" unicode="&#x104;" horiz-adv-x="1622" 
d="M1221 -981q25 17 34 7q8 -8 -10 -25q-34 -31 -72 -32.5t-69 27.5q-24 23 -32.5 57t3.5 73q12 33 31 61t34.5 42.5t40 35t33.5 28.5l5 5q7 45 20 206l-10 66q-17 105 -132.5 220.5t-271.5 184.5q-173 74 -274 121q-355 -592 -537 -1018q-19 -44 -39 -43q-16 0 -15 23
q0 8 3 16q101 238 218 464t325 579q-33 14 -88 41q-36 18 -30 51q7 46 91 70q54 15 133 16l58 92q111 184 233 345t221 265t186 179.5t140 108t72 30.5q43 -5 63.5 -32.5t11.5 -72.5q-3 -20 -34 -150t-81 -352.5t-93 -437.5q52 -12 88 -30q8 -4 26 -14q33 -16 33 -20
q-1 -11 -147 9h-11q-49 -259 -66 -386t-30 -308q-1 -3 -1 -9.5t-1 -9.5q18 -121 14 -178q-1 -21 -22 -42t-33 -19h-4q-40 -40 -71 -87.5t-38 -86.5q-7 -38 8 -61.5t38.5 -23.5t48.5 15zM672 295q229 2 678 -19q45 229 97.5 455t83.5 347t32 132q6 26 1 47.5t-30 24.5
q-12 1 -72 -50t-152 -143.5t-194 -205.5t-211 -253t-190 -268zM840 6q337 -160 411 -366q21 229 86 581q-258 27 -700 17q-31 -47 -64 -105zM446 193l82 -39l50 82q-126 -9 -138 -34q-3 -7 6 -9z" />
    <glyph glyph-name="aogonek" unicode="&#x105;" horiz-adv-x="913" 
d="M311 -303q23 16 34 7q10 -8 -9 -26q-34 -31 -72 -32t-69 28q-51 48 -23 127q26 75 115 154q-74 21 -74 94q0 18 2 36t3 22.5t-1 9.5q-9 9 -84 -31q-43 -25 -86 -43t-59 -18q-20 0 -34.5 10t-14.5 20q0 75 102 150q79 61 141 61q33 0 54 -39q16 -28 5 -33q-1 -1 -3 -1
q-10 0 -24 20t-26 20q-38 0 -118 -55q-37 -24 -66 -60t-29 -50q0 -7 9 -7q25 0 110 43q18 9 43 21t38.5 18.5t29 13.5t26 10t17.5 3q26 0 26 -18q0 -4 -10 -39t-10 -62q0 -26 25 -43.5t65 -17.5q94 0 322.5 93.5t361.5 166.5q10 6 25 2q18 -5 -6 -21q-115 -75 -363 -179.5
t-342 -104.5h-10q-4 0 -4 -4q-98 -98 -111 -170q-7 -38 7.5 -63t38 -26.5t48.5 13.5z" />
    <glyph glyph-name="Cacute" unicode="&#x106;" horiz-adv-x="1191" 
d="M330 -526q128 0 294.5 58.5t301.5 137.5t213 154q19 17 31 6q11 -9 -3 -25q-147 -163 -384.5 -274t-428.5 -111q-157 0 -252.5 83.5t-95.5 211.5q0 324 350 772q224 287 438.5 436.5t376.5 149.5q58 0 90.5 -30.5t32.5 -84.5q0 -47 -36 -75q-21 -15 -25 -5q-2 4 4 15
q9 17 12.5 38.5t0 43t-22.5 35.5t-51 14q-42 0 -117 -31t-177.5 -94.5t-234.5 -184t-258 -276.5q-342 -418 -342 -723q0 -72 45 -129t108.5 -84.5t129.5 -27.5zM1305 1315q7 0 12.5 -5.5t5.5 -13.5q0 -17 -29 -32q-8 -4 -43 -26t-65.5 -41t-32.5 -19q-10 0 -10 12
q0 4 54.5 48t70.5 56q24 21 37 21z" />
    <glyph glyph-name="cacute" unicode="&#x107;" horiz-adv-x="626" 
d="M-59 41q-5 37 20.5 82.5t79.5 89.5q79 66 152 66q31 0 36 -24q3 -16 -7 -19q-3 -2 -7 0q-52 19 -143 -48q-92 -68 -88 -133q1 -31 40 -45t93 -8q102 11 297 92t334 156q11 6 26 1q16 -5 -6 -20q-117 -74 -326.5 -160.5t-312.5 -101.5q-78 -11 -129.5 5.5t-58.5 66.5z
M360 502q7 0 13 -5.5t6 -13.5q0 -17 -29 -32q-8 -4 -43 -26t-65.5 -41t-32.5 -19q-10 0 -10 12q0 4 54.5 48t70.5 56q25 21 36 21z" />
    <glyph glyph-name="Ccircumflex" unicode="&#x108;" horiz-adv-x="1191" 
d="M330 -526q128 0 294.5 58.5t301.5 137.5t213 154q19 17 31 6q11 -9 -3 -25q-147 -163 -384.5 -274t-428.5 -111q-157 0 -252.5 83.5t-95.5 211.5q0 324 350 772q224 287 438.5 436.5t376.5 149.5q58 0 90.5 -30.5t32.5 -84.5q0 -47 -36 -75q-21 -15 -25 -5q-2 4 4 15
q9 17 12.5 38.5t0 43t-22.5 35.5t-51 14q-42 0 -117 -31t-177.5 -94.5t-234.5 -184t-258 -276.5q-342 -418 -342 -723q0 -72 45 -129t108.5 -84.5t129.5 -27.5zM1114 1163q-6 -1 -12 5t-6 14q-1 7 27.5 31.5t54.5 41.5q61 37 84 39q10 1 24 -8t17 -20l26 -109q0 -15 -18 -20
q-13 0 -23 37q-21 73 -26 73t-38 -19t-55 -34q-50 -31 -55 -31z" />
    <glyph glyph-name="ccircumflex" unicode="&#x109;" horiz-adv-x="626" 
d="M-59 41q-5 37 20.5 82.5t79.5 89.5q79 66 152 66q31 0 36 -24q3 -16 -7 -19q-3 -2 -7 0q-52 19 -143 -48q-92 -68 -88 -133q1 -31 40 -45t93 -8q102 11 297 92t334 156q11 6 26 1q16 -5 -6 -20q-117 -74 -326.5 -160.5t-312.5 -101.5q-78 -11 -129.5 5.5t-58.5 66.5z
M215 354q-6 -1 -12 5t-6 14q-1 7 27.5 31.5t54.5 41.5q3 2 13.5 8t13.5 8t11.5 7t12.5 6.5t10 4t11.5 4t10.5 1.5q10 1 24 -8t17 -20l27 -109q0 -16 -18 -20q-13 0 -23 37q-21 73 -27 73q-4 0 -37 -19t-55 -34q-50 -31 -55 -31z" />
    <glyph glyph-name="Cdotaccent" unicode="&#x10a;" horiz-adv-x="1191" 
d="M330 -526q128 0 294.5 58.5t301.5 137.5t213 154q19 17 31 6q11 -9 -3 -25q-147 -163 -384.5 -274t-428.5 -111q-157 0 -252.5 83.5t-95.5 211.5q0 324 350 772q224 287 438.5 436.5t376.5 149.5q58 0 90.5 -30.5t32.5 -84.5q0 -47 -36 -75q-21 -15 -25 -5q-2 4 4 15
q9 17 12.5 38.5t0 43t-22.5 35.5t-51 14q-42 0 -117 -31t-177.5 -94.5t-234.5 -184t-258 -276.5q-342 -418 -342 -723q0 -72 45 -129t108.5 -84.5t129.5 -27.5zM1227 1149q-7 3 -12.5 22.5t-2.5 30.5q4 11 14.5 22.5t18.5 10.5q13 -3 21.5 -18t5.5 -29q-4 -13 -20 -27
t-25 -12z" />
    <glyph glyph-name="cdotaccent" unicode="&#x10b;" horiz-adv-x="626" 
d="M-59 41q-5 37 20.5 82.5t79.5 89.5q79 66 152 66q31 0 36 -24q3 -16 -7 -19q-3 -2 -7 0q-52 19 -143 -48q-92 -68 -88 -133q1 -31 40 -45t93 -8q102 11 297 92t334 156q11 6 26 1q16 -5 -6 -20q-117 -74 -326.5 -160.5t-312.5 -101.5q-78 -11 -129.5 5.5t-58.5 66.5z
M229 403q-7 3 -12 23t-2 31q3 10 14 21.5t19 10.5q13 -3 21 -18t5 -29q-4 -13 -20 -27t-25 -12z" />
    <glyph glyph-name="Ccaron" unicode="&#x10c;" horiz-adv-x="1191" 
d="M330 -526q128 0 294.5 58.5t301.5 137.5t213 154q19 17 31 6q11 -9 -3 -25q-147 -163 -384.5 -274t-428.5 -111q-157 0 -252.5 83.5t-95.5 211.5q0 324 350 772q224 287 438.5 436.5t376.5 149.5q58 0 90.5 -30.5t32.5 -84.5q0 -47 -36 -75q-21 -15 -25 -5q-2 4 4 15
q9 17 12.5 38.5t0 43t-22.5 35.5t-51 14q-42 0 -117 -31t-177.5 -94.5t-234.5 -184t-258 -276.5q-342 -418 -342 -723q0 -72 45 -129t108.5 -84.5t129.5 -27.5zM1188 1174q-9 0 -16 9.5t-21 37.5q-25 52 -25 55q0 18 15 18q14 0 24 -20q2 -6 8.5 -20t12 -24.5t4.5 -10.5
q4 0 54.5 24t102 49.5t54.5 26.5q8 4 11.5 2.5t12.5 -12.5q10 -10 4.5 -18.5t-36.5 -26.5q-46 -24 -117 -57t-88 -33z" />
    <glyph glyph-name="ccaron" unicode="&#x10d;" horiz-adv-x="626" 
d="M-59 41q-5 37 20.5 82.5t79.5 89.5q79 66 152 66q31 0 36 -24q3 -16 -7 -19q-3 -2 -7 0q-52 19 -143 -48q-92 -68 -88 -133q1 -31 40 -45t93 -8q102 11 297 92t334 156q11 6 26 1q16 -5 -6 -20q-117 -74 -326.5 -160.5t-312.5 -101.5q-78 -11 -129.5 5.5t-58.5 66.5z
M211 360q-9 0 -16 9.5t-21 38.5q-24 50 -24 55q0 18 14 18t24 -20q2 -6 8.5 -20t12 -24.5t4.5 -10.5q4 0 54.5 24t102 49.5t54.5 26.5q8 4 12 2.5t13 -12.5q10 -10 4 -18.5t-37 -26.5q-48 -25 -118.5 -58t-86.5 -33z" />
    <glyph glyph-name="Dcaron" unicode="&#x10e;" horiz-adv-x="1603" 
d="M205 498q0 -111 114 -189q10 -7 -7 -10q-24 -5 -42 8q-38 28 -69 85t-31 118q0 98 65.5 197.5t182.5 181.5q153 108 317 161.5t303 53.5q72 0 139 -16.5t131 -55t110.5 -96t75 -147.5t28.5 -201q0 -234 -115.5 -506.5t-314.5 -478.5q-169 -177 -390.5 -288.5
t-388.5 -111.5q-157 0 -235 72t-78 195q0 78 25 163t76.5 176.5t141 185.5t208.5 177q7 4 37 24t47 29q123 477 159 572q11 32 21 30q13 -1 11 -41q-1 -15 -5 -30q-68 -231 -139 -504q106 56 215 86.5t158 34.5t71 2q13 -1 13 -7q-1 -13 -45 -19q-6 -1 -13 -1
q-63 -5 -174.5 -43t-245.5 -125q-102 -397 -135 -555q-7 -34 -16 -33q-10 1 -11 31q-1 7 0 12q26 166 115 512l-41 -30q-210 -161 -326 -342t-116 -305q0 -86 72.5 -142.5t213.5 -56.5q164 0 395 115t345 249q198 226 304.5 476.5t106.5 509.5q0 197 -114 314.5t-324 117.5
q-129 0 -286 -56t-287 -143q-122 -81 -187 -178t-65 -178zM1130 1180q-9 0 -15.5 9t-20.5 38q-25 52 -25 55q0 18 14 18q15 0 25 -20q2 -6 8.5 -20t12 -24.5t4.5 -10.5q4 0 54 24t101.5 49.5t54.5 26.5q8 4 12 2.5t13 -12.5q10 -10 4 -18.5t-37 -26.5q-46 -24 -117 -57
t-88 -33z" />
    <glyph glyph-name="dcaron" unicode="&#x10f;" horiz-adv-x="638" 
d="M283 254q72 123 315 524l49 133q66 177 81 212.5t28 35.5q14 0 31 -23t14 -38q-4 -18 -135 -256q-17 -52 -64.5 -192t-76 -225t-69.5 -217t-73 -247q-29 -102 -49.5 -189t-30.5 -144t-14.5 -98t-3 -59.5t7.5 -19.5q11 -3 2 -16q-13 -17 -31 -8q-55 28 86 555
q80 298 199 651q-141 -238 -236 -389q42 -19 66 -39q9 -9 3.5 -17t-17.5 -2l-70 31q-189 -296 -236 -361t-75 -65q-26 0 -47 32.5t-21 80.5q0 83 36.5 166.5t105 140.5t147.5 57q34 0 78 -14zM-16 -172q16 0 116.5 145t163.5 252q-24 4 -37 4q-73 0 -135.5 -53.5
t-95.5 -127.5t-33 -142q0 -78 21 -78zM889 950q-7 0 -9 8.5t3 14.5q1 1 6 8t9.5 14.5t10.5 24.5t9 39t-0.5 37t-8 22t-4.5 10q4 11 16.5 16.5t24.5 -9.5q18 -41 6 -101q-8 -25 -14.5 -41.5t-20 -31t-28.5 -11.5z" />
    <glyph glyph-name="Dcroat" unicode="&#x110;" horiz-adv-x="1603" 
d="M672 408h-49q-32 -118 -41 -156q106 56 215 86.5t158 34.5t71 2q13 -1 13 -7q-1 -13 -45 -19q-6 -1 -13 -1q-63 -5 -174.5 -43t-245.5 -125q-102 -397 -135 -555q-7 -34 -16 -33q-10 1 -11 31q-1 7 0 12q26 166 115 512l-41 -30q-210 -161 -326 -342t-116 -305
q0 -86 72.5 -142.5t213.5 -56.5q164 0 395 115t345 249q198 226 304.5 476.5t106.5 509.5q0 197 -114 314.5t-324 117.5q-129 0 -286 -56t-287 -143q-122 -81 -187 -178t-65 -178q0 -111 114 -189q10 -7 -7 -10q-24 -5 -42 8q-38 28 -69 85t-31 118q0 98 65.5 197.5
t182.5 181.5q153 108 317 161.5t303 53.5q72 0 139 -16.5t131 -55t110.5 -96t75 -147.5t28.5 -201q0 -234 -115.5 -506.5t-314.5 -478.5q-169 -177 -390.5 -288.5t-388.5 -111.5q-157 0 -235 72t-78 195q0 78 25 163t76.5 176.5t141 185.5t208.5 177q7 4 37 24t47 29l49 185
q-68 4 -68 16q0 18 45 18h31q89 319 102 353q11 32 21 30q13 -1 11 -41q-1 -15 -5 -30q-46 -153 -88 -310h33q8 0 18 -6.5t10 -13.5t-7 -12.5t-15 -5.5z" />
    <glyph glyph-name="dcroat" unicode="&#x111;" horiz-adv-x="638" 
d="M563 879q-22 0 -8 18q15 19 33 21q5 0 63 4q62 167 77 202t28 35q14 0 31 -23t14 -38q-5 -19 -90 -174q14 2 32 2t29 -22q8 -20 -10 -23q-3 0 -30 -1t-46 -1l-20 -37q-17 -52 -64.5 -192t-76 -225t-69.5 -217t-73 -247q-29 -102 -49.5 -189t-30.5 -144t-14.5 -98
t-3 -59.5t7.5 -19.5q11 -3 2 -16q-13 -17 -31 -8q-55 28 86 555q80 298 199 651q-141 -238 -236 -389q42 -19 66 -39q9 -9 3.5 -17t-17.5 -2l-70 31q-189 -296 -236 -361t-75 -65q-26 0 -47 32.5t-21 80.5q0 83 36.5 166.5t105 140.5t147.5 57q34 0 78 -14q72 123 315 524
l37 101h-72zM-16 -172q16 0 116.5 145t163.5 252q-24 4 -37 4q-73 0 -135.5 -53.5t-95.5 -127.5t-33 -142q0 -78 21 -78z" />
    <glyph glyph-name="Emacron" unicode="&#x112;" horiz-adv-x="1056" 
d="M860 236l-592 -68l-37 -115q-56 -172 -93.5 -325t-35.5 -179q2 -25 14.5 -39.5t37.5 -13.5q80 4 234 41t298 82q172 55 207 86q14 14 42 -2q21 -15 11 -27q-18 -16 -98 -50.5t-172 -61.5q-330 -100 -463 -105q-91 -5 -104 11q-44 35 -46 75q-2 36 26.5 176.5t86.5 339.5
q7 27 31 101q-95 -12 -115 -12q-17 -1 -13 17q3 20 20 25q2 1 3 1q7 2 23.5 4t45 5.5t50.5 6.5q103 315 252 698q-108 -27 -198 -56t-119 -42q-28 -13 -35 8q-6 22 20 41q24 18 123.5 50t231.5 57q45 114 86 204q46 96 69 119q6 8 22 6q19 -3 3 -20q-30 -41 -33 -76
q-1 -8 -6.5 -20.5t-14.5 -31t-28.5 -65t-42.5 -106.5q85 14 154 22q327 40 569 31q29 -1 27 -12q-3 -12 -29 -18q-4 -1 -8 -1q-1 0 -107.5 -1t-213.5 -9.5t-228 -28.5q-57 -9 -185 -36l-4 -13q-106 -286 -241 -694q458 51 469 53q74 10 129 24q19 5 22 -1q4 -12 -9 -32
t-36 -23zM1038 1184q-155 0 -155 18q0 19 45 19q10 0 55.5 1t48.5 1q8 0 18.5 -7t10.5 -14t-7.5 -12.5t-15.5 -5.5z" />
    <glyph glyph-name="emacron" unicode="&#x113;" horiz-adv-x="604" 
d="M141 -25q-78 -6 -111 50t1 127q28 65 78.5 97t87.5 25q29 -4 37.5 -27.5t-3.5 -58.5q-18 -44 -65.5 -78t-108.5 -55q12 -44 72 -41q20 2 42 6.5t54 16t60 22.5t80.5 33.5t94.5 41t121.5 53.5t143.5 63q20 9 24 -5q4 -11 -8 -16q-107 -47 -255.5 -119t-221 -101.5
t-123.5 -33.5zM68 137q-15 -35 -15 -57q45 15 90.5 52.5t57.5 70.5q5 13 2 25.5t-13 15.5q-22 6 -60.5 -21.5t-61.5 -85.5zM326 408q-156 0 -156 18t45 18q10 0 55.5 1t48.5 1q8 0 18.5 -6.5t10.5 -13.5t-7 -12.5t-15 -5.5z" />
    <glyph glyph-name="Ebreve" unicode="&#x114;" horiz-adv-x="1056" 
d="M860 236l-592 -68l-37 -115q-56 -172 -93.5 -325t-35.5 -179q2 -25 14.5 -39.5t37.5 -13.5q80 4 234 41t298 82q172 55 207 86q14 14 42 -2q21 -15 11 -27q-18 -16 -98 -50.5t-172 -61.5q-330 -100 -463 -105q-91 -5 -104 11q-44 35 -46 75q-2 36 26.5 176.5t86.5 339.5
q7 27 31 101q-95 -12 -115 -12q-17 -1 -13 17q3 20 20 25q2 1 3 1q7 2 23.5 4t45 5.5t50.5 6.5q103 315 252 698q-108 -27 -198 -56t-119 -42q-28 -13 -35 8q-6 22 20 41q24 18 123.5 50t231.5 57q45 114 86 204q46 96 69 119q6 8 22 6q19 -3 3 -20q-30 -41 -33 -76
q-1 -8 -6.5 -20.5t-14.5 -31t-28.5 -65t-42.5 -106.5q85 14 154 22q327 40 569 31q29 -1 27 -12q-3 -12 -29 -18q-4 -1 -8 -1q-1 0 -107.5 -1t-213.5 -9.5t-228 -28.5q-57 -9 -185 -36l-4 -13q-106 -286 -241 -694q458 51 469 53q74 10 129 24q19 5 22 -1q4 -12 -9 -32
t-36 -23zM961 1153q-67 0 -91 30.5t-24 78.5q0 26 13 44.5t24 18.5q18 0 18 -20q0 -5 -8 -28t-8 -34q0 -21 20.5 -32t46.5 -11q41 0 78 24t60 56q16 21 33 15q14 -5 3 -23q-8 -14 -21 -31.5t-34.5 -38.5t-50.5 -35t-59 -14z" />
    <glyph glyph-name="ebreve" unicode="&#x115;" horiz-adv-x="604" 
d="M141 -25q-78 -6 -111 50t1 127q28 65 78.5 97t87.5 25q29 -4 37.5 -27.5t-3.5 -58.5q-18 -44 -65.5 -78t-108.5 -55q12 -44 72 -41q20 2 42 6.5t54 16t60 22.5t80.5 33.5t94.5 41t121.5 53.5t143.5 63q20 9 24 -5q4 -11 -8 -16q-107 -47 -255.5 -119t-221 -101.5
t-123.5 -33.5zM68 137q-15 -35 -15 -57q45 15 90.5 52.5t57.5 70.5q5 13 2 25.5t-13 15.5q-22 6 -60.5 -21.5t-61.5 -85.5zM268 340q-66 0 -90 30t-24 79q0 27 12.5 45t23.5 18q19 0 19 -20q0 -5 -8 -28t-8 -34q0 -21 20.5 -32t46.5 -11q41 0 77 24t60 56q15 21 33 15
q16 -5 4 -23q-11 -21 -30.5 -44.5t-58 -49t-77.5 -25.5z" />
    <glyph glyph-name="Edotaccent" unicode="&#x116;" horiz-adv-x="1056" 
d="M860 236l-592 -68l-37 -115q-56 -172 -93.5 -325t-35.5 -179q2 -25 14.5 -39.5t37.5 -13.5q80 4 234 41t298 82q172 55 207 86q14 14 42 -2q21 -15 11 -27q-18 -16 -98 -50.5t-172 -61.5q-330 -100 -463 -105q-91 -5 -104 11q-44 35 -46 75q-2 36 26.5 176.5t86.5 339.5
q7 27 31 101q-95 -12 -115 -12q-17 -1 -13 17q3 20 20 25q2 1 3 1q7 2 23.5 4t45 5.5t50.5 6.5q103 315 252 698q-108 -27 -198 -56t-119 -42q-28 -13 -35 8q-6 22 20 41q24 18 123.5 50t231.5 57q45 114 86 204q46 96 69 119q6 8 22 6q19 -3 3 -20q-30 -41 -33 -76
q-1 -8 -6.5 -20.5t-14.5 -31t-28.5 -65t-42.5 -106.5q85 14 154 22q327 40 569 31q29 -1 27 -12q-3 -12 -29 -18q-4 -1 -8 -1q-1 0 -107.5 -1t-213.5 -9.5t-228 -28.5q-57 -9 -185 -36l-4 -13q-106 -286 -241 -694q458 51 469 53q74 10 129 24q19 5 22 -1q4 -12 -9 -32
t-36 -23zM950 1192q-7 3 -12 22.5t-2 30.5q4 11 14.5 22.5t18.5 10.5q13 -3 21 -18t5 -29q-4 -13 -20 -27t-25 -12z" />
    <glyph glyph-name="edotaccent" unicode="&#x117;" horiz-adv-x="604" 
d="M141 -25q-78 -6 -111 50t1 127q28 65 78.5 97t87.5 25q29 -4 37.5 -27.5t-3.5 -58.5q-18 -44 -65.5 -78t-108.5 -55q12 -44 72 -41q20 2 42 6.5t54 16t60 22.5t80.5 33.5t94.5 41t121.5 53.5t143.5 63q20 9 24 -5q4 -11 -8 -16q-107 -47 -255.5 -119t-221 -101.5
t-123.5 -33.5zM68 137q-15 -35 -15 -57q45 15 90.5 52.5t57.5 70.5q5 13 2 25.5t-13 15.5q-22 6 -60.5 -21.5t-61.5 -85.5zM246 403q-7 3 -12.5 23t-2.5 31q3 10 14 21.5t19 10.5q13 -3 21.5 -18t5.5 -29q-4 -13 -20 -27t-25 -12z" />
    <glyph glyph-name="Eogonek" unicode="&#x118;" horiz-adv-x="1056" 
d="M860 236l-592 -68l-37 -115q-56 -172 -93.5 -325t-35.5 -179q2 -25 14.5 -39.5t37.5 -13.5q80 4 234 41t298 82q172 55 207 86q14 14 42 -2q21 -15 11 -27q-18 -16 -98 -50.5t-172 -61.5l-103 -29v-2q-40 -40 -71.5 -88.5t-38.5 -87.5q-7 -38 7.5 -61.5t38 -23.5t48.5 15
q23 16 34 7q10 -7 -9 -25q-34 -31 -72.5 -32t-69.5 28q-24 23 -32 56.5t4 72.5q21 64 80 119q-199 -52 -279 -54q-91 -5 -104 11q-44 35 -46 75q-2 36 26.5 176.5t86.5 339.5q7 27 31 101q-95 -12 -115 -12q-17 -1 -13 17q3 20 20 25q2 1 3 1q7 2 23.5 4t45 5.5t50.5 6.5
q103 315 252 698q-108 -27 -198 -56t-119 -42q-28 -13 -35 8q-6 22 20 41q24 18 123.5 50t231.5 57q45 114 86 204q46 96 69 119q6 8 22 6q19 -3 3 -20q-30 -41 -33 -76q-1 -8 -6.5 -20.5t-14.5 -31t-28.5 -65t-42.5 -106.5q85 14 154 22q327 40 569 31q29 -1 27 -12
q-3 -12 -29 -18q-4 -1 -8 -1q-1 0 -107.5 -1t-213.5 -9.5t-228 -28.5q-57 -9 -185 -36l-4 -13q-106 -286 -241 -694q458 51 469 53q74 10 129 24q19 5 22 -1q4 -12 -9 -32t-36 -23z" />
    <glyph glyph-name="eogonek" unicode="&#x119;" horiz-adv-x="604" 
d="M121 -279q25 17 34 7q8 -8 -10 -25q-34 -31 -72 -32t-69 28q-24 23 -32.5 56.5t3.5 72.5q5 15 12 29t12 23.5t15.5 22.5t15 18.5t17.5 17.5t15.5 14t17.5 15l14 12q-54 12 -72 62t9 110q28 65 78.5 97t87.5 25q29 -4 37.5 -27.5t-3.5 -58.5q-18 -44 -65.5 -78t-108.5 -55
q12 -44 72 -41q20 2 42 6.5t54 16t60 22.5t80.5 33.5t94.5 41t121.5 53.5t143.5 63q20 9 24 -5q4 -11 -8 -16q-104 -46 -253.5 -118.5t-221.5 -101.5t-123 -34l-6 -8q-40 -40 -71.5 -88.5t-38.5 -87.5q-7 -38 7.5 -61.5t38 -23.5t48.5 15zM68 137q-15 -35 -15 -57
q45 15 90.5 52.5t57.5 70.5q5 13 2 25.5t-13 15.5q-22 6 -60.5 -21.5t-61.5 -85.5z" />
    <glyph glyph-name="Ecaron" unicode="&#x11a;" horiz-adv-x="1056" 
d="M860 236l-592 -68l-37 -115q-56 -172 -93.5 -325t-35.5 -179q2 -25 14.5 -39.5t37.5 -13.5q80 4 234 41t298 82q172 55 207 86q14 14 42 -2q21 -15 11 -27q-18 -16 -98 -50.5t-172 -61.5q-330 -100 -463 -105q-91 -5 -104 11q-44 35 -46 75q-2 36 26.5 176.5t86.5 339.5
q7 27 31 101q-95 -12 -115 -12q-17 -1 -13 17q3 20 20 25q2 1 3 1q7 2 23.5 4t45 5.5t50.5 6.5q103 315 252 698q-108 -27 -198 -56t-119 -42q-28 -13 -35 8q-6 22 20 41q24 18 123.5 50t231.5 57q45 114 86 204q46 96 69 119q6 8 22 6q19 -3 3 -20q-30 -41 -33 -76
q-1 -8 -6.5 -20.5t-14.5 -31t-28.5 -65t-42.5 -106.5q85 14 154 22q327 40 569 31q29 -1 27 -12q-3 -12 -29 -18q-4 -1 -8 -1q-1 0 -107.5 -1t-213.5 -9.5t-228 -28.5q-57 -9 -185 -36l-4 -13q-106 -286 -241 -694q458 51 469 53q74 10 129 24q19 5 22 -1q4 -12 -9 -32
t-36 -23zM911 1147q-9 0 -16 9.5t-21 37.5q-24 50 -24 55q0 19 14 19t25 -21q2 -6 8.5 -20t11.5 -24.5t4 -10.5q4 0 54.5 24t102 49.5t54.5 26.5q8 4 12 2.5t13 -12.5q10 -10 4 -18.5t-37 -26.5q-46 -24 -117 -57t-88 -33z" />
    <glyph glyph-name="ecaron" unicode="&#x11b;" horiz-adv-x="604" 
d="M141 -25q-78 -6 -111 50t1 127q28 65 78.5 97t87.5 25q29 -4 37.5 -27.5t-3.5 -58.5q-18 -44 -65.5 -78t-108.5 -55q12 -44 72 -41q20 2 42 6.5t54 16t60 22.5t80.5 33.5t94.5 41t121.5 53.5t143.5 63q20 9 24 -5q4 -11 -8 -16q-107 -47 -255.5 -119t-221 -101.5
t-123.5 -33.5zM68 137q-15 -35 -15 -57q45 15 90.5 52.5t57.5 70.5q5 13 2 25.5t-13 15.5q-22 6 -60.5 -21.5t-61.5 -85.5zM207 328q-9 0 -16 9.5t-21 37.5q-25 52 -25 55q0 19 15 19q14 0 24 -21q2 -6 8.5 -20t12 -24.5t4.5 -10.5q4 0 54.5 24t102 49.5t54.5 26.5
q8 4 11.5 2.5t12.5 -12.5q10 -10 4.5 -18.5t-36.5 -26.5q-46 -24 -117 -57t-88 -33z" />
    <glyph glyph-name="Gcircumflex" unicode="&#x11c;" horiz-adv-x="1519" 
d="M1165 893q72 126 72 194q0 22 -8.5 36t-24 20t-29.5 8t-34 2q-155 0 -332 -108.5t-346 -305.5q-156 -183 -254 -422t-98 -448q0 -213 78.5 -304t238.5 -91q94 0 201.5 41t203 106.5t185 147t154 161.5t103 150.5t38.5 114.5q0 22 -16.5 30t-53.5 8q-39 0 -202 -41.5
t-271 -82.5q-11 -4 -10 4q2 18 32 43q14 13 27 18q206 89 369 103q162 8 168 -72q0 -64 -42 -149.5t-111.5 -173t-164.5 -173t-195.5 -151.5t-210.5 -107t-204 -41q-79 0 -142.5 25.5t-104.5 68t-68.5 102t-39.5 125t-12 138.5q0 213 82 432.5t275 466.5q152 193 346 310.5
t358 117.5q68 0 110 -24.5t42 -71.5q0 -49 -22.5 -118t-45.5 -95q-25 -25 -40 -17q-11 5 -1 23zM1063 1329q-6 -1 -12.5 5t-6.5 14q-1 7 27.5 31.5t54.5 41.5q61 37 84 39q10 1 24 -8t17 -20l27 -109q0 -15 -18 -20q-13 0 -23 36q-22 74 -27 74q-4 0 -37 -19t-55 -34
q-50 -31 -55 -31z" />
    <glyph glyph-name="gcircumflex" unicode="&#x11d;" horiz-adv-x="901" 
d="M-4 -848q-49 0 -89 35t-40 106q0 120 82.5 274.5t253.5 328.5q91 94 239 178q-6 166 -80 166q-9 0 -17.5 -2.5t-20 -9.5t-16.5 -10t-20 -14.5t-18 -13.5q-27 -23 -43.5 -35.5t-41 -25t-44.5 -12.5q-41 0 -51 42q-12 49 28 96q23 26 56 42q41 20 75.5 17t55 -14t31.5 -26
q4 0 14 1t15 1q47 0 78.5 -47t37.5 -135q153 78 315 121t236 43q22 0 27 -17q0 -15 -17 -18q-84 0 -244 -42.5t-315 -129.5v-2q0 -146 -42.5 -319t-114.5 -299q-71 -127 -160 -203t-170 -76zM287 -541q71 123 114 287t43 274v9q-115 -67 -206 -162q-171 -172 -250.5 -325
t-79.5 -255q0 -45 18.5 -70.5t53.5 -25.5q63 0 148.5 69.5t158.5 198.5zM244 223q36 32 63 43q-66 34 -125 -6q-59 -38 -62 -80q1 -26 21 -28q7 0 15 3.5t19.5 12t20 15t24 20t24.5 20.5zM231 442q-6 -1 -12 5t-6 14q-1 7 27.5 32t54.5 42q59 36 84 38q10 1 24 -8t17 -20
l26 -109q0 -16 -18 -20q-12 0 -22 37q-21 73 -27 73q-4 0 -37 -19t-55 -34q-50 -31 -56 -31z" />
    <glyph glyph-name="Gbreve" unicode="&#x11e;" horiz-adv-x="1519" 
d="M1165 893q72 126 72 194q0 22 -8.5 36t-24 20t-29.5 8t-34 2q-155 0 -332 -108.5t-346 -305.5q-156 -183 -254 -422t-98 -448q0 -213 78.5 -304t238.5 -91q94 0 201.5 41t203 106.5t185 147t154 161.5t103 150.5t38.5 114.5q0 22 -16.5 30t-53.5 8q-39 0 -202 -41.5
t-271 -82.5q-11 -4 -10 4q2 18 32 43q14 13 27 18q206 89 369 103q162 8 168 -72q0 -64 -42 -149.5t-111.5 -173t-164.5 -173t-195.5 -151.5t-210.5 -107t-204 -41q-79 0 -142.5 25.5t-104.5 68t-68.5 102t-39.5 125t-12 138.5q0 213 82 432.5t275 466.5q152 193 346 310.5
t358 117.5q68 0 110 -24.5t42 -71.5q0 -49 -22.5 -118t-45.5 -95q-25 -25 -40 -17q-11 5 -1 23zM1155 1282q-67 0 -91 30.5t-24 78.5q0 26 13 44.5t24 18.5q19 0 19 -20q0 -5 -8.5 -28t-8.5 -34q0 -21 21 -32t47 -11q41 0 77 24t60 56q15 21 33 15q16 -5 4 -23
q-11 -21 -30.5 -44.5t-58 -49t-77.5 -25.5z" />
    <glyph glyph-name="gbreve" unicode="&#x11f;" horiz-adv-x="901" 
d="M-4 -848q-49 0 -89 35t-40 106q0 120 82.5 274.5t253.5 328.5q91 94 239 178q-6 166 -80 166q-9 0 -17.5 -2.5t-20 -9.5t-16.5 -10t-20 -14.5t-18 -13.5q-27 -23 -43.5 -35.5t-41 -25t-44.5 -12.5q-41 0 -51 42q-12 49 28 96q23 26 56 42q41 20 75.5 17t55 -14t31.5 -26
q4 0 14 1t15 1q47 0 78.5 -47t37.5 -135q153 78 315 121t236 43q22 0 27 -17q0 -15 -17 -18q-84 0 -244 -42.5t-315 -129.5v-2q0 -146 -42.5 -319t-114.5 -299q-71 -127 -160 -203t-170 -76zM287 -541q71 123 114 287t43 274v9q-115 -67 -206 -162q-171 -172 -250.5 -325
t-79.5 -255q0 -45 18.5 -70.5t53.5 -25.5q63 0 148.5 69.5t158.5 198.5zM244 223q36 32 63 43q-66 34 -125 -6q-59 -38 -62 -80q1 -26 21 -28q7 0 15 3.5t19.5 12t20 15t24 20t24.5 20.5zM377 432q-67 0 -91 30.5t-24 78.5q0 26 13 44.5t24 18.5q18 0 18 -20q0 -5 -8 -28
t-8 -34q0 -21 21 -32t47 -11q41 0 77 24t60 56q15 21 33 15q16 -5 4 -23q-11 -21 -30.5 -44.5t-58 -49t-77.5 -25.5z" />
    <glyph glyph-name="Gdotaccent" unicode="&#x120;" horiz-adv-x="1519" 
d="M1165 893q72 126 72 194q0 22 -8.5 36t-24 20t-29.5 8t-34 2q-155 0 -332 -108.5t-346 -305.5q-156 -183 -254 -422t-98 -448q0 -213 78.5 -304t238.5 -91q94 0 201.5 41t203 106.5t185 147t154 161.5t103 150.5t38.5 114.5q0 22 -16.5 30t-53.5 8q-39 0 -202 -41.5
t-271 -82.5q-11 -4 -10 4q2 18 32 43q14 13 27 18q206 89 369 103q162 8 168 -72q0 -64 -42 -149.5t-111.5 -173t-164.5 -173t-195.5 -151.5t-210.5 -107t-204 -41q-79 0 -142.5 25.5t-104.5 68t-68.5 102t-39.5 125t-12 138.5q0 213 82 432.5t275 466.5q152 193 346 310.5
t358 117.5q68 0 110 -24.5t42 -71.5q0 -49 -22.5 -118t-45.5 -95q-25 -25 -40 -17q-11 5 -1 23zM1159 1276q-7 3 -12 22.5t-2 30.5q4 11 14.5 22.5t18.5 10.5q13 -3 21 -18t5 -29q-4 -13 -20 -27t-25 -12z" />
    <glyph glyph-name="gdotaccent" unicode="&#x121;" horiz-adv-x="901" 
d="M-4 -848q-49 0 -89 35t-40 106q0 120 82.5 274.5t253.5 328.5q91 94 239 178q-6 166 -80 166q-9 0 -17.5 -2.5t-20 -9.5t-16.5 -10t-20 -14.5t-18 -13.5q-27 -23 -43.5 -35.5t-41 -25t-44.5 -12.5q-41 0 -51 42q-12 49 28 96q23 26 56 42q41 20 75.5 17t55 -14t31.5 -26
q4 0 14 1t15 1q47 0 78.5 -47t37.5 -135q153 78 315 121t236 43q22 0 27 -17q0 -15 -17 -18q-84 0 -244 -42.5t-315 -129.5v-2q0 -146 -42.5 -319t-114.5 -299q-71 -127 -160 -203t-170 -76zM287 -541q71 123 114 287t43 274v9q-115 -67 -206 -162q-171 -172 -250.5 -325
t-79.5 -255q0 -45 18.5 -70.5t53.5 -25.5q63 0 148.5 69.5t158.5 198.5zM244 223q36 32 63 43q-66 34 -125 -6q-59 -38 -62 -80q1 -26 21 -28q7 0 15 3.5t19.5 12t20 15t24 20t24.5 20.5zM309 442q-7 3 -12 23t-2 31q3 10 14 21.5t19 10.5q13 -3 21 -18t5 -29
q-4 -13 -20 -27t-25 -12z" />
    <glyph glyph-name="Gcommaaccent" unicode="&#x122;" horiz-adv-x="1519" 
d="M1165 893q72 126 72 194q0 22 -8.5 36t-24 20t-29.5 8t-34 2q-155 0 -332 -108.5t-346 -305.5q-156 -183 -254 -422t-98 -448q0 -213 78.5 -304t238.5 -91q94 0 201.5 41t203 106.5t185 147t154 161.5t103 150.5t38.5 114.5q0 22 -16.5 30t-53.5 8q-39 0 -202 -41.5
t-271 -82.5q-11 -4 -10 4q2 18 32 43q14 13 27 18q206 89 369 103q162 8 168 -72q0 -64 -42 -149.5t-111.5 -173t-164.5 -173t-195.5 -151.5t-210.5 -107t-204 -41q-79 0 -142.5 25.5t-104.5 68t-68.5 102t-39.5 125t-12 138.5q0 213 82 432.5t275 466.5q152 193 346 310.5
t358 117.5q68 0 110 -24.5t42 -71.5q0 -49 -22.5 -118t-45.5 -95q-25 -25 -40 -17q-11 5 -1 23zM340 -846q-4 5 7 17t31.5 36t31.5 50q10 21 10 41.5t-3 32t-1 12.5q23 16 39 -7q11 -20 3 -53t-30 -65q-14 -19 -34 -36t-35.5 -24.5t-18.5 -3.5z" />
    <glyph glyph-name="gcommaaccent" unicode="&#x123;" horiz-adv-x="901" 
d="M-4 -848q-49 0 -89 35t-40 106q0 120 82.5 274.5t253.5 328.5q91 94 239 178q-6 166 -80 166q-9 0 -17.5 -2.5t-20 -9.5t-16.5 -10t-20 -14.5t-18 -13.5q-27 -23 -43.5 -35.5t-41 -25t-44.5 -12.5q-41 0 -51 42q-12 49 28 96q23 26 56 42q41 20 75.5 17t55 -14t31.5 -26
q4 0 14 1t15 1q47 0 78.5 -47t37.5 -135q153 78 315 121t236 43q22 0 27 -17q0 -15 -17 -18q-84 0 -244 -42.5t-315 -129.5v-2q0 -146 -42.5 -319t-114.5 -299q-71 -127 -160 -203t-170 -76zM287 -541q71 123 114 287t43 274v9q-115 -67 -206 -162q-171 -172 -250.5 -325
t-79.5 -255q0 -45 18.5 -70.5t53.5 -25.5q63 0 148.5 69.5t158.5 198.5zM244 223q36 32 63 43q-66 34 -125 -6q-59 -38 -62 -80q1 -26 21 -28q7 0 15 3.5t19.5 12t20 15t24 20t24.5 20.5zM424 684q6 0 10 -5t5 -15.5t-5 -26.5q-4 -11 -16 -37.5t-18.5 -46.5t-10.5 -39
q-5 -27 -6.5 -57t-3 -42t-6.5 -12q-10 0 -16.5 12.5t-7.5 38t5 64.5q29 166 70 166z" />
    <glyph glyph-name="Hcircumflex" unicode="&#x124;" horiz-adv-x="1210" 
d="M543 1157q-7 -20 -16.5 -57t-22.5 -99.5t-23.5 -115t-28.5 -147.5t-27.5 -149t-30.5 -168t-29 -159l-9 -39q298 22 570 6l59 310q23 125 98 491q12 67 52 101q23 19 28 4v-7q0 -8 -1 -17.5t-4 -27.5t-7 -36.5t-11.5 -55.5t-15 -71.5t-20.5 -97t-25 -120.5
q-41 -195 -86 -477q6 0 17.5 -1t17.5 -1q107 -8 156 -33q21 -12 -13 -13q-24 0 -147 11q-6 0 -18.5 1t-18.5 1v-6q-24 -143 -79.5 -411.5t-65.5 -393.5l-6 -57q29 -108 24 -141q0 -20 -20 -38.5t-39 -14.5q-2 0 -7 0.5t-6.5 1t-5.5 2t-4 3t-1.5 5t1.5 8.5q11 65 19 168
l-6 22q-18 78 -65.5 151.5t-119 137t-148 115.5t-171.5 104q-54 -304 -37 -360q11 -50 -10 -56q-15 -4 -28 21q-7 14 -7 31q-6 153 28 391q-89 46 -317 150q-64 31 -54 68q13 49 163 85q124 27 266 41q0 9 4 21l147 800q22 119 86 179q29 25 28 -7q-1 -20 -13 -53zM920 193
v4q-246 12 -572 -25l-55 -285q403 -220 512 -465q5 49 13 110t14 105t20 133.5t19.5 123.5t24.5 152t24 147zM-61 49q198 -80 301 -133l41 246q-146 -20 -230 -39q-140 -32 -132 -59q2 -10 20 -15zM782 1276q-6 -2 -12 4t-6 14q-1 7 27.5 32t54.5 42q61 37 84 39
q10 1 24 -8.5t17 -20.5l26 -108q0 -16 -18 -21q-13 0 -23 37q-22 74 -26 74t-37 -19t-55 -34q-50 -31 -56 -31z" />
    <glyph glyph-name="hcircumflex" unicode="&#x125;" horiz-adv-x="786" 
d="M113 670q118 553 180 553q12 0 17 -25.5t1 -42.5q-3 -11 -11 -28.5t-22 -44t-22 -44.5q-2 -6 -17 -63.5t-38 -153t-41 -178.5q-78 -350 -111 -612q18 12 46.5 31.5t43 29t35.5 23t33 20t26.5 14t25.5 10.5t20 3q27 0 35 -19t8 -57v-16.5v-15v-12t1 -11t2.5 -8.5t4 -7
t5.5 -4t8 -3t11 -1q64 0 170.5 41.5t186 84t192.5 108.5q19 9 28 -5q9 -15 -18 -28q-47 -25 -125 -70.5t-120.5 -68t-100.5 -50t-107 -39t-98 -12.5q-42 0 -65 26t-23 66q0 7 0.5 16.5t1 14.5t0 10.5t-2.5 8t-5 2.5q-14 0 -77.5 -35.5t-127.5 -77.5q-33 -25 -45 -25
q-10 0 -15 18t-1 48q37 282 111 629zM418 1229q-6 -2 -12.5 4.5t-6.5 13.5q-1 7 27.5 32t54.5 42q61 37 84 39q10 1 24 -8.5t17 -20.5l27 -108q0 -16 -19 -21q-12 0 -22 37q-22 74 -27 74q-4 0 -37 -19t-55 -34q-50 -31 -55 -31z" />
    <glyph glyph-name="Hbar" unicode="&#x126;" horiz-adv-x="1210" 
d="M543 1157q-24 -60 -99 -452q99 6 209 6q210 -3 361 -19l69 338q12 67 52 101q23 19 28 4v-7q0 -8 -1 -17.5t-4 -27.5t-7 -36.5t-11.5 -55.5t-15 -71.5t-20.5 -97t-25 -120.5l-4 -16l148 -18q27 -4 25 -13q-1 -12 -28 -15q-6 -1 -12 -1q-36 2 -139 16q-31 -148 -76 -430
q6 0 17.5 -1t17.5 -1q107 -8 156 -33q21 -12 -13 -13q-24 0 -147 11q-6 0 -18.5 1t-18.5 1v-6q-24 -143 -79.5 -411.5t-65.5 -393.5l-6 -57q29 -108 24 -141q0 -20 -20 -38.5t-39 -14.5q-2 0 -7 0.5t-6.5 1t-5.5 2t-4 3t-1.5 5t1.5 8.5q11 65 19 168l-6 22
q-18 78 -65.5 151.5t-119 137t-148 115.5t-171.5 104q-54 -304 -37 -360q11 -50 -10 -56q-15 -4 -28 21q-7 14 -7 31q-6 153 28 391q-89 46 -317 150q-64 31 -54 68q13 49 163 85q124 27 266 41q0 9 4 21l76 409q-219 -30 -285 -51q-28 -10 -33 10.5t19 35.5q3 2 6 3
q24 12 108 28.5t195 26.5l61 338q22 119 86 179q29 25 28 -7q-1 -20 -13 -53zM920 193v4q-246 12 -572 -25l-55 -285q403 -220 512 -465q5 49 13 110t14 105t20 133.5t19.5 123.5t24.5 152t24 147zM659 672q-135 -7 -223 -17q-10 -50 -71 -393l-9 -39q298 22 570 6l59 310
l23 123q-146 16 -349 10zM-61 49q198 -80 301 -133l41 246q-146 -20 -230 -39q-140 -32 -132 -59q2 -10 20 -15z" />
    <glyph glyph-name="hbar" unicode="&#x127;" horiz-adv-x="786" 
d="M283 948q-4 0 -14.5 -0.5t-20 -0.5t-17.5 1q-38 -146 -71 -305q-78 -350 -111 -612q18 12 46.5 31.5t43 29t35.5 23t33 20t26.5 14t25.5 10.5t20 3q27 0 35 -19t8 -57v-16.5v-15v-12t1 -11t2.5 -8.5t4 -7t5.5 -4t8 -3t11 -1q64 0 170.5 41.5t186 84t192.5 108.5
q19 9 28 -5q9 -15 -18 -28q-47 -25 -125 -70.5t-120.5 -68t-100.5 -50t-107 -39t-98 -12.5q-42 0 -65 26t-23 66q0 7 0.5 16.5t1 14.5t0 10.5t-2.5 8t-5 2.5q-14 0 -77.5 -35.5t-127.5 -77.5q-33 -25 -45 -25q-10 0 -15 18t-1 48q37 282 111 629q44 201 65 282q-51 4 -51 15
q0 18 45 18h14q67 238 107 238q12 0 17 -25.5t1 -42.5q-3 -11 -11 -28.5t-22 -44t-22 -44.5l-14 -53q10 0 22 1l12 1q8 0 18.5 -6.5t10.5 -13.5t-7 -13t-15 -6z" />
    <glyph glyph-name="Itilde" unicode="&#x128;" 
d="M213 -29q-39 18 -70.5 72.5t-31.5 116.5q0 252 237 600q147 214 317.5 346.5t325.5 132.5q60 0 99 -31t53.5 -88t14.5 -131.5t-17.5 -168.5t-42.5 -191t-62 -206.5t-73.5 -208t-79.5 -202.5q-56 -140 -132 -269t-172 -242.5t-213.5 -182t-236.5 -68.5q-77 0 -132.5 33
t-78 89.5t-17.5 124.5t48.5 145t118.5 143q43 39 91.5 66t90.5 40t85 19t73 5.5t57 -3.5q111 -12 139 -38q13 -12 -11 -14q-16 -1 -44 5q-50 9 -104 10t-115 -8.5t-121 -38t-107 -74.5q-59 -57 -95.5 -123t-44.5 -126t5.5 -109.5t54.5 -79t101 -29.5q64 0 131 25t142 82
t147.5 143t149.5 214.5t147 289.5q101 231 165 423.5t87.5 324.5t17.5 224t-38.5 134.5t-86.5 42.5q-119 0 -293 -141t-289 -314q-122 -183 -189 -335.5t-67 -245.5q0 -102 89 -156q25 -15 12 -27q-12 -10 -35 0zM946 1360q-14 0 -14 26q0 18 46 41t85 23q27 0 42.5 -16
t14.5 -45q0 -31 17 -31q21 0 87 30.5t68 30.5q21 0 21 -16q0 -11 -75 -45.5t-108 -34.5q-42 0 -45 53q-3 33 -24 33q-20 0 -64.5 -24.5t-50.5 -24.5z" />
    <glyph glyph-name="itilde" unicode="&#x129;" horiz-adv-x="618" 
d="M758 258q8 0 11.5 -11t-3.5 -14q-8 -2 -47 -20t-123.5 -52t-187.5 -69q-218 -74 -267 -74q-36 0 -52.5 20.5t-16.5 49.5q0 61 20 119q7 24 17.5 35.5t35.5 15.5q5 1 10 -2.5t6 -11t-5 -19.5q-33 -66 -41 -135q-1 -18 4.5 -27.5t13.5 -9.5q64 0 258 68q84 30 177 65.5
t139 53.5t51 18zM94 387q-14 0 -14 27q0 18 46 40.5t85 22.5q27 0 42.5 -16t14.5 -45q0 -31 17 -31q21 0 87 30.5t68 30.5q21 0 21 -16q0 -11 -74.5 -45.5t-107.5 -34.5q-43 0 -46 53q-3 33 -24 33q-20 0 -64.5 -24.5t-50.5 -24.5z" />
    <glyph glyph-name="Imacron" unicode="&#x12a;" 
d="M213 -29q-39 18 -70.5 72.5t-31.5 116.5q0 252 237 600q147 214 317.5 346.5t325.5 132.5q60 0 99 -31t53.5 -88t14.5 -131.5t-17.5 -168.5t-42.5 -191t-62 -206.5t-73.5 -208t-79.5 -202.5q-56 -140 -132 -269t-172 -242.5t-213.5 -182t-236.5 -68.5q-77 0 -132.5 33
t-78 89.5t-17.5 124.5t48.5 145t118.5 143q43 39 91.5 66t90.5 40t85 19t73 5.5t57 -3.5q111 -12 139 -38q13 -12 -11 -14q-16 -1 -44 5q-50 9 -104 10t-115 -8.5t-121 -38t-107 -74.5q-59 -57 -95.5 -123t-44.5 -126t5.5 -109.5t54.5 -79t101 -29.5q64 0 131 25t142 82
t147.5 143t149.5 214.5t147 289.5q101 231 165 423.5t87.5 324.5t17.5 224t-38.5 134.5t-86.5 42.5q-119 0 -293 -141t-289 -314q-122 -183 -189 -335.5t-67 -245.5q0 -102 89 -156q25 -15 12 -27q-12 -10 -35 0zM1214 1366q-155 0 -155 18q0 19 45 19q10 0 55.5 1t48.5 1
q8 0 18.5 -7t10.5 -14t-7.5 -12.5t-15.5 -5.5z" />
    <glyph glyph-name="imacron" unicode="&#x12b;" horiz-adv-x="618" 
d="M758 258q8 0 11.5 -11t-3.5 -14q-8 -2 -47 -20t-123.5 -52t-187.5 -69q-218 -74 -267 -74q-36 0 -52.5 20.5t-16.5 49.5q0 61 20 119q7 24 17.5 35.5t35.5 15.5q5 1 10 -2.5t6 -11t-5 -19.5q-33 -66 -41 -135q-1 -18 4.5 -27.5t13.5 -9.5q64 0 258 68q84 30 177 65.5
t139 53.5t51 18zM293 377q-156 0 -156 18q0 19 45 19q10 0 56 1t49 1q8 0 18 -7t10 -14t-7 -12.5t-15 -5.5z" />
    <glyph glyph-name="Ibreve" unicode="&#x12c;" 
d="M213 -29q-39 18 -70.5 72.5t-31.5 116.5q0 252 237 600q147 214 317.5 346.5t325.5 132.5q60 0 99 -31t53.5 -88t14.5 -131.5t-17.5 -168.5t-42.5 -191t-62 -206.5t-73.5 -208t-79.5 -202.5q-56 -140 -132 -269t-172 -242.5t-213.5 -182t-236.5 -68.5q-77 0 -132.5 33
t-78 89.5t-17.5 124.5t48.5 145t118.5 143q43 39 91.5 66t90.5 40t85 19t73 5.5t57 -3.5q111 -12 139 -38q13 -12 -11 -14q-16 -1 -44 5q-50 9 -104 10t-115 -8.5t-121 -38t-107 -74.5q-59 -57 -95.5 -123t-44.5 -126t5.5 -109.5t54.5 -79t101 -29.5q64 0 131 25t142 82
t147.5 143t149.5 214.5t147 289.5q101 231 165 423.5t87.5 324.5t17.5 224t-38.5 134.5t-86.5 42.5q-119 0 -293 -141t-289 -314q-122 -183 -189 -335.5t-67 -245.5q0 -102 89 -156q25 -15 12 -27q-12 -10 -35 0zM1114 1305q-67 0 -91 30t-24 78q0 27 13 45.5t24 18.5
q19 0 19 -21q0 -5 -8.5 -27.5t-8.5 -33.5q0 -21 21 -32t47 -11q41 0 77 24t60 56q15 21 33 15q16 -6 4 -24q-21 -37 -65.5 -77.5t-100.5 -40.5z" />
    <glyph glyph-name="ibreve" unicode="&#x12d;" horiz-adv-x="618" 
d="M758 258q8 0 11.5 -11t-3.5 -14q-8 -2 -47 -20t-123.5 -52t-187.5 -69q-218 -74 -267 -74q-36 0 -52.5 20.5t-16.5 49.5q0 61 20 119q7 24 17.5 35.5t35.5 15.5q5 1 10 -2.5t6 -11t-5 -19.5q-33 -66 -41 -135q-1 -18 4.5 -27.5t13.5 -9.5q64 0 258 68q84 30 177 65.5
t139 53.5t51 18zM225 385q-66 0 -90 30t-24 79q0 27 12.5 45t23.5 18q19 0 19 -20q0 -5 -8 -28t-8 -34q0 -21 20.5 -32t46.5 -11q41 0 77 24t60 56q15 21 33 15q16 -5 4 -23q-11 -21 -30.5 -44.5t-58 -49t-77.5 -25.5z" />
    <glyph glyph-name="Iogonek" unicode="&#x12e;" 
d="M135 -1012q23 16 34 7q10 -7 -9 -25q-34 -31 -72.5 -32t-69.5 28q-24 23 -32 56.5t4 72.5q8 25 19 45t27.5 38.5t25 27t30.5 26.5t25 20q-93 3 -150 55.5t-67 129t33 172t135 176.5q43 39 91.5 66t90.5 40t85 19t73 5.5t57 -3.5q111 -12 139 -38q13 -12 -11 -14
q-16 -1 -44 5q-50 9 -104 10t-115 -8.5t-121 -38t-107 -74.5q-59 -57 -95.5 -123t-44.5 -126t5.5 -109.5t54.5 -79t101 -29.5q64 0 131 25t142 82t147.5 143t149.5 214.5t147 289.5q101 231 165 423.5t87.5 324.5t17.5 224t-38.5 134.5t-86.5 42.5q-119 0 -293 -141
t-289 -314q-122 -183 -189 -335.5t-67 -245.5q0 -102 89 -156q25 -15 12 -27q-12 -10 -35 0q-39 18 -70.5 72.5t-31.5 116.5q0 252 237 600q147 214 317.5 346.5t325.5 132.5q60 0 99 -31t53.5 -88t14.5 -131.5t-17.5 -168.5t-42.5 -191t-62 -206.5t-73.5 -208t-79.5 -202.5
q-43 -106 -97 -207t-125 -198.5t-147.5 -172.5t-167.5 -124.5t-182 -57.5l-12 -18q-40 -40 -72 -88.5t-39 -87.5q-7 -38 7.5 -61.5t38 -23.5t48.5 15z" />
    <glyph glyph-name="iogonek" unicode="&#x12f;" horiz-adv-x="618" 
d="M145 -236q23 16 34 7q10 -7 -9 -25q-34 -31 -72 -32t-69 28q-24 23 -32.5 56.5t3.5 72.5q4 12 9 23t9.5 20t11.5 18.5t11.5 15.5t13 15t12.5 13t13.5 12.5t12.5 11t13.5 11t12.5 9.5q-47 10 -47 68q0 61 20 119q7 24 17.5 35.5t35.5 15.5q5 1 10 -2.5t6 -11t-5 -19.5
q-33 -66 -41 -135q-1 -18 4.5 -27.5t13.5 -9.5q64 0 258 68q84 30 177 65.5t139 53.5t51 18q8 0 11.5 -11t-3.5 -14q-8 -2 -47 -20t-123.5 -52t-187.5 -69q-177 -62 -238 -72l-8 -10q-40 -40 -72 -88.5t-39 -87.5q-7 -38 7.5 -61.5t38 -23.5t48.5 15zM186 403q-7 3 -12 23
t-2 31q3 10 14 21.5t19 10.5q13 -3 21 -18t5 -29q-4 -13 -20 -27t-25 -12z" />
    <glyph glyph-name="Idotaccent" unicode="&#x130;" 
d="M213 -29q-39 18 -70.5 72.5t-31.5 116.5q0 252 237 600q147 214 317.5 346.5t325.5 132.5q60 0 99 -31t53.5 -88t14.5 -131.5t-17.5 -168.5t-42.5 -191t-62 -206.5t-73.5 -208t-79.5 -202.5q-56 -140 -132 -269t-172 -242.5t-213.5 -182t-236.5 -68.5q-77 0 -132.5 33
t-78 89.5t-17.5 124.5t48.5 145t118.5 143q43 39 91.5 66t90.5 40t85 19t73 5.5t57 -3.5q111 -12 139 -38q13 -12 -11 -14q-16 -1 -44 5q-50 9 -104 10t-115 -8.5t-121 -38t-107 -74.5q-59 -57 -95.5 -123t-44.5 -126t5.5 -109.5t54.5 -79t101 -29.5q64 0 131 25t142 82
t147.5 143t149.5 214.5t147 289.5q101 231 165 423.5t87.5 324.5t17.5 224t-38.5 134.5t-86.5 42.5q-119 0 -293 -141t-289 -314q-122 -183 -189 -335.5t-67 -245.5q0 -102 89 -156q25 -15 12 -27q-12 -10 -35 0zM1169 1335q-7 3 -12 23t-2 31q3 10 14 21.5t19 10.5
q13 -3 21 -18t5 -29q-4 -13 -20 -27t-25 -12z" />
    <glyph glyph-name="dotlessi" unicode="&#x131;" horiz-adv-x="618" 
d="M758 258q8 0 11.5 -11t-3.5 -14q-8 -2 -47 -20t-123.5 -52t-187.5 -69q-218 -74 -267 -74q-36 0 -52.5 20.5t-16.5 49.5q0 61 20 119q7 24 17.5 35.5t35.5 15.5q5 1 10 -2.5t6 -11t-5 -19.5q-33 -66 -41 -135q-1 -18 4.5 -27.5t13.5 -9.5q64 0 258 68q84 30 177 65.5
t139 53.5t51 18z" />
    <glyph glyph-name="Jcircumflex" unicode="&#x134;" horiz-adv-x="1337" 
d="M348 -18q-38 16 -68 70t-30 118q0 67 16 150.5t72.5 220.5t148.5 270q151 220 314.5 349.5t328.5 129.5q56 0 93.5 -28t53 -80t17.5 -120t-12.5 -154.5t-36 -176.5t-54 -193t-66.5 -197.5t-74 -195.5q85 12 123 35q17 9 25 7.5t5.5 -11t-14.5 -18.5q-50 -38 -158 -58
l-14 -37q-47 -115 -96 -223.5t-114.5 -237t-130.5 -238t-143 -214t-154 -178t-160.5 -118t-164.5 -44.5q-76 0 -141.5 32.5t-110.5 88.5t-60.5 137.5t1 172.5t82 200t174.5 215q107 103 251 191.5t284.5 145t255 91.5t202.5 51q95 222 155 407t82 312.5t16 216t-37.5 129.5
t-84.5 41q-79 0 -190.5 -69.5t-214 -172.5t-176.5 -213q-118 -175 -187 -350t-69 -272q0 -110 84 -156q24 -17 12.5 -27t-35.5 1zM49 -1153q197 0 427 316t497 927q-104 -20 -217.5 -56t-240 -91.5t-253 -138t-227.5 -179.5q-78 -76 -130.5 -158.5t-73.5 -156.5t-23.5 -145
t17.5 -127.5t51.5 -100t77 -67t95.5 -23.5zM1106 1370q-6 -2 -12.5 5t-6.5 14q-1 7 27.5 31.5t54.5 41.5q61 37 84 39q10 1 24 -8t17 -20l27 -109q0 -16 -18 -21q-13 0 -23 37q-22 74 -27 74q-4 0 -37 -19t-55 -34q-50 -31 -55 -31z" />
    <glyph glyph-name="jcircumflex" unicode="&#x135;" horiz-adv-x="585" 
d="M143 0l-4 -16q130 72 257.5 122t162.5 50q14 0 18 -12q4 -11 -8 -11q-37 0 -170 -55.5t-266 -136.5q-83 -462 -174 -660q-66 -136 -154 -206t-174 -70q-50 0 -89.5 34.5t-39.5 106.5q0 119 93.5 289t265.5 344q86 90 231 176q35 229 37 281q1 21 23 18q23 -3 29 -24
q2 -6 1 -13q-3 -21 -10 -61t-16.5 -88t-12.5 -68zM-82 -696q50 107 95 273.5t73 332.5q-112 -73 -199 -160q-170 -173 -257 -341t-87 -269q0 -45 18.5 -71.5t53.5 -26.5q41 0 95 28.5t113 90.5t95 143zM88 369q-6 -1 -12 5t-6 13q-1 7 27.5 32t54.5 42q61 37 84 39
q10 1 23.5 -8.5t16.5 -20.5l27 -109q0 -16 -18 -20q-13 0 -23 37q-22 74 -26 74t-37.5 -19.5t-55.5 -34.5q-48 -30 -55 -30z" />
    <glyph glyph-name="Kcommaaccent" unicode="&#x136;" horiz-adv-x="1382" 
d="M57 -485q-16 -6 -22.5 2.5t4.5 31.5q16 39 80 359q-58 15 -89.5 37t-31.5 47q0 128 203 362l12 74q20 124 55 354t60.5 393.5t27.5 176.5q2 18 20 18q23 1 31 -28q4 -16 1 -37q-9 -61 -164 -904q163 174 377 353q157 133 299 240t234.5 167t161.5 100.5t106.5 60
t43.5 24.5q37 32 38 13q1 -8 -7 -24q-9 -18 -46.5 -48t-110.5 -79t-162 -109.5t-225.5 -162.5t-276.5 -215q-292 -236 -453 -428l-65 -352q193 -33 481 -13q230 17 372 45.5t193 53.5q52 25 50 9q-1 -5 -9 -13q-12 -14 -67 -37t-192.5 -55t-313.5 -50q-309 -28 -522 19
l-31 -160q-40 -192 -46 -208q-6 -14 -16 -17zM41 -6q0 -28 86 -47l53 293q-71 -89 -105 -154.5t-34 -91.5zM319 -578q-4 5 7 17t31.5 36t31.5 50q10 21 10 41.5t-3 32t-1 12.5q24 16 39 -6q12 -19 4 -53.5t-30 -65.5q-14 -19 -34.5 -36t-36 -24.5t-18.5 -3.5z" />
    <glyph glyph-name="kcommaaccent" unicode="&#x137;" horiz-adv-x="753" 
d="M397 383q-6 0 -12.5 4t-7.5 4q-2 0 -34 -16t-76.5 -40t-76.5 -42q-99 -62 -114 -76q-4 -13 -8 -43q50 -18 254 0q224 21 430 72q14 3 18.5 -5t0 -18t-12.5 -12q-147 -48 -434 -78q-172 -16 -265 -4l-20 -117q-8 -50 -13 -95.5t-6 -70t-2.5 -43.5t-4 -25.5t-9.5 -6.5
q-9 0 -13.5 17.5t-4 52.5t4 78.5t9.5 105.5q8 71 14 112q-25 8 -32 23q-10 31 49 82q25 167 88 432q48 213 84.5 338.5t58.5 169t41 43.5q11 0 16 -26.5t0 -39.5q-3 -11 -11 -28.5t-22 -44t-22 -44.5q-3 -5 -18.5 -64t-38.5 -152.5t-41 -178.5q-15 -66 -76 -360q12 10 37 24
q49 32 111.5 66t104 53t48.5 19q10 0 20.5 -13.5t10.5 -21.5q0 -9 -7 -20t-18 -11zM182 -350q-4 5 7 17t31.5 35.5t31.5 49.5q10 21 10 41.5t-3 32t-1 12.5q24 16 39 -6q11 -19 3 -53.5t-30 -65.5q-14 -19 -34 -36t-35.5 -24t-18.5 -3z" />
    <glyph glyph-name="kgreenlandic" unicode="&#x138;" horiz-adv-x="753" 
d="M397 383q-6 0 -12.5 4t-7.5 4q-2 0 -34 -16t-76.5 -40t-76.5 -42q-94 -59 -114 -76q-4 -30 -8 -43q58 -17 254 0q224 21 430 72q14 3 18.5 -5t0 -18t-12.5 -12q-147 -48 -434 -78q-172 -16 -265 -4l-20 -117q-8 -50 -13 -95.5t-6 -70t-2.5 -43.5t-4 -25.5t-9.5 -6.5
q-9 0 -13.5 17.5t-4 52.5t4 78.5t9.5 105.5l14 114q-24 5 -32 21q-10 31 49 82q25 160 67 340q6 22 36 29q24 6 24 -8q0 -3 -2 -7q-44 -193 -66 -309q12 10 37 24q49 32 111.5 66t104 53t48.5 19q10 0 20.5 -13.5t10.5 -21.5q0 -9 -7 -20t-18 -11z" />
    <glyph glyph-name="Lacute" unicode="&#x139;" horiz-adv-x="974" 
d="M1247 -346q-1025 -498 -1149 -498q-65 0 -84 40.5t-8 117.5q10 69 65 269t148 525t150 537q41 153 77 263t58.5 163.5t44.5 83.5t30.5 34.5t20.5 6.5q24 2 53 18q11 6 10 -7q-2 -27 -32 -54l-10 -8q-26 -18 -48.5 -60.5t-60.5 -152.5q-5 -14 -24.5 -67.5t-25 -69.5
t-21.5 -61t-24.5 -71t-22 -69t-25.5 -85t-25 -91q-252 -927 -268 -1047q-20 -149 30 -149q25 0 60.5 8.5t140.5 48t275 111.5q160 66 320.5 139t252.5 117t105 49q12 2 19 -7q8 -14 -32 -34zM977 1292q7 0 12.5 -5t5.5 -13q0 -18 -28 -33q-8 -4 -43 -26t-66 -41t-33 -19
q-10 0 -10 12q0 4 54.5 49t70.5 56q23 20 37 20z" />
    <glyph glyph-name="lacute" unicode="&#x13a;" horiz-adv-x="266" 
d="M-2 -512q-14 -1 -24 24.5t-13.5 76.5t2.5 128q31 446 150 961q125 553 184 553q12 0 17 -27.5t-1 -40.5q-3 -11 -11 -28t-22 -43.5t-22 -44.5q-3 -6 -18 -63.5t-38.5 -154t-41.5 -178.5q-123 -575 -158 -950q-9 -111 1 -190q1 -8 1.5 -11t0 -6.5t-2 -4.5t-4.5 -1z
M459 1399q7 0 12.5 -5.5t5.5 -13.5q0 -17 -28 -32q-8 -4 -43 -26t-66 -41t-33 -19q-10 0 -10 12q0 4 54.5 48t70.5 56q25 21 37 21z" />
    <glyph glyph-name="Lcommaaccent" unicode="&#x13b;" horiz-adv-x="974" 
d="M1247 -346q-1025 -498 -1149 -498q-65 0 -84 40.5t-8 117.5q10 69 65 269t148 525t150 537q41 153 77 263t58.5 163.5t44.5 83.5t30.5 34.5t20.5 6.5q24 2 53 18q11 6 10 -7q-2 -27 -32 -54l-10 -8q-26 -18 -48.5 -60.5t-60.5 -152.5q-5 -14 -24.5 -67.5t-25 -69.5
t-21.5 -61t-24.5 -71t-22 -69t-25.5 -85t-25 -91q-252 -927 -268 -1047q-20 -149 30 -149q25 0 60.5 8.5t140.5 48t275 111.5q160 66 320.5 139t252.5 117t105 49q12 2 19 -7q8 -14 -32 -34zM422 -1010q-4 5 7 17t31.5 36t31.5 50q10 21 10 41.5t-3 32t-1 12.5q24 16 39 -6
q11 -19 3 -53.5t-30 -65.5q-14 -19 -34 -36t-35.5 -24.5t-18.5 -3.5z" />
    <glyph glyph-name="lcommaaccent" unicode="&#x13c;" horiz-adv-x="266" 
d="M-2 -512q-14 -1 -24 24.5t-13.5 76.5t2.5 128q31 446 150 961q125 553 184 553q12 0 17 -27.5t-1 -40.5q-3 -11 -11 -28t-22 -43.5t-22 -44.5q-3 -6 -18 -63.5t-38.5 -154t-41.5 -178.5q-123 -575 -158 -950q-9 -111 1 -190q1 -8 1.5 -11t0 -6.5t-2 -4.5t-4.5 -1z
M-111 -809q-4 5 7 17t31.5 35.5t31.5 49.5q10 21 10 41.5t-3 32t-1 12.5q24 16 39 -6q11 -20 3 -53t-30 -65q-14 -19 -34 -36t-35.5 -24.5t-18.5 -3.5z" />
    <glyph glyph-name="Lcaron" unicode="&#x13d;" horiz-adv-x="974" 
d="M1247 -346q-1025 -498 -1149 -498q-65 0 -84 40.5t-8 117.5q10 69 65 269t148 525t150 537q41 153 77 263t58.5 163.5t44.5 83.5t30.5 34.5t20.5 6.5q24 2 53 18q11 6 10 -7q-2 -27 -32 -54l-10 -8q-26 -18 -48.5 -60.5t-60.5 -152.5q-5 -14 -24.5 -67.5t-25 -69.5
t-21.5 -61t-24.5 -71t-22 -69t-25.5 -85t-25 -91q-252 -927 -268 -1047q-20 -149 30 -149q25 0 60.5 8.5t140.5 48t275 111.5q160 66 320.5 139t252.5 117t105 49q12 2 19 -7q8 -14 -32 -34zM821 1001q-7 0 -9 8.5t3 14.5q1 1 6 8t9.5 14.5t10.5 24.5t9 39t0 37t-7.5 22.5
t-4.5 10.5q4 11 16.5 16t24.5 -10q18 -41 6 -101q-28 -91 -64 -84z" />
    <glyph glyph-name="lcaron" unicode="&#x13e;" horiz-adv-x="266" 
d="M-2 -512q-14 -1 -24 24.5t-13.5 76.5t2.5 128q31 446 150 961q125 553 184 553q12 0 17 -27.5t-1 -40.5q-3 -11 -11 -28t-22 -43.5t-22 -44.5q-3 -6 -18 -63.5t-38.5 -154t-41.5 -178.5q-123 -575 -158 -950q-9 -111 1 -190q1 -8 1.5 -11t0 -6.5t-2 -4.5t-4.5 -1z
M387 1008q-7 0 -9 8t3 14q1 1 6 8t9.5 14.5t10.5 24.5t9 39t-0.5 37t-8 22.5t-4.5 10.5q4 11 16.5 16t24.5 -10q19 -42 7 -100q-28 -91 -64 -84z" />
    <glyph glyph-name="Ldot" unicode="&#x13f;" horiz-adv-x="974" 
d="M598 -41q-7 0 -16 10.5t-9 22.5q0 5 23 22t33 17q5 0 13.5 -9.5t8.5 -17.5q0 -15 -22 -30t-31 -15zM1247 -346q-1025 -498 -1149 -498q-65 0 -84 40.5t-8 117.5q10 69 65 269t148 525t150 537q41 153 77 263t58.5 163.5t44.5 83.5t30.5 34.5t20.5 6.5q24 2 53 18
q11 6 10 -7q-2 -27 -32 -54l-10 -8q-26 -18 -48.5 -60.5t-60.5 -152.5q-5 -14 -24.5 -67.5t-25 -69.5t-21.5 -61t-24.5 -71t-22 -69t-25.5 -85t-25 -91q-252 -927 -268 -1047q-20 -149 30 -149q25 0 60.5 8.5t140.5 48t275 111.5q160 66 320.5 139t252.5 117t105 49
q12 2 19 -7q8 -14 -32 -34z" />
    <glyph glyph-name="ldot" unicode="&#x140;" horiz-adv-x="266" 
d="M188 287q-7 0 -15.5 10t-8.5 22q0 5 22.5 22t32.5 17q5 0 14 -9t9 -17q0 -15 -22.5 -30t-31.5 -15zM-2 -512q-14 -1 -24 24.5t-13.5 76.5t2.5 128q31 446 150 961q125 553 184 553q12 0 17 -27.5t-1 -40.5q-3 -11 -11 -28t-22 -43.5t-22 -44.5q-3 -6 -18 -63.5
t-38.5 -154t-41.5 -178.5q-123 -575 -158 -950q-9 -111 1 -190q1 -8 1.5 -11t0 -6.5t-2 -4.5t-4.5 -1z" />
    <glyph glyph-name="Lslash" unicode="&#x141;" horiz-adv-x="974" 
d="M1247 -346q-1025 -498 -1149 -498q-65 0 -84 40.5t-8 117.5q2 17 6.5 39.5t13 55.5t16 63t20.5 78t22.5 83t27 96t28.5 98.5t31.5 109t31.5 110.5l-123 -43q-16 -6 -15 6q1 19 20 35q2 3 5 4l127 47q12 43 67.5 242.5t84.5 306.5q41 153 77 263t58.5 163.5t44.5 83.5
t30.5 34.5t20.5 6.5q24 2 53 18q11 6 10 -7q-2 -27 -32 -54l-10 -8q-26 -18 -48.5 -60.5t-60.5 -152.5q-5 -14 -24.5 -67.5t-25 -69.5t-21.5 -61t-24.5 -71t-22 -69t-25.5 -85t-25 -91l-84 -305l207 77q16 5 34.5 -12t-3.5 -24l-250 -91q-160 -591 -172 -692
q-20 -149 30 -149q25 0 60.5 8.5t140.5 48t275 111.5q160 66 320.5 139t252.5 117t105 49q12 2 19 -7q8 -14 -32 -34z" />
    <glyph glyph-name="lslash" unicode="&#x142;" horiz-adv-x="266" 
d="M43 543q-17 -11 -17 5q1 20 15 32l57 41l15 57q125 553 184 553q12 0 17 -27.5t-1 -40.5q-3 -11 -11 -28t-22 -43.5t-22 -44.5q-3 -6 -17.5 -61t-37.5 -148t-41 -174q68 49 92 61q17 10 35 0q17 -9 -2 -20l-135 -91q-116 -551 -150 -913q-9 -111 1 -190q1 -8 1.5 -11
t0 -6.5t-2 -4.5t-4.5 -1q-14 -1 -24 24.5t-13.5 76.5t2.5 128q30 411 125 854z" />
    <glyph glyph-name="Nacute" unicode="&#x143;" horiz-adv-x="1406" 
d="M745 -545q-37 0 -64.5 46.5t-43 127t-26.5 188.5t-13.5 231t-4 255t0.5 260q3 346 -5 456q-14 191 -59 191q-53 0 -133.5 -173.5t-146.5 -440.5q-65 -263 -105 -477.5t-30 -268.5q7 -37 -8 -40q-9 -2 -16 17q-4 8 -5 19q-11 82 24.5 317t92.5 445q33 121 68.5 227.5
t77.5 204t87.5 154.5t87.5 57q26 0 47 -20.5t34.5 -62.5t23.5 -84t14.5 -108.5t7.5 -110.5t2.5 -115t-1 -97.5t-1.5 -81.5q-22 -1075 97 -1075q41 0 99.5 70t118.5 184t118 276.5t94 331.5q50 234 72.5 577t6.5 521q-1 22 13 21q15 -2 22 -20q2 -4 2 -9q22 -201 0 -513
t-84 -607q-40 -193 -100 -360.5t-123 -277.5t-126.5 -172.5t-115.5 -62.5zM852 1550q7 0 12.5 -5t5.5 -13q0 -18 -28 -33q-8 -4 -43 -26t-66 -41t-33 -19q-10 0 -10 12q0 4 54.5 49t70.5 56q23 20 37 20z" />
    <glyph glyph-name="nacute" unicode="&#x144;" horiz-adv-x="905" 
d="M119 240q1 4 3 7t3.5 4.5t5 3t5.5 1.5t6 1t5 1q19 0 17 -22q-2 -17 -9.5 -44.5t-16 -53t-9.5 -29.5q-2 -3 0 -6t6 -3q5 0 107 50q101 53 131 53q24 0 39.5 -18t15.5 -48q-6 -92 16 -94q27 -6 109.5 18t163.5 58l315 131q13 6 18 -8q5 -15 -12 -23q-47 -24 -309 -137
q-90 -38 -177.5 -62t-129.5 -16q-56 10 -49 109q3 41 -6 47q-13 8 -72 -23q-153 -74 -164 -74t-30 10t-19 21q0 4 7 26t16.5 56.5t13.5 63.5zM391 524q7 0 13 -5t6 -13q0 -18 -29 -33q-8 -4 -43 -26t-65.5 -41t-32.5 -19q-11 0 -11 12q0 4 54.5 49t70.5 56q23 20 37 20z" />
    <glyph glyph-name="Ncommaaccent" unicode="&#x145;" horiz-adv-x="1406" 
d="M745 -545q-37 0 -64.5 46.5t-43 127t-26.5 188.5t-13.5 231t-4 255t0.5 260q3 346 -5 456q-14 191 -59 191q-53 0 -133.5 -173.5t-146.5 -440.5q-65 -263 -105 -477.5t-30 -268.5q7 -37 -8 -40q-9 -2 -16 17q-4 8 -5 19q-11 82 24.5 317t92.5 445q33 121 68.5 227.5
t77.5 204t87.5 154.5t87.5 57q26 0 47 -20.5t34.5 -62.5t23.5 -84t14.5 -108.5t7.5 -110.5t2.5 -115t-1 -97.5t-1.5 -81.5q-22 -1075 97 -1075q41 0 99.5 70t118.5 184t118 276.5t94 331.5q50 234 72.5 577t6.5 521q-1 22 13 21q15 -2 22 -20q2 -4 2 -9q22 -201 0 -513
t-84 -607q-40 -193 -100 -360.5t-123 -277.5t-126.5 -172.5t-115.5 -62.5zM356 -637q-4 5 7 17t31.5 35.5t31.5 49.5q10 21 10 41.5t-3 32t-1 12.5q24 16 39 -6q11 -20 3 -53t-30 -65q-14 -19 -34 -36t-35.5 -24.5t-18.5 -3.5z" />
    <glyph glyph-name="ncommaaccent" unicode="&#x146;" horiz-adv-x="905" 
d="M119 240q1 4 3 7t3.5 4.5t5 3t5.5 1.5t6 1t5 1q19 0 17 -22q-2 -17 -9.5 -44.5t-16 -53t-9.5 -29.5q-2 -3 0 -6t6 -3q5 0 107 50q101 53 131 53q24 0 39.5 -18t15.5 -48q-6 -92 16 -94q27 -6 109.5 18t163.5 58l315 131q13 6 18 -8q5 -15 -12 -23q-47 -24 -309 -137
q-90 -38 -177.5 -62t-129.5 -16q-56 10 -49 109q3 41 -6 47q-13 8 -72 -23q-153 -74 -164 -74t-30 10t-19 21q0 4 7 26t16.5 56.5t13.5 63.5zM164 -279q-4 5 7 17t31 36t31 50q10 21 10.5 41.5t-2.5 32t-1 12.5q24 16 39 -6q11 -19 3 -53.5t-30 -65.5q-14 -19 -34 -36
t-35.5 -24.5t-18.5 -3.5z" />
    <glyph glyph-name="Ncaron" unicode="&#x147;" horiz-adv-x="1406" 
d="M745 -545q-37 0 -64.5 46.5t-43 127t-26.5 188.5t-13.5 231t-4 255t0.5 260q3 346 -5 456q-14 191 -59 191q-53 0 -133.5 -173.5t-146.5 -440.5q-65 -263 -105 -477.5t-30 -268.5q7 -37 -8 -40q-9 -2 -16 17q-4 8 -5 19q-11 82 24.5 317t92.5 445q33 121 68.5 227.5
t77.5 204t87.5 154.5t87.5 57q26 0 47 -20.5t34.5 -62.5t23.5 -84t14.5 -108.5t7.5 -110.5t2.5 -115t-1 -97.5t-1.5 -81.5q-22 -1075 97 -1075q41 0 99.5 70t118.5 184t118 276.5t94 331.5q50 234 72.5 577t6.5 521q-1 22 13 21q15 -2 22 -20q2 -4 2 -9q22 -201 0 -513
t-84 -607q-40 -193 -100 -360.5t-123 -277.5t-126.5 -172.5t-115.5 -62.5zM823 1427q-9 0 -16 9.5t-21 38.5q-24 50 -24 55q0 18 14 18q15 0 25 -20q2 -6 8.5 -20t11.5 -24.5t4 -10.5q4 0 54.5 24t102 49.5t54.5 26.5q8 4 12 2.5t13 -12.5q10 -10 4 -18.5t-37 -26.5
q-48 -25 -118.5 -58t-86.5 -33z" />
    <glyph glyph-name="ncaron" unicode="&#x148;" horiz-adv-x="905" 
d="M119 240q1 4 3 7t3.5 4.5t5 3t5.5 1.5t6 1t5 1q19 0 17 -22q-2 -17 -9.5 -44.5t-16 -53t-9.5 -29.5q-2 -3 0 -6t6 -3q5 0 107 50q101 53 131 53q24 0 39.5 -18t15.5 -48q-6 -92 16 -94q27 -6 109.5 18t163.5 58l315 131q13 6 18 -8q5 -15 -12 -23q-47 -24 -309 -137
q-90 -38 -177.5 -62t-129.5 -16q-56 10 -49 109q3 41 -6 47q-13 8 -72 -23q-153 -74 -164 -74t-30 10t-19 21q0 4 7 26t16.5 56.5t13.5 63.5zM305 373q-9 0 -16 9.5t-21 37.5q-24 50 -24 55q0 19 14 19t25 -21q2 -6 8.5 -20t11.5 -24.5t4 -10.5q4 0 54.5 24t102 49.5
t54.5 26.5q8 4 12 2.5t13 -12.5q10 -10 4 -18.5t-37 -26.5q-46 -24 -117 -57t-88 -33z" />
    <glyph glyph-name="napostrophe" unicode="&#x149;" horiz-adv-x="905" 
d="M119 240q1 4 3 7t3.5 4.5t5 3t5.5 1.5t6 1t5 1q19 0 17 -22q-2 -17 -9.5 -44.5t-16 -53t-9.5 -29.5q-2 -3 0 -6t6 -3q5 0 107 50q101 53 131 53q24 0 39.5 -18t15.5 -48q-6 -92 16 -94q27 -6 109.5 18t163.5 58l315 131q13 6 18 -8q5 -15 -12 -23q-47 -24 -309 -137
q-90 -38 -177.5 -62t-129.5 -16q-56 10 -49 109q3 41 -6 47q-13 8 -72 -23q-153 -74 -164 -74t-30 10t-19 21q0 4 7 26t16.5 56.5t13.5 63.5zM233 379q-4 5 7 17t31.5 35.5t31.5 49.5q10 21 10 41.5t-3 32t-1 12.5q24 16 39 -6q12 -19 4 -53.5t-30 -65.5q-13 -19 -34 -36
t-36.5 -24t-18.5 -3z" />
    <glyph glyph-name="Omacron" unicode="&#x14c;" horiz-adv-x="1099" 
d="M999 178q-63 -44 -145 -86q-47 -164 -133 -358q-28 -62 -65 -126.5t-89 -135.5t-107 -125t-122 -89.5t-131 -35.5q-51 0 -96 19t-85 59.5t-63.5 114.5t-23.5 173q0 145 54.5 306t147.5 307q-45 86 -45 202q0 159 61.5 323t154 285.5t205 199t210.5 77.5
q118 0 174.5 -123.5t56.5 -349.5q0 -341 -92 -676q61 27 119 66q43 28 47 14q3 -14 -27 -36q-3 -3 -6 -5zM436 55q169 -19 365 56q108 379 108 725q0 119 -14 202t-40.5 127t-57 62t-70.5 18q-92 0 -196.5 -80t-188.5 -201t-139.5 -273t-55.5 -285q0 -86 25 -156
q116 171 256 276q34 26 51 19q15 -7 -14 -35q-152 -145 -268 -311q75 -127 239 -144zM676 -240q61 141 110 303q-166 -64 -346 -49q-179 14 -272 142q-180 -286 -180 -574q0 -156 57 -237.5t150 -81.5q61 0 123 33t113 83.5t99 119t82.5 132t63.5 129.5zM838 1397
q-156 0 -156 18q0 19 45 19q10 0 55.5 1t48.5 1q8 0 18.5 -7t10.5 -14t-7 -12.5t-15 -5.5z" />
    <glyph glyph-name="omacron" unicode="&#x14d;" horiz-adv-x="567" 
d="M-10 84q17 37 55 90q-21 21 -27 35q-28 58 12.5 114t108.5 56q67 0 106.5 -58t39.5 -155v-6q16 0 26 2q72 6 190 34t189 54q12 5 18 -9q3 -9 -3 -12q-54 -22 -187.5 -59.5t-212.5 -44.5q-8 -2 -22 -2q-13 -140 -97.5 -248t-160.5 -108q-45 0 -68 45.5t-15 120t48 151.5z
M16 -197q72 0 140.5 94.5t81.5 225.5q-96 0 -158 29q-38 -54 -49 -76q-36 -71 -46.5 -137t0 -101t31.5 -35zM154 242q0 -2 -6.5 -9l-19.5 -21t-24 -28q55 -24 138 -24v20q0 76 -32 120t-77 44q-44 0 -71.5 -35.5t-6.5 -79.5q1 -3 17 -24q48 51 63 51q19 0 19 -14zM311 461
q-155 0 -155 18q0 19 45 19q10 0 55.5 1t48.5 1q8 0 18.5 -7t10.5 -14t-7.5 -12.5t-15.5 -5.5z" />
    <glyph glyph-name="Obreve" unicode="&#x14e;" horiz-adv-x="1099" 
d="M999 178q-63 -44 -145 -86q-47 -164 -133 -358q-28 -62 -65 -126.5t-89 -135.5t-107 -125t-122 -89.5t-131 -35.5q-51 0 -96 19t-85 59.5t-63.5 114.5t-23.5 173q0 145 54.5 306t147.5 307q-45 86 -45 202q0 159 61.5 323t154 285.5t205 199t210.5 77.5
q118 0 174.5 -123.5t56.5 -349.5q0 -341 -92 -676q61 27 119 66q43 28 47 14q3 -14 -27 -36q-3 -3 -6 -5zM436 55q169 -19 365 56q108 379 108 725q0 119 -14 202t-40.5 127t-57 62t-70.5 18q-92 0 -196.5 -80t-188.5 -201t-139.5 -273t-55.5 -285q0 -86 25 -156
q116 171 256 276q34 26 51 19q15 -7 -14 -35q-152 -145 -268 -311q75 -127 239 -144zM676 -240q61 141 110 303q-166 -64 -346 -49q-179 14 -272 142q-180 -286 -180 -574q0 -156 57 -237.5t150 -81.5q61 0 123 33t113 83.5t99 119t82.5 132t63.5 129.5zM780 1397
q-67 0 -90.5 30t-23.5 78q0 27 12.5 45.5t23.5 18.5q19 0 19 -21q0 -5 -8 -27.5t-8 -33.5q0 -21 20.5 -32t46.5 -11q41 0 77 24t60 56q15 21 33 15q16 -5 4 -23q-11 -21 -30.5 -44.5t-58 -49t-77.5 -25.5z" />
    <glyph glyph-name="obreve" unicode="&#x14f;" horiz-adv-x="567" 
d="M-10 84q17 37 55 90q-21 21 -27 35q-28 58 12.5 114t108.5 56q67 0 106.5 -58t39.5 -155v-6q16 0 26 2q72 6 190 34t189 54q12 5 18 -9q3 -9 -3 -12q-54 -22 -187.5 -59.5t-212.5 -44.5q-8 -2 -22 -2q-13 -140 -97.5 -248t-160.5 -108q-45 0 -68 45.5t-15 120t48 151.5z
M16 -197q72 0 140.5 94.5t81.5 225.5q-96 0 -158 29q-38 -54 -49 -76q-36 -71 -46.5 -137t0 -101t31.5 -35zM154 242q0 -2 -6.5 -9l-19.5 -21t-24 -28q55 -24 138 -24v20q0 76 -32 120t-77 44q-44 0 -71.5 -35.5t-6.5 -79.5q1 -3 17 -24q48 51 63 51q19 0 19 -14zM285 444
q-67 0 -91 30.5t-24 78.5q0 26 13 44.5t24 18.5q18 0 18 -20q0 -5 -8 -27.5t-8 -33.5q0 -21 20.5 -32t46.5 -11q41 0 78 23.5t60 55.5q15 21 33 15q16 -5 4 -23q-11 -21 -30.5 -44.5t-58 -49t-77.5 -25.5z" />
    <glyph glyph-name="Ohungarumlaut" unicode="&#x150;" horiz-adv-x="1099" 
d="M999 178q-63 -44 -145 -86q-47 -164 -133 -358q-28 -62 -65 -126.5t-89 -135.5t-107 -125t-122 -89.5t-131 -35.5q-51 0 -96 19t-85 59.5t-63.5 114.5t-23.5 173q0 145 54.5 306t147.5 307q-45 86 -45 202q0 159 61.5 323t154 285.5t205 199t210.5 77.5
q118 0 174.5 -123.5t56.5 -349.5q0 -341 -92 -676q61 27 119 66q43 28 47 14q3 -14 -27 -36q-3 -3 -6 -5zM436 55q169 -19 365 56q108 379 108 725q0 119 -14 202t-40.5 127t-57 62t-70.5 18q-92 0 -196.5 -80t-188.5 -201t-139.5 -273t-55.5 -285q0 -86 25 -156
q116 171 256 276q34 26 51 19q15 -7 -14 -35q-152 -145 -268 -311q75 -127 239 -144zM676 -240q61 141 110 303q-166 -64 -346 -49q-179 14 -272 142q-180 -286 -180 -574q0 -156 57 -237.5t150 -81.5q61 0 123 33t113 83.5t99 119t82.5 132t63.5 129.5zM803 1569
q6 2 13.5 -2t8.5 -11q6 -16 -18 -38q-6 -6 -34.5 -36.5t-53.5 -57t-27 -27.5q-8 -3 -12 10q-1 2 92 133q23 27 31 29zM922 1569q6 2 13.5 -2t8.5 -11q6 -16 -18 -38q-6 -6 -39 -41t-62.5 -65.5t-31.5 -31.5q-8 -3 -13 11q-1 2 24 35.5t54.5 71.5t32.5 42q23 27 31 29z" />
    <glyph glyph-name="ohungarumlaut" unicode="&#x151;" horiz-adv-x="567" 
d="M-10 84q17 37 55 90q-21 21 -27 35q-28 58 12.5 114t108.5 56q67 0 106.5 -58t39.5 -155v-6q16 0 26 2q72 6 190 34t189 54q12 5 18 -9q3 -9 -3 -12q-54 -22 -187.5 -59.5t-212.5 -44.5q-8 -2 -22 -2q-13 -140 -97.5 -248t-160.5 -108q-45 0 -68 45.5t-15 120t48 151.5z
M16 -197q72 0 140.5 94.5t81.5 225.5q-96 0 -158 29q-38 -54 -49 -76q-36 -71 -46.5 -137t0 -101t31.5 -35zM154 242q0 -2 -6.5 -9l-19.5 -21t-24 -28q55 -24 138 -24v20q0 76 -32 120t-77 44q-44 0 -71.5 -35.5t-6.5 -79.5q1 -3 17 -24q48 51 63 51q19 0 19 -14zM283 612
q7 2 14 -1.5t8 -10.5q7 -17 -18 -39q-6 -6 -34.5 -36.5t-53.5 -57t-27 -27.5q-8 -3 -12 11q-1 2 92 133q22 26 31 28zM401 612q7 2 14.5 -1.5t8.5 -10.5q7 -17 -18 -39q-5 -5 -39 -40.5t-63.5 -65.5t-31.5 -31q-8 -3 -12 10q-1 2 24 35.5t55 72.5t32 42q22 26 30 28z" />
    <glyph glyph-name="OE" unicode="&#x152;" horiz-adv-x="1667" 
d="M764 -504q80 4 234 41t298 82q172 55 207 86q14 14 42 -2q21 -15 11 -27q-18 -16 -98 -50.5t-172 -61.5q-330 -100 -463 -105q-91 -5 -104 11q-43 34 -45 75q-3 21 16 127q-41 -79 -90 -152t-111.5 -143t-136.5 -112.5t-145 -42.5q-51 0 -96 19t-85 59.5t-63.5 114.5
t-23.5 173q0 145 54.5 306t147.5 307q-45 86 -45 202q0 159 61.5 323t154 285.5t205 199t210.5 77.5q198 0 227 -358q87 23 152 35q45 114 86 204q45 94 70 119q6 8 23 5q16 -2 1 -19q-30 -41 -33 -76q-1 -8 -6.5 -20.5t-14.5 -31t-28.5 -65t-42.5 -106.5q85 14 154 22
q327 40 569 31q29 -1 27 -12q-3 -12 -29 -18q-4 -1 -8 -1q-1 0 -107.5 -1t-213.5 -9.5t-228 -28.5q-53 -8 -184 -36l-4 -13q-130 -356 -234 -669q150 27 473 69q74 10 129 24q20 5 23 -1q4 -12 -9 -32.5t-36 -23.5q-247 -29 -596 -83q-29 -83 -29 -84q-19 -74 -49 -156
q-43 -145 -70.5 -264t-25.5 -140q2 -25 14 -39.5t37 -13.5zM436 55q169 -20 365 56q108 379 108 725v22q-64 -19 -143 -49q-28 -13 -35 8q-5 22 21 41q24 18 155 57q-10 183 -57 256.5t-123 73.5q-92 0 -196.5 -80t-188.5 -201t-139.5 -273t-55.5 -285q0 -86 25 -156
q116 171 256 276q34 26 51 19q15 -7 -14 -35q-152 -145 -268 -311q75 -127 239 -144zM676 -240q55 127 108 297q2 2 2 4v2q-172 -64 -346 -49q-179 14 -272 142q-180 -286 -180 -574q0 -156 57 -237.5t150 -81.5q61 0 123 33t113 83.5t99 119t82.5 132t63.5 129.5zM958 815
q0 -141 -16 -285q98 266 141 377q-48 -11 -127 -35q2 -18 2 -57z" />
    <glyph glyph-name="oe" unicode="&#x153;" horiz-adv-x="901" 
d="M180 256q0 -30 -43 -47q-61 -24 -86 -109q-11 -51 -2.5 -77.5t29.5 -28.5q33 -4 62.5 29.5t39.5 74.5q7 45 0 66q-3 6 -6.5 10t-6.5 5.5t-4.5 3.5t-0.5 5q2 8 10 9t18.5 -6.5t18.5 -22.5q30 57 76.5 85t81.5 21q29 -4 37.5 -27.5t-3.5 -58.5q-18 -44 -65.5 -78
t-108.5 -55q12 -44 72 -41q20 2 42 6.5t54 16t60 22.5t80.5 33.5t94.5 41t121.5 53.5t143.5 63q20 9 24 -5q4 -11 -8 -16q-107 -47 -255.5 -119t-221 -101.5t-123.5 -33.5q-43 -3 -73.5 14t-44.5 48q-48 -75 -115 -72q-37 2 -57 27.5t-20 58t7 64.5q25 68 68 113.5t76 47.5
q9 2 18.5 -3.5t9.5 -16.5zM238 137q-15 -35 -15 -57q45 15 90.5 52.5t57.5 70.5q5 13 2 25.5t-13 15.5q-22 6 -60.5 -21.5t-61.5 -85.5z" />
    <glyph glyph-name="Racute" unicode="&#x154;" horiz-adv-x="1239" 
d="M63 901q-37 -21 -45 -6t21 39q8 6 18 12q306 170 559 256q75 252 105 320q8 23 28 25q14 2 15 -14q0 -7 -4 -17q-25 -64 -94 -297q170 53 303 53q228 0 341 -54.5t113 -179.5q0 -72 -39.5 -143.5t-108.5 -133.5t-147.5 -112.5t-171.5 -97.5q-120 -61 -538 -268l-41 -160
l616 27q41 1 52 -23q9 -18 -12 -26q-6 -3 -15 -3q-150 -9 -653 -24q-106 -427 -117 -486q-18 -88 -12 -89q2 -1 6 1q11 5 10 -4q-1 -13 -29 -43q-34 -37 -43 -10q-7 20 4 65l142 564q-254 -8 -267 -6q-45 2 -56.5 29t40.5 52q42 17 344 170l62 256q71 295 149 570
q-279 -98 -535 -242zM487 571l-55 -229l477 244q238 120 359 238.5t121 224.5q0 84 -113.5 130t-306.5 46q-117 0 -322 -66q-99 -338 -160 -588zM338 121l35 141q-131 -66 -189 -88q-90 -37 -89 -50q0 -9 50 -9q55 0 193 6zM1055 1571q7 0 12.5 -5.5t5.5 -13.5
q0 -17 -29 -32q-8 -4 -43 -26t-65.5 -41t-32.5 -19q-10 0 -10 12q0 4 54.5 48t70.5 56q24 21 37 21z" />
    <glyph glyph-name="racute" unicode="&#x155;" horiz-adv-x="675" 
d="M100 -86q-6 0 -14 9t-8 14q0 49 2 75q4 54 20.5 146.5t22.5 107.5q7 13 34.5 15.5t28.5 -9.5q1 -4 -4.5 -19.5t-15 -46t-16.5 -61.5q-12 -48 -17.5 -75t-1.5 -27q3 0 9.5 10.5t28 39t52.5 61.5q53 53 101 83.5t71 30.5q17 0 56.5 -14t54.5 -14q65 0 106 16q45 19 45 2
q0 -6 -24 -18.5t-63.5 -24.5t-73.5 -12q-33 0 -64.5 7t-36.5 7q-18 0 -70 -28.5t-90 -69.5q-76 -81 -104 -150q-23 -55 -29 -55zM455 518q7 0 12.5 -5t5.5 -13q0 -18 -29 -33q-8 -4 -43 -26t-65.5 -41t-32.5 -19q-10 0 -10 12q0 4 54.5 49t70.5 56q23 20 37 20z" />
    <glyph glyph-name="Rcommaaccent" unicode="&#x156;" horiz-adv-x="1239" 
d="M63 901q-37 -21 -45 -6t21 39q8 6 18 12q306 170 559 256q75 252 105 320q8 23 28 25q14 2 15 -14q0 -7 -4 -17q-25 -64 -94 -297q170 53 303 53q228 0 341 -54.5t113 -179.5q0 -72 -39.5 -143.5t-108.5 -133.5t-147.5 -112.5t-171.5 -97.5q-120 -61 -538 -268l-41 -160
l616 27q41 1 52 -23q9 -18 -12 -26q-6 -3 -15 -3q-150 -9 -653 -24q-106 -427 -117 -486q-18 -88 -12 -89q2 -1 6 1q11 5 10 -4q-1 -13 -29 -43q-34 -37 -43 -10q-7 20 4 65l142 564q-254 -8 -267 -6q-45 2 -56.5 29t40.5 52q42 17 344 170l62 256q71 295 149 570
q-279 -98 -535 -242zM487 571l-55 -229l477 244q238 120 359 238.5t121 224.5q0 84 -113.5 130t-306.5 46q-117 0 -322 -66q-99 -338 -160 -588zM338 121l35 141q-131 -66 -189 -88q-90 -37 -89 -50q0 -9 50 -9q55 0 193 6zM500 -303q-4 5 7 17t31 35.5t31 49.5
q10 21 10 41.5t-3 32t-1 12.5q24 16 39 -6q12 -19 4 -53.5t-30 -65.5q-14 -19 -34 -36t-35.5 -24t-18.5 -3z" />
    <glyph glyph-name="rcommaaccent" unicode="&#x157;" horiz-adv-x="675" 
d="M100 -86q-6 0 -14 9t-8 14q0 49 2 75q4 54 20.5 146.5t22.5 107.5q7 13 34.5 15.5t28.5 -9.5q1 -4 -4.5 -19.5t-15 -46t-16.5 -61.5q-12 -48 -17.5 -75t-1.5 -27q3 0 9.5 10.5t28 39t52.5 61.5q53 53 101 83.5t71 30.5q17 0 56.5 -14t54.5 -14q65 0 106 16q45 19 45 2
q0 -6 -24 -18.5t-63.5 -24.5t-73.5 -12q-33 0 -64.5 7t-36.5 7q-18 0 -70 -28.5t-90 -69.5q-76 -81 -104 -150q-23 -55 -29 -55zM76 -309q-4 5 7 17t31 35.5t31 49.5q10 21 10.5 41.5t-2.5 32t-1 12.5q23 15 38 -6q12 -19 4 -53.5t-30 -65.5q-14 -19 -34 -36t-35.5 -24
t-18.5 -3z" />
    <glyph glyph-name="Rcaron" unicode="&#x158;" horiz-adv-x="1239" 
d="M63 901q-37 -21 -45 -6t21 39q8 6 18 12q306 170 559 256q75 252 105 320q8 23 28 25q14 2 15 -14q0 -7 -4 -17q-25 -64 -94 -297q170 53 303 53q228 0 341 -54.5t113 -179.5q0 -72 -39.5 -143.5t-108.5 -133.5t-147.5 -112.5t-171.5 -97.5q-120 -61 -538 -268l-41 -160
l616 27q41 1 52 -23q9 -18 -12 -26q-6 -3 -15 -3q-150 -9 -653 -24q-106 -427 -117 -486q-18 -88 -12 -89q2 -1 6 1q11 5 10 -4q-1 -13 -29 -43q-34 -37 -43 -10q-7 20 4 65l142 564q-254 -8 -267 -6q-45 2 -56.5 29t40.5 52q42 17 344 170l62 256q71 295 149 570
q-279 -98 -535 -242zM487 571l-55 -229l477 244q238 120 359 238.5t121 224.5q0 84 -113.5 130t-306.5 46q-117 0 -322 -66q-99 -338 -160 -588zM338 121l35 141q-131 -66 -189 -88q-90 -37 -89 -50q0 -9 50 -9q55 0 193 6zM938 1425q-9 0 -16 9.5t-21 38.5q-24 50 -24 55
q0 18 14 18t24 -20q2 -6 8.5 -20t12 -25t4.5 -11q4 0 54.5 24t102 50t54.5 27q8 4 12 2.5t13 -12.5q10 -10 4 -18.5t-37 -26.5q-48 -25 -118.5 -58t-86.5 -33z" />
    <glyph glyph-name="rcaron" unicode="&#x159;" horiz-adv-x="675" 
d="M100 -86q-6 0 -14 9t-8 14q0 49 2 75q4 54 20.5 146.5t22.5 107.5q7 13 34.5 15.5t28.5 -9.5q1 -4 -4.5 -19.5t-15 -46t-16.5 -61.5q-12 -48 -17.5 -75t-1.5 -27q3 0 9.5 10.5t28 39t52.5 61.5q53 53 101 83.5t71 30.5q17 0 56.5 -14t54.5 -14q65 0 106 16q45 19 45 2
q0 -6 -24 -18.5t-63.5 -24.5t-73.5 -12q-33 0 -64.5 7t-36.5 7q-18 0 -70 -28.5t-90 -69.5q-76 -81 -104 -150q-23 -55 -29 -55zM324 383q-9 0 -16 9.5t-21 37.5q-25 52 -25 55q0 19 14 19t25 -21q2 -6 8.5 -20t12 -24.5t4.5 -10.5q4 0 54.5 24t102 49.5t54.5 26.5
q8 4 11.5 2.5t12.5 -12.5q10 -10 4 -18.5t-37 -26.5q-47 -25 -117.5 -57.5t-86.5 -32.5z" />
    <glyph glyph-name="Sacute" unicode="&#x15a;" 
d="M1020 821q89 31 106 109q25 123 -114 147q-83 14 -228.5 -15.5t-289.5 -96.5q-146 -70 -254 -160.5t-131 -188.5q-23 -104 31 -200t210 -240q106 -99 154 -149q145 59 393 134t307 87q38 9 44 -2q5 -8 -15 -15q-8 -4 -21 -6q-61 -13 -297.5 -87.5t-384.5 -137.5
q120 -126 163 -216t28 -187q-12 -80 -77 -138t-160 -83t-201 -15q-145 13 -219 85.5t-60 160.5q35 184 412 379q7 5 24.5 12t22.5 10q-19 20 -141 142q-119 113 -179.5 186t-84 143t-7.5 146q25 114 124 204.5t294 176.5q327 146 551 110q88 -14 124.5 -67.5t20.5 -128.5
q-13 -56 -59 -93t-74 -39q-19 -3 -24.5 11.5t12.5 21.5zM674 -393q12 80 -27 163t-158 212q-15 -6 -47 -25q-193 -105 -286.5 -186.5t-108.5 -163.5q-13 -74 52 -132t186 -67q150 -9 262 50.5t127 148.5zM848 1335q7 0 12.5 -5t5.5 -13q0 -18 -28 -33q-8 -4 -43 -26t-66 -41
t-33 -19q-10 0 -10 12q0 4 54.5 49t70.5 56q23 20 37 20z" />
    <glyph glyph-name="sacute" unicode="&#x15b;" horiz-adv-x="501" 
d="M225 514q-56 -33 -80.5 -73t-15.5 -79q5 -21 33 -92.5t43 -115.5q122 98 235 149q5 3 19 5t20 1q14 -5 -10 -17q-5 -3 -6 -3q-92 -36 -246 -174q45 -148 45 -267q0 -77 -30 -145t-76 -111t-97.5 -67.5t-97.5 -24.5q-86 0 -111 74q-30 93 48 236q57 104 161 208
q59 58 111 105q-6 18 -36 99t-38 116q-22 79 16 140.5t89 66.5q38 5 38 -13q0 -11 -14 -18zM225 -125q0 84 -41 209l-88 -86q-165 -166 -202 -318q-23 -95 14 -131q13 -14 33 -14q103 0 193.5 102t90.5 238zM453 686q7 0 12.5 -5t5.5 -13q0 -18 -29 -33q-8 -4 -43 -26
t-65.5 -41t-32.5 -19q-10 0 -10 12q0 4 54.5 49t70.5 56q23 20 37 20z" />
    <glyph glyph-name="Scircumflex" unicode="&#x15c;" 
d="M1020 821q89 31 106 109q25 123 -114 147q-83 14 -228.5 -15.5t-289.5 -96.5q-146 -70 -254 -160.5t-131 -188.5q-23 -104 31 -200t210 -240q106 -99 154 -149q145 59 393 134t307 87q38 9 44 -2q5 -8 -15 -15q-8 -4 -21 -6q-61 -13 -297.5 -87.5t-384.5 -137.5
q120 -126 163 -216t28 -187q-12 -80 -77 -138t-160 -83t-201 -15q-145 13 -219 85.5t-60 160.5q35 184 412 379q7 5 24.5 12t22.5 10q-19 20 -141 142q-119 113 -179.5 186t-84 143t-7.5 146q25 114 124 204.5t294 176.5q327 146 551 110q88 -14 124.5 -67.5t20.5 -128.5
q-13 -56 -59 -93t-74 -39q-19 -3 -24.5 11.5t12.5 21.5zM674 -393q12 80 -27 163t-158 212q-15 -6 -47 -25q-193 -105 -286.5 -186.5t-108.5 -163.5q-13 -74 52 -132t186 -67q150 -9 262 50.5t127 148.5zM768 1233q-6 -1 -12 5t-6 13q-1 7 27.5 32.5t53.5 41.5q61 37 84 39
q10 1 24 -8.5t17 -20.5l27 -108q0 -17 -18 -21q-13 0 -23 37q-22 74 -27 74q-4 0 -37 -19t-55 -34q-50 -31 -55 -31z" />
    <glyph glyph-name="scircumflex" unicode="&#x15d;" horiz-adv-x="501" 
d="M225 514q-56 -33 -80.5 -73t-15.5 -79q5 -21 33 -92.5t43 -115.5q122 98 235 149q5 3 19 5t20 1q14 -5 -10 -17q-5 -3 -6 -3q-92 -36 -246 -174q45 -148 45 -267q0 -77 -30 -145t-76 -111t-97.5 -67.5t-97.5 -24.5q-86 0 -111 74q-30 93 48 236q57 104 161 208
q59 58 111 105q-6 18 -36 99t-38 116q-22 79 16 140.5t89 66.5q38 5 38 -13q0 -11 -14 -18zM225 -125q0 84 -41 209l-88 -86q-165 -166 -202 -318q-23 -95 14 -131q13 -14 33 -14q103 0 193.5 102t90.5 238zM236 578q-6 -2 -12.5 4.5t-6.5 13.5q-1 7 27.5 32t54.5 42
q61 37 84 39q10 1 24 -8.5t17 -20.5l27 -109q0 -15 -19 -20q-12 0 -22 37q-22 74 -27 74q-4 0 -36.5 -19t-55.5 -35q-48 -30 -55 -30z" />
    <glyph glyph-name="Scedilla" unicode="&#x15e;" 
d="M207 -762q-11 0 -18 9.5t-1 15.5q2 3 18.5 20.5t39 41t33.5 36.5q-143 14 -216.5 87t-58.5 159q35 184 412 379q7 5 24.5 12t22.5 10q-19 20 -141 142q-119 113 -179.5 186t-84 143t-7.5 146q25 114 124 204.5t294 176.5q327 146 551 110q88 -14 124.5 -67.5t20.5 -128.5
q-13 -56 -59 -93t-74 -39q-19 -3 -24.5 11.5t12.5 21.5q89 31 106 109q25 123 -114 147q-83 14 -228.5 -15.5t-289.5 -96.5q-146 -70 -254 -160.5t-131 -188.5q-23 -104 31 -200t210 -240q106 -99 154 -149q145 59 393 134t307 87q38 9 44 -2q5 -8 -15 -15q-8 -4 -21 -6
q-61 -13 -297.5 -87.5t-384.5 -137.5q120 -126 163 -216t28 -187q-17 -112 -131.5 -177.5t-265.5 -60.5q-35 -40 -54 -59q12 2 43 2q39 0 67 -27.5t28 -75.5q0 -74 -72.5 -141.5t-153.5 -67.5q-42 0 -66 22t-24 40q0 15 20 22q19 6 19 -6q0 -13 16.5 -24t40.5 -11
q54 0 115.5 62.5t61.5 105.5q0 27 -17.5 48.5t-50.5 21.5q-27 0 -57.5 -16.5t-32.5 -16.5zM674 -393q12 80 -27 163t-158 212q-15 -6 -47 -25q-193 -105 -286.5 -186.5t-108.5 -163.5q-13 -74 52 -132t186 -67q150 -9 262 50.5t127 148.5z" />
    <glyph glyph-name="scedilla" unicode="&#x15f;" horiz-adv-x="501" 
d="M-143 -614q-11 0 -18 9t-1 15q18 24 88 94q-39 10 -61 42t-21.5 82t21.5 110t71 133.5t123 146.5q59 58 111 105q-6 18 -36 99t-38 116q-22 79 16 140.5t89 66.5q38 5 38 -13q0 -11 -14 -18q-56 -33 -80.5 -73t-15.5 -79q5 -21 33 -92.5t43 -115.5q122 98 235 149
q5 3 19 5t20 1q14 -5 -10 -17q-5 -3 -6 -3q-92 -36 -246 -174q45 -148 45 -267q0 -76 -29 -142.5t-74 -109.5t-95 -68.5t-95 -27.5l-47 -53q12 2 41 2q39 0 66.5 -27t27.5 -75q0 -74 -72 -141.5t-153 -67.5q-42 0 -66 21.5t-24 39.5q0 15 20 22q19 7 19 -5q0 -13 16.5 -24
t40.5 -11q54 0 115 62.5t61 105.5q0 27 -17 48t-50 21q-27 0 -57.5 -16t-32.5 -16zM225 -125q0 84 -41 209l-88 -86q-165 -166 -202 -318q-23 -95 14 -131q13 -14 33 -14q103 0 193.5 102t90.5 238z" />
    <glyph glyph-name="Scaron" unicode="&#x160;" 
d="M1020 821q89 31 106 109q25 123 -114 147q-83 14 -228.5 -15.5t-289.5 -96.5q-146 -70 -254 -160.5t-131 -188.5q-23 -104 31 -200t210 -240q106 -99 154 -149q145 59 393 134t307 87q38 9 44 -2q5 -8 -15 -15q-8 -4 -21 -6q-61 -13 -297.5 -87.5t-384.5 -137.5
q120 -126 163 -216t28 -187q-12 -80 -77 -138t-160 -83t-201 -15q-145 13 -219 85.5t-60 160.5q35 184 412 379q7 5 24.5 12t22.5 10q-19 20 -141 142q-119 113 -179.5 186t-84 143t-7.5 146q25 114 124 204.5t294 176.5q327 146 551 110q88 -14 124.5 -67.5t20.5 -128.5
q-13 -56 -59 -93t-74 -39q-19 -3 -24.5 11.5t12.5 21.5zM674 -393q12 80 -27 163t-158 212q-15 -6 -47 -25q-193 -105 -286.5 -186.5t-108.5 -163.5q-13 -74 52 -132t186 -67q150 -9 262 50.5t127 148.5zM825 1194q-9 0 -16 9.5t-21 37.5q-24 50 -24 55q0 19 14 19t25 -21
q2 -6 8.5 -20t11.5 -24.5t4 -10.5q4 0 54.5 24t102 49.5t54.5 26.5q8 4 12 2.5t13 -12.5q10 -10 4 -18.5t-37 -26.5q-46 -24 -117 -57t-88 -33z" />
    <glyph glyph-name="scaron" unicode="&#x161;" horiz-adv-x="501" 
d="M225 514q-56 -33 -80.5 -73t-15.5 -79q5 -21 33 -92.5t43 -115.5q122 98 235 149q5 3 19 5t20 1q14 -5 -10 -17q-5 -3 -6 -3q-92 -36 -246 -174q45 -148 45 -267q0 -77 -30 -145t-76 -111t-97.5 -67.5t-97.5 -24.5q-86 0 -111 74q-30 93 48 236q57 104 161 208
q59 58 111 105q-6 18 -36 99t-38 116q-22 79 16 140.5t89 66.5q38 5 38 -13q0 -11 -14 -18zM225 -125q0 84 -41 209l-88 -86q-165 -166 -202 -318q-23 -95 14 -131q13 -14 33 -14q103 0 193.5 102t90.5 238zM332 575q-9 0 -16 9.5t-21 38.5q-25 52 -25 55q0 18 15 18
q14 0 24 -20q2 -6 8.5 -20t12 -24.5t4.5 -10.5q4 0 54.5 24t102 49.5t54.5 26.5q8 4 11.5 2.5t12.5 -12.5q10 -10 4.5 -18.5t-36.5 -26.5q-48 -25 -118.5 -58t-86.5 -33z" />
    <glyph glyph-name="Tcommaaccent" unicode="&#x162;" horiz-adv-x="937" 
d="M664 1206q-12 -47 -19 -84q202 13 561 25q115 4 224.5 7t170.5 4t112.5 2t77 3t36.5 6q34 10 31 -3q-1 -7 -9 -15q-9 -11 -31 -24t-44 -13q-10 -1 -99.5 -2t-227.5 -3.5t-251 -6.5q-344 -13 -561 -29q-52 -245 -94 -573q-21 -163 -58 -401t-65 -412t-31 -197
q-5 -56 -32 -93q-17 -23 -20 -2q-1 4 -1 9q0 114 153 1088q56 362 105 579q-217 -17 -338 -35q-446 -70 -457 -137q-4 -25 -18 -26t-21 18q-2 12 -2.5 24t18.5 26.5t54 30t103.5 36t166.5 43.5q200 47 504 67q17 71 33 115t24 55.5t19 22.5q22 21 38 5q13 -12 0 -23
q-1 -2 -3 -3q-19 -11 -29.5 -28.5t-19.5 -55.5zM225 -870q-4 5 7 17t31.5 35.5t31.5 49.5q10 21 10 41.5t-3 32t-1 12.5q24 16 39 -6q11 -19 3 -53.5t-30 -65.5q-14 -19 -34 -36t-35.5 -24t-18.5 -3z" />
    <glyph glyph-name="tcommaaccent" unicode="&#x163;" horiz-adv-x="344" 
d="M39 -530q-14 -3 -24 22t-15 78t-4 127q4 135 30 401t66 484q16 84 43 204h-68q-260 0 -315.5 4t-60.5 25q-3 13 27 27t42 6q32 -19 95 -19l290 -2q31 124 63 210.5t54.5 122.5t38.5 36q11 0 19.5 -26.5t5.5 -41.5q-2 -8 -5 -9.5t-7 -0.5t-10.5 -5.5t-14.5 -22.5
q-3 -4 -15 -37.5t-32.5 -97t-38.5 -128.5q20 0 101.5 -3t199.5 -3q29 0 57.5 0.5t48.5 1t39.5 0.5t32 0.5t24 0t18.5 -1.5t12.5 -2.5t8 -4t3.5 -6.5q2 -12 -27 -17q-34 -6 -223 -6h-308q-38 -154 -49 -227q-43 -241 -75 -493q-14 -101 -23.5 -269.5t-1.5 -236.5
q2 -12 3.5 -23.5t3.5 -19t3.5 -14.5t2.5 -11.5t1 -8t-0.5 -5.5t-2.5 -4t-5 -2.5t-8 -1.5zM-100 -799q-4 5 7 17t31 36t31 50q10 21 10 41.5t-3 32t-1 12.5q24 16 39 -6q12 -19 4 -53.5t-30 -65.5q-14 -19 -34 -36t-35.5 -24.5t-18.5 -3.5z" />
    <glyph glyph-name="Tcaron" unicode="&#x164;" horiz-adv-x="937" 
d="M664 1206q-12 -47 -19 -84q202 13 561 25q115 4 224.5 7t170.5 4t112.5 2t77 3t36.5 6q34 10 31 -3q-1 -7 -9 -15q-9 -11 -31 -24t-44 -13q-10 -1 -99.5 -2t-227.5 -3.5t-251 -6.5q-344 -13 -561 -29q-52 -245 -94 -573q-21 -163 -58 -401t-65 -412t-31 -197
q-5 -56 -32 -93q-17 -23 -20 -2q-1 4 -1 9q0 114 153 1088q56 362 105 579q-217 -17 -338 -35q-446 -70 -457 -137q-4 -25 -18 -26t-21 18q-2 12 -2.5 24t18.5 26.5t54 30t103.5 36t166.5 43.5q200 47 504 67q17 71 33 115t24 55.5t19 22.5q22 21 38 5q13 -12 0 -23
q-1 -2 -3 -3q-19 -11 -29.5 -28.5t-19.5 -55.5zM709 1384q-9 0 -16 9.5t-21 38.5q-25 52 -25 55q0 18 15 18q14 0 24 -20q2 -6 8.5 -20t12 -24.5t4.5 -10.5q4 0 54.5 24t102 49.5t54.5 26.5q8 4 11.5 2.5t12.5 -12.5q10 -10 4 -18.5t-37 -26.5q-49 -26 -118.5 -58.5
t-85.5 -32.5z" />
    <glyph glyph-name="tcaron" unicode="&#x165;" horiz-adv-x="624" 
d="M39 -530q-14 -3 -24 22t-15 78t-4 127q4 135 30 401t66 484q16 84 43 204h-68q-260 0 -315.5 4t-60.5 25q-3 13 27 27t42 6q32 -19 95 -19l290 -2q31 124 63 210.5t54.5 122.5t38.5 36q11 0 19.5 -26.5t5.5 -41.5q-2 -8 -5 -9.5t-7 -0.5t-10.5 -5.5t-14.5 -22.5
q-3 -4 -15 -37.5t-32.5 -97t-38.5 -128.5q20 0 101.5 -3t199.5 -3q29 0 57.5 0.5t48.5 1t39.5 0.5t32 0.5t24 0t18.5 -1.5t12.5 -2.5t8 -4t3.5 -6.5q2 -12 -27 -17q-34 -6 -223 -6h-308q-38 -154 -49 -227q-43 -241 -75 -493q-14 -101 -23.5 -269.5t-1.5 -236.5
q2 -12 3.5 -23.5t3.5 -19t3.5 -14.5t2.5 -11.5t1 -8t-0.5 -5.5t-2.5 -4t-5 -2.5t-8 -1.5zM457 958q-7 0 -9 8.5t3 14.5q1 1 5.5 8t9 14.5t10.5 24.5t9 39t0 37t-7.5 22.5t-4.5 10.5q4 11 16.5 16t24.5 -10q18 -41 6 -101q-8 -25 -14.5 -41.5t-20 -31t-28.5 -11.5z" />
    <glyph glyph-name="Tbar" unicode="&#x166;" horiz-adv-x="937" 
d="M664 1206q-12 -47 -19 -84q202 13 561 25q115 4 224.5 7t170.5 4t112.5 2t77 3t36.5 6q34 10 31 -3q-1 -7 -9 -15q-9 -11 -31 -24t-44 -13q-10 -1 -99.5 -2t-227.5 -3.5t-251 -6.5q-344 -13 -561 -29q-37 -169 -84 -498h24q8 0 18.5 -6.5t10.5 -13.5t-7 -12.5t-15 -5.5
h-37l-4 -37q-21 -163 -58 -401t-65 -412t-31 -197q-5 -56 -32 -93q-17 -23 -20 -2q-1 4 -1 9q0 114 153 1088l7 47q-68 4 -68 16q0 18 45 18h29q52 330 92 498q-217 -17 -338 -35q-446 -70 -457 -137q-4 -25 -18 -26t-21 18q-2 12 -2.5 24t18.5 26.5t54 30t103.5 36
t166.5 43.5q200 47 504 67q17 71 33 115t24 55.5t19 22.5q22 21 38 5q13 -12 0 -23q-1 -2 -3 -3q-19 -11 -29.5 -28.5t-19.5 -55.5z" />
    <glyph glyph-name="tbar" unicode="&#x167;" horiz-adv-x="344" 
d="M39 -530q-14 -3 -24 22t-15 78t-4 127q4 135 30 401t66 484l14 77q-65 4 -65 17q0 18 45 18h29q13 65 20 92h-68q-260 0 -315.5 4t-60.5 25q-3 13 27 27t42 6q32 -19 95 -19l290 -2q31 124 63 210.5t54.5 122.5t38.5 36q11 0 19.5 -26.5t5.5 -41.5q-2 -8 -5 -9.5t-7 -0.5
t-10.5 -5.5t-14.5 -22.5q-3 -4 -15 -37.5t-32.5 -97t-38.5 -128.5q20 0 101.5 -3t199.5 -3q29 0 57.5 0.5t48.5 1t39.5 0.5t32 0.5t24 0t18.5 -1.5t12.5 -2.5t8 -4t3.5 -6.5q2 -12 -27 -17q-34 -6 -223 -6h-308l-22 -90h22q8 0 18.5 -6.5t10.5 -13.5t-7 -13t-15 -6h-37
q-2 -9 -9.5 -44t-9.5 -54q-43 -241 -75 -493q-14 -101 -23.5 -269.5t-1.5 -236.5q2 -12 3.5 -23.5t3.5 -19t3.5 -14.5t2.5 -11.5t1 -8t-0.5 -5.5t-2.5 -4t-5 -2.5t-8 -1.5z" />
    <glyph glyph-name="Utilde" unicode="&#x168;" horiz-adv-x="1214" 
d="M506 1063q-65 -63 -168 -286t-166 -445q-61 -211 -81.5 -405.5t0.5 -309.5t77 -115q246 0 852 1286l10 21q27 101 31 113q98 348 120 399q18 40 38 44q5 1 12 1q26 0 21 -44q-11 -95 -179 -519l-8 -37q-86 -362 -128.5 -653.5t-41.5 -470.5t24.5 -283.5t67.5 -138.5
q31 -25 24 -45q-6 -19 -37 -4q-11 6 -24 16q-31 26 -55.5 81.5t-41 165t-15 254.5t32.5 367.5t92 485.5q-125 -267 -273 -511t-292 -408.5t-230 -164.5q-43 0 -75 32t-50 101.5t-18.5 171t22.5 250.5t70 330q153 586 350 743q31 23 45 8q12 -12 -6 -30zM698 1323
q-14 0 -14 27q0 18 46 40.5t85 22.5q27 0 42.5 -16t14.5 -45q0 -31 17 -31q21 0 87 30.5t68 30.5q21 0 21 -16q0 -11 -74.5 -45.5t-107.5 -34.5q-42 0 -45 53q-3 33 -25 33q-20 0 -64.5 -24.5t-50.5 -24.5z" />
    <glyph glyph-name="utilde" unicode="&#x169;" horiz-adv-x="937" 
d="M268 -35q23 109 76 209q-45 -51 -76 -84q-55 -58 -125.5 -111t-97.5 -53q-46 0 -41 70q5 53 47 145q19 42 44 77t40 38q13 1 19 -7.5t6 -15.5t-13 -22.5t-33 -41t-32 -48.5q-28 -55 -41 -107q-4 -23 0 -35t12 -12q23 0 88 51.5t103 92.5q16 17 42.5 46.5t38.5 42.5
t28.5 28.5t27 20.5t18.5 3q23 -5 -7 -66q-4 -10 -7 -16q-53 -113 -78 -209q-23 -96 27 -96q67 0 201 72.5t303 181.5t225 139q15 6 27 -1q11 -5 -9 -19q-32 -20 -129.5 -86.5t-170 -113t-165 -101t-166 -84t-120.5 -29.5q-96 0 -62 141zM174 377q-14 0 -14 26q0 18 46 41
t85 23q27 0 42.5 -16t14.5 -45q0 -31 17 -31q21 0 87 30.5t68 30.5q21 0 21 -16q0 -11 -75 -45.5t-108 -34.5q-42 0 -45 53q-3 33 -24 33q-20 0 -64.5 -24.5t-50.5 -24.5z" />
    <glyph glyph-name="Umacron" unicode="&#x16a;" horiz-adv-x="1214" 
d="M506 1063q-65 -63 -168 -286t-166 -445q-61 -211 -81.5 -405.5t0.5 -309.5t77 -115q246 0 852 1286l10 21q27 101 31 113q98 348 120 399q18 40 38 44q5 1 12 1q26 0 21 -44q-11 -95 -179 -519l-8 -37q-86 -362 -128.5 -653.5t-41.5 -470.5t24.5 -283.5t67.5 -138.5
q31 -25 24 -45q-6 -19 -37 -4q-11 6 -24 16q-31 26 -55.5 81.5t-41 165t-15 254.5t32.5 367.5t92 485.5q-125 -267 -273 -511t-292 -408.5t-230 -164.5q-43 0 -75 32t-50 101.5t-18.5 171t22.5 250.5t70 330q153 586 350 743q31 23 45 8q12 -12 -6 -30zM926 1321
q-156 0 -156 18q0 19 45 19q10 0 56 1t49 1q8 0 18 -7t10 -14t-7 -12.5t-15 -5.5z" />
    <glyph glyph-name="umacron" unicode="&#x16b;" horiz-adv-x="937" 
d="M268 -35q23 109 76 209q-45 -51 -76 -84q-55 -58 -125.5 -111t-97.5 -53q-46 0 -41 70q5 53 47 145q19 42 44 77t40 38q13 1 19 -7.5t6 -15.5t-13 -22.5t-33 -41t-32 -48.5q-28 -55 -41 -107q-4 -23 0 -35t12 -12q23 0 88 51.5t103 92.5q16 17 42.5 46.5t38.5 42.5
t28.5 28.5t27 20.5t18.5 3q23 -5 -7 -66q-4 -10 -7 -16q-53 -113 -78 -209q-23 -96 27 -96q67 0 201 72.5t303 181.5t225 139q15 6 27 -1q11 -5 -9 -19q-32 -20 -129.5 -86.5t-170 -113t-165 -101t-166 -84t-120.5 -29.5q-96 0 -62 141zM371 344q-156 0 -156 18q0 19 45 19
q10 0 56 1t49 1q8 0 18 -7t10 -14t-7 -12.5t-15 -5.5z" />
    <glyph glyph-name="Ubreve" unicode="&#x16c;" horiz-adv-x="1214" 
d="M506 1063q-65 -63 -168 -286t-166 -445q-61 -211 -81.5 -405.5t0.5 -309.5t77 -115q246 0 852 1286l10 21q27 101 31 113q98 348 120 399q18 40 38 44q5 1 12 1q26 0 21 -44q-11 -95 -179 -519l-8 -37q-86 -362 -128.5 -653.5t-41.5 -470.5t24.5 -283.5t67.5 -138.5
q31 -25 24 -45q-6 -19 -37 -4q-11 6 -24 16q-31 26 -55.5 81.5t-41 165t-15 254.5t32.5 367.5t92 485.5q-125 -267 -273 -511t-292 -408.5t-230 -164.5q-43 0 -75 32t-50 101.5t-18.5 171t22.5 250.5t70 330q153 586 350 743q31 23 45 8q12 -12 -6 -30zM879 1266
q-67 0 -91 30t-24 78q0 27 13 45.5t24 18.5q18 0 18 -21q0 -5 -8 -27.5t-8 -33.5q0 -21 20.5 -32t46.5 -11q41 0 78 24t60 56q16 21 33 15q14 -6 3 -24q-12 -21 -31 -44.5t-57 -48.5t-77 -25z" />
    <glyph glyph-name="ubreve" unicode="&#x16d;" horiz-adv-x="937" 
d="M268 -35q23 109 76 209q-45 -51 -76 -84q-55 -58 -125.5 -111t-97.5 -53q-46 0 -41 70q5 53 47 145q19 42 44 77t40 38q13 1 19 -7.5t6 -15.5t-13 -22.5t-33 -41t-32 -48.5q-28 -55 -41 -107q-4 -23 0 -35t12 -12q23 0 88 51.5t103 92.5q16 17 42.5 46.5t38.5 42.5
t28.5 28.5t27 20.5t18.5 3q23 -5 -7 -66q-4 -10 -7 -16q-53 -113 -78 -209q-23 -96 27 -96q67 0 201 72.5t303 181.5t225 139q15 6 27 -1q11 -5 -9 -19q-32 -20 -129.5 -86.5t-170 -113t-165 -101t-166 -84t-120.5 -29.5q-96 0 -62 141zM311 340q-66 0 -90 30t-24 79
q0 27 12.5 45t23.5 18q19 0 19 -20q0 -5 -8 -28t-8 -34q0 -21 20.5 -32t46.5 -11q41 0 77 24t60 56q15 21 33 15q16 -5 4 -23q-11 -21 -30.5 -44.5t-58 -49t-77.5 -25.5z" />
    <glyph glyph-name="Uring" unicode="&#x16e;" horiz-adv-x="1214" 
d="M506 1063q-65 -63 -168 -286t-166 -445q-61 -211 -81.5 -405.5t0.5 -309.5t77 -115q246 0 852 1286l10 21q27 101 31 113q98 348 120 399q18 40 38 44q5 1 12 1q26 0 21 -44q-11 -95 -179 -519l-8 -37q-86 -362 -128.5 -653.5t-41.5 -470.5t24.5 -283.5t67.5 -138.5
q31 -25 24 -45q-6 -19 -37 -4q-11 6 -24 16q-31 26 -55.5 81.5t-41 165t-15 254.5t32.5 367.5t92 485.5q-125 -267 -273 -511t-292 -408.5t-230 -164.5q-43 0 -75 32t-50 101.5t-18.5 171t22.5 250.5t70 330q153 586 350 743q31 23 45 8q12 -12 -6 -30zM922 1438
q30 0 47.5 -22.5t17.5 -49.5q0 -30 -26 -58t-74 -28q-29 0 -48 24t-12 58q4 29 34 52.5t61 23.5zM891 1319q21 0 37.5 13t19.5 34q2 15 -6 26t-24 11q-21 0 -38 -12.5t-20 -30.5t7 -29.5t24 -11.5z" />
    <glyph glyph-name="uring" unicode="&#x16f;" horiz-adv-x="937" 
d="M268 -35q23 109 76 209q-45 -51 -76 -84q-55 -58 -125.5 -111t-97.5 -53q-46 0 -41 70q5 53 47 145q19 42 44 77t40 38q13 1 19 -7.5t6 -15.5t-13 -22.5t-33 -41t-32 -48.5q-28 -55 -41 -107q-4 -23 0 -35t12 -12q23 0 88 51.5t103 92.5q16 17 42.5 46.5t38.5 42.5
t28.5 28.5t27 20.5t18.5 3q23 -5 -7 -66q-4 -10 -7 -16q-53 -113 -78 -209q-23 -96 27 -96q67 0 201 72.5t303 181.5t225 139q15 6 27 -1q11 -5 -9 -19q-32 -20 -129.5 -86.5t-170 -113t-165 -101t-166 -84t-120.5 -29.5q-96 0 -62 141zM340 494q30 0 48 -22.5t18 -49.5
q0 -30 -26.5 -58t-74.5 -28q-29 0 -47.5 24t-11.5 58q4 29 33.5 52.5t60.5 23.5zM309 375q21 0 38 13t20 34q2 15 -6.5 26t-24.5 11q-21 0 -37.5 -12.5t-19.5 -30.5t6.5 -29.5t23.5 -11.5z" />
    <glyph glyph-name="Uhungarumlaut" unicode="&#x170;" horiz-adv-x="1214" 
d="M506 1063q-65 -63 -168 -286t-166 -445q-61 -211 -81.5 -405.5t0.5 -309.5t77 -115q246 0 852 1286l10 21q27 101 31 113q98 348 120 399q18 40 38 44q5 1 12 1q26 0 21 -44q-11 -95 -179 -519l-8 -37q-86 -362 -128.5 -653.5t-41.5 -470.5t24.5 -283.5t67.5 -138.5
q31 -25 24 -45q-6 -19 -37 -4q-11 6 -24 16q-31 26 -55.5 81.5t-41 165t-15 254.5t32.5 367.5t92 485.5q-125 -267 -273 -511t-292 -408.5t-230 -164.5q-43 0 -75 32t-50 101.5t-18.5 171t22.5 250.5t70 330q153 586 350 743q31 23 45 8q12 -12 -6 -30zM862 1454
q7 2 14.5 -1.5t8.5 -10.5q7 -16 -19 -39q-6 -6 -34.5 -36.5t-53 -57t-26.5 -27.5q-9 -3 -13 10q-1 2 92 133q23 27 31 29zM981 1454q7 2 14.5 -1.5t8.5 -10.5q7 -16 -19 -39q-6 -6 -39.5 -40.5t-62.5 -65t-31 -31.5q-8 -3 -12 10q-1 2 24 35.5t54.5 72t31.5 41.5
q23 27 31 29z" />
    <glyph glyph-name="uhungarumlaut" unicode="&#x171;" horiz-adv-x="937" 
d="M268 -35q23 109 76 209q-45 -51 -76 -84q-55 -58 -125.5 -111t-97.5 -53q-46 0 -41 70q5 53 47 145q19 42 44 77t40 38q13 1 19 -7.5t6 -15.5t-13 -22.5t-33 -41t-32 -48.5q-28 -55 -41 -107q-4 -23 0 -35t12 -12q23 0 88 51.5t103 92.5q16 17 42.5 46.5t38.5 42.5
t28.5 28.5t27 20.5t18.5 3q23 -5 -7 -66q-4 -10 -7 -16q-53 -113 -78 -209q-23 -96 27 -96q67 0 201 72.5t303 181.5t225 139q15 6 27 -1q11 -5 -9 -19q-32 -20 -129.5 -86.5t-170 -113t-165 -101t-166 -84t-120.5 -29.5q-96 0 -62 141zM313 494q7 2 14.5 -2t8.5 -11
q7 -16 -19 -39q-6 -6 -34.5 -36.5t-53 -56.5t-26.5 -27q-9 -3 -13 10q-1 2 93 133q23 27 30 29zM432 494q6 2 14 -2t9 -11q7 -16 -19 -39q-6 -6 -39.5 -40.5t-62.5 -65t-31 -31.5q-8 -3 -12 10q-1 2 24 35.5t54.5 72.5t31.5 42q23 27 31 29z" />
    <glyph glyph-name="Uogonek" unicode="&#x172;" horiz-adv-x="1214" 
d="M922 -1034q25 17 34 6q8 -8 -10 -25q-34 -31 -72 -32t-69 28q-24 23 -32.5 56.5t3.5 72.5q11 32 30 60t32.5 41.5t40 35.5t32.5 27q-25 45 -42.5 112.5t-26 180t-1 251t37.5 336t84 425.5q-125 -267 -273 -511t-292 -408.5t-230 -164.5q-43 0 -75 32t-50 101.5t-18.5 171
t22.5 250.5t70 330q153 586 350 743q31 23 45 8q12 -12 -6 -30q-65 -63 -168 -286t-166 -445q-61 -211 -81.5 -405.5t0.5 -309.5t77 -115q246 0 852 1286l10 21q27 101 31 113q98 348 120 399q18 40 38 44q5 1 12 1q26 0 21 -44q-11 -95 -179 -519l-8 -37
q-86 -362 -128.5 -653.5t-41.5 -470.5t24.5 -283.5t67.5 -138.5q31 -25 24 -45q-6 -19 -37 -4q-11 6 -24 16l-18 18q-91 -95 -105 -170q-7 -38 8 -61.5t38.5 -23t48.5 15.5z" />
    <glyph glyph-name="uogonek" unicode="&#x173;" horiz-adv-x="937" 
d="M326 -428q25 17 34 7q8 -8 -10 -25q-34 -31 -72 -32.5t-69 27.5q-24 23 -32.5 56.5t3.5 72.5q12 37 35.5 69t38.5 45.5t45 37.5q-57 22 -31 135q23 109 76 209q-45 -51 -76 -84q-55 -58 -125.5 -111t-97.5 -53q-46 0 -41 70q5 53 47 145q19 42 44 77t40 38q13 1 19 -7.5
t6 -15.5t-13 -22.5t-33 -41t-32 -48.5q-28 -55 -41 -107q-4 -23 0 -35t12 -12q23 0 88 51.5t103 92.5q16 17 42.5 46.5t38.5 42.5t28.5 28.5t27 20.5t18.5 3q23 -5 -7 -66q-4 -10 -7 -16q-53 -113 -78 -209q-23 -96 27 -96q67 0 201 72.5t303 181.5t225 139q15 6 27 -1
q11 -5 -9 -19q-32 -20 -124.5 -83t-163 -108t-159.5 -98.5t-162.5 -85t-123.5 -37.5l-6 -8q-40 -40 -72 -88.5t-39 -87.5q-7 -38 8 -61.5t38.5 -23.5t48.5 15z" />
    <glyph glyph-name="Wcircumflex" unicode="&#x174;" horiz-adv-x="1499" 
d="M123 4q0 -79 19.5 -132.5t52.5 -53.5q17 0 36 20t41 60t42.5 82t52 105.5t57.5 111.5q23 42 52 97.5t43.5 83.5t32 57t30 40.5t24.5 11.5q77 0 68 -145q-7 -109 -61 -345t-62 -337q-11 -150 7.5 -216.5t70.5 -66.5q64 0 204 146.5t267 400.5q136 273 226.5 620t90.5 560
q0 288 -42 317q-10 6 -23 2q-23 -8 -22 7q2 17 24 27q10 6 20 5q12 -1 22.5 -10.5t22 -34.5t20 -63t14 -102t5.5 -146q0 -309 -88.5 -625.5t-232.5 -603.5q-126 -248 -260 -391t-240 -143q-51 0 -84.5 30t-45 76t-15 101t5.5 106q14 118 69.5 362.5t61.5 323.5q4 54 1 77
t-16 23q-31 0 -165 -278q-7 -15 -37.5 -80t-51.5 -104.5t-51 -91.5t-56 -78.5t-48 -26.5q-56 0 -89.5 57t-33.5 164q0 134 45.5 322t136.5 393q74 165 155 289.5t148 183.5q22 18 20 1q-6 -44 -116 -199q-1 -1 -2 -3q-38 -55 -70 -112.5t-49 -93t-61 -132.5
q-73 -167 -119.5 -348t-46.5 -301zM844 1243q-6 -1 -12.5 5t-6.5 14q-1 7 27.5 31.5t54.5 41.5q61 37 84 39q10 1 24 -8t17 -20l27 -109q0 -15 -19 -20q-12 0 -22 36q-22 74 -27 74q-4 0 -37 -19t-55 -34q-50 -31 -55 -31z" />
    <glyph glyph-name="wcircumflex" unicode="&#x175;" horiz-adv-x="849" 
d="M233 391q-50 -86 -90.5 -193.5t-42.5 -154.5q-3 -57 23 -57q10 0 21.5 6t33.5 25t34 30.5t48 46.5q55 51 80.5 69.5t44.5 18.5q18 0 31.5 -12t13.5 -27q0 -9 -4 -46t-4 -44q-1 -18 1 -23t9 -5q36 0 90 69q35 47 43 72q16 37 27 37q6 1 14.5 -3.5t30.5 -10t59 -3.5
q59 4 148 26t141 40q20 6 24 -3t-14 -18q-36 -21 -116 -44t-150 -29q-48 -3 -73.5 0t-36 5t-11.5 1q-2 -1 -7.5 -13t-18 -34.5t-25.5 -42.5q-22 -34 -57 -59t-68 -25q-47 0 -47 51q0 17 5 51t5 45q0 17 -8 17q-5 0 -9 -2.5t-11.5 -10t-16.5 -17t-27.5 -27.5t-39.5 -38
q-67 -64 -99 -87.5t-55 -26.5q-33 -5 -50.5 19t-17.5 54q0 42 26.5 126t62.5 163q28 59 42.5 81t26.5 22q13 0 16.5 -3.5t-2.5 -15.5zM354 346q-6 -1 -12 5t-6 14q-1 7 27.5 31.5t54.5 41.5q61 37 84 39q10 1 24 -8t17 -20l26 -109q0 -16 -18 -21q-13 0 -23 37
q-22 74 -26 74t-37 -19t-55 -34q-50 -31 -56 -31z" />
    <glyph glyph-name="Ycircumflex" unicode="&#x176;" horiz-adv-x="1304" 
d="M1178 -338q-201 -14 -283 -27q-49 -109 -99.5 -210.5t-109 -206t-116 -193t-121 -167t-124 -133.5t-124.5 -86.5t-123 -31.5q-121 0 -184.5 72t-55.5 201q4 82 46.5 172.5t131.5 188t211 175.5q320 203 637 256q119 253 187 455q88 266 161 560.5t78 377.5q2 42 -3 60
t-19 18q-22 0 -70 -75q-37 -56 -273 -468q-54 -96 -104 -182q-66 -113 -130 -229t-103.5 -189.5t-78.5 -145t-63.5 -111.5t-49 -72.5t-44.5 -45t-41 -12.5q-93 0 -145.5 96.5t-52.5 267.5q0 32 2.5 64.5t8.5 67t11.5 62.5t16 65.5t17 59t19.5 60t18 53t19.5 52.5t16.5 45
q20 56 48 117t55.5 115.5t35.5 72.5q17 39 32 38q13 -1 6 -29q-2 -7 -5 -15q-95 -212 -140 -328q-114 -303 -114 -491q0 -149 39.5 -247.5t95.5 -98.5q24 0 55 35t76 112.5t89.5 161.5t119 223t141.5 256q259 456 326 563q118 187 162 187q65 0 59 -121q-22 -350 -231 -938
q-79 -216 -179 -441q101 11 154 11q31 2 97 0.5t75 -6.5q14 -8 -15 -15q-17 -4 -46 -6zM76 -1343q80 0 181 83t203.5 224t199 308t184.5 353q-312 -56 -600 -241q-106 -67 -187 -157.5t-123.5 -179.5t-46.5 -165q-7 -112 44 -168.5t145 -56.5zM715 1071q-6 -1 -12.5 5
t-6.5 14q-1 7 27.5 31.5t54.5 41.5q61 37 84 39q10 1 24 -8t17 -20l27 -109q0 -16 -19 -21q-12 0 -22 37q-22 74 -27 74q-4 0 -37 -19t-55 -34q-50 -31 -55 -31z" />
    <glyph glyph-name="ycircumflex" unicode="&#x177;" horiz-adv-x="860" 
d="M451 213q-24 0 -58 -30t-96 -97q-65 -70 -112 -109.5t-79 -39.5q-23 0 -36 20t-4 53q27 100 47 160q5 17 8 34t3.5 25t4 14t10.5 7q13 1 21 -6.5t8 -14.5q0 -14 -25 -79q-35 -101 -39 -119q-11 -47 9 -47t67 35t92 87q13 15 31 34.5t28 30.5t23.5 25.5t21.5 22t18.5 17
t17.5 14t15.5 9t16 6t15.5 1.5q58 0 63 -151q110 65 213 106t137 41q22 0 28 -17q0 -15 -17 -18q-37 0 -143 -43t-218 -114q-3 -144 -51 -332t-117 -311q-72 -127 -159.5 -203t-167.5 -76q-49 0 -89 35t-40 106q0 118 92 282.5t266 340.5q93 96 227 178q-2 64 -8 93.5
t-24 29.5zM317 -545q68 118 115.5 297t50.5 293q-109 -70 -198 -162q-172 -173 -259 -336.5t-87 -263.5q0 -45 18 -70.5t53 -25.5q63 0 148.5 69.5t158.5 198.5zM203 348q-6 -2 -12.5 5t-6.5 14q-1 7 27.5 31.5t54.5 41.5q61 37 84 39q10 1 24 -8t17 -20l27 -109
q0 -15 -19 -20q-12 0 -22 36q-22 74 -27 74q-4 0 -37 -19t-55 -34q-50 -31 -55 -31z" />
    </font>
</defs>
</svg>
