<?xml version="1.0" standalone="no"?>
<!DOCTYPE svg PUBLIC "-//W3C//DTD SVG 1.1//EN" "http://www.w3.org/Graphics/SVG/1.1/DTD/svg11.dtd" >
<svg xmlns="http://www.w3.org/2000/svg" xmlns:xlink="http://www.w3.org/1999/xlink" version="1.1">
<metadata>
Created by FontForge 20201107 at Fri Jan 25 06:47:53 2019
 By 
</metadata>
<defs>
<font id="AmandaSignatureRegular" horiz-adv-x="0" >
  <font-face 
    font-family="Amanda Signature"
    font-weight="400"
    font-stretch="normal"
    units-per-em="1000"
    panose-1="0 0 0 0 0 0 0 0 0 0"
    ascent="800"
    descent="-200"
    x-height="326"
    cap-height="790.5"
    bbox="-326.524 -462 1003.5 1095"
    underline-thickness="50"
    underline-position="-150"
    unicode-range="U+000A-20AC"
  />
<missing-glyph horiz-adv-x="427" 
d="M0 700h427v-700h-427v700zM28 680l185 -309l186 309h-371zM201 350l-180 300v-601zM214 329l-185 -308h370zM226 350l181 -303v605z" />
    <glyph glyph-name=".notdef" horiz-adv-x="427" 
d="M0 700h427v-700h-427v700zM28 680l185 -309l186 309h-371zM201 350l-180 300v-601zM214 329l-185 -308h370zM226 350l181 -303v605z" />
    <glyph glyph-name=".null" 
 />
    <glyph glyph-name=".null" 
 />
    <glyph glyph-name="nonmarkingreturn" horiz-adv-x="333" 
 />
    <glyph glyph-name="controlLF" unicode="&#xa;" 
 />
    <glyph glyph-name="controlCR" unicode="&#xd;" 
 />
    <glyph glyph-name="space" unicode=" " horiz-adv-x="324" 
 />
    <glyph glyph-name="exclam" unicode="!" horiz-adv-x="558" 
d="M443 851.5q10 -4.5 13.5 -15t-1.5 -20.5l-233 -651q-7 -15 -24 -15q-6 0 -12 2q-9 5 -13 15.5t1 20.5l233 651q5 10 15.5 13.5t20.5 -1zM173 92.5q21 -9.5 23 -35.5q2 -18 -6.5 -37t-23.5 -30q-13 -9 -27 -9q-8 0 -15 3q-18 8 -22.5 29t5.5 44q9 19 23 30q22 15 43 5.5z
" />
    <glyph glyph-name="quotedbl" unicode="&#x22;" horiz-adv-x="425" 
d="M322 934q12 -50 -16 -87q-26 -35 -82 -36h-1q-11 0 -18.5 8t-7.5 18v2v2q-26 -23 -70 -24h-1q-7 0 -13 3.5t-9.5 9.5t-3.5 13t3.5 13.5t9.5 10t13 3.5q30 1 41 15q2 2 4 5q-5 11 -2 26q2 7 5 14q-2 10 3.5 18.5t15.5 10.5q11 3 20 -2.5t12 -16.5q11 -42 -9 -77q5 1 7 1
q30 1 41 15q2 2 3 5q-4 12 -1 27q1 7 4 13q-1 10 4.5 18.5t15.5 11.5q10 2 19.5 -3.5t12.5 -16.5z" />
    <glyph glyph-name="quotedbl" unicode="&#x201d;" horiz-adv-x="425" 
d="M322 934q12 -50 -16 -87q-26 -35 -82 -36h-1q-11 0 -18.5 8t-7.5 18v2v2q-26 -23 -70 -24h-1q-7 0 -13 3.5t-9.5 9.5t-3.5 13t3.5 13.5t9.5 10t13 3.5q30 1 41 15q2 2 4 5q-5 11 -2 26q2 7 5 14q-2 10 3.5 18.5t15.5 10.5q11 3 20 -2.5t12 -16.5q11 -42 -9 -77q5 1 7 1
q30 1 41 15q2 2 3 5q-4 12 -1 27q1 7 4 13q-1 10 4.5 18.5t15.5 11.5q10 2 19.5 -3.5t12.5 -16.5z" />
    <glyph glyph-name="quotedbl" unicode="&#x201c;" horiz-adv-x="425" 
d="M322 934q12 -50 -16 -87q-26 -35 -82 -36h-1q-11 0 -18.5 8t-7.5 18v2v2q-26 -23 -70 -24h-1q-7 0 -13 3.5t-9.5 9.5t-3.5 13t3.5 13.5t9.5 10t13 3.5q30 1 41 15q2 2 4 5q-5 11 -2 26q2 7 5 14q-2 10 3.5 18.5t15.5 10.5q11 3 20 -2.5t12 -16.5q11 -42 -9 -77q5 1 7 1
q30 1 41 15q2 2 3 5q-4 12 -1 27q1 7 4 13q-1 10 4.5 18.5t15.5 11.5q10 2 19.5 -3.5t12.5 -16.5z" />
    <glyph glyph-name="numbersign" unicode="#" horiz-adv-x="650" 
d="M522 581q11 0 19 -7.5t8.5 -18.5t-7 -19t-18.5 -8l-116 -5l-15 -38l82 3q10 1 18.5 -6.5t8.5 -18.5t-7 -19t-18 -9l-106 -4l-53 -136q-7 -17 -25 -17q-5 0 -10 2q-10 4 -14.5 14t-0.5 20l46 115l-46 -2l-38 -88q-7 -16 -24 -16q-6 0 -11 2q-10 5 -14 15t1 20l28 65
l-82 -4h-2q-10 0 -18 7.5t-8 18.5q0 7 3 13t9 10t13 4l108 4l17 40l-101 -4h-1q-11 0 -18.5 7.5t-8.5 17.5q0 11 7.5 19t18.5 9l127 4l45 104q4 10 14.5 14t20.5 0t14 -14.5t0 -20.5l-36 -80l39 1l17 41q4 10 14 14.5t20 0.5t14.5 -14t0.5 -20l-8 -20zM335 483l15 38l-41 -1
l-17 -39z" />
    <glyph glyph-name="dollar" unicode="$" horiz-adv-x="695" 
d="M571 782q18 -22 22.5 -54.5t-2.5 -65t-12.5 -50t-10.5 -29.5q-5 -10 -15 -14t-20 0t-14 14.5t0 20.5q5 12 10.5 29.5t9.5 39.5t2.5 43t-11 32t-30.5 14l-73 -181l7 -7q12 -9 26 -23t37.5 -41.5t37.5 -62.5t12 -70q-4 -79 -96 -134q-95 -58 -184 -63l-67 -167
q-6 -17 -24 -17q-5 0 -10 2q-10 4 -14.5 14.5t-0.5 20.5l60 150q-55 10 -83 48q-21 28 -26.5 68t6.5 78q32 100 157 141q11 4 20.5 -1t13 -15.5t-1.5 -20.5t-15 -13q-100 -33 -123 -107q-9 -32 -5 -57t16 -41q18 -25 61 -30l136 339q-66 88 -46 153q19 64 113 85q14 3 30 4
l34 85q2 5 5.5 9t8 6t10 2t10.5 -2q10 -4 14.5 -14t0.5 -20l-27 -68q32 -7 51 -30zM494 380q2 39 -26.5 80t-61.5 68l-117 -293q66 11 135 53q67 41 70 92zM372 710q-9 -29 19 -78l49 125q-59 -15 -68 -47z" />
    <glyph glyph-name="percent" unicode="%" horiz-adv-x="689" 
d="M389 733q-30 0 -50 34q-10 18 -11 36q0 26 20 38t43 -2q16 -9 26 -27q13 -22 10.5 -43t-19.5 -31q-9 -5 -19 -5zM293 216q16 -9 26 -27q13 -22 10.5 -43t-19.5 -31q-9 -5 -19 -5q-30 0 -50 34q-10 18 -10 36q-1 27 19 38.5t43 -2.5zM576.5 889.5q9.5 -5.5 12 -16
t-2.5 -19.5l-437 -745q-7 -13 -23 -13q-7 0 -13 4q-9 5 -12 15.5t3 20.5l436 744q6 10 16.5 12.5t20 -3z" />
    <glyph glyph-name="ampersand" unicode="&#x26;" horiz-adv-x="786" 
d="M681 142q-33 -27 -75 -60q147 -248 157 -352q0 -6 -2.5 -11.5t-7 -9t-10.5 -4.5h-3q-8 0 -14.5 6t-7.5 15q-9 94 -148 328q-31 -24 -62 -46t-68.5 -47.5t-73 -47t-73.5 -42t-72.5 -34.5t-66 -22.5t-58.5 -7.5t-46 11q-60 32 -48 139q5 39 18.5 75.5t33.5 67t48.5 61
t57.5 54.5t67 49.5t72 45.5t76 42q-82 115 -137 179q-44 51 -13 106q19 32 67 61t108 46t125.5 23t121.5 -6q17 -3 32.5 -8.5t28.5 -12t24.5 -15t20.5 -18t15.5 -20.5t10.5 -23t6 -26q2 -19 -1.5 -37.5t-10 -34t-22.5 -33t-29 -30.5t-38.5 -30.5t-42.5 -28t-49.5 -28.5
t-51.5 -28t-56 -29q-32 -17 -43 -23q77 -110 141 -216q37 29 70 57q7 6 16 5t15 -8t5.5 -16.5t-7.5 -15.5zM272 561q57 -66 143 -187q19 10 48 25q38 19 57.5 29.5t52 28.5t49.5 29t41 27.5t36 29t24 28t15.5 31t1.5 30.5q-8 66 -102 85q-32 6 -71 6q-93 0 -185 -32
t-118 -77q-15 -27 8 -53zM71 -142q35 -19 118 14.5t172 90t186 130.5q-67 109 -146 222q-57 -31 -100.5 -57t-91 -62t-79 -71.5t-54.5 -80.5t-29 -93q-9 -75 24 -93z" />
    <glyph glyph-name="quotesingle" unicode="'" horiz-adv-x="328" 
d="M225 929q2 -8 3 -18t-2.5 -32t-16.5 -38q-26 -34 -82 -35h-1q-10 0 -18 7.5t-8 18.5t7.5 18.5t18.5 8.5q30 0 41 14l4 6q-5 11 -2 26q2 7 5 13q-1 7 1 13t7 10.5t11 6.5q11 2 20 -3.5t12 -15.5z" />
    <glyph glyph-name="quotesingle" unicode="&#x2019;" horiz-adv-x="328" 
d="M225 929q2 -8 3 -18t-2.5 -32t-16.5 -38q-26 -34 -82 -35h-1q-10 0 -18 7.5t-8 18.5t7.5 18.5t18.5 8.5q30 0 41 14l4 6q-5 11 -2 26q2 7 5 13q-1 7 1 13t7 10.5t11 6.5q11 2 20 -3.5t12 -15.5z" />
    <glyph glyph-name="quotesingle" unicode="&#x2018;" horiz-adv-x="328" 
d="M225 929q2 -8 3 -18t-2.5 -32t-16.5 -38q-26 -34 -82 -35h-1q-10 0 -18 7.5t-8 18.5t7.5 18.5t18.5 8.5q30 0 41 14l4 6q-5 11 -2 26q2 7 5 13q-1 7 1 13t7 10.5t11 6.5q11 2 20 -3.5t12 -15.5z" />
    <glyph glyph-name="parenleft" unicode="(" horiz-adv-x="647" 
d="M541 957q7 -8 6 -19t-9 -18q-18 -15 -49.5 -46.5t-104 -124t-125 -191.5t-85.5 -244.5t-13 -286.5q1 -11 -5.5 -20t-17.5 -10q-2 -1 -3 -1q-10 0 -17.5 6.5t-9.5 16.5q-49 354 184 698q97 143 208 240q2 2 4 3q8 7 19 6t18 -9z" />
    <glyph glyph-name="parenright" unicode=")" horiz-adv-x="621" 
d="M495 966.5q11 -0.5 18.5 -8.5t7.5 -19q-1 -15 -2.5 -37t-7.5 -78t-14 -112t-23.5 -131.5t-35 -143.5t-49 -140.5t-65 -130.5t-83.5 -106t-104 -73q-5 -2 -11 -2q-17 0 -24 16q-4 10 0 20t14 15q50 22 94.5 68t76.5 102t59.5 126.5t45.5 136.5t32.5 138.5t22 126.5
t13 106.5t6.5 72t2 28.5q0 11 8 18.5t19 7z" />
    <glyph glyph-name="asterisk" unicode="*" horiz-adv-x="517" 
d="M392 812q11 -1 18.5 -9t6.5 -19q0 -7 -3.5 -13t-9.5 -9t-13 -3h-1l-61 2l53 -63q7 -9 6 -20t-9 -18q-8 -6 -17 -6q-12 0 -20 10l-56 66l-9 -54q-2 -10 -9.5 -16t-16.5 -6q-2 0 -5 1q-11 1 -17 10t-4 20l7 42l-90 -68q-7 -5 -16 -5q-13 0 -21 11q-6 9 -4.5 19.5t10.5 17.5
l86 65l-61 2q-11 1 -18.5 9t-7 19t8.5 18.5t19 6.5l74 -3l-45 54q-7 8 -6 19t9.5 18t19.5 6t18 -9l46 -56l8 43q2 11 11 17.5t19.5 4.5t17 -11t4.5 -20l-6 -36l51 39q9 7 20 5.5t17.5 -10.5t5 -20t-10.5 -17l-43 -33z" />
    <glyph glyph-name="plus" unicode="+" horiz-adv-x="541" 
d="M415 453q11 0 18.5 -7.5t7.5 -18.5q0 -7 -3.5 -13.5t-9.5 -10t-13 -3.5h-139l-50 -151q-6 -18 -25 -18q-5 0 -9 1q-10 4 -15 13.5t-2 20.5l46 134h-95q-11 0 -18.5 8t-7.5 19q0 7 3.5 13t9.5 9.5t13 3.5h112l51 151q4 11 13.5 16t20.5 1q5 -2 9 -5.5t6 -8t2.5 -9.5
t-1.5 -10l-45 -135h121z" />
    <glyph glyph-name="comma" unicode="," horiz-adv-x="328" 
d="M225 110q13 -51 -16 -88q-26 -34 -82 -35h-1q-10 0 -18 7.5t-8 18.5t7.5 18.5t18.5 8.5q30 0 41 14l4 6q-5 11 -2 26q2 7 5 13q-1 4 -0.5 8t2 7.5t4 6.5t6 5t7.5 3q11 3 20 -3t12 -16z" />
    <glyph glyph-name="hyphen" unicode="-" horiz-adv-x="507" 
d="M380 488q11 0 19 -7.5t8 -18.5t-8 -19t-19 -8h-254q-11 0 -18.5 8t-7.5 19q0 7 3.5 13t9.5 9.5t13 3.5h254z" />
    <glyph glyph-name="period" unicode="." horiz-adv-x="298" 
d="M197 57q2 -18 -6.5 -37t-23.5 -30q-13 -9 -27 -9q-8 0 -15 3q-18 8 -22.5 29t5.5 44q9 19 23 30q22 15 43 5.5t23 -35.5z" />
    <glyph glyph-name="slash" unicode="/" horiz-adv-x="692" 
d="M577 851.5q10 -4.5 13.5 -15t-1.5 -20.5l-439 -910q-7 -15 -24 -15q-6 0 -11 3q-10 5 -13.5 15.5t1.5 19.5l439 910q4 10 14.5 13.5t20.5 -1z" />
    <glyph glyph-name="zero" unicode="0" horiz-adv-x="654" 
d="M628 717q18 -61 23.5 -120.5t-1 -107.5t-17.5 -90.5t-29.5 -77t-34.5 -60t-34.5 -45.5t-27 -28.5t-14.5 -13.5q-18 -16 -44.5 -35.5t-76.5 -52.5t-106.5 -54.5t-104.5 -21.5q-29 0 -54 9q-82 29 -101 147q-13 78 3.5 160.5t55 153.5t90 136.5t107.5 115t109 83.5t95 46
q60 19 93.5 -15t27.5 -115q4 3 9 5q10 3 19.5 -2.5t12.5 -16.5zM460 215q4 3 9.5 8t18.5 19t25.5 30t27.5 41.5t26.5 52.5t20.5 63.5t12 75t-1 86.5t-18 98q-6 -36 -16 -69q-3 -10 -13 -15t-20.5 -2t-15.5 13t-2 20q10 30 15.5 64t4.5 65.5t-12 43.5q-6 6 -18 6q-9 0 -23 -4
q-37 -11 -85 -42.5t-100 -77t-99.5 -106.5t-83 -125.5t-51.5 -139.5t-4 -145q14 -88 67 -107q34 -12 83 0.5t98.5 40.5t87 55t65.5 50z" />
    <glyph glyph-name="one" unicode="1" horiz-adv-x="449" 
d="M430 900q24 -7 17 -38q-7 -33 -30 -65q-11 -26 -35 -86q-139 -349 -219.5 -517t-127.5 -184q-4 -2 -9 -2q-18 0 -24 18q-3 7 -1.5 13.5t6 12t11.5 8.5q2 1 6.5 5t16.5 20t26.5 41t39 74t52.5 113q62 138 169 406q-39 -25 -73 -39q-10 -4 -20 0.5t-14.5 14.5t0 20t14.5 14
q31 13 70.5 38.5t64.5 56.5q6 14 8 19q16 39 25 50.5t27 6.5z" />
    <glyph glyph-name="two" unicode="2" horiz-adv-x="602" 
d="M396 45q8 6 19 5t18 -9.5t6 -19t-9 -17.5q-5 -4 -13.5 -9.5t-32.5 -14t-49 -8.5q-48 0 -97 29q-26 16 -59.5 22t-65 2t-48 -7.5t-28.5 -7.5q-1 0 -3 -1q-10 -3 -19.5 2t-13 15.5t1.5 20t15 13.5l3 1q32 12 122.5 106t186.5 219q109 144 168.5 256.5t48.5 157.5
q-6 29 -65 20q-65 -11 -120 -37.5t-90 -58t-62.5 -71t-41.5 -71.5t-23 -65t-11 -45.5t-3 -18.5q0 -11 -8.5 -18.5t-19.5 -6.5t-18 9.5t-6 19.5q0 7 2.5 21t12.5 51.5t26 74t46.5 81t70 80t101.5 65.5t136 42q35 4 57.5 1.5t37.5 -14.5t21 -23t9 -24q9 -38 -10.5 -97.5
t-59 -127t-77 -122.5t-80.5 -111q-131 -171 -242 -275q80 1 136 -32q15 -9 30.5 -14.5t27.5 -6.5t24 0.5t19.5 4t14.5 6t9.5 5t4.5 3.5z" />
    <glyph glyph-name="three" unicode="3" horiz-adv-x="644" 
d="M385 442q59 -16 82 -54q31 -52 -10 -129q-50 -95 -99.5 -158t-99 -95t-98.5 -33q-3 -1 -7 -1q-47 0 -83 19t-55 53q-8 15 -11.5 34t-2.5 47t17 66.5t45 80.5q6 9 17 11t20 -4.5t11 -17t-5 -19.5q-37 -53 -48.5 -98.5t4.5 -74.5q24 -46 96 -44q117 4 253 258q27 51 11 77
q-12 20 -43 28.5t-54 8.5q-19 0 -25 17.5t8 29.5q120 103 207.5 210t73.5 146q-7 21 -64 22q-54 1 -102.5 -19t-83 -51t-64.5 -74t-48 -78.5t-32 -74.5t-18.5 -53.5t-5.5 -22.5q-3 -11 -12 -17t-20 -3.5t-16.5 12t-3.5 20.5q3 11 8 29t21 61t36 82.5t54.5 86t73.5 80
t95.5 55t118.5 20.5q93 -2 113 -57q10 -28 -4.5 -69t-41.5 -80.5t-67 -85t-73 -77.5t-68 -64z" />
    <glyph glyph-name="four" unicode="4" horiz-adv-x="613" 
d="M598 858q10 -5 13.5 -15.5t-1.5 -20.5q-97 -186 -184 -364q39 -17 53 -54q3 -10 -1.5 -20t-15 -13.5t-20 1t-13.5 14.5q-6 17 -26 25q-180 -366 -182 -410q1 -10 -5.5 -18.5t-17.5 -9.5h-3q-10 0 -17.5 6.5t-9.5 16.5q-1 11 3.5 30t48 119t127.5 273q-65 -3 -156.5 -33
t-142.5 -54q-4 -4 -7 -5q-9 -4 -15 -4q-11 0 -18 8q-13 13 -6 29q4 10 21 18q26 23 110.5 163t175.5 307q5 10 15.5 13t20 -2.5t13 -16t-2.5 -19.5q-149 -276 -237 -406q11 4 21 8q141 50 226 47q2 0 4.5 -0.5t3.5 -0.5q105 213 190 377q5 9 15 12.5t20 -1.5z" />
    <glyph glyph-name="five" unicode="5" horiz-adv-x="669" 
d="M659 834q9 -13 9 -30.5t-3 -26t-6 -13.5q-5 -10 -15.5 -13t-20 2t-13 15.5t1.5 19.5q6 12 3 16q-8 9 -46 4q-102 -12 -325 -27l-116 -259q204 44 298 -23q61 -44 63 -129q2 -89 -40 -169t-120 -136q-89 -63 -174 -63q-28 0 -51 8q-28 10 -48.5 23.5t-31 30.5t-17 31
t-7 32.5t0 28.5t2.5 26q1 11 2 17q0 11 8.5 18t19.5 6.5t18 -9t6 -19.5q0 -6 -2 -19q-1 -23 -1.5 -43t16 -40t52.5 -33q32 -12 80.5 1.5t95.5 46.5q21 15 41 34.5t44.5 52t39 78t13.5 95.5q-2 59 -41 88q-35 25 -101 28t-116 -6t-89 -21q-16 -5 -27.5 8t-4.5 28l146 324
q6 14 22 16q247 17 337 28q73 9 97 -27z" />
    <glyph glyph-name="six" unicode="6" horiz-adv-x="563" 
d="M533 862q7 1 13.5 -2t11 -8.5t5 -12.5t-2.5 -13.5t-8.5 -11t-12.5 -4.5q-8 -1 -19.5 -3t-40 -8t-58 -17.5t-67 -27t-73.5 -40.5t-70.5 -55.5t-65 -74t-50.5 -94.5q102 98 196 96q96 -3 164 -110q70 -110 45 -223q-9 -42 -31.5 -83t-45.5 -67.5t-50.5 -51t-39 -33
t-18.5 -12.5q-2 -2 -4 -2q-52 -23 -112 -23q-64 0 -110 33q-109 79 -85 326q10 95 45 175t79.5 132t102.5 93.5t106 63t98 36.5t69 18t29 4zM290 533q-30 0 -63.5 -15t-57.5 -33.5t-48.5 -43.5t-32 -34.5t-12.5 -16t-13 -9.5q-4 -23 -6 -47q-22 -216 63 -277q22 -16 50 -21
t54 -1t40 8t24 8q10 7 22.5 16t36.5 32t43.5 47t37 59.5t23.5 71.5t-3 81t-37 89q-54 84 -121 86z" />
    <glyph glyph-name="seven" unicode="7" horiz-adv-x="692" 
d="M686 870q4 -6 5 -12.5t-0.5 -11t-6.5 -11.5t-8.5 -11t-11.5 -12q-13 -13 -58 -57q-51 -49 -82.5 -79.5t-95 -95.5t-106.5 -114t-97 -117t-87.5 -122.5t-58 -114t-26.5 -106.5q-1 -11 -8.5 -18t-18.5 -7h-1q-11 0 -18 8t-7 19q2 52 27 114.5t58 119.5t88 127t98.5 120
t109 117.5t99 100.5t89.5 86q0 1 1 1.5t2 1.5q-87 -17 -229 -19q-77 -1 -156 2q-54 2 -66 4t-18 7q-15 12 -8 29q6 18 29 18q12 0 19.5 3t8.5 5.5t1 3.5q0 11 8 18.5t19 7.5t18.5 -7.5t7.5 -18.5q0 -8 -3 -18q128 -4 255.5 4t179.5 37q33 18 48 -2z" />
    <glyph glyph-name="eight" unicode="8" horiz-adv-x="778" 
d="M776 783.5q4 -10.5 -0.5 -20.5t-14.5 -14q-232 -93 -391 -197q21 -15 41 -31t44 -40.5t41.5 -49.5t30 -56t13.5 -62q5 -116 -136 -212q-149 -101 -250 -101q-36 0 -65 12q-23 10 -41 26.5t-27 34t-12.5 27.5t-4.5 17q-2 7 -3.5 17.5t0.5 36.5t9 53t26 66.5t47.5 78.5
t78 87.5t113.5 95.5q-97 76 -94 159q3 84 116 147q123 67 205 26q16 -8 30.5 -20.5t23.5 -25t17 -27.5t12 -26.5t7.5 -23.5t4 -16t1.5 -7v-2q68 32 144 62q10 4 20 0t14 -14.5zM487 310q-1 33 -19 67t-46.5 62t-51.5 47t-48 34q-62 -44 -110 -89.5t-76 -82t-46.5 -72
t-25.5 -60t-9 -46.5t-1.5 -29.5t1.5 -11.5v-1l5 -15t16.5 -26.5t33.5 -25.5q87 -36 265 84q116 79 112 165zM321 584q101 68 232 131q-6 6 -8 15q0 4 -1.5 9.5t-6.5 20.5t-11.5 28t-19 27t-28.5 22q-20 9 -44 9q-48 0 -112 -35q-86 -48 -88 -102q-1 -35 27.5 -69.5
t59.5 -55.5z" />
    <glyph glyph-name="nine" unicode="9" horiz-adv-x="621" 
d="M565 856q66 -47 54 -175q-8 -78 -44 -172h4q11 0 19 -7.5t8 -18.5q0 -19 -18 -25q0 -1 -8 -5q-22 -13 -38 -22q-58 -123 -139 -234.5t-116 -135.5l-2 -1q-117 -78 -184 -78q-23 0 -42 8q-48 21 -59 89q-1 11 5 20t17 10.5t20 -5t11 -17.5q6 -39 27 -48q47 -21 176 65l2 1
q24 17 89 104.5t119 188.5q-83 -28 -143 -8q-66 22 -99 98q-17 41 -19 82.5t9 77t29 68.5t43 60t48 47.5t46 34.5l4 2q5 3 14 6t31 8t43.5 6.5t47.5 -4t45 -20.5zM566 686q9 97 -32 128q-17 12 -44 13t-47 -3.5t-36 -10.5q-9 -6 -19 -13.5t-29.5 -25t-36 -36t-33 -46
t-24.5 -54.5t-7 -61.5t15 -67.5q23 -54 67 -69q61 -20 161 30q56 122 65 216z" />
    <glyph glyph-name="colon" unicode=":" horiz-adv-x="350" 
d="M221.5 611q18.5 -6 25.5 -26t0 -44q-6 -21 -20 -33t-30 -12q-5 0 -11 1q-18 6 -25.5 26t0 44.5t25 37t36 6.5zM164 426q19 -6 26.5 -26t-0.5 -44q-6 -20 -19 -32q-14 -13 -31 -13q-5 0 -11 1q-18 6 -25.5 26t0.5 44q6 20 19 33q19 18 41 11z" />
    <glyph glyph-name="semicolon" unicode=";" horiz-adv-x="369" 
d="M193 420q11 3 20 -2.5t12 -16.5q13 -51 -16 -87q-26 -35 -82 -36h-1q-10 0 -18 7.5t-8 18.5t7.5 19t18.5 8q30 1 41 15q2 2 4 5q-5 11 -2 26q2 7 5 13q-1 7 1 13.5t7 11t11 5.5zM239.5 572q18.5 -6 26 -26t-0.5 -44q-6 -20 -19 -32q-14 -13 -30 -13q-6 0 -11 1
q-23 7 -28 33q-4 18 2 37q7 25 24.5 37.5t36 6.5z" />
    <glyph glyph-name="less" unicode="&#x3c;" horiz-adv-x="562" 
d="M458 576q6 -9 4 -19.5t-11 -16.5l-284 -189l134 -144q7 -8 6.5 -19t-8.5 -19q-7 -7 -18 -7t-19 9l-155 166q-8 9 -6.5 21.5t11.5 18.5l309 207q9 6 20 3.5t17 -11.5z" />
    <glyph glyph-name="equal" unicode="=" horiz-adv-x="528" 
d="M402 519q10 0 18 -7.5t8 -18.5t-7.5 -19t-18.5 -8h-239q-5 0 -10 2.5t-8.5 6t-5.5 8t-2 10.5q0 11 8 18.5t18 7.5h239zM341 382q11 0 18.5 -8t7.5 -19t-7.5 -18.5t-18.5 -7.5h-215q-11 0 -18.5 7.5t-7.5 18.5t7.5 19t18.5 8h215z" />
    <glyph glyph-name="greater" unicode="&#x3e;" horiz-adv-x="509" 
d="M403 425q7 -8 6.5 -18.5t-8.5 -17.5l-257 -238q-7 -7 -18 -7t-19 8q-7 8 -7 19t8 19l239 220l-143 169q-7 8 -6 19t9.5 18t19 6t18.5 -9z" />
    <glyph glyph-name="question" unicode="?" horiz-adv-x="626" 
d="M181 31q10 -14 12 -35q2 -17 -2.5 -31t-14 -22.5t-22.5 -9.5q-2 -1 -4 -1q-18 0 -31 15.5t-16 39.5q-2 21 6 38q11 24 34 26t38 -20zM472 773q53 -29 54 -79q1 -30 -20.5 -66t-49 -64.5t-64.5 -58t-56.5 -42.5l-34.5 -23q-9 -7 -22.5 -18.5t-41 -43t-47 -65.5t-31 -84.5
t-2.5 -101.5q2 -11 -4.5 -20t-17.5 -11h-4q-5 0 -9.5 1.5t-8 4.5t-5.5 7t-3 9q-11 61 2.5 121.5t36 100t55 76t47.5 48.5t25 19l1 1q73 46 137.5 107.5t63.5 101.5q0 20 -26.5 34.5t-54 17.5t-50 -3t-44.5 -18.5t-37.5 -25.5t-29.5 -27.5t-18.5 -21t-6.5 -9.5
q-7 -9 -17.5 -11t-19.5 4.5t-11 17t4 19.5q16 23 37.5 45t53 43t65 32t74.5 8t80 -25z" />
    <glyph glyph-name="at" unicode="@" horiz-adv-x="656" 
d="M514.5 406q9.5 -5 12.5 -15.5t-2 -20.5q-45 -81 -108 -124t-123 -43q-32 0 -58 12q-49 24 -83 65t-46 91q-32 131 85 289q29 38 59.5 64.5t56 39t51.5 17t44 3.5t35 -6q46 -12 78.5 -45t37.5 -71t-1 -80.5t-32.5 -94t-73.5 -82.5q-49 -33 -71 -11q-9 9 -10 20
q-106 -66 -143 -35q-16 13 -15.5 38t9.5 48t26 55q80 147 146 137q18 -3 32.5 -15.5t22 -30t10.5 -27.5t4 -17q2 -11 -4 -20t-17 -11t-20 4t-11 17q-3 16 -10.5 31.5t-14.5 16.5q-2 0 -4.5 -0.5t-10.5 -6t-18 -16t-25.5 -33.5t-32.5 -55q-26 -49 -30 -72q20 3 65 29.5
t91 62.5q8 6 18 5.5t17 -7.5q11 -11 7 -26q29 38 38.5 84.5t4.5 84.5q-2 21 -23.5 42.5t-52.5 29.5q-13 3 -26.5 4t-33.5 -3.5t-39.5 -14.5t-43.5 -31.5t-47 -52.5q-103 -139 -77 -246q7 -26 20.5 -48.5t30.5 -37t28 -22t22 -12.5q12 -6 28 -7t35 3.5t39.5 15t40.5 26.5
t40 40.5t37 54.5q5 9 15.5 12t20 -2z" />
    <glyph glyph-name="A" unicode="A" horiz-adv-x="786" 
d="M941 894q8 -6 10.5 -15.5t-1.5 -18.5q-90 -187 -162 -374q19 7 36 15q10 5 20 2t15 -13t2 -20.5t-13 -15.5q-38 -19 -83 -31q-91 -250 -86 -349q7 -22 9 -41q1 -10 -5 -18t-15 -10q-7 -2 -13 0t-11 6t-7 10q-7 16 -9 39q-9 30 -23 40q-8 7 -19 5t-20 4.5t-10.5 17.5t5 20
t17.5 10q30 5 54 -11q15 102 72 264q-74 -10 -192 -7l-466 -486q-8 -8 -20 -8q-10 0 -18 7q-8 8 -8 19t7 19l434 451q-90 3 -141 1q-34 -1 -64.5 -6t-51.5 -11.5t-40 -14.5t-30 -14.5t-19.5 -13.5t-11.5 -10l-4 -4q-8 -10 -21 -10q-9 0 -16 5q-9 7 -10 17.5t5 19.5
q3 4 9.5 10.5t28 21.5t48.5 27t74 23t101 13q54 3 165 -1q12 -1 27 -1l417 433q15 16 34 4zM725 468q47 127 111 272l-274 -285q97 -1 163 13z" />
    <glyph glyph-name="A" unicode="&#xc5;" horiz-adv-x="786" 
d="M941 894q8 -6 10.5 -15.5t-1.5 -18.5q-90 -187 -162 -374q19 7 36 15q10 5 20 2t15 -13t2 -20.5t-13 -15.5q-38 -19 -83 -31q-91 -250 -86 -349q7 -22 9 -41q1 -10 -5 -18t-15 -10q-7 -2 -13 0t-11 6t-7 10q-7 16 -9 39q-9 30 -23 40q-8 7 -19 5t-20 4.5t-10.5 17.5t5 20
t17.5 10q30 5 54 -11q15 102 72 264q-74 -10 -192 -7l-466 -486q-8 -8 -20 -8q-10 0 -18 7q-8 8 -8 19t7 19l434 451q-90 3 -141 1q-34 -1 -64.5 -6t-51.5 -11.5t-40 -14.5t-30 -14.5t-19.5 -13.5t-11.5 -10l-4 -4q-8 -10 -21 -10q-9 0 -16 5q-9 7 -10 17.5t5 19.5
q3 4 9.5 10.5t28 21.5t48.5 27t74 23t101 13q54 3 165 -1q12 -1 27 -1l417 433q15 16 34 4zM725 468q47 127 111 272l-274 -285q97 -1 163 13z" />
    <glyph glyph-name="A" unicode="&#xc4;" horiz-adv-x="786" 
d="M941 894q8 -6 10.5 -15.5t-1.5 -18.5q-90 -187 -162 -374q19 7 36 15q10 5 20 2t15 -13t2 -20.5t-13 -15.5q-38 -19 -83 -31q-91 -250 -86 -349q7 -22 9 -41q1 -10 -5 -18t-15 -10q-7 -2 -13 0t-11 6t-7 10q-7 16 -9 39q-9 30 -23 40q-8 7 -19 5t-20 4.5t-10.5 17.5t5 20
t17.5 10q30 5 54 -11q15 102 72 264q-74 -10 -192 -7l-466 -486q-8 -8 -20 -8q-10 0 -18 7q-8 8 -8 19t7 19l434 451q-90 3 -141 1q-34 -1 -64.5 -6t-51.5 -11.5t-40 -14.5t-30 -14.5t-19.5 -13.5t-11.5 -10l-4 -4q-8 -10 -21 -10q-9 0 -16 5q-9 7 -10 17.5t5 19.5
q3 4 9.5 10.5t28 21.5t48.5 27t74 23t101 13q54 3 165 -1q12 -1 27 -1l417 433q15 16 34 4zM725 468q47 127 111 272l-274 -285q97 -1 163 13z" />
    <glyph glyph-name="A" unicode="&#xc3;" horiz-adv-x="786" 
d="M941 894q8 -6 10.5 -15.5t-1.5 -18.5q-90 -187 -162 -374q19 7 36 15q10 5 20 2t15 -13t2 -20.5t-13 -15.5q-38 -19 -83 -31q-91 -250 -86 -349q7 -22 9 -41q1 -10 -5 -18t-15 -10q-7 -2 -13 0t-11 6t-7 10q-7 16 -9 39q-9 30 -23 40q-8 7 -19 5t-20 4.5t-10.5 17.5t5 20
t17.5 10q30 5 54 -11q15 102 72 264q-74 -10 -192 -7l-466 -486q-8 -8 -20 -8q-10 0 -18 7q-8 8 -8 19t7 19l434 451q-90 3 -141 1q-34 -1 -64.5 -6t-51.5 -11.5t-40 -14.5t-30 -14.5t-19.5 -13.5t-11.5 -10l-4 -4q-8 -10 -21 -10q-9 0 -16 5q-9 7 -10 17.5t5 19.5
q3 4 9.5 10.5t28 21.5t48.5 27t74 23t101 13q54 3 165 -1q12 -1 27 -1l417 433q15 16 34 4zM725 468q47 127 111 272l-274 -285q97 -1 163 13z" />
    <glyph glyph-name="A" unicode="&#xc2;" horiz-adv-x="786" 
d="M941 894q8 -6 10.5 -15.5t-1.5 -18.5q-90 -187 -162 -374q19 7 36 15q10 5 20 2t15 -13t2 -20.5t-13 -15.5q-38 -19 -83 -31q-91 -250 -86 -349q7 -22 9 -41q1 -10 -5 -18t-15 -10q-7 -2 -13 0t-11 6t-7 10q-7 16 -9 39q-9 30 -23 40q-8 7 -19 5t-20 4.5t-10.5 17.5t5 20
t17.5 10q30 5 54 -11q15 102 72 264q-74 -10 -192 -7l-466 -486q-8 -8 -20 -8q-10 0 -18 7q-8 8 -8 19t7 19l434 451q-90 3 -141 1q-34 -1 -64.5 -6t-51.5 -11.5t-40 -14.5t-30 -14.5t-19.5 -13.5t-11.5 -10l-4 -4q-8 -10 -21 -10q-9 0 -16 5q-9 7 -10 17.5t5 19.5
q3 4 9.5 10.5t28 21.5t48.5 27t74 23t101 13q54 3 165 -1q12 -1 27 -1l417 433q15 16 34 4zM725 468q47 127 111 272l-274 -285q97 -1 163 13z" />
    <glyph glyph-name="A" unicode="&#xc1;" horiz-adv-x="786" 
d="M941 894q8 -6 10.5 -15.5t-1.5 -18.5q-90 -187 -162 -374q19 7 36 15q10 5 20 2t15 -13t2 -20.5t-13 -15.5q-38 -19 -83 -31q-91 -250 -86 -349q7 -22 9 -41q1 -10 -5 -18t-15 -10q-7 -2 -13 0t-11 6t-7 10q-7 16 -9 39q-9 30 -23 40q-8 7 -19 5t-20 4.5t-10.5 17.5t5 20
t17.5 10q30 5 54 -11q15 102 72 264q-74 -10 -192 -7l-466 -486q-8 -8 -20 -8q-10 0 -18 7q-8 8 -8 19t7 19l434 451q-90 3 -141 1q-34 -1 -64.5 -6t-51.5 -11.5t-40 -14.5t-30 -14.5t-19.5 -13.5t-11.5 -10l-4 -4q-8 -10 -21 -10q-9 0 -16 5q-9 7 -10 17.5t5 19.5
q3 4 9.5 10.5t28 21.5t48.5 27t74 23t101 13q54 3 165 -1q12 -1 27 -1l417 433q15 16 34 4zM725 468q47 127 111 272l-274 -285q97 -1 163 13z" />
    <glyph glyph-name="A" unicode="&#xc0;" horiz-adv-x="786" 
d="M941 894q8 -6 10.5 -15.5t-1.5 -18.5q-90 -187 -162 -374q19 7 36 15q10 5 20 2t15 -13t2 -20.5t-13 -15.5q-38 -19 -83 -31q-91 -250 -86 -349q7 -22 9 -41q1 -10 -5 -18t-15 -10q-7 -2 -13 0t-11 6t-7 10q-7 16 -9 39q-9 30 -23 40q-8 7 -19 5t-20 4.5t-10.5 17.5t5 20
t17.5 10q30 5 54 -11q15 102 72 264q-74 -10 -192 -7l-466 -486q-8 -8 -20 -8q-10 0 -18 7q-8 8 -8 19t7 19l434 451q-90 3 -141 1q-34 -1 -64.5 -6t-51.5 -11.5t-40 -14.5t-30 -14.5t-19.5 -13.5t-11.5 -10l-4 -4q-8 -10 -21 -10q-9 0 -16 5q-9 7 -10 17.5t5 19.5
q3 4 9.5 10.5t28 21.5t48.5 27t74 23t101 13q54 3 165 -1q12 -1 27 -1l417 433q15 16 34 4zM725 468q47 127 111 272l-274 -285q97 -1 163 13z" />
    <glyph glyph-name="B" unicode="B" horiz-adv-x="574" 
d="M684 894q3 -3 8.5 -7t17.5 -17t20.5 -27.5t15 -37t5.5 -46.5q-8 -123 -214 -251q60 -51 74 -145q7 -45 -17.5 -115.5t-79.5 -124.5q-103 -101 -277 -101q-52 0 -108 9h-1q-4 1 -9.5 2.5t-19 7.5t-26 14t-27.5 22.5t-25 32.5q-40 70 -5 176q4 10 13.5 15t20 1.5t15.5 -13
t2 -20.5q-28 -83 0 -133q10 -18 28 -31t27.5 -16.5t15.5 -5.5q224 -36 339 78q48 48 67 106.5t14 88.5q-13 87 -71 123q-22 -12 -46 -25q-1 0 -2 -1q-34 -14 -54 5t-5 56q7 18 27 26.5t47 5.5q16 -2 31 -7q207 120 213 223q1 16 -3.5 30.5t-10.5 24t-13.5 18t-11 11.5
t-5.5 4q-51 33 -111.5 34.5t-113 -20t-109.5 -61.5t-97 -78t-78.5 -81.5t-52 -61t-20.5 -27.5q-7 -9 -17.5 -11t-19.5 4.5t-11 17.5t5 20q9 13 25 34t59 68.5t87 88t106.5 82t121.5 62.5t127 16.5t129 -43.5zM105 103q-10 2 -16 11t-4 20q25 117 53 217.5t51.5 167t48 121
t42 84.5t33.5 52t22.5 28t9.5 8q9 7 20 5.5t17.5 -10.5t5 -19.5t-10.5 -17.5q-5 -4 -15 -15.5t-37 -58.5t-54 -112t-64 -187.5t-70 -273.5q-1 -6 -5 -11t-9.5 -7.5t-11.5 -2.5q-3 0 -6 1z" />
    <glyph glyph-name="C" unicode="C" horiz-adv-x="635" 
d="M615 324q7 8 18 9.5t19.5 -5t10 -17.5t-5.5 -20q-18 -23 -42.5 -52.5t-80.5 -88.5t-109 -103t-119.5 -79t-119.5 -35q-16 0 -31 3q-99 21 -137 168q-72 286 137 518q91 101 200 162q3 1 5 2q13 7 31.5 14.5t57.5 21t73.5 20.5t73 5t63.5 -18q44 -28 43 -92
q-1 -34 -17.5 -66.5t-44.5 -58t-60.5 -47.5t-71 -39.5t-70 -30t-64 -22t-45.5 -13.5t-22 -6q-10 -2 -19.5 4t-11.5 16q-2 7 0 14t7 11.5t12 6.5q34 8 74.5 21t91 35t91 47t68.5 59.5t29 69.5q0 34 -19 47q-22 16 -69 9t-92.5 -21.5t-85.5 -33.5q-6 -4 -12 -7.5t-30.5 -19
t-46.5 -32.5t-52.5 -44.5t-55.5 -56.5q-181 -208 -116 -462q29 -115 96 -129q32 -7 74 7.5t85 44.5t86 66.5t83 78.5t69.5 76t51.5 63z" />
    <glyph glyph-name="C" unicode="&#xc7;" horiz-adv-x="635" 
d="M615 324q7 8 18 9.5t19.5 -5t10 -17.5t-5.5 -20q-18 -23 -42.5 -52.5t-80.5 -88.5t-109 -103t-119.5 -79t-119.5 -35q-16 0 -31 3q-99 21 -137 168q-72 286 137 518q91 101 200 162q3 1 5 2q13 7 31.5 14.5t57.5 21t73.5 20.5t73 5t63.5 -18q44 -28 43 -92
q-1 -34 -17.5 -66.5t-44.5 -58t-60.5 -47.5t-71 -39.5t-70 -30t-64 -22t-45.5 -13.5t-22 -6q-10 -2 -19.5 4t-11.5 16q-2 7 0 14t7 11.5t12 6.5q34 8 74.5 21t91 35t91 47t68.5 59.5t29 69.5q0 34 -19 47q-22 16 -69 9t-92.5 -21.5t-85.5 -33.5q-6 -4 -12 -7.5t-30.5 -19
t-46.5 -32.5t-52.5 -44.5t-55.5 -56.5q-181 -208 -116 -462q29 -115 96 -129q32 -7 74 7.5t85 44.5t86 66.5t83 78.5t69.5 76t51.5 63z" />
    <glyph glyph-name="D" unicode="D" horiz-adv-x="623" 
d="M592 798q109 -80 96 -226q-7 -79 -51 -172.5t-99.5 -166t-107.5 -126t-82 -67.5q-22 -10 -45 -10q-40 0 -72 30q-23 21 -36.5 54.5t-12.5 86.5t24 111q4 10 14.5 14.5t20.5 0.5q5 -2 8.5 -6t5.5 -8.5t2.5 -10t-1.5 -10.5q-26 -71 -20.5 -120t31.5 -74q27 -25 58 -10
q24 11 71 60t98.5 117t93 154t47.5 158q11 116 -74 178q-38 28 -80 39.5t-80 8.5t-78 -17t-73 -33.5t-65.5 -45t-55 -46.5t-43.5 -43.5t-28 -31t-11 -12.5q-6 -9 -17 -10.5t-19.5 5t-10 17.5t4.5 20q7 8 19.5 23t49.5 51.5t76 67t95 60.5t110 42t117 0.5t120 -52.5zM316 683
q-17 -28 -32.5 -56.5t-35.5 -69t-36 -79t-30.5 -83.5t-22.5 -85.5t-8 -82t10 -74.5q3 -11 -2 -20.5t-16 -12.5q-3 -1 -7 -1q-20 0 -26 19q-11 38 -11.5 83t7 89t22.5 92t31.5 89t37.5 84t37.5 73.5t34.5 60t25 40t12 18.5q8 11 22 11t22 -12q2 -2 4 -6t5.5 -13t5.5 -18
t1 -20.5t-5.5 -21t-15 -13.5t-20.5 1q-5 3 -9 8z" />
    <glyph glyph-name="E" unicode="E" horiz-adv-x="518" 
d="M679 807q6 -8 5 -19t-10 -18t-19.5 -5.5t-17.5 10.5q-48 61 -224 11q-46 -128 -92 -251q130 37 212 -7q9 -5 12.5 -15.5t-2 -20t-16 -13t-19.5 2.5q-76 40 -211 -11q-7 -19 -11 -29q-71 -189 -113 -287q239 29 280 -7q8 -7 9 -18t-6.5 -19t-18 -9t-19.5 6
q-32 21 -270 -10q-26 -57 -42 -65q-6 -3 -13 -3q-15 0 -23 14q-5 9 -2.5 18.5t10.5 15.5q3 3 7 11q-27 -4 -54 -9h-5q-9 0 -16.5 6t-9.5 16q-1 11 5 20t17 10q46 8 91 15q41 93 117 294q-23 -11 -38 -20q-6 -4 -14 -4q-15 0 -22 12q-6 10 -3.5 20.5t11.5 16.5q38 24 92 46
q47 124 93 254q-51 -19 -90 -38q-6 -3 -12 -3q-17 0 -24 15q-5 10 -1.5 20.5t13.5 15.5q64 31 137 54q1 1 3 9q4 10 14 15t20 1q9 -3 14 -11q189 48 256 -37z" />
    <glyph glyph-name="E" unicode="&#xcb;" horiz-adv-x="518" 
d="M679 807q6 -8 5 -19t-10 -18t-19.5 -5.5t-17.5 10.5q-48 61 -224 11q-46 -128 -92 -251q130 37 212 -7q9 -5 12.5 -15.5t-2 -20t-16 -13t-19.5 2.5q-76 40 -211 -11q-7 -19 -11 -29q-71 -189 -113 -287q239 29 280 -7q8 -7 9 -18t-6.5 -19t-18 -9t-19.5 6
q-32 21 -270 -10q-26 -57 -42 -65q-6 -3 -13 -3q-15 0 -23 14q-5 9 -2.5 18.5t10.5 15.5q3 3 7 11q-27 -4 -54 -9h-5q-9 0 -16.5 6t-9.5 16q-1 11 5 20t17 10q46 8 91 15q41 93 117 294q-23 -11 -38 -20q-6 -4 -14 -4q-15 0 -22 12q-6 10 -3.5 20.5t11.5 16.5q38 24 92 46
q47 124 93 254q-51 -19 -90 -38q-6 -3 -12 -3q-17 0 -24 15q-5 10 -1.5 20.5t13.5 15.5q64 31 137 54q1 1 3 9q4 10 14 15t20 1q9 -3 14 -11q189 48 256 -37z" />
    <glyph glyph-name="E" unicode="&#xca;" horiz-adv-x="518" 
d="M679 807q6 -8 5 -19t-10 -18t-19.5 -5.5t-17.5 10.5q-48 61 -224 11q-46 -128 -92 -251q130 37 212 -7q9 -5 12.5 -15.5t-2 -20t-16 -13t-19.5 2.5q-76 40 -211 -11q-7 -19 -11 -29q-71 -189 -113 -287q239 29 280 -7q8 -7 9 -18t-6.5 -19t-18 -9t-19.5 6
q-32 21 -270 -10q-26 -57 -42 -65q-6 -3 -13 -3q-15 0 -23 14q-5 9 -2.5 18.5t10.5 15.5q3 3 7 11q-27 -4 -54 -9h-5q-9 0 -16.5 6t-9.5 16q-1 11 5 20t17 10q46 8 91 15q41 93 117 294q-23 -11 -38 -20q-6 -4 -14 -4q-15 0 -22 12q-6 10 -3.5 20.5t11.5 16.5q38 24 92 46
q47 124 93 254q-51 -19 -90 -38q-6 -3 -12 -3q-17 0 -24 15q-5 10 -1.5 20.5t13.5 15.5q64 31 137 54q1 1 3 9q4 10 14 15t20 1q9 -3 14 -11q189 48 256 -37z" />
    <glyph glyph-name="E" unicode="&#xc9;" horiz-adv-x="518" 
d="M679 807q6 -8 5 -19t-10 -18t-19.5 -5.5t-17.5 10.5q-48 61 -224 11q-46 -128 -92 -251q130 37 212 -7q9 -5 12.5 -15.5t-2 -20t-16 -13t-19.5 2.5q-76 40 -211 -11q-7 -19 -11 -29q-71 -189 -113 -287q239 29 280 -7q8 -7 9 -18t-6.5 -19t-18 -9t-19.5 6
q-32 21 -270 -10q-26 -57 -42 -65q-6 -3 -13 -3q-15 0 -23 14q-5 9 -2.5 18.5t10.5 15.5q3 3 7 11q-27 -4 -54 -9h-5q-9 0 -16.5 6t-9.5 16q-1 11 5 20t17 10q46 8 91 15q41 93 117 294q-23 -11 -38 -20q-6 -4 -14 -4q-15 0 -22 12q-6 10 -3.5 20.5t11.5 16.5q38 24 92 46
q47 124 93 254q-51 -19 -90 -38q-6 -3 -12 -3q-17 0 -24 15q-5 10 -1.5 20.5t13.5 15.5q64 31 137 54q1 1 3 9q4 10 14 15t20 1q9 -3 14 -11q189 48 256 -37z" />
    <glyph glyph-name="E" unicode="&#xc8;" horiz-adv-x="518" 
d="M679 807q6 -8 5 -19t-10 -18t-19.5 -5.5t-17.5 10.5q-48 61 -224 11q-46 -128 -92 -251q130 37 212 -7q9 -5 12.5 -15.5t-2 -20t-16 -13t-19.5 2.5q-76 40 -211 -11q-7 -19 -11 -29q-71 -189 -113 -287q239 29 280 -7q8 -7 9 -18t-6.5 -19t-18 -9t-19.5 6
q-32 21 -270 -10q-26 -57 -42 -65q-6 -3 -13 -3q-15 0 -23 14q-5 9 -2.5 18.5t10.5 15.5q3 3 7 11q-27 -4 -54 -9h-5q-9 0 -16.5 6t-9.5 16q-1 11 5 20t17 10q46 8 91 15q41 93 117 294q-23 -11 -38 -20q-6 -4 -14 -4q-15 0 -22 12q-6 10 -3.5 20.5t11.5 16.5q38 24 92 46
q47 124 93 254q-51 -19 -90 -38q-6 -3 -12 -3q-17 0 -24 15q-5 10 -1.5 20.5t13.5 15.5q64 31 137 54q1 1 3 9q4 10 14 15t20 1q9 -3 14 -11q189 48 256 -37z" />
    <glyph glyph-name="F" unicode="F" horiz-adv-x="413" 
d="M783 755q8 -8 7 -19t-9 -18.5t-19 -7t-18 8.5q-22 24 -101 25.5t-174.5 -13t-202.5 -39.5l-48 -164q23 3 52 5q163 11 216 -6q11 -4 15.5 -13.5t1.5 -20t-13 -15.5t-20 -2q-40 10 -117 8t-152 -11l-75 -257q-1 -5 -3 -11q-31 -120 -71 -242q-7 -18 -26 -18q-4 0 -7 1
q-11 4 -16 13.5t-2 19.5l73 250q47 185 32 217q-16 7 -20 18.5t-1 21.5q2 7 5.5 11t21 11t48.5 13l46 156q-29 -7 -52 -14q-4 -1 -8 -1q-20 0 -25 19q-2 7 -0.5 14t6.5 12t12 7q40 11 85 22l17 59q3 10 12.5 15.5t20.5 1.5q7 -2 11.5 -7t6 -11.5t0.5 -13.5l-9 -29
q58 13 112 23t117.5 17.5t114 7t93.5 -11t63 -32.5z" />
    <glyph glyph-name="G" unicode="G" horiz-adv-x="680" 
d="M405 552q9 0 23.5 1t51 8t67.5 18.5t63 36.5t46 58q22 50 25.5 89t-12.5 56q-32 33 -141 -9q-66 -26 -128.5 -64t-122.5 -94t-106 -122.5t-77.5 -152.5t-38.5 -181q-11 -134 41 -163q16 -10 39.5 -8t46.5 8.5t47.5 19t41.5 23t31 20.5q156 109 235 196q8 40 14 62
q1 4 5.5 13.5t16.5 21.5t27 9q29 -5 26 -53q-2 -30 -39 -76q-2 -7 -7 -34q-14 -78 -23 -114q90 16 119 -22q7 -9 5.5 -20t-10.5 -17.5t-19.5 -5t-17.5 10.5q-13 16 -94 -5q-9 -24 -19 -39q-6 -9 -17 -11t-20 4q-13 8 -11 24q-16 -6 -30 -12q-5 -2 -11 -2q-17 0 -24 16
q-4 10 0 20t14 15q38 17 77 29q10 34 21 94q-77 -70 -188 -147q-16 -12 -38.5 -26.5t-72 -34.5t-89.5 -20q-35 0 -62 15q-81 45 -68 213q8 102 41.5 194.5t83 164t114 131.5t131 101t137.5 68q142 55 198 -3q59 -62 -2 -203q-16 -36 -44 -64t-61.5 -43.5t-64.5 -26
t-63 -14.5t-45 -5t-21 -1t-14 3.5t-9.5 9.5t-3.5 14q0 11 8 18.5t18 7.5z" />
    <glyph glyph-name="H" unicode="H" horiz-adv-x="614" 
d="M733 883q10 -5 13 -15.5t-2 -20.5q-68 -129 -131 -282l86 7q11 1 19.5 -6t9 -18t-6.5 -19.5t-18 -9.5l-107 -9h-3h-3q-33 -84 -56 -158.5t-38 -146t-10.5 -125.5t28.5 -81q8 -8 7.5 -19t-8.5 -18t-18 -7q-12 0 -20 8q-106 117 55 540q-132 -20 -231 -66q-5 -16 -10 -36
q-35 -121 -65.5 -203.5t-54.5 -122t-40.5 -55.5t-34.5 -19q-6 -1 -12 -1q-31 0 -53 27q-28 35 -29 96.5t25 123.5q61 145 230 229q42 159 73 303q4 18 22.5 20.5t26.5 -14.5q8 -14 10.5 -29t1 -27.5t-4.5 -22t-8 -16.5q-5 -9 -16 -12q-21 -91 -44 -175q104 40 236 56
q67 163 145 313q5 9 15.5 12.5t20.5 -1.5zM84 53q4 1 9 4.5t19 24.5t30 55t40.5 103.5t51.5 161.5q-116 -72 -160 -176q-22 -56 -21.5 -100t17.5 -65q7 -9 14 -8z" />
    <glyph glyph-name="I" unicode="I" horiz-adv-x="553" 
d="M773 773q29 -17 34 -49q1 -7 -1.5 -13.5t-8 -11t-12.5 -5.5q-11 -2 -19.5 4.5t-10.5 17.5q-1 7 -9 12q-45 27 -217 -10q0 -5 -1 -9q-55 -175 -118 -363q-70 -207 -108 -300q54 13 116 31q10 3 19.5 -2t12.5 -15.5t-2 -20.5t-16 -13q-87 -25 -158 -40q-14 -26 -27 -32
q-5 -2 -11 -2q-17 0 -24 15l-2 6q-70 -13 -117 -13q-52 0 -76 19q-18 13 -17 31q0 11 8 18.5t18 7.5h1q17 0 24 -17q36 -18 187 13q69 152 233 673q-106 -26 -207 -61q-4 -1 -8 -1q-19 0 -25 17q-4 11 1 20.5t15 13.5q20 7 47.5 15.5t83 25.5t109.5 28.5t111 20.5t103.5 6.5
t71.5 -17.5z" />
    <glyph glyph-name="I" unicode="&#xcf;" horiz-adv-x="553" 
d="M773 773q29 -17 34 -49q1 -7 -1.5 -13.5t-8 -11t-12.5 -5.5q-11 -2 -19.5 4.5t-10.5 17.5q-1 7 -9 12q-45 27 -217 -10q0 -5 -1 -9q-55 -175 -118 -363q-70 -207 -108 -300q54 13 116 31q10 3 19.5 -2t12.5 -15.5t-2 -20.5t-16 -13q-87 -25 -158 -40q-14 -26 -27 -32
q-5 -2 -11 -2q-17 0 -24 15l-2 6q-70 -13 -117 -13q-52 0 -76 19q-18 13 -17 31q0 11 8 18.5t18 7.5h1q17 0 24 -17q36 -18 187 13q69 152 233 673q-106 -26 -207 -61q-4 -1 -8 -1q-19 0 -25 17q-4 11 1 20.5t15 13.5q20 7 47.5 15.5t83 25.5t109.5 28.5t111 20.5t103.5 6.5
t71.5 -17.5z" />
    <glyph glyph-name="I" unicode="&#xce;" horiz-adv-x="553" 
d="M773 773q29 -17 34 -49q1 -7 -1.5 -13.5t-8 -11t-12.5 -5.5q-11 -2 -19.5 4.5t-10.5 17.5q-1 7 -9 12q-45 27 -217 -10q0 -5 -1 -9q-55 -175 -118 -363q-70 -207 -108 -300q54 13 116 31q10 3 19.5 -2t12.5 -15.5t-2 -20.5t-16 -13q-87 -25 -158 -40q-14 -26 -27 -32
q-5 -2 -11 -2q-17 0 -24 15l-2 6q-70 -13 -117 -13q-52 0 -76 19q-18 13 -17 31q0 11 8 18.5t18 7.5h1q17 0 24 -17q36 -18 187 13q69 152 233 673q-106 -26 -207 -61q-4 -1 -8 -1q-19 0 -25 17q-4 11 1 20.5t15 13.5q20 7 47.5 15.5t83 25.5t109.5 28.5t111 20.5t103.5 6.5
t71.5 -17.5z" />
    <glyph glyph-name="I" unicode="&#xcd;" horiz-adv-x="553" 
d="M773 773q29 -17 34 -49q1 -7 -1.5 -13.5t-8 -11t-12.5 -5.5q-11 -2 -19.5 4.5t-10.5 17.5q-1 7 -9 12q-45 27 -217 -10q0 -5 -1 -9q-55 -175 -118 -363q-70 -207 -108 -300q54 13 116 31q10 3 19.5 -2t12.5 -15.5t-2 -20.5t-16 -13q-87 -25 -158 -40q-14 -26 -27 -32
q-5 -2 -11 -2q-17 0 -24 15l-2 6q-70 -13 -117 -13q-52 0 -76 19q-18 13 -17 31q0 11 8 18.5t18 7.5h1q17 0 24 -17q36 -18 187 13q69 152 233 673q-106 -26 -207 -61q-4 -1 -8 -1q-19 0 -25 17q-4 11 1 20.5t15 13.5q20 7 47.5 15.5t83 25.5t109.5 28.5t111 20.5t103.5 6.5
t71.5 -17.5z" />
    <glyph glyph-name="I" unicode="&#xcc;" horiz-adv-x="553" 
d="M773 773q29 -17 34 -49q1 -7 -1.5 -13.5t-8 -11t-12.5 -5.5q-11 -2 -19.5 4.5t-10.5 17.5q-1 7 -9 12q-45 27 -217 -10q0 -5 -1 -9q-55 -175 -118 -363q-70 -207 -108 -300q54 13 116 31q10 3 19.5 -2t12.5 -15.5t-2 -20.5t-16 -13q-87 -25 -158 -40q-14 -26 -27 -32
q-5 -2 -11 -2q-17 0 -24 15l-2 6q-70 -13 -117 -13q-52 0 -76 19q-18 13 -17 31q0 11 8 18.5t18 7.5h1q17 0 24 -17q36 -18 187 13q69 152 233 673q-106 -26 -207 -61q-4 -1 -8 -1q-19 0 -25 17q-4 11 1 20.5t15 13.5q20 7 47.5 15.5t83 25.5t109.5 28.5t111 20.5t103.5 6.5
t71.5 -17.5z" />
    <glyph glyph-name="J" unicode="J" horiz-adv-x="598" 
d="M767.5 864q10.5 -11 6.5 -26q-7 -26 -19.5 -67t-47 -143.5t-71 -198.5t-90 -214.5t-106.5 -211.5t-118.5 -170t-127.5 -107q-60 -30 -104 -30q-54 0 -78 43q-11 25 -12 58t12 75t33.5 86t52.5 91t69 90t83 82t93 68q10 5 20.5 2.5t16 -12t3 -20t-11.5 -16.5
q-79 -47 -147.5 -120.5t-107 -143t-55 -129.5t-2.5 -86q19 -36 112 9q50 25 104 86.5t100 137.5t93.5 175t82.5 186t70 183.5t54 154.5t35 112q-278 -75 -384 -111q6 -9 4 -20t-11 -17.5t-19 -4.5q-35 6 -50 33q-7 12 -2 24q4 10 14.5 16.5t68 25.5t175.5 53q117 32 236 64
q15 4 25.5 -7z" />
    <glyph glyph-name="K" unicode="K" horiz-adv-x="564" 
d="M311 544q0 -8 -1 -17q-1 -25 -1.5 -62t6.5 -88t17 -99.5t30.5 -97t47.5 -80.5q46 -54 110 -59q11 -1 18.5 -9t6.5 -19q0 -4 -1.5 -8t-4 -7t-6 -5t-7.5 -3.5t-8 -1.5h-1q-87 6 -147 78q-37 43 -62 107.5t-35.5 131t-14 117t-2.5 90.5q-49 -26 -93 -36q-93 -234 -110 -338
q-2 -10 -9.5 -16.5t-17.5 -6.5q-2 0 -4 1q-11 1 -17 10t-5 20q17 104 104 325q-27 4 -32 26q-7 37 80 90q69 167 141 320q5 10 15.5 13.5t20.5 -1t13.5 -15t-1.5 -20.5q-53 -112 -116 -259q37 12 61 -6q9 -7 15 -18q45 31 95 75.5t85 81t70.5 77t46.5 54.5t19 23q6 8 17 9.5
t19.5 -5t10 -17.5t-5 -19.5t-17.5 -21.5t-37 -44.5t-57.5 -64t-68.5 -69.5t-81 -73t-86 -63zM189 539q32 12 67 32q-1 5 -2 6h-2q-5 0 -20 -6l-3 -1q-12 -4 -35 -18q0 -1 -5 -13z" />
    <glyph glyph-name="L" unicode="L" horiz-adv-x="860" 
d="M856.5 52.5q4.5 -9.5 1 -20t-13.5 -15.5q-71 -33 -161 -33q-59 0 -131.5 15.5t-116.5 29.5t-117 41q-119 42 -155 45q-48 -59 -87 -67q-33 -8 -59 16q-27 26 -13 58q23 51 135 48q73 103 140 264q46 113 108 231q-30 -6 -61 -7.5t-56 2t-50 10t-41.5 13t-31.5 14t-20 11
t-8 4.5q-9 7 -11 17.5t4.5 19.5t17 11t19.5 -4q7 -5 17.5 -11t40 -17t60 -16t73.5 -1t84 21q81 142 141 185q17 12 28 19t24.5 13t24.5 4.5t19 -9.5q26 -26 -22 -96q-80 -109 -177 -156q-74 -133 -134 -278q-63 -150 -130 -251q39 -8 138 -44q49 -17 77 -26.5t79 -24.5
t88 -20.5t82 -9t85 3.5t74 23q10 5 20.5 1t15 -13.5zM588 868q-24 -20 -54 -61q28 27 54 61zM65 99q12 3 27 16q-28 -4 -38 -13q5 -4 11 -3z" />
    <glyph glyph-name="M" unicode="M" horiz-adv-x="632" 
d="M731 860.5q23 -31.5 23.5 -90.5t-18 -132t-41.5 -142t-54 -141.5t-47 -108t-30 -62.5q-19 -46 -32 -96.5t-15 -92t16 -53.5q10 -6 12 -17t-4 -20q-8 -12 -22 -12q-8 0 -14 4q-25 16 -34 50.5t-6 70t14.5 78.5t19.5 66t17 43v1q26 52 51 110t50 121.5t44 124.5t30.5 114
t11 93.5t-14.5 60.5q-5 6 -10 6q-42 -4 -131 -146.5t-170 -323.5q-5 -9 -14.5 -13t-19.5 -0.5t-14.5 13.5t-1.5 20q24 68 38.5 124.5t19 89t4.5 56.5t-2 32.5t-5 13.5q-4 1 -10 -2q-41 -19 -103.5 -133.5t-115.5 -244.5t-96 -255q-5 -17 -23 -18t-25 15q-39 79 110 433
q50 119 115 255q-10 -2 -18 -2q-11 0 -19 7.5t-8.5 18t7 18.5t18.5 9q8 0 18.5 2.5t21.5 7.5t15 12q1 2 2 3q4 10 14.5 13.5t20 -1t13.5 -14.5t0 -20q-2 -3 -4 -7q-58 -118 -113 -244q85 164 148 193q29 13 55 3q49 -19 34 -142q4 7 11 19q36 65 68 113.5t54.5 75.5t43 43.5
t33 21.5t24.5 7q35 3 58 -28.5z" />
    <glyph glyph-name="N" unicode="N" horiz-adv-x="464" 
d="M393 119q-12 -29 -20 -60.5t-5 -66.5t23 -52q9 -7 10 -18t-6 -19q-8 -10 -21 -10q-9 0 -16 6q-24 19 -34.5 48.5t-10 57t7 58.5t12.5 47t12 30q1 3 8 17q62 129 104 236.5t60 173t23.5 117t3 74t-9.5 38.5q-3 6 -5 6q-5 0 -12.5 -3t-29.5 -21t-49.5 -48t-74.5 -92
t-103 -146q-112 -168 -201 -325q-8 -13 -23 -13t-23 13q-11 19 -12.5 48t4.5 61.5t19 71.5t28 76t34.5 77.5t36.5 72.5t35.5 65t29.5 51.5t21 34.5q6 9 16.5 12t20 -3t12 -16.5t-3.5 -20.5q-66 -107 -124 -229t-73 -200q83 139 159 253q71 107 126.5 178t91.5 103t57.5 42.5
t40.5 9.5q34 -1 50 -37q14 -31 15 -78.5t-10.5 -104t-29.5 -117.5t-45 -129t-53.5 -128.5t-57.5 -125.5q-7 -14 -8 -15z" />
    <glyph glyph-name="N" unicode="&#xd1;" horiz-adv-x="464" 
d="M393 119q-12 -29 -20 -60.5t-5 -66.5t23 -52q9 -7 10 -18t-6 -19q-8 -10 -21 -10q-9 0 -16 6q-24 19 -34.5 48.5t-10 57t7 58.5t12.5 47t12 30q1 3 8 17q62 129 104 236.5t60 173t23.5 117t3 74t-9.5 38.5q-3 6 -5 6q-5 0 -12.5 -3t-29.5 -21t-49.5 -48t-74.5 -92
t-103 -146q-112 -168 -201 -325q-8 -13 -23 -13t-23 13q-11 19 -12.5 48t4.5 61.5t19 71.5t28 76t34.5 77.5t36.5 72.5t35.5 65t29.5 51.5t21 34.5q6 9 16.5 12t20 -3t12 -16.5t-3.5 -20.5q-66 -107 -124 -229t-73 -200q83 139 159 253q71 107 126.5 178t91.5 103t57.5 42.5
t40.5 9.5q34 -1 50 -37q14 -31 15 -78.5t-10.5 -104t-29.5 -117.5t-45 -129t-53.5 -128.5t-57.5 -125.5q-7 -14 -8 -15z" />
    <glyph glyph-name="O" unicode="O" horiz-adv-x="567" 
d="M652 808q22 -22 34 -53.5t13.5 -58.5t-2 -57t-6 -41.5t-4.5 -18.5q-6 -20 -26 -19q-30 -191 -282 -458q-101 -106 -199 -106q-12 0 -24 1q-45 7 -80 33.5t-49 54.5q-21 39 -26 109t9 158t46 166q19 46 45 87.5t65 86t95 80.5t123 56q189 59 268 -20zM643 713l1 -1
q-7 37 -29 59q-30 29 -90 29q-53 0 -126 -22q-60 -19 -110 -51t-85 -72t-58.5 -78t-40.5 -80q-31 -75 -43.5 -157.5t-8 -141.5t20.5 -89q7 -15 31.5 -35t58.5 -24q81 -12 176 89q342 361 255 553q-5 10 -1 20t14 14.5t20.5 0.5t14.5 -14z" />
    <glyph glyph-name="O" unicode="&#xd8;" horiz-adv-x="567" 
d="M652 808q22 -22 34 -53.5t13.5 -58.5t-2 -57t-6 -41.5t-4.5 -18.5q-6 -20 -26 -19q-30 -191 -282 -458q-101 -106 -199 -106q-12 0 -24 1q-45 7 -80 33.5t-49 54.5q-21 39 -26 109t9 158t46 166q19 46 45 87.5t65 86t95 80.5t123 56q189 59 268 -20zM643 713l1 -1
q-7 37 -29 59q-30 29 -90 29q-53 0 -126 -22q-60 -19 -110 -51t-85 -72t-58.5 -78t-40.5 -80q-31 -75 -43.5 -157.5t-8 -141.5t20.5 -89q7 -15 31.5 -35t58.5 -24q81 -12 176 89q342 361 255 553q-5 10 -1 20t14 14.5t20.5 0.5t14.5 -14z" />
    <glyph glyph-name="O" unicode="&#xd6;" horiz-adv-x="567" 
d="M652 808q22 -22 34 -53.5t13.5 -58.5t-2 -57t-6 -41.5t-4.5 -18.5q-6 -20 -26 -19q-30 -191 -282 -458q-101 -106 -199 -106q-12 0 -24 1q-45 7 -80 33.5t-49 54.5q-21 39 -26 109t9 158t46 166q19 46 45 87.5t65 86t95 80.5t123 56q189 59 268 -20zM643 713l1 -1
q-7 37 -29 59q-30 29 -90 29q-53 0 -126 -22q-60 -19 -110 -51t-85 -72t-58.5 -78t-40.5 -80q-31 -75 -43.5 -157.5t-8 -141.5t20.5 -89q7 -15 31.5 -35t58.5 -24q81 -12 176 89q342 361 255 553q-5 10 -1 20t14 14.5t20.5 0.5t14.5 -14z" />
    <glyph glyph-name="O" unicode="&#xd5;" horiz-adv-x="567" 
d="M652 808q22 -22 34 -53.5t13.5 -58.5t-2 -57t-6 -41.5t-4.5 -18.5q-6 -20 -26 -19q-30 -191 -282 -458q-101 -106 -199 -106q-12 0 -24 1q-45 7 -80 33.5t-49 54.5q-21 39 -26 109t9 158t46 166q19 46 45 87.5t65 86t95 80.5t123 56q189 59 268 -20zM643 713l1 -1
q-7 37 -29 59q-30 29 -90 29q-53 0 -126 -22q-60 -19 -110 -51t-85 -72t-58.5 -78t-40.5 -80q-31 -75 -43.5 -157.5t-8 -141.5t20.5 -89q7 -15 31.5 -35t58.5 -24q81 -12 176 89q342 361 255 553q-5 10 -1 20t14 14.5t20.5 0.5t14.5 -14z" />
    <glyph glyph-name="O" unicode="&#xd4;" horiz-adv-x="567" 
d="M652 808q22 -22 34 -53.5t13.5 -58.5t-2 -57t-6 -41.5t-4.5 -18.5q-6 -20 -26 -19q-30 -191 -282 -458q-101 -106 -199 -106q-12 0 -24 1q-45 7 -80 33.5t-49 54.5q-21 39 -26 109t9 158t46 166q19 46 45 87.5t65 86t95 80.5t123 56q189 59 268 -20zM643 713l1 -1
q-7 37 -29 59q-30 29 -90 29q-53 0 -126 -22q-60 -19 -110 -51t-85 -72t-58.5 -78t-40.5 -80q-31 -75 -43.5 -157.5t-8 -141.5t20.5 -89q7 -15 31.5 -35t58.5 -24q81 -12 176 89q342 361 255 553q-5 10 -1 20t14 14.5t20.5 0.5t14.5 -14z" />
    <glyph glyph-name="O" unicode="&#xd3;" horiz-adv-x="567" 
d="M652 808q22 -22 34 -53.5t13.5 -58.5t-2 -57t-6 -41.5t-4.5 -18.5q-6 -20 -26 -19q-30 -191 -282 -458q-101 -106 -199 -106q-12 0 -24 1q-45 7 -80 33.5t-49 54.5q-21 39 -26 109t9 158t46 166q19 46 45 87.5t65 86t95 80.5t123 56q189 59 268 -20zM643 713l1 -1
q-7 37 -29 59q-30 29 -90 29q-53 0 -126 -22q-60 -19 -110 -51t-85 -72t-58.5 -78t-40.5 -80q-31 -75 -43.5 -157.5t-8 -141.5t20.5 -89q7 -15 31.5 -35t58.5 -24q81 -12 176 89q342 361 255 553q-5 10 -1 20t14 14.5t20.5 0.5t14.5 -14z" />
    <glyph glyph-name="O" unicode="&#xd2;" horiz-adv-x="567" 
d="M652 808q22 -22 34 -53.5t13.5 -58.5t-2 -57t-6 -41.5t-4.5 -18.5q-6 -20 -26 -19q-30 -191 -282 -458q-101 -106 -199 -106q-12 0 -24 1q-45 7 -80 33.5t-49 54.5q-21 39 -26 109t9 158t46 166q19 46 45 87.5t65 86t95 80.5t123 56q189 59 268 -20zM643 713l1 -1
q-7 37 -29 59q-30 29 -90 29q-53 0 -126 -22q-60 -19 -110 -51t-85 -72t-58.5 -78t-40.5 -80q-31 -75 -43.5 -157.5t-8 -141.5t20.5 -89q7 -15 31.5 -35t58.5 -24q81 -12 176 89q342 361 255 553q-5 10 -1 20t14 14.5t20.5 0.5t14.5 -14z" />
    <glyph glyph-name="P" unicode="P" horiz-adv-x="370" 
d="M641 850q54 -40 5 -172q-31 -85 -82 -154t-110.5 -112.5t-120.5 -68.5t-118 -29q-35 -2 -65 3l-99 -290q-6 -17 -25 -17h-5q-10 2 -16 10t-5 18q15 160 65 323q-6 8 -11 17q-6 10 -3 20.5t13 15.5q9 5 20 3q51 141 120 224l84 246l2 8q4 10 14 14.5t20 0.5t14.5 -13.5
t1.5 -19.5l-2 -6q-7 -25 2 -52q3 -10 -1.5 -20t-15.5 -13q-7 -3 -14 -1l-25 -72q19 14 38 27.5t49 32.5t58 34.5t60 29.5t59 21t52 5.5t41 -13.5zM597 696q12 33 16.5 58t3 37t-7.5 16q-24 18 -114 -26t-183 -113l-1 -1q-32 -20 -60 -52l-84 -247q21 -3 45 -1
q50 4 104.5 26.5t107.5 61.5t99 101.5t74 139.5z" />
    <glyph glyph-name="Q" unicode="Q" horiz-adv-x="580" 
d="M644 587q4 -11 -0.5 -20.5t-15 -13.5t-20.5 1t-13 15q-1 2 -3 7t-8.5 17.5t-14 24.5t-19.5 28t-25.5 29t-32 25.5t-37.5 19.5q-23 8 -47 10q19 -8 40 -19.5t51.5 -33t57 -54.5t41.5 -71q49 -127 -40 -289l-2 -2q-112 -158 -228 -215q22 -5 43 -11q115 -32 152 -23
q1 17 17 23q7 2 13.5 1t12 -5.5t8.5 -11.5q8 -23 -9 -42q-18 -19 -61 -19q-52 0 -147 27q-55 15 -105.5 22.5t-82 7.5t-58.5 -3.5t-35.5 -6t-12.5 -4.5q-10 -4 -20 0.5t-14 14.5t0 20t14 14q12 5 32 9q-28 21 -39 42q-19 37 -29 96.5t-5 134.5t26 148.5t71.5 142
t124.5 110.5q137 78 249 37q34 -13 64 -36.5t48 -45.5t33 -48t19.5 -36t6.5 -17zM548 532q-11 31 -33.5 58t-43.5 43t-45 29.5t-33.5 17t-14.5 5.5q-10 3 -15 13t-1 20q2 7 7 12q-56 -7 -119 -43q-66 -38 -110.5 -100.5t-62.5 -128.5t-22 -133t4.5 -118.5t23.5 -81.5
q4 -7 16.5 -18t39 -23t56.5 -14q29 -2 60.5 6t72 30t88.5 69t96 115q77 139 36 242z" />
    <glyph glyph-name="R" unicode="R" horiz-adv-x="652" 
d="M818 689q3 -44 -11 -84t-41.5 -71t-62.5 -58t-80 -47.5t-87.5 -37t-91 -28.5t-85.5 -20t-75 -14q40 -22 76.5 -46.5t80.5 -64.5t75.5 -84t53.5 -104.5t23 -124.5q0 -11 -8 -19t-19 -8t-18.5 7.5t-7.5 18.5q-1 57 -21.5 111t-50 93.5t-70.5 76t-74.5 58.5t-69.5 41
q-51 -93 -90.5 -160t-60.5 -100.5t-37 -52.5t-20.5 -22.5t-10.5 -5.5q-4 -2 -9 -2q-18 0 -24 18q-4 9 0 18.5t13 13.5q33 28 192 317q-18 7 -26 10q-20 7 -17 28q1 10 7.5 16.5t16.5 6.5q18 2 56 7q92 170 142 275q-25 -5 -43 7l30 44q-1 1 -2 1q3 -1 8.5 0t16.5 8.5
t23 21.5q15 17 33 10t18 -26q-1 -30 -161 -330q49 9 95.5 20.5t102 29.5t100.5 42t83 53.5t58 69t17 84.5q-3 52 -42 76q-36 22 -102 22.5t-136.5 -13.5t-149.5 -37.5t-137.5 -45.5t-104.5 -43q-10 -4 -20 0t-14.5 14t-0.5 20t14 15l35 15t76.5 29.5t108.5 37.5t122.5 34
t128 23.5t115 1t92.5 -27.5q63 -38 68 -118z" />
    <glyph glyph-name="S" unicode="S" horiz-adv-x="456" 
d="M635 743q9 -34 9.5 -67t-5.5 -59t-18 -51t-26 -44t-31.5 -36t-33.5 -29t-33 -23t-28 -16.5t-21 -9.5q-3 -2 -6 -3h-1l-4 -2q-10 -3 -19.5 2t-13.5 15q-7 23 17 33q-4 7 -8 12q-7 8 -6.5 19t8.5 18.5t19 6.5t18 -9q10 -10 16 -23q16 10 31 22t33 29.5t29 37.5t21 46
t9 54.5t-8 63.5q-16 66 -65.5 63.5t-116.5 -55t-117 -122t-58 -120.5q-8 -48 0.5 -103t27.5 -101t30 -68.5t19 -36.5q5 -6 10 -14.5t15.5 -27t18 -38.5t14 -43t6 -47.5t-8.5 -45.5q-26 -70 -124 -93q-30 -7 -58 -7q-81 0 -128 60q-30 38 -41 94.5t-5 106t22 83.5
q5 10 15.5 14t20.5 -1t13.5 -15.5t-1.5 -19.5q-13 -28 -18 -69t3.5 -86.5t31.5 -73.5q43 -55 133 -34q70 16 86 59q14 37 -5 86t-43 82q-1 1 -2 1q-2 4 -5.5 10.5t-12.5 24t-17 35.5t-18.5 45t-16.5 52t-12.5 57.5t-6 60.5t4.5 61q7 47 43.5 106.5t85 110.5t107 87t105.5 38
q15 1 30 -2.5t33 -13t33 -32t24 -55.5z" />
    <glyph glyph-name="T" unicode="T" horiz-adv-x="409" 
d="M749 785q37 -33 23 -90q-2 -7 -7 -12t-11.5 -7t-13.5 0q-11 2 -16.5 11.5t-3.5 20.5q7 26 -7 38q-51 47 -303 -4q7 -12 2 -24q-77 -187 -152 -352q-47 -105 -85.5 -179.5t-60.5 -111.5t-40.5 -58t-25.5 -24.5t-16 -5.5q-3 -1 -6 -1q-9 0 -16 6q-10 8 -10 21v61
q0 11 7.5 18.5t18.5 7.5t18.5 -7t8.5 -17q49 74 135.5 259.5t171.5 395.5q-163 -38 -325 -93q-4 -2 -9 -2q-18 0 -25 18q-3 10 1.5 20t15.5 14q48 16 105 34t160.5 45t188 41t164.5 10.5t113 -33.5z" />
    <glyph glyph-name="U" unicode="U" horiz-adv-x="509" 
d="M583 772q18 -6 22.5 -32t2.5 -42t-5 -24q-18 -75 -63.5 -181t-102.5 -198q-59 -237 -46 -275q5 -10 1 -20t-14.5 -14.5t-20.5 -0.5t-14 14q-16 35 14 183q-11 -15 -24 -28q-90 -96 -148.5 -140.5t-104.5 -44.5h-2q-38 1 -63 31q-34 41 8.5 183t161.5 418q17 40 22 53
q-31 -27 -61 -59q-7 -8 -18 -8.5t-19 7t-8.5 18.5t7.5 19q33 35 59 58t40.5 32.5t26.5 12t16.5 1t10.5 -4.5q27 -18 4 -75q-8 -19 -32 -75q-92 -214 -132 -327q-18 -53 -29.5 -94t-15 -63t-4 -37t0.5 -19t3 -6q10 -12 23 -12h1q20 0 48 17t62.5 48.5t54.5 51.5t50 51
q45 49 94 128q60 233 112 357q25 59 42.5 81.5t39.5 15.5z" />
    <glyph glyph-name="U" unicode="&#xdc;" horiz-adv-x="509" 
d="M583 772q18 -6 22.5 -32t2.5 -42t-5 -24q-18 -75 -63.5 -181t-102.5 -198q-59 -237 -46 -275q5 -10 1 -20t-14.5 -14.5t-20.5 -0.5t-14 14q-16 35 14 183q-11 -15 -24 -28q-90 -96 -148.5 -140.5t-104.5 -44.5h-2q-38 1 -63 31q-34 41 8.5 183t161.5 418q17 40 22 53
q-31 -27 -61 -59q-7 -8 -18 -8.5t-19 7t-8.5 18.5t7.5 19q33 35 59 58t40.5 32.5t26.5 12t16.5 1t10.5 -4.5q27 -18 4 -75q-8 -19 -32 -75q-92 -214 -132 -327q-18 -53 -29.5 -94t-15 -63t-4 -37t0.5 -19t3 -6q10 -12 23 -12h1q20 0 48 17t62.5 48.5t54.5 51.5t50 51
q45 49 94 128q60 233 112 357q25 59 42.5 81.5t39.5 15.5z" />
    <glyph glyph-name="U" unicode="&#xdb;" horiz-adv-x="509" 
d="M583 772q18 -6 22.5 -32t2.5 -42t-5 -24q-18 -75 -63.5 -181t-102.5 -198q-59 -237 -46 -275q5 -10 1 -20t-14.5 -14.5t-20.5 -0.5t-14 14q-16 35 14 183q-11 -15 -24 -28q-90 -96 -148.5 -140.5t-104.5 -44.5h-2q-38 1 -63 31q-34 41 8.5 183t161.5 418q17 40 22 53
q-31 -27 -61 -59q-7 -8 -18 -8.5t-19 7t-8.5 18.5t7.5 19q33 35 59 58t40.5 32.5t26.5 12t16.5 1t10.5 -4.5q27 -18 4 -75q-8 -19 -32 -75q-92 -214 -132 -327q-18 -53 -29.5 -94t-15 -63t-4 -37t0.5 -19t3 -6q10 -12 23 -12h1q20 0 48 17t62.5 48.5t54.5 51.5t50 51
q45 49 94 128q60 233 112 357q25 59 42.5 81.5t39.5 15.5z" />
    <glyph glyph-name="U" unicode="&#xda;" horiz-adv-x="509" 
d="M583 772q18 -6 22.5 -32t2.5 -42t-5 -24q-18 -75 -63.5 -181t-102.5 -198q-59 -237 -46 -275q5 -10 1 -20t-14.5 -14.5t-20.5 -0.5t-14 14q-16 35 14 183q-11 -15 -24 -28q-90 -96 -148.5 -140.5t-104.5 -44.5h-2q-38 1 -63 31q-34 41 8.5 183t161.5 418q17 40 22 53
q-31 -27 -61 -59q-7 -8 -18 -8.5t-19 7t-8.5 18.5t7.5 19q33 35 59 58t40.5 32.5t26.5 12t16.5 1t10.5 -4.5q27 -18 4 -75q-8 -19 -32 -75q-92 -214 -132 -327q-18 -53 -29.5 -94t-15 -63t-4 -37t0.5 -19t3 -6q10 -12 23 -12h1q20 0 48 17t62.5 48.5t54.5 51.5t50 51
q45 49 94 128q60 233 112 357q25 59 42.5 81.5t39.5 15.5z" />
    <glyph glyph-name="U" unicode="&#xd9;" horiz-adv-x="509" 
d="M583 772q18 -6 22.5 -32t2.5 -42t-5 -24q-18 -75 -63.5 -181t-102.5 -198q-59 -237 -46 -275q5 -10 1 -20t-14.5 -14.5t-20.5 -0.5t-14 14q-16 35 14 183q-11 -15 -24 -28q-90 -96 -148.5 -140.5t-104.5 -44.5h-2q-38 1 -63 31q-34 41 8.5 183t161.5 418q17 40 22 53
q-31 -27 -61 -59q-7 -8 -18 -8.5t-19 7t-8.5 18.5t7.5 19q33 35 59 58t40.5 32.5t26.5 12t16.5 1t10.5 -4.5q27 -18 4 -75q-8 -19 -32 -75q-92 -214 -132 -327q-18 -53 -29.5 -94t-15 -63t-4 -37t0.5 -19t3 -6q10 -12 23 -12h1q20 0 48 17t62.5 48.5t54.5 51.5t50 51
q45 49 94 128q60 233 112 357q25 59 42.5 81.5t39.5 15.5z" />
    <glyph glyph-name="V" unicode="V" horiz-adv-x="407" 
d="M504 671q10 -40 -17.5 -121t-79 -172.5t-111 -178.5t-118.5 -150.5t-97 -77.5q-13 -5 -24 -5q-21 0 -35 14q-13 13 -19 36t0.5 87.5t31.5 163.5q40 163 104 341q19 51 19 76q-9 -5 -17 -11q-9 -7 -19.5 -5.5t-17.5 10t-5.5 19.5t9.5 18q51 40 84 16q20 -14 19.5 -47.5
t-22.5 -93.5q-63 -175 -103 -334q-21 -85 -28 -142.5t-5.5 -73t5.5 -21.5q2 0 4 1q37 14 107 97.5t141 197.5q72 116 111.5 212t30.5 131q-11 46 -26 76.5t-21 36.5t-10 8h2l17 50q6 -2 11.5 -6t16 -15t20.5 -27t21 -44.5t21 -65.5z" />
    <glyph glyph-name="W" unicode="W" horiz-adv-x="860" 
d="M990 764q18 -22 12 -71q-6 -56 -39 -140.5t-83 -176t-121.5 -181.5t-146.5 -149q-74 -59 -121 -77t-75 2q-19 15 -22 45.5t2 52t13 41.5q41 142 69 255q-84 -146 -214.5 -272.5t-200.5 -143.5q-10 -2 -18 -2q-17 0 -30 9q-8 6 -11 12t-3.5 28.5t9 58t33 105t61.5 165.5
q105 268 180 417q4 7 5.5 10.5t4.5 9t5 8t5 6.5t6 5t6 2.5t7 1.5t8 -2q9 -2 15 -10t5 -19q-3 -28 9 -44q6 -9 4.5 -19.5t-10 -17.5t-19.5 -5.5t-17 10.5q-3 3 -4 5q-24 -49 -56 -123.5t-67.5 -160.5t-65.5 -165.5t-50.5 -143.5t-21.5 -89q24 6 75 44.5t110.5 96.5
t122.5 141.5t102 164.5q22 48 37 65.5t36 10.5q18 -8 19.5 -32.5t-8.5 -63.5q-10 -51 -33 -138q-29 -109 -55 -196q0 -1 -1 -2q-9 -24 -12 -49t2 -29q38 0 132 73q78 62 153 160.5t134 216.5q35 70 56 131.5t26 94t0 41.5q-7 8 -6 19t9.5 18t19.5 5.5t18 -9.5z" />
    <glyph glyph-name="X" unicode="X" horiz-adv-x="504" 
d="M707 830q10 1 19 -5.5t10.5 -17t-5 -19.5t-16.5 -11q-178 -27 -365 -292q3 -34 6 -65q10 -103 21.5 -181.5t21 -118t19.5 -64.5t14 -30t8 -6q9 -5 13 -15.5t-1 -20.5q-7 -15 -24 -15q-5 0 -11 2q-10 5 -17 11t-21 33t-25.5 69.5t-25.5 128t-25 201.5q-42 -67 -84 -146
t-69.5 -138.5t-52.5 -119t-33.5 -82t-12.5 -32.5q-6 -18 -25 -18q-4 0 -8 1q-11 4 -15.5 14t-0.5 20q6 18 16.5 45.5t39.5 96.5t60.5 135t80 152t97.5 158q-14 184 -17 303q-1 11 6.5 19t18.5 8t19 -7.5t9 -18.5q2 -93 12 -238q182 236 363 264z" />
    <glyph glyph-name="Y" unicode="Y" horiz-adv-x="436" 
d="M539 705.5q10 -3.5 15 -13t2 -19.5q-24 -88 -69 -181q-156 -401 -225 -536q-90 -175 -163 -175q-3 0 -6 1q-59 5 -92 115q-3 10 2 19.5t15.5 13t20.5 -2t13 -15.5q11 -39 23.5 -58t22.5 -20q3 0 7.5 1.5t15.5 9.5t23 22t31 43.5t40 69.5q46 91 140 324q-77 -71 -164 -66
q-70 3 -98 50q-14 25 -14 63t8 72.5t29.5 87t35.5 81.5t40 82q37 73 44 93q-14 -10 -25 -21q-8 -8 -19 -7.5t-18.5 8t-7.5 18.5t8 19q68 65 102 44q28 -17 12 -71q-7 -23 -49 -107q-18 -36 -28 -57t-28 -60t-27 -66.5t-18 -58.5t-8.5 -54.5t9.5 -38.5q13 -23 54 -25
q39 -1 76 17t68 52t55 71t46 82q38 99 68 177q4 10 13.5 15t19.5 1.5z" />
    <glyph glyph-name="Y" unicode="&#xdd;" horiz-adv-x="436" 
d="M539 705.5q10 -3.5 15 -13t2 -19.5q-24 -88 -69 -181q-156 -401 -225 -536q-90 -175 -163 -175q-3 0 -6 1q-59 5 -92 115q-3 10 2 19.5t15.5 13t20.5 -2t13 -15.5q11 -39 23.5 -58t22.5 -20q3 0 7.5 1.5t15.5 9.5t23 22t31 43.5t40 69.5q46 91 140 324q-77 -71 -164 -66
q-70 3 -98 50q-14 25 -14 63t8 72.5t29.5 87t35.5 81.5t40 82q37 73 44 93q-14 -10 -25 -21q-8 -8 -19 -7.5t-18.5 8t-7.5 18.5t8 19q68 65 102 44q28 -17 12 -71q-7 -23 -49 -107q-18 -36 -28 -57t-28 -60t-27 -66.5t-18 -58.5t-8.5 -54.5t9.5 -38.5q13 -23 54 -25
q39 -1 76 17t68 52t55 71t46 82q38 99 68 177q4 10 13.5 15t19.5 1.5z" />
    <glyph glyph-name="Z" unicode="Z" horiz-adv-x="723" 
d="M768 789q-69 -51 -151 -117.5t-184.5 -156.5t-184.5 -171.5t-138 -158.5t-57 -122q0 -11 4 -20q104 38 195.5 58.5t154 25.5t116.5 -1t85 -16t55.5 -24t31.5 -21t11 -12q6 -8 5 -19t-10 -18t-19.5 -5.5t-17.5 10.5q-3 3 -9 8t-28 16.5t-51 19t-79 10.5t-109 -3
t-145.5 -27t-184.5 -57q-4 -2 -9 -2q-9 0 -16 6q-34 27 -33 72q1 49 50 124t118 149t163.5 160t166 145.5t145.5 117.5q-112 -18 -253 -23q-84 -2 -153 0q-34 1 -52.5 3.5t-23 4.5t-8.5 6q-12 11 -8 26q4 16 21 20q9 3 15 7t7.5 6.5t1.5 3.5q1 11 9.5 17.5t19.5 5t17.5 -10
t5.5 -19.5q-1 -8 -5 -17q111 -4 260 6.5t247 39.5q5 1 9.5 0.5t8.5 -2t7.5 -4.5t5.5 -8q10 -19 -7 -33z" />
    <glyph glyph-name="bracketleft" unicode="[" horiz-adv-x="678" 
d="M560 939q10 -4 15 -14t1.5 -20t-13 -15t-20.5 -2q-22 7 -44 -5q-29 -15 -44 -64q-35 -118 -300 -772q-1 -4 -2 -10q15 4 39 17q9 6 20 3t16 -12.5t2.5 -20t-12.5 -16.5q-44 -24 -71 -24q-18 0 -31 10q-28 24 -10 72q265 656 298 768q21 71 71 97q42 22 85 8z" />
    <glyph glyph-name="backslash" unicode="\" horiz-adv-x="472" 
d="M372 12q2 -10 -3.5 -19.5t-16.5 -12.5h-6q-6 0 -11.5 2.5t-9 7t-5.5 10.5l-219 916q-3 11 3 20t16 12q7 2 14 0t12 -7.5t6 -12.5z" />
    <glyph glyph-name="bracketright" unicode="]" horiz-adv-x="698" 
d="M578 928q32 -27 13 -92q-31 -107 -295 -760q-13 -35 -49 -65.5t-90 -30.5q-17 0 -36 3q-11 3 -17 12t-3.5 19.5t11.5 16.5t20 4q28 -6 51.5 0.5t36.5 21t19 23t8 15.5q269 671 293 756q9 32 3 38q-2 2 -15.5 0.5t-25.5 -6.5q-10 -5 -20 -1t-14.5 14t-0.5 20.5t14 14.5
q10 5 23 8.5t36 2.5t38 -14z" />
    <glyph glyph-name="asciicircum" unicode="^" horiz-adv-x="385" 
d="M269 914q16 -7 16 -24v-188q0 -11 -7.5 -19t-18.5 -8t-19 8t-8 19v124l-87 -87q-8 -8 -19 -8t-18.5 7.5t-7.5 18.5t8 19l132 132q13 13 29 6z" />
    <glyph glyph-name="underscore" unicode="_" horiz-adv-x="367" 
d="M343 15q11 -1 18 -9.5t6 -19t-9.5 -17.5t-19.5 -6l-314 29q-11 1 -18 9.5t-6 19.5t9.5 18t19.5 6z" />
    <glyph glyph-name="grave" unicode="`" horiz-adv-x="330" 
d="M227 727q5 -10 1 -20.5t-14 -14.5q-5 -3 -11 -3q-17 0 -24 15l-77 164q-4 10 -0.5 20.5t13.5 15t20.5 1t14.5 -13.5z" />
    <glyph glyph-name="a" unicode="a" horiz-adv-x="381" 
d="M447.5 237q6.5 -9 4.5 -19.5t-11 -17.5q-94 -69 -173 -136q-46 -40 -80 -40q-15 0 -27 8q-32 19 -34 83q-45 -41 -79 -55q-35 -17 -61 -18t-36.5 6t-16.5 17q-21 33 8 86t97 107q89 71 149 49q23 -8 37 -27t18 -37q2 -11 -4 -20t-16.5 -11.5t-20 3.5t-11.5 17
q-5 20 -21 26q-32 11 -98 -41q-36 -29 -59 -57t-29.5 -43.5t-5.5 -22.5q14 -3 47 14q1 0 3 1q49 22 113 96q14 15 32 6t14 -29q-7 -37 -6.5 -68t7.5 -37q14 1 44 26q1 0 2 1q85 72 176 139q9 6 20 4.5t17.5 -10.5z" />
    <glyph glyph-name="a" unicode="&#xe5;" horiz-adv-x="381" 
d="M447.5 237q6.5 -9 4.5 -19.5t-11 -17.5q-94 -69 -173 -136q-46 -40 -80 -40q-15 0 -27 8q-32 19 -34 83q-45 -41 -79 -55q-35 -17 -61 -18t-36.5 6t-16.5 17q-21 33 8 86t97 107q89 71 149 49q23 -8 37 -27t18 -37q2 -11 -4 -20t-16.5 -11.5t-20 3.5t-11.5 17
q-5 20 -21 26q-32 11 -98 -41q-36 -29 -59 -57t-29.5 -43.5t-5.5 -22.5q14 -3 47 14q1 0 3 1q49 22 113 96q14 15 32 6t14 -29q-7 -37 -6.5 -68t7.5 -37q14 1 44 26q1 0 2 1q85 72 176 139q9 6 20 4.5t17.5 -10.5z" />
    <glyph glyph-name="a" unicode="&#xe4;" horiz-adv-x="381" 
d="M447.5 237q6.5 -9 4.5 -19.5t-11 -17.5q-94 -69 -173 -136q-46 -40 -80 -40q-15 0 -27 8q-32 19 -34 83q-45 -41 -79 -55q-35 -17 -61 -18t-36.5 6t-16.5 17q-21 33 8 86t97 107q89 71 149 49q23 -8 37 -27t18 -37q2 -11 -4 -20t-16.5 -11.5t-20 3.5t-11.5 17
q-5 20 -21 26q-32 11 -98 -41q-36 -29 -59 -57t-29.5 -43.5t-5.5 -22.5q14 -3 47 14q1 0 3 1q49 22 113 96q14 15 32 6t14 -29q-7 -37 -6.5 -68t7.5 -37q14 1 44 26q1 0 2 1q85 72 176 139q9 6 20 4.5t17.5 -10.5z" />
    <glyph glyph-name="a" unicode="&#xe3;" horiz-adv-x="381" 
d="M447.5 237q6.5 -9 4.5 -19.5t-11 -17.5q-94 -69 -173 -136q-46 -40 -80 -40q-15 0 -27 8q-32 19 -34 83q-45 -41 -79 -55q-35 -17 -61 -18t-36.5 6t-16.5 17q-21 33 8 86t97 107q89 71 149 49q23 -8 37 -27t18 -37q2 -11 -4 -20t-16.5 -11.5t-20 3.5t-11.5 17
q-5 20 -21 26q-32 11 -98 -41q-36 -29 -59 -57t-29.5 -43.5t-5.5 -22.5q14 -3 47 14q1 0 3 1q49 22 113 96q14 15 32 6t14 -29q-7 -37 -6.5 -68t7.5 -37q14 1 44 26q1 0 2 1q85 72 176 139q9 6 20 4.5t17.5 -10.5z" />
    <glyph glyph-name="a" unicode="&#xe2;" horiz-adv-x="381" 
d="M447.5 237q6.5 -9 4.5 -19.5t-11 -17.5q-94 -69 -173 -136q-46 -40 -80 -40q-15 0 -27 8q-32 19 -34 83q-45 -41 -79 -55q-35 -17 -61 -18t-36.5 6t-16.5 17q-21 33 8 86t97 107q89 71 149 49q23 -8 37 -27t18 -37q2 -11 -4 -20t-16.5 -11.5t-20 3.5t-11.5 17
q-5 20 -21 26q-32 11 -98 -41q-36 -29 -59 -57t-29.5 -43.5t-5.5 -22.5q14 -3 47 14q1 0 3 1q49 22 113 96q14 15 32 6t14 -29q-7 -37 -6.5 -68t7.5 -37q14 1 44 26q1 0 2 1q85 72 176 139q9 6 20 4.5t17.5 -10.5z" />
    <glyph glyph-name="a" unicode="&#xe1;" horiz-adv-x="381" 
d="M447.5 237q6.5 -9 4.5 -19.5t-11 -17.5q-94 -69 -173 -136q-46 -40 -80 -40q-15 0 -27 8q-32 19 -34 83q-45 -41 -79 -55q-35 -17 -61 -18t-36.5 6t-16.5 17q-21 33 8 86t97 107q89 71 149 49q23 -8 37 -27t18 -37q2 -11 -4 -20t-16.5 -11.5t-20 3.5t-11.5 17
q-5 20 -21 26q-32 11 -98 -41q-36 -29 -59 -57t-29.5 -43.5t-5.5 -22.5q14 -3 47 14q1 0 3 1q49 22 113 96q14 15 32 6t14 -29q-7 -37 -6.5 -68t7.5 -37q14 1 44 26q1 0 2 1q85 72 176 139q9 6 20 4.5t17.5 -10.5z" />
    <glyph glyph-name="a" unicode="&#xe0;" horiz-adv-x="381" 
d="M447.5 237q6.5 -9 4.5 -19.5t-11 -17.5q-94 -69 -173 -136q-46 -40 -80 -40q-15 0 -27 8q-32 19 -34 83q-45 -41 -79 -55q-35 -17 -61 -18t-36.5 6t-16.5 17q-21 33 8 86t97 107q89 71 149 49q23 -8 37 -27t18 -37q2 -11 -4 -20t-16.5 -11.5t-20 3.5t-11.5 17
q-5 20 -21 26q-32 11 -98 -41q-36 -29 -59 -57t-29.5 -43.5t-5.5 -22.5q14 -3 47 14q1 0 3 1q49 22 113 96q14 15 32 6t14 -29q-7 -37 -6.5 -68t7.5 -37q14 1 44 26q1 0 2 1q85 72 176 139q9 6 20 4.5t17.5 -10.5z" />
    <glyph glyph-name="b" unicode="b" horiz-adv-x="297" 
d="M339 790q27 -11 11 -59q-10 -28 -35 -38l-4 -2q-8 -15 -17 -33q-34 -65 -187 -392q18 13 36 21q71 32 101 -1q12 -13 14.5 -33t-1 -37.5t-11 -36.5t-11 -26.5t-5.5 -11.5q-10 -17 -24 -32.5t-40 -35t-68.5 -31t-94.5 -10.5q-3 0 -6 1q-6 -14 -13 -28.5t-11.5 -24
t-8 -17.5t-5.5 -12l-2 -4q-7 -15 -24 -15q-5 0 -10 2q-10 4 -14 13.5t-1 19.5q22 58 57 122q237 507 281 593l6 12q-12 4 -23 9q-9 6 -12.5 16t1.5 20t15.5 13t20.5 -2q11 -6 24 -8q21 36 33.5 45t27.5 3zM164 239q-68 -30 -140 -154q37 2 66.5 11t48 23t28.5 25t16 23
q11 19 19 46.5t4 36.5h-4q-13 0 -38 -11z" />
    <glyph glyph-name="c" unicode="c" horiz-adv-x="338" 
d="M407 249q6 -9 3.5 -20t-12.5 -17q-81 -51 -173 -118q-70 -50 -143 -50q-53 0 -79 27q-30 30 -7 106q9 32 27 60.5t48 52.5t67 32q58 13 77 -17t-14 -73q-6 -9 -17 -10.5t-19.5 5t-10.5 17.5t5 20q3 4 6 9q-7 -1 -16 -3q-60 -12 -93 -82q-12 -27 -15.5 -53t0.5 -28
q10 -9 31.5 -11t55.5 8t66 33q103 75 176 120q9 6 20 3.5t17 -11.5z" />
    <glyph glyph-name="c" unicode="&#xe7;" horiz-adv-x="338" 
d="M407 249q6 -9 3.5 -20t-12.5 -17q-81 -51 -173 -118q-70 -50 -143 -50q-53 0 -79 27q-30 30 -7 106q9 32 27 60.5t48 52.5t67 32q58 13 77 -17t-14 -73q-6 -9 -17 -10.5t-19.5 5t-10.5 17.5t5 20q3 4 6 9q-7 -1 -16 -3q-60 -12 -93 -82q-12 -27 -15.5 -53t0.5 -28
q10 -9 31.5 -11t55.5 8t66 33q103 75 176 120q9 6 20 3.5t17 -11.5z" />
    <glyph glyph-name="d" unicode="d" horiz-adv-x="352" 
d="M543 770q8 -53 -47 -164t-169 -301q-33 -55 -41 -69q-17 -29 -31 -52q-24 -70 -37.5 -125.5t-16.5 -86t-1 -52t5.5 -28.5t7.5 -10q8 -7 9 -18t-6 -19q-8 -10 -20 -10q-10 0 -17 7q-57 48 -14 226q-65 -61 -119 -31q-9 5 -16 12t-12.5 17t-9.5 22t-6 25.5t-2 27.5
q-1 57 25.5 105t73.5 76q63 37 106 14q22 -12 34 -38q68 177 154 354q19 47 37 80.5t29 49t22.5 23t16 8.5t11.5 0q28 -4 34 -43zM207 207q2 8 4 14q-11 8 -11 21q-1 12 -6 27t-14 21q-5 2 -11 2q-17 0 -43 -15q-24 -14 -40 -34.5t-22.5 -41t-8.5 -34t-2 -25.5q0 -16 3 -29
t7 -20t8 -10q41 -22 136 124zM380 499q91 160 108 228q-24 -42 -47 -96v-2q-20 -38 -61 -130z" />
    <glyph glyph-name="e" unicode="e" horiz-adv-x="402" 
d="M464 249q6 -9 3.5 -19.5t-11.5 -16.5q-149 -97 -282 -161q-42 -20 -76 -20q-35 0 -60 20q-24 20 -33 52.5t-2 61.5q6 24 27 57q-18 12 -10 32q4 10 14 14.5t20 0.5q3 -1 8 -2q17 21 38 44q17 19 39 25.5t40 1.5q29 -8 34 -35q6 -32 -33 -60q-41 -31 -93 -32
q-28 -38 -33 -58q-3 -14 1 -32.5t16 -28.5q25 -20 80 7q121 58 276 157q9 6 20 3.5t17 -11.5z" />
    <glyph glyph-name="e" unicode="&#xeb;" horiz-adv-x="402" 
d="M464 249q6 -9 3.5 -19.5t-11.5 -16.5q-149 -97 -282 -161q-42 -20 -76 -20q-35 0 -60 20q-24 20 -33 52.5t-2 61.5q6 24 27 57q-18 12 -10 32q4 10 14 14.5t20 0.5q3 -1 8 -2q17 21 38 44q17 19 39 25.5t40 1.5q29 -8 34 -35q6 -32 -33 -60q-41 -31 -93 -32
q-28 -38 -33 -58q-3 -14 1 -32.5t16 -28.5q25 -20 80 7q121 58 276 157q9 6 20 3.5t17 -11.5z" />
    <glyph glyph-name="e" unicode="&#xea;" horiz-adv-x="402" 
d="M464 249q6 -9 3.5 -19.5t-11.5 -16.5q-149 -97 -282 -161q-42 -20 -76 -20q-35 0 -60 20q-24 20 -33 52.5t-2 61.5q6 24 27 57q-18 12 -10 32q4 10 14 14.5t20 0.5q3 -1 8 -2q17 21 38 44q17 19 39 25.5t40 1.5q29 -8 34 -35q6 -32 -33 -60q-41 -31 -93 -32
q-28 -38 -33 -58q-3 -14 1 -32.5t16 -28.5q25 -20 80 7q121 58 276 157q9 6 20 3.5t17 -11.5z" />
    <glyph glyph-name="e" unicode="&#xe9;" horiz-adv-x="402" 
d="M464 249q6 -9 3.5 -19.5t-11.5 -16.5q-149 -97 -282 -161q-42 -20 -76 -20q-35 0 -60 20q-24 20 -33 52.5t-2 61.5q6 24 27 57q-18 12 -10 32q4 10 14 14.5t20 0.5q3 -1 8 -2q17 21 38 44q17 19 39 25.5t40 1.5q29 -8 34 -35q6 -32 -33 -60q-41 -31 -93 -32
q-28 -38 -33 -58q-3 -14 1 -32.5t16 -28.5q25 -20 80 7q121 58 276 157q9 6 20 3.5t17 -11.5z" />
    <glyph glyph-name="e" unicode="&#xe8;" horiz-adv-x="402" 
d="M464 249q6 -9 3.5 -19.5t-11.5 -16.5q-149 -97 -282 -161q-42 -20 -76 -20q-35 0 -60 20q-24 20 -33 52.5t-2 61.5q6 24 27 57q-18 12 -10 32q4 10 14 14.5t20 0.5q3 -1 8 -2q17 21 38 44q17 19 39 25.5t40 1.5q29 -8 34 -35q6 -32 -33 -60q-41 -31 -93 -32
q-28 -38 -33 -58q-3 -14 1 -32.5t16 -28.5q25 -20 80 7q121 58 276 157q9 6 20 3.5t17 -11.5z" />
    <glyph glyph-name="f" unicode="f" horiz-adv-x="352" 
d="M376 261q10 -1 17 -10t5.5 -20t-10 -17.5t-19.5 -4.5q-14 1 -61 -8q-41 -8 -66.5 -11.5t-69 0.5t-79.5 21l-6 3l-1 -2q46 -66 39 -153q-4 -54 -28 -114t-59 -109.5t-73.5 -89t-73.5 -62.5q-39 -26 -63 -26q-17 0 -28 10q-35 32 22 138l201 399l-10 10q-3 3 -5 6
q-19 29 0 50q16 19 53 9l244 485q5 10 15.5 13.5t20.5 -1.5t13.5 -15.5t-1.5 -20.5l-243 -480l6 -2q29 -14 65 -17t57.5 0t58.5 11q56 11 79 8zM73 63q3 51 -16 93l-188 -375q-20 -36 -28 -65q9 4 21 12q69 45 136.5 144t74.5 191z" />
    <glyph glyph-name="g" unicode="g" horiz-adv-x="405" 
d="M440 261q11 2 20 -4t11 -17t-4 -20t-17 -11q-25 -5 -84.5 -43.5t-131.5 -96.5q-46 -107 -108.5 -222.5t-107.5 -159.5q-60 -62 -103 -62q-11 0 -21 5q-37 19 -23 98q11 67 104 171t216 204q10 24 15 39q-111 -82 -152 -88q-19 -4 -35.5 9t-24.5 38q-3 16 -4.5 35t6 41.5
t19.5 43.5t36.5 41.5t56.5 35.5q88 40 129 7q16 -12 21.5 -33t5 -31.5t-2.5 -18.5q-2 -10 -11 -16l2 -2q17 -14 14 -44q124 91 174 101zM-19 -275q58 56 158 263q-89 -80 -148.5 -152t-67.5 -117q-5 -27 -3 -40q25 8 60 45zM209 209l6 2q-8 10 -6 22q5 23 -5 31q-4 3 -13 3
q-23 0 -61 -17q-33 -16 -54 -38.5t-26.5 -37.5t-7.5 -29q-2 -26 7 -38q19 5 64 34.5t90 64.5q3 1 6 3z" />
    <glyph glyph-name="h" unicode="h" horiz-adv-x="482" 
d="M545.5 246q4.5 -10 1 -20.5t-13.5 -14.5q-8 -3 -22.5 -11.5t-54.5 -39.5t-76 -70q-42 -45 -82 -38q-17 3 -31.5 14t-26.5 30.5t-19 34t-19 40.5q-11 26 -16 36q-10 20 -20 21q-9 1 -22.5 -7t-47 -45t-76.5 -101q-29 -44 -44 -63q-20 -27 -35 -27q-7 0 -14 4q-10 6 -13 13
t2.5 23t12 30t25.5 47q250 493 289 590q36 87 76 92q23 3 36 -15q7 -9 5.5 -19.5t-10.5 -17.5q-12 -9 -26 -3q-14 -15 -32 -57q-32 -78 -211 -434q49 45 88 43q40 -3 64 -50q6 -12 18 -39q36 -84 56 -88q12 -2 34 22q40 43 83.5 76.5t60 42.5t26.5 13.5t20 1t14.5 -13.5z
" />
    <glyph glyph-name="i" unicode="i" horiz-adv-x="252" 
d="M330 244.5q4 -10.5 -0.5 -20.5t-14.5 -14q-37 -14 -106 -75q-26 -23 -40 -34.5t-37.5 -27t-45 -22.5t-44.5 -7q-16 0 -32 4q-24 6 -33 29q-10 26 11 81t46 95.5t53 81.5q6 9 17 10.5t20 -4.5t11 -17t-5 -20q-45 -64 -75.5 -125t-28.5 -81q18 -3 36 1t38.5 17.5t34 24.5
t39.5 34q12 11 19 16.5t19 15.5t20.5 16t19.5 13.5t22 13t21 9.5q11 4 21 0t14 -14.5zM147 396q-10 6 -12.5 16.5t3.5 20.5l23 39q6 10 16.5 12.5t20 -3t12 -16t-2.5 -20.5l-24 -40q-8 -12 -23 -12q-7 0 -13 3z" />
    <glyph glyph-name="i" unicode="&#xef;" horiz-adv-x="252" 
d="M330 244.5q4 -10.5 -0.5 -20.5t-14.5 -14q-37 -14 -106 -75q-26 -23 -40 -34.5t-37.5 -27t-45 -22.5t-44.5 -7q-16 0 -32 4q-24 6 -33 29q-10 26 11 81t46 95.5t53 81.5q6 9 17 10.5t20 -4.5t11 -17t-5 -20q-45 -64 -75.5 -125t-28.5 -81q18 -3 36 1t38.5 17.5t34 24.5
t39.5 34q12 11 19 16.5t19 15.5t20.5 16t19.5 13.5t22 13t21 9.5q11 4 21 0t14 -14.5zM147 396q-10 6 -12.5 16.5t3.5 20.5l23 39q6 10 16.5 12.5t20 -3t12 -16t-2.5 -20.5l-24 -40q-8 -12 -23 -12q-7 0 -13 3z" />
    <glyph glyph-name="i" unicode="&#xee;" horiz-adv-x="252" 
d="M330 244.5q4 -10.5 -0.5 -20.5t-14.5 -14q-37 -14 -106 -75q-26 -23 -40 -34.5t-37.5 -27t-45 -22.5t-44.5 -7q-16 0 -32 4q-24 6 -33 29q-10 26 11 81t46 95.5t53 81.5q6 9 17 10.5t20 -4.5t11 -17t-5 -20q-45 -64 -75.5 -125t-28.5 -81q18 -3 36 1t38.5 17.5t34 24.5
t39.5 34q12 11 19 16.5t19 15.5t20.5 16t19.5 13.5t22 13t21 9.5q11 4 21 0t14 -14.5zM147 396q-10 6 -12.5 16.5t3.5 20.5l23 39q6 10 16.5 12.5t20 -3t12 -16t-2.5 -20.5l-24 -40q-8 -12 -23 -12q-7 0 -13 3z" />
    <glyph glyph-name="i" unicode="&#xed;" horiz-adv-x="252" 
d="M330 244.5q4 -10.5 -0.5 -20.5t-14.5 -14q-37 -14 -106 -75q-26 -23 -40 -34.5t-37.5 -27t-45 -22.5t-44.5 -7q-16 0 -32 4q-24 6 -33 29q-10 26 11 81t46 95.5t53 81.5q6 9 17 10.5t20 -4.5t11 -17t-5 -20q-45 -64 -75.5 -125t-28.5 -81q18 -3 36 1t38.5 17.5t34 24.5
t39.5 34q12 11 19 16.5t19 15.5t20.5 16t19.5 13.5t22 13t21 9.5q11 4 21 0t14 -14.5zM147 396q-10 6 -12.5 16.5t3.5 20.5l23 39q6 10 16.5 12.5t20 -3t12 -16t-2.5 -20.5l-24 -40q-8 -12 -23 -12q-7 0 -13 3z" />
    <glyph glyph-name="i" unicode="&#xec;" horiz-adv-x="252" 
d="M330 244.5q4 -10.5 -0.5 -20.5t-14.5 -14q-37 -14 -106 -75q-26 -23 -40 -34.5t-37.5 -27t-45 -22.5t-44.5 -7q-16 0 -32 4q-24 6 -33 29q-10 26 11 81t46 95.5t53 81.5q6 9 17 10.5t20 -4.5t11 -17t-5 -20q-45 -64 -75.5 -125t-28.5 -81q18 -3 36 1t38.5 17.5t34 24.5
t39.5 34q12 11 19 16.5t19 15.5t20.5 16t19.5 13.5t22 13t21 9.5q11 4 21 0t14 -14.5zM147 396q-10 6 -12.5 16.5t3.5 20.5l23 39q6 10 16.5 12.5t20 -3t12 -16t-2.5 -20.5l-24 -40q-8 -12 -23 -12q-7 0 -13 3z" />
    <glyph glyph-name="j" unicode="j" horiz-adv-x="195" 
d="M99 381q-10 5 -13.5 15.5t1.5 19.5l28 55q5 10 15.5 13t20.5 -2t13 -15.5t-2 -19.5l-28 -55q-7 -14 -23 -14q-7 0 -12 3zM274 241q3 -10 -3 -19.5t-16 -12.5q-22 -5 -104 -60.5t-166 -124.5q-149 -326 -187 -387q-39 -58 -75 -58q-7 0 -13 2q-26 9 -32.5 42t-2.5 85
q6 72 80.5 164t186.5 186q4 9 13 29q47 103 66.5 145t26.5 53q1 0 1 1q-4 2 -7 3q-11 2 -17 11.5t-3.5 20t11.5 16.5t20 4q35 -8 47 -35q9 -24 -8 -50q-7 -11 -59 -126q70 52 128.5 88.5t80.5 41.5q5 2 10 1t9.5 -3.5t8 -6.5t4.5 -10zM-246 -334q31 49 133 271
q-153 -146 -159 -233q-4 -46 1 -67q13 11 25 29z" />
    <glyph glyph-name="k" unicode="k" horiz-adv-x="383" 
d="M460.5 246q4.5 -10 0.5 -20.5t-14 -14.5q-25 -11 -76 -53q-20 -16 -31 -24.5t-31.5 -22.5t-37 -20.5t-38.5 -13t-45 -5.5t-48 8q-2 0 -4 1q-37 18 -56 44q-26 -39 -48 -70q-36 -49 -50.5 -65t-26.5 -16q-7 0 -16 5q-11 8 -11.5 21t5.5 25.5t21 38.5q271 635 284 678
q10 35 37 45q25 9 48 -7q9 -7 11 -17.5t-4 -19.5t-16.5 -11t-19.5 4h-1q-2 -3 -4 -9q-10 -34 -185 -446q26 34 68 71q51 58 113 84q9 4 19 1t14.5 -12.5t2 -19.5t-11.5 -15q-51 -33 -99 -75q-34 -38 -96 -136v-2q2 -27 42 -47q18 -5 35 -5t33.5 5t29 10t29.5 17t26.5 19.5
t27.5 22.5q57 46 88 60q10 4 20.5 0.5t15 -13.5z" />
    <glyph glyph-name="l" unicode="l" horiz-adv-x="315" 
d="M343 261q11 2 20 -4.5t10.5 -17.5t-5 -20t-17.5 -10q-17 -3 -38 -15t-34.5 -23t-38.5 -34q-26 -22 -41 -34t-40 -28.5t-50 -24t-52 -7.5q-10 0 -20 1q-25 3 -36 26q-6 11 -8 23t8 58.5t37 112.5t90.5 193.5t158.5 294.5q7 11 8 14q13 24 36 29q24 5 44 -11l-33 -41
q1 0 2 1q-1 -1 -2 -3q-2 -3 -9 -15q-114 -201 -184 -346t-89 -205t-13 -79q21 -2 41 3.5t42 19.5t35.5 25t39.5 33q28 25 44 38t43 27.5t51 18.5z" />
    <glyph glyph-name="m" unicode="m" horiz-adv-x="585" 
d="M650 242.5q3 -10.5 -2.5 -20t-15.5 -13.5q-29 -8 -96 -43q-35 -18 -53 -26.5t-43 -15.5t-42 -5q-23 2 -35 17q-16 20 -11 73q3 25 2 34q-8 -7 -30 -34q-45 -57 -77 -77q-29 -20 -51 -3q-37 28 3 169q-45 -54 -147 -210q-26 -41 -40.5 -57.5t-29.5 -16.5q-6 0 -13 4
q-12 7 -14.5 20.5t1.5 27.5t14 38q70 151 98 219q-16 -1 -24 14q-5 9 -2 19.5t12 16.5q43 23 66 5q18 -15 9 -44q-5 -17 -40 -95q65 93 95 120.5t53 18.5q29 -11 22 -62q0 -2 -1 -4q-25 -79 -28 -127q20 16 53 57q11 14 17.5 21.5t18.5 18.5t21 14.5t21.5 2.5t23.5 -10
q18 -14 21.5 -40t-1.5 -46q-3 -25 -1 -32q22 -2 107 42q72 37 106 47q10 3 20 -2t13 -15.5z" />
    <glyph glyph-name="n" unicode="n" horiz-adv-x="451" 
d="M499 261q10 2 19 -4t12 -17v-6t-1 -6t-2 -5.5t-3 -4.5t-4.5 -4t-5 -3t-5.5 -2q-15 -3 -60 -44q-22 -20 -35.5 -31.5t-37.5 -27t-47 -23.5q-39 -14 -65 3q-13 8 -20.5 24.5t-9.5 29t-4 35.5q-3 38 -8 50q-4 10 -9 11q-38 6 -187 -165q-14 -17 -22 -25t-20 -16.5t-22 -8.5
q-8 0 -16 5q-25 17 3 74q1 1 1 2q105 181 124 221q-9 2 -15.5 9.5t-6.5 16.5q0 11 8 19t19 8q30 0 45 -22q13 -21 0 -50q-10 -21 -63 -116q104 110 161 100q34 -6 49 -43q8 -20 12 -65q4 -46 10 -50q4 -2 19 3q38 13 101 71q20 18 30 26.5t26 18t30 12.5z" />
    <glyph glyph-name="n" unicode="&#xf1;" horiz-adv-x="451" 
d="M499 261q10 2 19 -4t12 -17v-6t-1 -6t-2 -5.5t-3 -4.5t-4.5 -4t-5 -3t-5.5 -2q-15 -3 -60 -44q-22 -20 -35.5 -31.5t-37.5 -27t-47 -23.5q-39 -14 -65 3q-13 8 -20.5 24.5t-9.5 29t-4 35.5q-3 38 -8 50q-4 10 -9 11q-38 6 -187 -165q-14 -17 -22 -25t-20 -16.5t-22 -8.5
q-8 0 -16 5q-25 17 3 74q1 1 1 2q105 181 124 221q-9 2 -15.5 9.5t-6.5 16.5q0 11 8 19t19 8q30 0 45 -22q13 -21 0 -50q-10 -21 -63 -116q104 110 161 100q34 -6 49 -43q8 -20 12 -65q4 -46 10 -50q4 -2 19 3q38 13 101 71q20 18 30 26.5t26 18t30 12.5z" />
    <glyph glyph-name="o" unicode="o" horiz-adv-x="376" 
d="M406 261q11 1 19.5 -5.5t10 -17.5t-5 -19.5t-17.5 -9.5q-35 -5 -118 -50q-84 -46 -121 -50q-13 -2 -24 -1l-18 -16q-13 -12 -37 -23.5t-48 -11.5q-11 0 -21 3q-36 10 -48 53q-20 68 48 142q0 9 2 18q10 47 38 80.5t63 39.5q58 9 95 -57q40 -73 -20 -164q21 9 66 34
q92 50 136 55zM41 111q18 -6 49 15q-17 10 -30 24q-14 15 -22 33q-17 -31 -10 -56q5 -14 13 -16zM131 165q79 88 46 145q-19 34 -40 31q-18 -3 -35 -26q17 2 26 -12q5 -9 3 -20t-11 -17q-21 -13 -42 -33q3 -27 21 -47q13 -14 32 -21z" />
    <glyph glyph-name="o" unicode="&#xf8;" horiz-adv-x="376" 
d="M406 261q11 1 19.5 -5.5t10 -17.5t-5 -19.5t-17.5 -9.5q-35 -5 -118 -50q-84 -46 -121 -50q-13 -2 -24 -1l-18 -16q-13 -12 -37 -23.5t-48 -11.5q-11 0 -21 3q-36 10 -48 53q-20 68 48 142q0 9 2 18q10 47 38 80.5t63 39.5q58 9 95 -57q40 -73 -20 -164q21 9 66 34
q92 50 136 55zM41 111q18 -6 49 15q-17 10 -30 24q-14 15 -22 33q-17 -31 -10 -56q5 -14 13 -16zM131 165q79 88 46 145q-19 34 -40 31q-18 -3 -35 -26q17 2 26 -12q5 -9 3 -20t-11 -17q-21 -13 -42 -33q3 -27 21 -47q13 -14 32 -21z" />
    <glyph glyph-name="o" unicode="&#xf6;" horiz-adv-x="376" 
d="M406 261q11 1 19.5 -5.5t10 -17.5t-5 -19.5t-17.5 -9.5q-35 -5 -118 -50q-84 -46 -121 -50q-13 -2 -24 -1l-18 -16q-13 -12 -37 -23.5t-48 -11.5q-11 0 -21 3q-36 10 -48 53q-20 68 48 142q0 9 2 18q10 47 38 80.5t63 39.5q58 9 95 -57q40 -73 -20 -164q21 9 66 34
q92 50 136 55zM41 111q18 -6 49 15q-17 10 -30 24q-14 15 -22 33q-17 -31 -10 -56q5 -14 13 -16zM131 165q79 88 46 145q-19 34 -40 31q-18 -3 -35 -26q17 2 26 -12q5 -9 3 -20t-11 -17q-21 -13 -42 -33q3 -27 21 -47q13 -14 32 -21z" />
    <glyph glyph-name="o" unicode="&#xf5;" horiz-adv-x="376" 
d="M406 261q11 1 19.5 -5.5t10 -17.5t-5 -19.5t-17.5 -9.5q-35 -5 -118 -50q-84 -46 -121 -50q-13 -2 -24 -1l-18 -16q-13 -12 -37 -23.5t-48 -11.5q-11 0 -21 3q-36 10 -48 53q-20 68 48 142q0 9 2 18q10 47 38 80.5t63 39.5q58 9 95 -57q40 -73 -20 -164q21 9 66 34
q92 50 136 55zM41 111q18 -6 49 15q-17 10 -30 24q-14 15 -22 33q-17 -31 -10 -56q5 -14 13 -16zM131 165q79 88 46 145q-19 34 -40 31q-18 -3 -35 -26q17 2 26 -12q5 -9 3 -20t-11 -17q-21 -13 -42 -33q3 -27 21 -47q13 -14 32 -21z" />
    <glyph glyph-name="o" unicode="&#xf4;" horiz-adv-x="376" 
d="M406 261q11 1 19.5 -5.5t10 -17.5t-5 -19.5t-17.5 -9.5q-35 -5 -118 -50q-84 -46 -121 -50q-13 -2 -24 -1l-18 -16q-13 -12 -37 -23.5t-48 -11.5q-11 0 -21 3q-36 10 -48 53q-20 68 48 142q0 9 2 18q10 47 38 80.5t63 39.5q58 9 95 -57q40 -73 -20 -164q21 9 66 34
q92 50 136 55zM41 111q18 -6 49 15q-17 10 -30 24q-14 15 -22 33q-17 -31 -10 -56q5 -14 13 -16zM131 165q79 88 46 145q-19 34 -40 31q-18 -3 -35 -26q17 2 26 -12q5 -9 3 -20t-11 -17q-21 -13 -42 -33q3 -27 21 -47q13 -14 32 -21z" />
    <glyph glyph-name="o" unicode="&#xf3;" horiz-adv-x="376" 
d="M406 261q11 1 19.5 -5.5t10 -17.5t-5 -19.5t-17.5 -9.5q-35 -5 -118 -50q-84 -46 -121 -50q-13 -2 -24 -1l-18 -16q-13 -12 -37 -23.5t-48 -11.5q-11 0 -21 3q-36 10 -48 53q-20 68 48 142q0 9 2 18q10 47 38 80.5t63 39.5q58 9 95 -57q40 -73 -20 -164q21 9 66 34
q92 50 136 55zM41 111q18 -6 49 15q-17 10 -30 24q-14 15 -22 33q-17 -31 -10 -56q5 -14 13 -16zM131 165q79 88 46 145q-19 34 -40 31q-18 -3 -35 -26q17 2 26 -12q5 -9 3 -20t-11 -17q-21 -13 -42 -33q3 -27 21 -47q13 -14 32 -21z" />
    <glyph glyph-name="o" unicode="&#xf2;" horiz-adv-x="376" 
d="M406 261q11 1 19.5 -5.5t10 -17.5t-5 -19.5t-17.5 -9.5q-35 -5 -118 -50q-84 -46 -121 -50q-13 -2 -24 -1l-18 -16q-13 -12 -37 -23.5t-48 -11.5q-11 0 -21 3q-36 10 -48 53q-20 68 48 142q0 9 2 18q10 47 38 80.5t63 39.5q58 9 95 -57q40 -73 -20 -164q21 9 66 34
q92 50 136 55zM41 111q18 -6 49 15q-17 10 -30 24q-14 15 -22 33q-17 -31 -10 -56q5 -14 13 -16zM131 165q79 88 46 145q-19 34 -40 31q-18 -3 -35 -26q17 2 26 -12q5 -9 3 -20t-11 -17q-21 -13 -42 -33q3 -27 21 -47q13 -14 32 -21z" />
    <glyph glyph-name="p" unicode="p" horiz-adv-x="311" 
d="M306 344q13 -35 -14 -97t-75 -116t-90 -72q-66 -30 -93 -2q-10 12 -10 29q-19 -32 -38 -68l-142 -307q-7 -16 -24 -16q-6 0 -11 2q-10 5 -14 15t0 20q67 165 148 317l160 345q4 9 14.5 13t20.5 -0.5t13.5 -15t-0.5 -20.5l-23 -48q42 41 78 52q47 14 70 1.5t30 -32.5z
M105 107q36 15 75 62t61 93t16 64q-3 8 -35 -2q-64 -19 -162 -177q2 1 3 1q7 0 13 -4q10 -5 13 -15.5t-3 -20.5q-2 -5 -5 -9q13 3 24 8z" />
    <glyph glyph-name="q" unicode="q" horiz-adv-x="304" 
d="M255 286q17 -8 17.5 -29t-18.5 -86l-1 -1q-34 -89 -71 -178.5t-91 -203t-78 -130.5q-7 -5 -16 -5q-13 0 -21 11q-7 9 -5 20t11 17q20 16 82.5 154.5t130.5 310.5q-20 -18 -41.5 -27.5t-36.5 -11t-29.5 1t-20 5t-8.5 4.5l-1 1q-43 27 -43 71q-1 25 14 53.5t38.5 51
t37.5 34t24 18.5q1 1 2 1q91 55 126 24q33 -30 1 -100q-2 -3 -4 -5zM196 249q15 23 25 31q-9 6 -12.5 15.5t1.5 19.5q9 20 10 36q-20 -3 -61 -28q-31 -21 -61.5 -54.5t-30.5 -58.5q1 -14 19 -27q3 -1 7.5 -2t16 0t23.5 6.5t29.5 21.5t33.5 40z" />
    <glyph glyph-name="r" unicode="r" horiz-adv-x="299" 
d="M283 359q32 -36 -4 -119q-5 -10 -15 -14t-20 0.5t-14 14.5t0 20q23 52 14 63q-2 1 -8.5 1t-10.5 -1h-2q-34 -8 -73 -41t-71.5 -77.5t-56 -82.5t-39.5 -69q-7 -15 -23 -15q-6 0 -11 3q-10 4 -14 14t1 20q27 62 112 253q-4 2 -6 6q-6 9 -4 19.5t11 16.5q31 21 51 4
q19 -17 4 -50q-3 -6 -10 -22q61 60 117 72q47 13 72 -16z" />
    <glyph glyph-name="s" unicode="s" horiz-adv-x="288" 
d="M335 261q11 0 18.5 -7.5t7.5 -18.5t-7.5 -19t-18.5 -8q-14 0 -28 -3.5t-24.5 -7.5t-31.5 -14q-46 -22 -80 -34q3 -13 2 -25q-3 -36 -36 -62q-83 -63 -171 -63q-22 0 -40 4q-25 6 -26 32q-1 32 59.5 77t137.5 69q-13 18 -41 47q-21 22 -25 30q-18 36 0 72q29 57 134 74
q55 9 72 -23q25 -43 -48 -128q-7 -8 -18 -9t-19.5 6t-9 18t6.5 19q34 40 41 66q-7 0 -17 -1q-78 -13 -95 -46q-6 -12 0 -24q1 -2 16 -17q40 -42 56 -67q34 11 79 33q23 11 35.5 16t31.5 9.5t39 4.5zM120 128v5q-90 -27 -150 -81q68 1 135 52q14 11 15 24z" />
    <glyph glyph-name="s" unicode="&#xdf;" horiz-adv-x="288" 
d="M335 261q11 0 18.5 -7.5t7.5 -18.5t-7.5 -19t-18.5 -8q-14 0 -28 -3.5t-24.5 -7.5t-31.5 -14q-46 -22 -80 -34q3 -13 2 -25q-3 -36 -36 -62q-83 -63 -171 -63q-22 0 -40 4q-25 6 -26 32q-1 32 59.5 77t137.5 69q-13 18 -41 47q-21 22 -25 30q-18 36 0 72q29 57 134 74
q55 9 72 -23q25 -43 -48 -128q-7 -8 -18 -9t-19.5 6t-9 18t6.5 19q34 40 41 66q-7 0 -17 -1q-78 -13 -95 -46q-6 -12 0 -24q1 -2 16 -17q40 -42 56 -67q34 11 79 33q23 11 35.5 16t31.5 9.5t39 4.5zM120 128v5q-90 -27 -150 -81q68 1 135 52q14 11 15 24z" />
    <glyph glyph-name="t" unicode="t" horiz-adv-x="211" 
d="M576 601.5q4 -10.5 -1 -20t-15 -13.5q-173 -63 -299 -86q-21 -4 -51 -7l-298 -587q15 2 25 -11q6 -9 4 -19.5t-11 -17.5q-29 -20 -48 -20q-12 0 -22 7q-25 20 -5 66q0 1 1 2l292 575q-33 -2 -66 -2q2 -7 1.5 -13.5t-5 -12t-10.5 -7.5q-5 -3 -11 -3q-17 0 -24 16
q-5 11 -12 22q-42 4 -57.5 11.5t-19.5 19.5q-10 25 17 40q23 14 49 6q19 -6 37 -25q62 -3 129 2l105 207q5 10 15.5 13t20.5 -2t13.5 -15t-1.5 -20l-89 -175q1 0 5 1t7 1q121 23 290 84q10 3 20 -1.5t14 -15z" />
    <glyph glyph-name="u" unicode="u" horiz-adv-x="426" 
d="M496.5 246q4.5 -10 0.5 -20.5t-14 -14.5q-30 -14 -78 -65q-20 -20 -31.5 -30.5t-31.5 -24.5t-42 -19t-47 -2q-41 4 -58 37q-10 18 -9 46q-105 -114 -177 -114h-3q-21 1 -32.5 10t-16.5 20q-9 20 1.5 54t35.5 72.5t45.5 66.5t43.5 55q7 8 18 9t19.5 -6t9.5 -18t-6 -19
q-50 -59 -85 -115.5t-34 -75.5h3q41 -2 107.5 64.5t118.5 140.5q6 9 16 11.5t19 -3t12 -16t-2 -19.5q-20 -36 -33 -79t-4 -60q3 -7 16 -9q30 -3 52 11t56 50q55 57 95 76q10 4 20.5 0.5t15 -13.5z" />
    <glyph glyph-name="u" unicode="&#xfc;" horiz-adv-x="426" 
d="M496.5 246q4.5 -10 0.5 -20.5t-14 -14.5q-30 -14 -78 -65q-20 -20 -31.5 -30.5t-31.5 -24.5t-42 -19t-47 -2q-41 4 -58 37q-10 18 -9 46q-105 -114 -177 -114h-3q-21 1 -32.5 10t-16.5 20q-9 20 1.5 54t35.5 72.5t45.5 66.5t43.5 55q7 8 18 9t19.5 -6t9.5 -18t-6 -19
q-50 -59 -85 -115.5t-34 -75.5h3q41 -2 107.5 64.5t118.5 140.5q6 9 16 11.5t19 -3t12 -16t-2 -19.5q-20 -36 -33 -79t-4 -60q3 -7 16 -9q30 -3 52 11t56 50q55 57 95 76q10 4 20.5 0.5t15 -13.5z" />
    <glyph glyph-name="u" unicode="&#xfb;" horiz-adv-x="426" 
d="M496.5 246q4.5 -10 0.5 -20.5t-14 -14.5q-30 -14 -78 -65q-20 -20 -31.5 -30.5t-31.5 -24.5t-42 -19t-47 -2q-41 4 -58 37q-10 18 -9 46q-105 -114 -177 -114h-3q-21 1 -32.5 10t-16.5 20q-9 20 1.5 54t35.5 72.5t45.5 66.5t43.5 55q7 8 18 9t19.5 -6t9.5 -18t-6 -19
q-50 -59 -85 -115.5t-34 -75.5h3q41 -2 107.5 64.5t118.5 140.5q6 9 16 11.5t19 -3t12 -16t-2 -19.5q-20 -36 -33 -79t-4 -60q3 -7 16 -9q30 -3 52 11t56 50q55 57 95 76q10 4 20.5 0.5t15 -13.5z" />
    <glyph glyph-name="u" unicode="&#xfa;" horiz-adv-x="426" 
d="M496.5 246q4.5 -10 0.5 -20.5t-14 -14.5q-30 -14 -78 -65q-20 -20 -31.5 -30.5t-31.5 -24.5t-42 -19t-47 -2q-41 4 -58 37q-10 18 -9 46q-105 -114 -177 -114h-3q-21 1 -32.5 10t-16.5 20q-9 20 1.5 54t35.5 72.5t45.5 66.5t43.5 55q7 8 18 9t19.5 -6t9.5 -18t-6 -19
q-50 -59 -85 -115.5t-34 -75.5h3q41 -2 107.5 64.5t118.5 140.5q6 9 16 11.5t19 -3t12 -16t-2 -19.5q-20 -36 -33 -79t-4 -60q3 -7 16 -9q30 -3 52 11t56 50q55 57 95 76q10 4 20.5 0.5t15 -13.5z" />
    <glyph glyph-name="u" unicode="&#xf9;" horiz-adv-x="426" 
d="M496.5 246q4.5 -10 0.5 -20.5t-14 -14.5q-30 -14 -78 -65q-20 -20 -31.5 -30.5t-31.5 -24.5t-42 -19t-47 -2q-41 4 -58 37q-10 18 -9 46q-105 -114 -177 -114h-3q-21 1 -32.5 10t-16.5 20q-9 20 1.5 54t35.5 72.5t45.5 66.5t43.5 55q7 8 18 9t19.5 -6t9.5 -18t-6 -19
q-50 -59 -85 -115.5t-34 -75.5h3q41 -2 107.5 64.5t118.5 140.5q6 9 16 11.5t19 -3t12 -16t-2 -19.5q-20 -36 -33 -79t-4 -60q3 -7 16 -9q30 -3 52 11t56 50q55 57 95 76q10 4 20.5 0.5t15 -13.5z" />
    <glyph glyph-name="v" unicode="v" horiz-adv-x="377" 
d="M412 261q11 2 20 -4.5t10.5 -17t-4.5 -19.5t-17 -11q-25 -5 -83 -28q-69 -28 -94 -25q-17 2 -31 8q-97 -107 -167 -137q-16 -7 -29 -7q-20 0 -32 13q-45 49 81 288q6 10 16.5 13t20 -2t12.5 -15.5t-2 -19.5q-23 -45 -43 -90t-32 -80t-13 -52q60 26 151 127q-2 5 -3 11
q-4 20 4 43t26 43t42 33q45 25 65 3q20 -20 -3 -56l-1 -1q-24 -33 -54 -69q13 0 66 21q63 25 94 31z" />
    <glyph glyph-name="w" unicode="w" horiz-adv-x="552" 
d="M601 261q10 2 19 -4.5t11 -17.5t-4.5 -20t-17.5 -10q-71 -12 -136 -36q-27 -10 -41 -13q-26 -6 -46 -1q-30 -41 -66.5 -73.5t-69.5 -44.5q-32 -13 -50 1q-13 10 -15.5 29t0.5 39q4 45 0 71q-29 -21 -98 -117q-8 -10 -11 -14q-21 -28 -49 -30h-4q-25 0 -43 18
q-20 21 -9 65.5t57 124.5q42 71 83 129q6 9 17 11t20 -4.5t11 -17t-5 -19.5q-57 -82 -97 -157t-38 -96q3 -1 4 -1q4 0 10 8q3 4 11 14q58 81 94 115t64 28q27 -6 33 -39q7 -36 3 -94q-1 -8 -1 -12q25 11 54.5 38.5t53.5 60.5q-10 22 -4 52q1 4 3.5 12t9 26.5t14 32.5
t20 24.5t25.5 9.5q31 -3 32 -49q0 -39 -26 -88h1q11 2 35 11q69 26 146 38z" />
    <glyph glyph-name="x" unicode="x" horiz-adv-x="402" 
d="M455 261q5 0 9 -1t7 -3.5t5.5 -6t4 -7.5t1.5 -8q0 -11 -8 -19t-19 -8q-15 0 -81 -61q-36 -33 -57.5 -51t-59.5 -42t-73 -33q-14 -4 -27 -4q-28 0 -51 18q-34 26 -51 89q-85 -85 -169 -175q-8 -9 -20 -9q-10 0 -18 8q-8 7 -8 18t7 19q107 113 195 202q-7 56 -6 131v8
q-1 26 12 39.5t28 15.5q7 1 13.5 -1.5t11 -8t5.5 -12.5q1 -10 -3.5 -18t-13.5 -11v-3v-9q-1 -45 2 -83q142 138 177 146q11 2 20 -4t12 -16q1 -7 -1 -14t-7 -11.5t-12 -6.5q-28 -10 -181 -161q13 -71 39 -91q13 -10 32 -5q22 6 44.5 17.5t46.5 30.5t38.5 31.5t38.5 34.5
l33 30t28 22.5t30 17.5t26 5z" />
    <glyph glyph-name="y" unicode="y" horiz-adv-x="421" 
d="M485 245q4 -10 0 -20t-14 -15q-141 -58 -256 -148q-36 -102 -71 -188q-43 -106 -78.5 -177t-62 -103.5t-44 -44t-33.5 -11.5h-1q-14 0 -25.5 6t-19.5 18t-11 28q-11 53 21.5 139.5t97.5 174.5q76 104 182 190q19 52 34 100q-30 -36 -55 -68q-24 -32 -52 -45t-47 -11
t-32 10q-3 2 -5 5q-20 22 -20.5 53.5t10 60t30.5 60t32.5 48t24.5 30.5q8 8 19 9t19 -6.5t8.5 -18.5t-6.5 -19q-40 -46 -67.5 -100t-13.5 -78q27 -8 58 34q50 65 105 126q27 33 52 20t11 -63q-8 -26 -30 -92q95 64 206 110q10 4 20 0t14 -14zM95 -105q19 45 38 96
q-93 -90 -147.5 -185t-64.5 -166q-6 -42 3 -49q3 0 7.5 2t19.5 19t33 46t48 91t63 146z" />
    <glyph glyph-name="y" unicode="&#xff;" horiz-adv-x="421" 
d="M485 245q4 -10 0 -20t-14 -15q-141 -58 -256 -148q-36 -102 -71 -188q-43 -106 -78.5 -177t-62 -103.5t-44 -44t-33.5 -11.5h-1q-14 0 -25.5 6t-19.5 18t-11 28q-11 53 21.5 139.5t97.5 174.5q76 104 182 190q19 52 34 100q-30 -36 -55 -68q-24 -32 -52 -45t-47 -11
t-32 10q-3 2 -5 5q-20 22 -20.5 53.5t10 60t30.5 60t32.5 48t24.5 30.5q8 8 19 9t19 -6.5t8.5 -18.5t-6.5 -19q-40 -46 -67.5 -100t-13.5 -78q27 -8 58 34q50 65 105 126q27 33 52 20t11 -63q-8 -26 -30 -92q95 64 206 110q10 4 20 0t14 -14zM95 -105q19 45 38 96
q-93 -90 -147.5 -185t-64.5 -166q-6 -42 3 -49q3 0 7.5 2t19.5 19t33 46t48 91t63 146z" />
    <glyph glyph-name="y" unicode="&#xfd;" horiz-adv-x="421" 
d="M485 245q4 -10 0 -20t-14 -15q-141 -58 -256 -148q-36 -102 -71 -188q-43 -106 -78.5 -177t-62 -103.5t-44 -44t-33.5 -11.5h-1q-14 0 -25.5 6t-19.5 18t-11 28q-11 53 21.5 139.5t97.5 174.5q76 104 182 190q19 52 34 100q-30 -36 -55 -68q-24 -32 -52 -45t-47 -11
t-32 10q-3 2 -5 5q-20 22 -20.5 53.5t10 60t30.5 60t32.5 48t24.5 30.5q8 8 19 9t19 -6.5t8.5 -18.5t-6.5 -19q-40 -46 -67.5 -100t-13.5 -78q27 -8 58 34q50 65 105 126q27 33 52 20t11 -63q-8 -26 -30 -92q95 64 206 110q10 4 20 0t14 -14zM95 -105q19 45 38 96
q-93 -90 -147.5 -185t-64.5 -166q-6 -42 3 -49q3 0 7.5 2t19.5 19t33 46t48 91t63 146z" />
    <glyph glyph-name="z" unicode="z" horiz-adv-x="423" 
d="M458 261q7 1 13.5 -1.5t11 -8t5.5 -12.5t-1 -13.5t-7.5 -11t-12.5 -5.5q-65 -11 -239 -127q-12 -31 -27.5 -62t-36.5 -66t-46.5 -64.5t-54.5 -54t-64 -38.5t-71 -14q-17 0 -28.5 4.5t-16.5 11.5t-7 12.5t-3 10.5q-5 69 246 249q32 24 66 46q6 18 11 35q1 5 1 13
q-6 5 -29.5 2.5t-44.5 -9.5q-2 0 -4 -1q-23 -8 -34 9.5t3 32.5q3 3 12 7l2 1q11 5 33.5 37t29.5 55q-17 0 -40.5 -11.5t-40.5 -34.5q-29 -39 -19 -50q-15 -18 -36 -8.5t-16 32.5q6 27 29 58q29 39 75 57t76 5q32 -13 27 -46q-5 -32 -37 -81q25 -1 40 -9q29 -16 28 -51
q145 90 207 101zM-69 -165q61 2 116 55.5t97 133.5q-88 -63 -143 -113.5t-70 -75.5z" />
    <glyph glyph-name="braceleft" unicode="{" horiz-adv-x="633" 
d="M523 922q8 -7 9.5 -18t-5.5 -19.5t-18 -9.5t-19 5q-13 10 -25 6q-22 -6 -40 -52q-7 -17 -23 -61q-54 -145 -81.5 -198t-53.5 -59q-23 -5 -34 -10q7 -9 22 -21q10 -5 15 -15q4 -7 6 -13t-0.5 -27t-12.5 -49t-35.5 -80.5t-63.5 -120.5q-17 -39 -10.5 -71.5t18.5 -51
t24 -24.5q10 -6 13 -16.5t-2 -19.5q-8 -14 -24 -14q-6 0 -12 3q-26 14 -45.5 45.5t-25 76t14.5 94.5q1 2 2 3q105 185 107 237q-53 43 -45.5 76.5t74.5 48.5q23 19 100 225q15 41 23 61q27 72 75 84q40 11 72 -15z" />
    <glyph glyph-name="verticalbar" unicode="|" horiz-adv-x="472" 
d="M352.5 953.5q10.5 -2.5 16 -12t3.5 -20.5q-79 -304 -149.5 -593.5t-69.5 -319.5q1 -11 -6 -19t-18 -10h-3q-10 0 -17.5 7t-8.5 17q-6 57 220 932q3 10 12.5 15.5t20 3z" />
    <glyph glyph-name="braceright" unicode="}" horiz-adv-x="663" 
d="M404 574q-1 -2 -3 -5q-3 -3 -2 -5q2 -9 35 -16q46 -10 49 -37q1 -5 0.5 -9.5t-3 -8.5t-4.5 -7.5t-7 -7t-8.5 -6t-10.5 -6t-11 -6t-12 -6.5q-40 -19 -48 -28q-20 -29 -103 -311q-1 -3 -2 -5q-3 -4 -7 -10t-17 -20t-28.5 -25.5t-40 -22.5t-51.5 -15h-4q-6 0 -11.5 3t-9.5 8
t-5 12q-1 11 5.5 19.5t17.5 10.5q28 4 53 19t34.5 25t15.5 20q89 298 113 326q15 17 64 42q-44 14 -54 44q-10 27 9 54q77 155 140 247q16 24 12 30q-3 5 -20.5 8t-35.5 1q-7 0 -13.5 3t-10.5 8.5t-5 12.5q-1 11 6 19.5t18 9.5q5 2 19.5 1t30 -3t32 -10.5t24.5 -22.5
q21 -35 -13 -87q-27 -40 -62.5 -103t-53 -96t-22.5 -44z" />
    <glyph glyph-name="asciitilde" unicode="~" horiz-adv-x="504" 
d="M404 553q1 -10 0 -23t-11 -37t-29 -36q-17 -10 -39 -10q-34 0 -80 26q-59 35 -81 23q-11 -6 -11 -19q-1 -11 -9 -18.5t-19 -6.5t-18.5 9t-6.5 19q3 43 39 62q48 26 133 -23q47 -28 64 -17q9 6 12.5 21.5t3 26.5t6.5 19t18 9t19 -6.5t9 -18.5z" />
    <glyph glyph-name="nonbreakingspace" unicode="&#xa0;" horiz-adv-x="316" 
 />
    <glyph glyph-name="softhyphen" unicode="&#xad;" 
 />
    <glyph glyph-name="divide" unicode="&#xf7;" horiz-adv-x="507" 
d="M264 520q-18 5 -25.5 25.5t0.5 44.5q4 16 14 27.5t22 15.5t24 1q19 -6 26.5 -26t-0.5 -45q-6 -20 -20 -32.5t-30 -12.5q-5 0 -11 2zM242 358q19 -5 26.5 -25.5t-0.5 -44.5q-6 -20 -19 -32q-14 -13 -30 -13q-6 0 -11 2q-19 5 -26.5 25t0.5 45q6 19 19 32q19 18 41 11z
M380 466q11 0 19 -8t8 -19t-8 -18.5t-19 -7.5h-254q-11 0 -18.5 7.5t-7.5 18.5t7.5 19t18.5 8h254z" />
    <glyph glyph-name="Euro" unicode="&#x20ac;" horiz-adv-x="1014" 
d="M410 766q-78 -48 -93 -178q246 22 313 -13q8 -4 11 -13t-1.5 -17t-13.5 -11t-17 1q-56 30 -295 8q-1 -33 1 -62q2 -38 7 -79q165 3 244 -7q9 -1 15 -8.5t4 -16.5q0 -6 -3.5 -10.5t-8 -7t-10.5 -2.5h-3q-74 10 -232 7q24 -146 80.5 -245t136.5 -135q144 -64 331 86
q8 6 17 5t15 -8.5t5 -17t-8 -14.5q-143 -115 -271 -115q-57 0 -107 23q-92 41 -155.5 150.5t-88.5 269.5q-63 -1 -159 -6q-10 0 -16.5 6t-7 15.5t5.5 16.5t15 7q72 4 155 6q-5 42 -7 77q-1 31 -1 61q-1 -1 -3 -1q-92 -8 -118 -8t-37 7q-8 5 -9.5 14t3.5 17q5 7 13 9t16 -2
q14 -3 128 8q1 0 3 0.5t4 0.5h3q16 159 115 221q43 26 100 32.5t108.5 -1t109 -25.5t94 -34t70.5 -33v329q0 9 6.5 15.5t16 6.5t16 -6.5t6.5 -15.5v-367q0 -13 -11.5 -19.5t-22.5 0t-35 19t-85 37t-117 39t-122 13t-110 -28.5z" />
  </font>
</defs>
</svg>
