<?xml version="1.0" standalone="no"?>
<!DOCTYPE svg PUBLIC "-//W3C//DTD SVG 1.1//EN" "http://www.w3.org/Graphics/SVG/1.1/DTD/svg11.dtd" >
<svg xmlns="http://www.w3.org/2000/svg" xmlns:xlink="http://www.w3.org/1999/xlink" version="1.1">
<metadata>
Created by FontForge 20201107 at Sat Apr 13 07:08:04 2024
 By 
Copyright by Ibra Creative Studio. All rights reserved.

</metadata>
<defs>
<font id="NgatiyemSignature-Regular" horiz-adv-x="0" >
  <font-face 
    font-family="Ngatiyem Signature"
    font-weight="400"
    font-stretch="normal"
    units-per-em="2048"
    panose-1="0 0 0 0 0 0 0 0 0 0"
    ascent="1638"
    descent="-410"
    x-height="279"
    cap-height="1128"
    bbox="-840.211 -781.633 1973.11 1638"
    underline-thickness="102"
    underline-position="-255"
    unicode-range="U+0020-2212"
  />
<missing-glyph horiz-adv-x="1024" 
d="M840 1638v-2048h-650v2048h650zM342 -268h340v67h-209l143 97h66v67h-340v-67h143l-143 -97v-67zM342 10h340v232h-340v-232zM342 365h340v231h-205v-115h70v47h67v-96h-204v164h-68v-231zM342 641h340v205h-68v-135h-272v-70zM342 758h205v143h135v68h-340v-68h135v-76
h-135v-67zM342 1024h340v70h-135v143h-205v-213zM342 1290h340v68h-135v76h135v67h-338v-67h133v-76h-135v-68zM410 78v96h204v-96h-204zM410 1094v73h67v-73h-67z" />
    <glyph glyph-name="f_i" unicode="fi" horiz-adv-x="677" 
d="M289 424q7 20 20.5 62.5t20.5 62.5q54 161 98 276q29 85 49 117q15 25 33 37q12 -12 16 -18q12 -27 6 -62q-14 -79 -40 -139q-65 -160 -175 -311q-3 -3 -10 -13.5t-12 -15.5zM-39 178q0 -2 -1 -9t0 -11t5 -8q49 -9 94 14l72 37q13 6 19 0q-9 -27 -15 -39l-67 -191
q-8 -23 -33 -135q-2 -12 -2 -39q1 -14 7 -19.5t19 -6.5q65 -6 117 32q33 21 64 64q89 116 147 237q16 31 27 64q2 0 13.5 2t14.5 2.5t13 2t14.5 2.5t13.5 3.5t14.5 5t13.5 5.5t14.5 7t13.5 9q-11 -28 -13 -33q-8 -23 -28 -63q-9 -20 -9 -58q3 -25 27 -28q20 -2 62 -2
q23 0 45 18q12 10 26 27l82 92q13 18 6 39q-53 14 -84 -31l-63 -74q-21 -21 -35 -26q1 4 2 10.5t2 9.5q3 8 23 53q17 33 47 121q9 30 0 43q-43 12 -86 -22q-4 -4 -86 -60q-21 -13 -35 -8q-9 26 -20.5 33.5t-39.5 7.5q-3 0 -10 0.5t-13 0.5t-11 -1q-26 -4 -39 -8
q-19 -7 -19 -37q0 -15 19 -23q22 -5 55 -18l-8 -20q-67 -150 -166 -269q-8 -9 -53 -49q-5 -2 -19 -6q9 60 27 113l111 315q4 15 22 33q44 37 90 96q96 122 184 309q21 40 43 109q27 79 19 147q0 21 -6 39q-19 44 -62 41h-26q-44 0 -64 -33q-28 -47 -39 -67l-30 -78
q-42 -117 -72 -209q-10 -28 -29.5 -85.5t-29.5 -86.5q-3 -12 -19.5 -63t-23.5 -78q-9 -28 -33 -43q-91 -59 -162 -90q-16 -8 -37 -17zM596 422q0 -15 2 -23q14 -6 43 -2q10 0 16 6q11 13 39 17q61 18 84 24q-2 12 -2 33q-36 3 -59 -2l-88 -24q-2 -1 -6 -2.5t-7.5 -2.5
t-7.5 -2q-14 -6 -14 -22z" />
    <glyph glyph-name=".notdef" horiz-adv-x="1024" 
d="M840 1638v-2048h-650v2048h650zM342 -268h340v67h-209l143 97h66v67h-340v-67h143l-143 -97v-67zM342 10h340v232h-340v-232zM342 365h340v231h-205v-115h70v47h67v-96h-204v164h-68v-231zM342 641h340v205h-68v-135h-272v-70zM342 758h205v143h135v68h-340v-68h135v-76
h-135v-67zM342 1024h340v70h-135v143h-205v-213zM342 1290h340v68h-135v76h135v67h-338v-67h133v-76h-135v-68zM410 78v96h204v-96h-204zM410 1094v73h67v-73h-67z" />
    <glyph glyph-name=".null" 
 />
    <glyph glyph-name="nonmarkingreturn" horiz-adv-x="682" 
 />
    <glyph glyph-name="space" unicode=" " horiz-adv-x="409" 
 />
    <glyph glyph-name="space" unicode="&#xa0;" horiz-adv-x="409" 
 />
    <glyph glyph-name="exclam" unicode="!" horiz-adv-x="305" 
d="M391 860q-35 -102 -47 -135q-47 -127 -166 -371l-86 -188q-11 -29 -4 -47q25 -6 53 0q10 15 11 18q14 31 41.5 93.5t42.5 93.5q14 31 43.5 91.5t44.5 90.5q64 140 108 274q5 13 14 54q4 18 -6 26h-49zM23 -72q22 -4 28.5 -4t28.5 4q20 49 24 78q0 7 -4 27q-37 4 -55 -4
q-1 -8 -13.5 -43.5t-8.5 -57.5z" />
    <glyph glyph-name="quotedbl" unicode="&#x22;" horiz-adv-x="227" 
d="M119 760h-41q-14 0 -21 -17q-5 -17 -16 -48t-16 -48q-7 -21 0 -33q23 -4 29.5 -4t25.5 6q4 4 4 5q2 5 17 44.5t24 59.5q8 19 -6 35zM117 604q38 -4 53 2q40 82 37 129q-17 6 -26 6t-31 -6l-31 -88q-10 -24 -2 -43z" />
    <glyph glyph-name="numbersign" unicode="#" horiz-adv-x="643" 
d="M350 190q-4 -7 -10 -16.5t-8 -13.5q-13 -26 -39 -29q-7 0 -21.5 -2.5t-19.5 -3.5q3 5 6.5 13.5t5.5 11.5q12 29 43 32q3 0 43 8zM23 119q41 -7 73 6q45 18 72 25q6 2 18 2q-9 -27 -24 -48q-5 -2 -15.5 -5t-15.5 -5q-24 -7 -61 -22q-4 0 -7 -6v-27q9 -1 28.5 -2t29.5 -2
l-6 -15q-8 -15 -24.5 -44t-24.5 -44q-17 -28 -7 -51q8 -2 23 -2q34 -3 45 27l14 24q10 20 32 59.5t32 59.5q12 18 16 19q36 16 60 12q-8 -19 -29 -49q-15 -18 -4 -41q5 0 16.5 -1t16.5 -1q23 0 34 20q6 13 21.5 36.5t21.5 35.5q14 26 43 29q14 3 43 8t43 8q47 9 60 18v31
q-43 3 -70 -4q-35 -14 -67 -14q2 9 10 23t10 18q12 18 33 24q42 14 72 29q18 7 21 16.5t-5 34.5h-53l14 29q50 86 74 133q7 12 17.5 35t12.5 26q10 24 2 43q-37 4 -53 -2q-3 -4 -6.5 -12t-5.5 -10q-49 -107 -158 -279q-4 -13 -14 -16q-7 -4 -21.5 -8t-15.5 -4q-5 -1 -33 -5
l15 29q17 33 30 64q13 23 2 45q-42 0 -53 -7q-26 -50 -53 -100q-7 -16 -29 -51q-9 -2 -27.5 -7t-27.5 -7h-4q-76 -19 -121 -37q-18 -8 -20.5 -13t0.5 -28z" />
    <glyph glyph-name="dollar" unicode="$" horiz-adv-x="360" 
d="M141 305l-16 14q8 21 12.5 27t24.5 19q0 -25 -21 -60zM25 166q7 -18 22 -27q3 -2 35 -16l-19 -68q-4 -27 3 -41h51q9 17 16.5 50.5t13.5 48.5h37q42 0 62 2q60 6 86 59q8 16 8 64q-3 35 -35 41q-8 2 -24.5 5t-24.5 5q-4 1 -20 3t-25 7q3 7 13.5 37.5t19.5 46.5
q49 -22 86 -12q10 20 0 30q-3 6 -21 15q-12 4 -16 4q-6 2 -18.5 5t-18.5 5q4 50 18 68q15 17 2 43q-41 4 -59 -4q-8 -17 -16.5 -53.5t-16.5 -53.5l-41 -12q-41 -13 -63 -45q-24 -27 -21 -72q3 -17 17 -22q11 -8 28 -15q15 -5 21 -8q-4 -11 -13 -35t-14 -37q-23 15 -31 16.5
t-40 -3.5q-13 -16 -2 -31zM162 158q10 45 33 92q18 0 21.5 0.5t19.5 -3.5l20 -5q6 -3 12 -9q12 -9 6 -28q-12 -29 -36.5 -43t-55.5 -8q-3 1 -9.5 2t-10.5 2z" />
    <glyph glyph-name="percent" unicode="%" horiz-adv-x="395" 
d="M25 20h41q13 0 22 15q16 23 59 82q81 110 215 286q0 2 5 7q15 21 2 43h-54q-172 -234 -260 -351q-18 -27 -26 -41q-15 -18 -4 -41zM145 406q3 -24 27 -27q31 0 45 2q19 0 33 18q10 17 10 43q-4 22 -22 25q-5 1 -16 2t-17 2v-2h-25q-20 -1 -27 -8t-8 -27v-28zM188 94
q-4 -23 5 -39h57q29 3 29 33t-19 47q-19 0 -27 -2q-24 0 -33 -7.5t-12 -31.5z" />
    <glyph glyph-name="ampersand" unicode="&#x26;" horiz-adv-x="346" 
d="M227 621q15 -11 15 -37q-4 -24 -9 -39q-10 -37 -47 -105l-8 -6q-9 40 0 96q7 37 19 58q11 26 30 33zM25 190q13 -9 39.5 -10t35.5 -4q3 -15 3 -51t8 -55q28 -6 53 0q6 15 2 36q0 7 -0.5 19.5t-0.5 20t1 18.5t4 20q85 11 156 88v27q-56 13 -86 -23q-8 -10 -31 -24
q-17 -14 -39 -16q-4 62 20 92q43 56 82 139q15 35 29 84q9 37 0 78q-6 22 -16.5 30.5t-32.5 8.5h-31q-61 0 -86 -60q-17 -35 -20 -76q-1 -19 -2 -58t-2 -58v-74q0 -17 -13 -33q-40 -46 -61 -67q-24 -28 -12 -52z" />
    <glyph glyph-name="quotesingle" unicode="'" horiz-adv-x="163" 
d="M147 711l-38 -86q-10 -23 -5 -43q37 -4 56 2q32 66 41 88q10 20 0 39h-54z" />
    <glyph glyph-name="parenleft" unicode="(" horiz-adv-x="342" 
d="M322 711q-53 14 -91 -21q-33 -26 -61 -57q-35 -35 -64 -88q-103 -180 -81 -395q3 -52 22 -91q37 -4 55 4q5 18 -4 48q-19 65 -16 127q12 171 102 309q51 82 127 129q6 3 11 8v27z" />
    <glyph glyph-name="parenright" unicode=")" horiz-adv-x="282" 
d="M150 676q-9 -18 6 -41q35 -51 41 -119q6 -51 -13 -141q-38 -136 -133 -269q-8 -8 -20 -24q-15 -18 -6 -39q10 -2 28 -2q26 -3 43 20q45 58 78 119q68 126 84 242q10 103 -10 176q-13 42 -33 70q-12 12 -16 12q-34 4 -49 -4z" />
    <glyph glyph-name="asterisk" unicode="*" horiz-adv-x="243" 
d="M74 539q-9 -6 -22 -15t-17 -12q-15 -9 -15 -25q0 -18 17 -18q18 -3 33 0q3 1 30 14q9 -3 15.5 -8t14.5 -14t9 -10q38 -4 54 2q9 37 -19 57l-12 12q9 7 30.5 8t30.5 9q-1 4 -2 12t-2 12q-6 4 -20 4.5t-19 5.5q1 10 7.5 28t7 26.5t-4.5 27.5q-33 7 -53 -4l-24 -67
q-5 0 -14 1t-13 1q-16 2 -49 2q-17 0 -17 -17q0 -7 3 -16z" />
    <glyph glyph-name="plus" unicode="+" horiz-adv-x="292" 
d="M272 362q-15 4 -42.5 4t-39.5 3q0 23 11 49q9 17 0 37h-43q-18 -4 -21 -19q-1 -3 -2 -10t-2 -10q-2 -6 -5 -19.5t-6.5 -24.5t-8.5 -20l-45 -6q-39 -5 -48 -10v-27q6 -7 37 -4t37 2q-1 -4 -2 -11.5t-2 -10.5l-18 -45q-6 -18 0 -37q37 -4 55 0q17 47 45 112q18 4 53 10
t41 7q1 0 2.5 1.5t3.5 2.5v26z" />
    <glyph glyph-name="comma" unicode="," horiz-adv-x="118" 
d="M78 29q2 10 9.5 29t9 28.5t-2.5 30.5q-5 0 -13.5 1t-12.5 1q-11 0 -27 -4q-16 -39 -19 -51.5t-2 -34.5q18 -7 58 0z" />
    <glyph glyph-name="hyphen" unicode="-" horiz-adv-x="249" 
d="M229 227q-46 4 -62 4.5t-60.5 -2.5t-59.5 -4q-23 -5 -27 -10v-25q18 -8 54 -4q74 8 112 4q19 0 37 3q2 0 6 4v30z" />
    <glyph glyph-name="period" unicode="." horiz-adv-x="155" 
d="M61 88h54q12 2 16 7t4 18q0 2 -1 5t-1 5q-57 14 -72 -4v-31z" />
    <glyph glyph-name="slash" unicode="/" horiz-adv-x="839" 
d="M23 66q50 -9 81 22q41 40 486 463l213 203q22 22 12 47q-57 8 -76 -23l-663 -633q-7 -6 -21.5 -19.5t-21.5 -19.5q-17 -18 -10 -40z" />
    <glyph glyph-name="zero" unicode="0" horiz-adv-x="249" 
d="M178 410q29 -12 37 -27q15 -37 10 -64q0 -8 -4 -20l-65 -158q-10 -28 -41 -59q-21 -21 -35 -23q-19 11 -19 31q-3 80 21 141q11 26 33.5 73.5t31.5 68.5q6 13 17 18q3 2 7 9t7 10zM0 66q3 -49 53 -52q98 -9 148 74q1 3 4 8t4 8q49 96 74 181q15 50 -2 114q-9 23 -31 39
q-30 15 -82 19q-56 3 -96 -54q-14 -20 -11 -36q5 -17 -6 -35l-18 -39q-43 -90 -37 -180v-47z" />
    <glyph glyph-name="one" unicode="1" horiz-adv-x="260" 
d="M186 350q-3 -12 -7.5 -23.5t-10.5 -24.5t-8 -19l-31 -66q-19 -38 -29 -63q-20 -46 -28 -66q-16 -46 -29 -61l-37 -7q-2 0 -6 -4v-26q7 -1 43 -5t50 -5t40 -1t47 3q9 20 0 32q-7 2 -29 3t-32 8q1 4 4.5 15t5.5 17q24 59 51 117l62 135q32 81 55 140q5 16 2 38q-8 2 -23 2
q-30 3 -49 -16q-6 -6 -14 -13t-18 -15t-15 -13q-71 -67 -108 -84q-1 0 -1.5 -1l-1.5 -3t-3 -4q0 -2 1 -12t1 -15q51 -7 79 15q8 7 39 22z" />
    <glyph glyph-name="two" unicode="2" horiz-adv-x="352" 
d="M113 61l37 27q63 47 131 115q23 23 77 90q38 44 35 108q0 30 -9 42t-36 18q-69 15 -139 -4q-23 -8 -31 -21q-39 -54 -18 -117q32 -3 57 5v32q0 22 14 43q7 15 22 22.5t30 4.5q37 -6 45 -19.5t-4 -44.5q-4 -11 -33 -55q-67 -87 -180 -174q-18 -13 -95 -67q-22 -19 -12 -39
l8 -4q88 -9 170 -15q1 0 86 -6q27 0 39 8q2 19 -6 35q-61 0 -92 2q-9 1 -29 2.5t-36 4t-31 7.5z" />
    <glyph glyph-name="three" unicode="3" horiz-adv-x="325" 
d="M180 326q10 12 6 32q-4 8 0 17q12 36 43 51q8 4 15 4q17 0 34.5 -14t20.5 -31q11 -44 -16 -68q-17 -16 -41 -34q-50 -41 -109 -47q-8 0 -14 -3q-1 -1 -6.5 -5.5t-6.5 -6.5q-3 -11 2 -17.5t17 -6.5q23 -2 70 -2q50 -3 86 -45q13 -13 10 -31q-8 -38 -36.5 -61t-64.5 -19
q-96 11 -137 57q-9 -1 -16.5 0t-17 -0.5t-15.5 -5.5q-13 -38 27 -57l16 -6q98 -45 213 -23q60 12 84 68q10 25 10 61q0 45 -37 72q-4 3 -13 8t-13 8l-17 10q40 32 56 48q17 13 26 32q15 48 6 99q-7 30 -30 43q-32 20 -58 20q-41 0 -61 -2q-42 -4 -72.5 -43t-25.5 -82
q3 -20 22 -20h43z" />
    <glyph glyph-name="four" unicode="4" horiz-adv-x="358" 
d="M115 250l41 49q34 36 77 109q17 27 7 49h-52q-6 -12 -12 -21q-40 -62 -49 -74q-25 -31 -37 -45t-35 -36.5t-45 -36.5q-15 -10 -8 -39q22 -2 64 2q27 2 79 2q16 0 48 -4q13 0 16 -8q-1 -1 -1.5 -3t-1 -5t-1.5 -5l-49 -121q-11 -29 -4 -49q38 -4 55 2q34 99 72 172
q78 160 110 211q15 30 6 50q-25 6 -53 0l-18 -31q-13 -25 -38.5 -74.5t-39.5 -73.5l-15 -24q-30 0 -116 4z" />
    <glyph glyph-name="five" unicode="5" horiz-adv-x="299" 
d="M-37 113h-47q-15 0 -18 -17q0 -20 8 -30l18 -19q22 -28 62 -31q39 -4 112 0q25 2 68 17q63 24 101 89t24 140q-9 42 -45 53q-46 17 -84 17q-17 -4 -25 6l39 57h43q31 2 92 2q18 0 29 11q0 12 -2 20l-4 8q-18 2 -66.5 -1.5t-68.5 1.5l-13 19h-28q-15 0 -23 -2
q-20 -30 -24 -35q-6 -9 -18 -28.5t-19 -31t-18.5 -26.5t-22.5 -27q-17 -17 -8 -39q26 -6 36.5 -5t30.5 13q49 28 105 2q31 -11 34 -47q0 -18 -2 -28q-21 -81 -94 -123q-42 -25 -86 -25q-54 -3 -80 45q-2 2 -4 8t-2 7z" />
    <glyph glyph-name="six" unicode="6" horiz-adv-x="323" 
d="M72 104q6 16 28 29q46 25 150 45q18 3 45 -24q-2 -2 -9 -11t-12 -12q-40 -38 -96 -63q-26 -12 -52.5 -6t-45.5 28q-2 2 -8 14zM2 109q3 -57 55 -78q24 -10 45 -13q66 0 80 2q93 16 168 101q20 25 12.5 51t-36.5 37q-20 8 -33 8q-75 0 -100 -6q-43 -12 -87 -21
q-3 -1 -10.5 -2t-11.5 -2q8 20 10 23q64 113 170 188q22 16 49 19q1 0 9 4q0 2 1 6t1 6q0 3 -1 8.5t-1 8.5q-75 12 -129 -31q-83 -65 -144 -158q-14 -21 -33 -59q-19 -47 -14 -92z" />
    <glyph glyph-name="seven" unicode="7" horiz-adv-x="284" 
d="M57 14q11 18 31.5 53t32.5 52q60 94 139 211q24 39 57 80q13 19 7 41q-16 8 -39 4q-16 -3 -32 -3.5t-39 0.5t-32 1q-27 2 -80 2q-12 0 -26 -1t-31 -2.5t-27 -2.5q-18 0 -18 -21q0 -3 1 -10.5t1 -11.5q6 0 18 -1t20 -0.5t15 3.5q20 8 60 8q32 0 98 -4q13 0 16 -6l-4 -11
q-26 -40 -96 -145q-30 -45 -74 -113q-24 -37 -45 -78q-14 -24 -6 -45h53z" />
    <glyph glyph-name="eight" unicode="8" horiz-adv-x="286" 
d="M227 393q14 -11 18 -16t11 -25q-12 -23 -47 -43q-14 -7 -23 2q-10 10 -4 21q14 44 45 61zM0 111q0 -33 29 -52q39 -24 71 -26q97 -6 168 45q40 31 51 55.5t7 75.5q-3 34 -29 51q-2 1 -27 16l31 29q16 20 18 33q0 37 -6 57q-15 38 -53 41q-65 4 -98 -8q-28 -41 -33 -55
q-5 -11 -18 -72l-7 -4q-77 -38 -100 -131q-4 -18 -4 -55zM63 143l5 11q13 50 57 90q14 10 25 16q29 8 43 -6q3 -3 12 -8.5t12 -7.5q13 -6 27 -17q19 -13 21.5 -32.5t-11.5 -36.5q-12 -19 -31 -31q-32 -28 -71 -43q-25 -11 -43 4q-15 7 -33 22q-16 13 -13 39z" />
    <glyph glyph-name="nine" unicode="9" horiz-adv-x="266" 
d="M209 406q25 -15 33 -19q-17 -37 -64 -88q-12 -8 -18 -10q-14 -8 -29 -2q-45 22 -14 61q40 47 92 58zM0 82q5 -26 14.5 -37.5t34.5 -17.5q59 -12 117 0q38 7 49 39q19 43 25 67q12 37 32 111l31 108q7 28 2 49q-5 1 -10.5 3.5t-7.5 3.5q-8 26 -17 33.5t-37 7.5h-32
q-76 -6 -133 -60q-22 -22 -25 -51v-37q0 -35 33 -49q9 -4 35 -8q12 0 36.5 1t38.5 1q1 0 5.5 1t7 0t4.5 -5q-5 -18 -14.5 -53t-14.5 -52q-6 -26 -18 -43q-5 -12 -21 -24q-19 -12 -41 -4t-28 30q-6 14 -9 31q-40 4 -55 -2q-2 -7 -2 -43z" />
    <glyph glyph-name="colon" unicode=":" horiz-adv-x="122" 
d="M27 225q-11 -23 0 -37q37 -4 53 2q8 23 -2 35h-51zM45 326q-10 -20 2 -35q29 0 45 2q2 0 10 4q0 5 -1 15t-1 16q-46 0 -55 -2z" />
    <glyph glyph-name="semicolon" unicode=";" horiz-adv-x="178" 
d="M74 219q-9 -18 -27.5 -50t-21.5 -38q-10 -16 0 -35h32q20 -3 33 17l35 67q6 18 0 41q-43 0 -51 -2zM94 311q0 -16 8 -22q35 -4 54 4q0 3 1 9t1 9t-4 15q-15 4 -45 0q-11 0 -15 -15z" />
    <glyph glyph-name="less" unicode="&#x3c;" horiz-adv-x="249" 
d="M225 584q-6 2 -16 2q-35 5 -62 -25q-26 -33 -69 -67q-21 -16 -55 -39q-8 -30 14 -52l110 -100q8 -8 19 -8q37 -4 55 2v27q-59 48 -83.5 71t-33.5 41q82 74 123 113q7 17 -2 35z" />
    <glyph glyph-name="equal" unicode="=" horiz-adv-x="286" 
d="M25 246q7 -2 45 -2q108 11 174 16q2 2 6 2q8 8 10 14q2 4 -2 19q-2 0 -9.5 1.5t-10.5 0.5q-26 0 -84 -4q-26 -4 -82 -8q-6 -1 -19.5 -2t-19.5 -2q-2 0 -5.5 -3t-4.5 -4q0 -3 -1.5 -9t-1.5 -9zM49 381q0 -7 4 -23q5 0 14.5 -1t17 -1t13.5 2q54 12 129 9q30 0 39 6v30
q-50 4 -143 0q-3 0 -57 -6q-17 -3 -17 -16z" />
    <glyph glyph-name="greater" unicode="&#x3e;" horiz-adv-x="233" 
d="M78 274q23 21 133 132q7 20 -14 45q-5 6 -44 51.5t-57 72.5q-4 0 -13 0.5t-14.5 0.5t-13.5 -1t-14 -4q-8 -28 10 -49q12 -15 35.5 -42.5t34.5 -41.5l16 -24q-15 -10 -18 -13q-43 -45 -88 -88q-17 -20 -6 -39h53z" />
    <glyph glyph-name="question" unicode="?" horiz-adv-x="518" 
d="M145 72l19 39q48 114 125 194q17 17 45 49l74 90q46 61 73 134q21 55 15 124q-4 32 -24.5 54t-51.5 28q-64 7 -105 -8q-60 -19 -71 -76q-8 -40 -8 -59q0 -25 6 -43q0 -14 14 -14q42 0 49 2q9 14 2 32q-8 12 -8 21q0 72 49 96q35 17 60 -8q35 -35 26 -88q-11 -43 -37 -90
q-39 -70 -90 -127q-54 -64 -96 -109q-63 -70 -119 -204q-8 -25 0 -39q19 -5 53 2zM23 -115q30 -3 57 2q1 4 13.5 39t8.5 58q-8 0 -19 1t-15 1q-21 0 -31 -23l-12 -37q-7 -24 -2 -41z" />
    <glyph glyph-name="at" unicode="@" horiz-adv-x="567" 
d="M440 346q-65 -82 -125 -119q-32 -19 -47 -20q19 37 75 83t97 56zM25 23q8 -31 24.5 -46.5t48.5 -19.5q51 -6 101 6q86 19 227 88q7 21 0 33q-41 6 -78 -12q-24 -11 -98 -43q-59 -20 -92 -31q-36 -9 -60 25q-14 17 -14 43q0 34 6 61q13 74 62 156q128 210 368 331
q58 26 98 33q31 7 56 4q59 -9 53 -71q0 -9 -4 -29q-5 -11 -14.5 -35t-14.5 -35q-57 -120 -157 -231q-10 -10 -32.5 -29t-27.5 -24q-12 -6 -18 -2l18 38q3 7 16.5 36t20.5 46q14 32 4 58l-35 4q-2 2 -4 5t-3.5 5.5t-5 4.5t-7.5 3q-59 0 -82 -12q-106 -53 -176 -147l-10 -17
q-11 -19 -7 -45q3 -13 15 -16q2 0 6.5 -1t7.5 -1q74 -6 135 28q15 10 37 21q0 -6 -1 -18.5t-1 -18.5q0 -15 5.5 -21t19.5 -8q73 -10 120 27q43 29 72 65q63 68 117 162q39 61 59 125q16 51 11 96q-3 62 -64 74q-32 4 -49 4q-114 3 -225 -51q-90 -50 -142 -90
q-137 -103 -221 -248q-53 -87 -65 -186q-7 -56 0 -94z" />
    <glyph glyph-name="A" unicode="A" horiz-adv-x="849" 
d="M487 383q2 4 5 8q2 3 2 4q42 43 81 87.5t100 118.5t75 91q249 299 356 426l18 19q2 -10 -8 -29q-51 -117 -72 -162q-28 -62 -87 -186.5t-87 -186.5q-8 -22 -32 -34q-141 -62 -332 -150q-2 -1 -8 -2.5t-11 -3.5zM8 170q12 -38 51 -41q64 -3 105 14q22 11 26 11q28 0 52 24
q21 18 41 29q79 48 125 74q45 25 100 51.5t94.5 44.5t105.5 48t97 44l20 4q-2 -5 -20 -47q-86 -192 -176 -453q-39 -125 -49 -172q-8 -37 -5 -80q3 -40 46 -43q82 -12 143 46q23 20 12 45q-49 11 -76 -19q-20 -23 -47 -29q-23 17 -16 43q24 93 31 115q94 300 239 617l4 10
q6 13 17 18q12 2 26 13l131 61q17 7 19 14t-4 27q-45 6 -78 -12q-4 -3 -49 -25q-13 -6 -19 0l25 51q27 60 83.5 180t84.5 179q52 110 78 202q14 44 14 76q0 7 -4 19q-50 11 -80 -29q-299 -363 -600 -723q-102 -127 -209 -217q-108 -93 -190 -139q-32 -21 -62 -29
q-22 17 -26.5 31.5t4.5 36.5q24 56 69 98q7 7 33 20q16 9 35 4q33 -6 67 0q6 19 -2 33q-35 15 -100 11q-56 -3 -92 -39q-44 -41 -70 -101q-20 -47 -4 -96z" />
    <glyph glyph-name="B" unicode="B" horiz-adv-x="745" 
d="M266 455q-2 5 -2 10t1 8t3.5 8.5t3.5 7.5q7 20 113 318q8 24 23.5 68t21.5 63q16 45 14 68l25 6q62 0 111 -25q39 -20 57 -53q29 -47 10 -92q-22 -45 -39 -70q-35 -53 -90 -108q-94 -97 -237 -203zM-287 -322q61 -3 92 3q57 7 142 36q295 102 563 269q68 41 145 102
q61 53 88 86q41 52 48 72q15 41 17 82.5t-22 84.5t-71 70q-36 21 -86 31q-69 10 -170 -4q-1 0 -4 -1t-5 0t-4 5q12 9 21 18q106 90 156 154q37 44 61 82q37 58 31 131q-3 72 -66 117q-37 22 -78 28q-74 13 -170 0q-111 -15 -204 -67q-54 -31 -97 -74q-34 -40 -53 -78
q-12 -23 -2 -43q25 -3 53 0l6 15q24 54 82 102q76 64 179 92h14l-10 -35l-363 -1032q-16 -46 -24 -71q-9 -27 -2 -39q34 -7 55 2l12 30q26 77 81 230.5t81 230.5q13 44 45 62q6 3 27 18q31 29 92 51q66 26 129 37q96 16 170 -35q46 -36 65 -82q11 -36 0 -71q-10 -30 -45 -78
q-46 -53 -92 -88q-109 -81 -145 -103q-232 -145 -504 -247q-135 -53 -230 -60l-4 -4q-1 -3 -2 -13.5t-2 -15.5z" />
    <glyph glyph-name="C" unicode="C" horiz-adv-x="677" 
d="M743 610q15 0 21 -2q33 -3 61 25q17 18 52 54t51 54q36 39 63 101q17 40 15 69q-3 61 -62 76q-10 2 -29 2q-87 7 -151 -33q-7 -5 -51.5 -31.5t-67.5 -43.5q-243 -178 -432 -404q-169 -205 -283 -448q-33 -72 -45 -123q-14 -74 -2 -125q8 -41 38 -70t71 -33q90 -10 166 19
q41 14 121 55q144 80 348 234q2 0 6 4q10 9 11 15.5t-5 25.5q-38 7 -78 -21q-102 -74 -207 -147q-110 -72 -202 -115q-13 -5 -40.5 -14.5t-41.5 -14.5q-23 -9 -60 7q-42 16 -61 63q-15 33 -4 82q14 70 51 143q79 169 188 320q184 256 447 461q85 71 149 108q15 7 43.5 20.5
t42.5 20.5q27 14 58 -10q25 -18 14 -53q-11 -25 -20 -39q-23 -39 -56 -80q-26 -29 -106 -109q-20 -20 -13 -43z" />
    <glyph glyph-name="D" unicode="D" horiz-adv-x="632" 
d="M432 1133q-2 -8 -7.5 -21.5t-6.5 -17.5q-59 -162 -179 -485.5t-180 -485.5q-9 -27 -28.5 -79.5t-28.5 -78.5q-10 -33 -4 -43q6 -5 20 -6t21 -6q-5 -2 -11 -7.5t-8 -6.5q-9 -6 -57 -39t-65.5 -44.5t-54.5 -35.5t-67.5 -40.5t-62.5 -31.5q0 -4 1 -13t1 -14q55 -9 99 17
q35 19 86 51q290 190 506 369q162 137 260 250q112 127 176 282q64 159 55 320q-8 64 -18 96q-63 196 -256 229q-14 3 -30.5 4t-37 1t-31.5 1q-202 0 -374 -127q-51 -33 -78 -75q-24 -30 -33 -68q-7 -28 0 -47q29 -7 55 2q0 6 4 18q7 37 43 82q5 6 12 13t15 14.5t12 11.5
q139 111 295 133q98 15 185.5 -28t134.5 -131q50 -100 41 -209q-5 -47 -19 -103q-39 -167 -151 -317q-68 -93 -193 -211q-161 -150 -391 -315q-2 -1 -9 -5.5t-12 -7.5q0 8 11 41l331 901q14 36 40 107.5t40 107.5q11 30 2 50q-33 4 -53 -2z" />
    <glyph glyph-name="E" unicode="E" horiz-adv-x="733" 
d="M414 872l-226 -583q-7 -2 -19 -8t-15 -7q-148 -65 -281 -151q-9 -6 -25.5 -18.5t-19.5 -14.5q-19 -19 -10 -41l4 -4h6q39 -6 63 18q11 11 35 27q111 69 203 115q6 3 27 10q-1 -3 -2 -9.5t-2 -8.5q-10 -30 -27 -70l-148 -383q0 -1 -2.5 -9.5t-6 -12.5t-9.5 -7
q-20 -7 -12 -37q45 -7 78 9q8 4 63 26q15 4 63.5 20t75.5 23q108 32 144 41q7 12 0 31q-40 7 -97 -8q-25 -7 -93 -28.5t-105 -31.5q-6 -2 -23 -2q1 2 1.5 5t1 5t1.5 3l181 469q6 18 24 24q3 2 11.5 5t11.5 5q233 96 491 166q30 9 39 13v22q-4 4 -6 8q-33 4 -59 -4
q-35 -8 -105 -28q-161 -46 -344 -115q-17 -9 -27 -2q16 41 94.5 245.5t120.5 311.5q9 6 11 6q150 39 317 61q16 2 46 5.5t42 5.5q10 5 13 8q-1 5 -2.5 14t-2.5 13q-7 2 -43 2q-130 -14 -213 -31l-129 -25h-14q-5 19 -8 27q-5 0 -13.5 0.5t-13.5 0.5t-12.5 -1t-13.5 -4
l-19 -45l-8 -2t-8.5 -2t-7.5 -2q-92 -25 -174 -58q-38 -17 -58 -28q-21 -11 -12 -39q43 -6 76 12q54 31 172 63z" />
    <glyph glyph-name="F" unicode="F" horiz-adv-x="600" 
d="M969 995q-24 4 -66 0q-28 -4 -84.5 -13t-85.5 -13q-241 -38 -438 -97q-30 -8 -87 -27t-67 -22q-4 -4 -8 -6v-29q38 -6 70 5q106 40 221 67q3 1 9.5 2t10.5 2q-4 -17 -9.5 -34.5t-14.5 -39t-12 -30.5q-16 -50 -39 -107l-37 -102q-6 -17 -19.5 -52t-19.5 -53
q-25 -73 -39 -100l-186 -55q-84 -26 -150 -60q-17 -7 -19 -13.5t3 -29.5q39 -9 69 9q6 5 41 20q101 43 203 70q3 0 8.5 1t9.5 1q-1 -8 -12 -35q-39 -109 -188 -512l-13 -39q-4 -18 7 -27h51l117 318q24 62 67 181t49 136q17 5 105 25q38 7 102 22q86 15 103 21q7 21 -7 33
q-54 -1 -155 -21.5t-121 -23.5q-2 4 -1 10t2 8.5t3.5 8t3.5 7.5q15 40 44.5 120t43.5 120q77 212 86 242q2 2 6 2q113 28 279 53q127 20 153 23l11 6v28z" />
    <glyph glyph-name="G" unicode="G" horiz-adv-x="1087" 
d="M1030 70q-20 -2 -51 -2q-30 -5 -39 -5q-164 -4 -244 -4q-59 -2 -174 -2q-30 0 -41 -6v-26q13 -5 45 -5h240q1 0 4.5 0.5t5.5 0.5t4.5 -1.5t3.5 -5.5q-2 -2 -7 -5t-7 -5q-355 -162 -596 -250q-66 -25 -115 -35q-32 -8 -58 7t-36 47q-9 36 -4 67q7 51 37 133
q42 105 117 222q176 276 442 514q103 86 193 143q87 54 145 72q19 8 57 16q31 6 54 -17.5t16 -54.5q-4 -21 -21 -59q-26 -59 -79 -129q-93 -118 -201 -191q-21 -15 -12 -38q34 -5 47 -2.5t37 20.5q126 95 215 221q38 54 61 109q18 46 18 98q-2 35 -22 58t-57 24
q-92 7 -154 -16q-36 -14 -88 -39q-91 -46 -164 -105q-193 -145 -373 -360q-148 -179 -237 -348q-50 -91 -74 -170q-26 -87 -18 -162q0 -16 6 -31q18 -67 86 -70q74 -6 139 11q70 22 74 24q160 60 284 111q266 111 420 190q24 10 45 13q22 0 68 4q2 0 10 8q0 17 -2 31z" />
    <glyph glyph-name="H" unicode="H" horiz-adv-x="929" 
d="M322 135q-3 -9 -3 -12q-73 -160 -155 -264q-45 -52 -80 -80q-32 -26 -68 -43q-24 -9 -45 6q-6 4 -18 16q-20 24 -8 52l30 57q31 41 82 92q99 92 250 172q2 1 7 2t8 2zM-123 -215q0 -40 21.5 -65t60.5 -29q90 -10 152 35q38 24 79 69q51 54 93 121q74 118 123 248
q9 23 32 35q188 85 367 147q2 1 9.5 2.5t14.5 3.5q-11 -28 -31 -78t-28 -71q-39 -103 -139 -406q-6 -20 -10 -25.5t-21 -15.5q1 -9 0.5 -25.5t0.5 -29.5t5 -25h53q2 7 11 32t12 38q127 390 215 602q12 29 15.5 32t33.5 11l223 62q4 1 13.5 4t13.5 4v31q-29 6 -76 -5
q-24 -6 -73 -19t-74 -19l-35 -7q2 6 2 15q2 6 10 23.5t11 27.5q75 204 174 467q12 29 14 33q16 21 6 51q-39 4 -59 -6q-3 -8 -10.5 -24.5t-10.5 -24.5q-8 -22 -50.5 -137.5t-66.5 -176.5l-92 -248q-9 -23 -14 -27t-29 -12q-89 -30 -143 -51q-37 -14 -217 -86q-1 0 -4.5 -1.5
t-5.5 -2t-5 0.5t-6 5l7 17q49 181 53 196q8 29 36.5 134.5t48.5 173.5t42 133q6 12 6 24q0 4 -1 12t-1 13q-3 0 -14 0.5t-16 0t-13.5 -2.5t-14.5 -6q-51 -154 -67 -213q-17 -61 -47.5 -180t-46.5 -175q-8 -30 -27.5 -89t-21.5 -66q-7 -25 -27 -31q-18 -7 -27 -14
q-118 -59 -202 -119q-97 -71 -164 -146q-39 -50 -51 -73q-17 -39 -17 -72z" />
    <glyph glyph-name="I" unicode="I" horiz-adv-x="315" 
d="M55 -145l13 39l49 124q74 193 174 498q80 237 123 344q53 121 84 166q12 3 35 8t34 8l240 50q2 1 8.5 4t11.5 4q0 18 -2 28q-37 6 -67 -2l-238 -49q-35 -8 -104.5 -24.5t-104.5 -24.5q-39 -13 -53 -20q-17 -9 -22.5 -19.5t-2.5 -27.5q4 -29 29 -29q33 -4 49 4v37
q39 21 95 31l-9 -23q-5 -10 -14 -30.5t-14 -30.5q-43 -100 -107 -291q-8 -24 -57.5 -170t-68.5 -200t-57.5 -158.5t-72.5 -186.5q-2 -6 -7.5 -20.5t-8 -22.5t-5 -20t-1.5 -23q-5 -2 -18.5 -7.5t-20.5 -8.5q-37 -16 -111 -52q-24 -12 -43 -28q-24 -21 -8 -56h51
q9 21 13.5 26.5t21.5 14.5q110 54 121 58q125 54 344 116l35 13v30q-45 4 -68 -4q-35 -10 -104.5 -31.5t-104.5 -31.5q-11 -2 -37 -12z" />
    <glyph glyph-name="J" unicode="J" horiz-adv-x="718" 
d="M698 487q-7 -22 -10 -26q-180 -378 -526 -629q-81 -57 -148 -86q-59 -24 -73 -27q-25 -6 -42.5 7t-19.5 38q0 22 6 43q6 22 37 87q47 81 121 155q75 75 174 148q177 129 461 282q8 4 20 8zM-184 -258q6 -60 65 -66h13q82 -6 159 29q89 42 166 96q174 126 318 299
q146 179 245 410q11 27 39 43q214 100 342 143l27 13v28q-36 7 -78 -6q-141 -50 -258 -104q-2 -1 -6 -3.5t-6 -3.5t-5.5 -1t-7.5 2q1 5 4.5 14t4.5 14q12 35 35 104.5t34 104.5q39 128 94 412l19 88l35 14q4 1 27.5 10t37.5 13q19 11 17 24q0 7 -4 27h-27q-30 0 -35 -14
q-11 -3 -32 -11.5t-33 -11.5q-3 0 -13.5 -0.5t-15 -1.5t-11 -5.5t-10.5 -12.5q-2 -2 -10.5 -5.5t-11.5 -5.5q-94 -37 -154 -65q-24 -8 -65 -33q-17 -7 -19.5 -14.5t2.5 -30.5h39q13 0 19 6q19 12 43 23.5t41.5 19l45.5 19.5l42 18l16 4q0 -6 -1 -17t-1 -16q-9 -38 -20 -104
q-54 -272 -146 -520l-33 -82q-7 -18 -20 -23q-20 -10 -23 -12q-206 -104 -383 -217q-151 -94 -254 -182q-110 -92 -178 -195q-40 -62 -59 -121q-13 -41 -10 -94z" />
    <glyph glyph-name="K" unicode="K" horiz-adv-x="1179" 
d="M1090 -291q-2 1 -7 6q-5 1 -14 4.5t-14 4.5q-200 66 -375 202q-113 89 -178 205q-15 25 -38.5 71.5t-29.5 57.5q-4 8 -4 10q-7 22 14 33l31 12q184 68 328 140q161 79 268 159q142 107 227 246q16 23 72 123q22 43 125 254q7 15 10 25q4 20 -6 30q-37 5 -51 -4
q-74 -152 -100 -203q-55 -112 -88 -165q-98 -173 -267 -289q-70 -49 -119 -76q-150 -90 -399 -186q-8 0 -16 -2q1 3 4.5 16.5t5.5 19.5l141 410q15 42 43.5 127t42.5 127q12 33 2 49q-40 4 -55 -4q-223 -653 -266 -778q-282 -105 -500 -160v-31q7 0 19 -1t16 -1q13 0 33 4
q127 35 153 43q89 27 226 72q18 9 28 2l-12 -37q-21 -61 -62 -181.5t-61 -180.5q-8 -20 -8 -31q-2 -9 2 -22h53q11 22 15 34q52 152 106 312q5 19 12 20l4 -2l19 -37q74 -141 207 -250q116 -87 252 -151q79 -35 139 -53q39 -13 72 0v26z" />
    <glyph glyph-name="L" unicode="L" horiz-adv-x="987" 
d="M63 70l13 20q71 101 106 158q122 205 170 291q111 192 185 372q25 61 69 178.5t53 139.5q9 17 0 37q-41 0 -55 -6q-4 -6 -20 -50q-14 -37 -42 -110.5t-42 -110.5q-150 -364 -445 -819q-53 -81 -108 -133q-13 -13 -6 -37q43 -3 71 8q63 28 142 25q110 -9 200 -45
q82 -31 178 -99q149 -98 158 -104q87 -54 195 -100q36 -13 82 -7v31q-75 32 -105 47q-80 39 -207 123q-64 46 -104 72q-188 122 -406 119h-82z" />
    <glyph glyph-name="M" unicode="M" horiz-adv-x="1388" 
d="M553 604l-2 -2h2v2q-2 3 -1 9t2 8.5t3.5 8t3.5 7.5q15 33 44 97t44 97q27 63 37 97q18 58 12 119q-3 30 -21.5 50t-45.5 23q-106 13 -185 -28q-120 -65 -253 -170l-13 -13q-23 -20 -8 -47q19 -4 39.5 -1t30.5 22l8 8q133 107 260 172l47 18q31 9 55 -12q30 -30 25 -65
q-5 -26 -16 -70q-8 -23 -35 -84q-22 -53 -68.5 -159t-68.5 -159q-58 -133 -109 -223q-106 -187 -162 -319q-19 -47 -26 -60q-13 -23 -5 -43q7 -3 21.5 -3t17.5 -1q18 0 29 21l29 53q185 318 198 338q67 117 148 244q104 160 274 374q34 43 94 107q42 45 119 84q6 3 51 18
q47 11 60 -37q7 -13 4 -24q0 -37 -2 -53q-8 -46 -45 -140q-52 -128 -144 -272q-140 -223 -210 -328q-149 -233 -168 -260t-39 -69q-7 -10 -15 -29q-9 -20 -2 -47h56q9 14 10 16q89 148 98 166q40 69 113 160q41 48 71 88q126 171 177 246q38 54 105 153.5t89 130.5
q52 73 115 142q84 87 192 135l43 18q28 9 37 -18q4 -21 2 -33q-3 -49 -26 -104q-47 -97 -72 -136q-124 -202 -211 -327q-164 -246 -242 -373q-76 -123 -112 -172q-53 -71 -101 -170q-3 -5 -20 -45q-4 -24 -4 -37q0 -16 18 -22q3 -1 9.5 -2.5t9.5 -2.5q51 -3 98 11
q62 18 115 59q10 7 65 51q124 104 191 148q4 0 8 8q5 22 -2 29q-45 9 -80 -19q-19 -16 -59 -45.5t-60 -44.5q-40 -31 -110 -90q-43 -35 -105 -57q-17 -4 -29 -9q0 15 13 41q44 84 102 170q44 63 107 162q156 247 243 375q94 144 217 340q27 41 68 129q24 53 29 96q4 57 2 84
q-1 23 -12 33t-35 12q-73 7 -125 -16q-138 -55 -228 -158q-65 -71 -118 -147q-2 -2 -4.5 -6.5t-4.5 -8t-6 -7t-8 -5.5q-2 10 8 29q4 12 11.5 32.5t13.5 37t10 32.5q19 64 16 123q0 25 -6 49q-13 43 -53 49q-114 7 -184 -33q-78 -44 -113 -83q-52 -52 -92 -103
q-154 -197 -225 -303q-4 -7 -29 -37zM547 602h4q0 -2 -2 -4q0 2 -2 4z" />
    <glyph glyph-name="N" unicode="N" horiz-adv-x="950" 
d="M197 301q-2 -2 -2 -8q-2 2 -2 4zM-78 -154q-8 -27 2 -41h53q46 72 109 177q32 51 93 153.5t93 153.5q26 44 78 123.5t74 115.5q115 185 229 324q76 91 195 170q42 27 100 47q23 6 43 -6q60 -40 60 -113q-3 -77 -35 -159q-26 -67 -72 -150q-177 -316 -282 -487
q-96 -153 -154 -344q-11 -33 -23 -89q-7 -24 2 -40q10 -5 17 -5q35 0 53 2q58 5 125 48l111 81q8 6 20 16t17 14t13 10t12.5 9t10 7.5t11.5 8t11.5 7.5t15 9.5t17.5 10t23 13.5q4 3 13.5 8t13.5 8q4 23 0 31q-35 5 -45.5 3t-38.5 -17q-60 -36 -75.5 -47t-72.5 -56
q-66 -53 -92 -69q-6 -4 -76 -43q-8 -8 -18 0l6 24q58 209 152 357q96 155 290 501q25 44 66 131q35 73 45 183q4 55 -6 90q-15 74 -90 96q-31 9 -86 -2q-87 -20 -150 -63q-108 -73 -190 -175q-118 -143 -238 -337q-45 -74 -139 -218q-1 -1 -3.5 -6.5t-5 -8t-7.5 -1.5
q0 1 4 15.5t8 21.5q12 28 37.5 83t38.5 83q42 85 61 158q18 73 6 145q-7 33 -24 47q-12 12 -25 12q-53 4 -80 -6q-89 -35 -207 -119q-12 -9 -13 -18t5 -29h39q10 0 16 6q44 38 162 105l39 18q17 -15 22 -25t7 -30q5 -45 -10 -96q-25 -80 -68 -164q-46 -90 -84 -191
q-11 -26 -35 -79.5t-35 -79.5q-64 -136 -114 -248q-9 -18 -25 -64z" />
    <glyph glyph-name="O" unicode="O" horiz-adv-x="700" 
d="M893 911q3 -27 -19 -41q-150 -100 -262 -147q-22 -11 -53 -18q-10 -3 -16 2t-4 14q0 8 4 24q17 42 35 72q66 110 167 178q24 16 58 33q28 13 49 -8q19 -23 25 -35q16 -33 16 -74zM-39 -182q0 -49 19 -101q14 -38 59 -41q62 -3 113 23q17 9 84 51q78 52 170 141
q78 81 145 166q103 133 332 592q51 103 63 185q6 21 23 32q33 22 80 62q0 5 -1 15t-1 15q-13 0 -25 3q-26 3 -49 -17q-3 -4 -17 -8q-1 5 -2 14t-2 13q-17 57 -18 59q-23 50 -84 53q-84 6 -152 -41q-122 -83 -186 -200q-16 -27 -29 -64q-13 -38 -8 -72q3 -36 39 -36
q71 -4 111 12q36 13 67 26q73 33 160 86q9 9 16 2q-4 -16 -8 -24q-27 -65 -51 -115q-231 -455 -332 -581q-99 -127 -203 -213q-81 -68 -153 -111q-39 -22 -55 -25q-15 6 -29 33q-12 47 -12 49q-8 67 4 140q18 99 59 196q75 195 205.5 441.5t243.5 394.5l28 33q13 16 35 16
q23 0 35 2q7 26 -2 35q-14 14 -25 16q-23 5 -47 0t-41 -26q-7 -9 -31 -37t-36 -45q-168 -222 -297 -486q-26 -53 -79.5 -191t-76.5 -206q-47 -140 -39 -266z" />
    <glyph glyph-name="P" unicode="P" horiz-adv-x="616" 
d="M590 924l-307 -682q-8 -1 -21 -4.5t-18 -4.5q-35 -6 -94 -14q-7 0 -19 -6q-8 -19 2 -29q22 -4 63.5 1t61.5 3q-4 -9 -9.5 -23.5t-8.5 -19.5q-19 -42 -84 -184.5t-99 -218.5q-7 -14 -14 -35q-7 -15 4 -29q25 -6 53 3q27 59 75.5 166.5t88.5 195.5t76 166q5 1 17.5 4.5
t19.5 5.5q255 73 479 217q87 56 143 115q141 144 129 346q0 21 -8 61q-21 84 -96 132q-57 37 -152 59q-118 30 -274 16q-130 -9 -248 -65q-56 -27 -90 -56q-26 -22 -37 -40q-18 -23 -8 -62h51q12 31 24 46t38 34l18 12q124 77 266 92q142 18 283 -36q42 -14 86 -46
q61 -42 78 -110q8 -46 8 -68q0 -120 -78 -231q-54 -70 -139 -133q-203 -144 -463 -230q-6 -2 -20 -2q24 56 47 103l227 508q14 25 4 45q-28 6 -55 -2z" />
    <glyph glyph-name="Q" unicode="Q" horiz-adv-x="993" 
d="M522 1053q0 -46 2 -64q0 -52 31 -94q34 -46 88 -55q5 0 16 -2t17 -2q192 -8 301 12q4 1 15 4t18 4q0 21 2 31q-16 6 -60 2q-74 -14 -100 -15q-88 -7 -147 0q-84 11 -115 101q-9 35 2 67q14 44 39 86q106 171 305 254q22 8 49 15q29 10 68 0q68 -17 127 -70
q55 -49 71 -131q11 -63 4 -168q-23 -236 -155 -461q-121 -201 -260 -340q-32 -30 -88 -75q-1 -2 -19 -15q-6 14 -6 37q0 45 -16 98q-6 32 -39 35q-139 14 -219 -45q-6 -4 -27.5 -17.5t-32.5 -21.5q0 -20 -2 -30q3 -1 7 -3.5t5 -3.5h17q22 -2 47 15q44 35 70 47q8 5 53 20
q8 2 26 2q29 0 35 -28q23 -81 15 -150l-23 -16q-157 -83 -305 -105q-94 -12 -154 56q-74 86 -59 198q12 79 39 156q96 277 250 520q11 17 90 127q1 2 7 10t11 15zM63 141q6 -91 76 -161q45 -45 107 -48q93 -6 178 11q101 20 203 65l30 12q5 -12 0 -45q-8 -96 7 -198
q1 -7 12 -58q13 -32 45 -38q33 -10 63 2v28q-31 15 -41 28t-16 46q-3 17 -8 63q-6 71 10 211q5 8 16 15q98 63 189 164q129 137 233 319q145 254 154 528q3 74 -12 148q-17 95 -103 153q-96 68 -205 56q-13 -2 -98 -17q-11 11 -16 13q-60 4 -90 -17q-9 -8 -30.5 -24.5
t-31.5 -26.5q-17 -17 -48 -47.5t-56 -55.5t-47 -48q-113 -123 -178 -215q-108 -151 -209 -371q-69 -149 -107 -271q-36 -112 -27 -221z" />
    <glyph glyph-name="R" unicode="R" horiz-adv-x="960" 
d="M958 -96h-26q-24 3 -41 -17l-10 -10q-83 -83 -195 -131q-55 -23 -88 -27q-90 -16 -135 60q-19 34 -35 74q-32 83 -35 206q-3 156 43 320l19 76q3 1 12.5 4t15.5 4q39 11 123 32t127 33q114 34 195 80q68 40 108 80q57 57 78 137q16 71 6 160q-18 144 -129 232
q-105 83 -252 96q-112 12 -223 -6q-108 -18 -178 -52q-32 -16 -59 -34q-46 -35 -25 -99q29 -7 53 4q4 13 2 17q-2 24 25 47q35 22 51 29q150 68 299 57q139 -9 240 -86q93 -69 127 -182q26 -93 -2 -177t-105 -143q-43 -32 -80 -51q-76 -43 -172 -72q-133 -42 -377 -94
q-8 0 -14 2l12 37q13 37 83.5 237.5t107.5 307.5l12 37q7 22 0 34q-23 3 -29.5 2.5t-25.5 -6.5q-4 -11 -27 -69q-14 -38 -86 -246.5t-112 -319.5q0 -1 -2.5 -8.5t-3.5 -11t-5 -9t-10 -9.5l-182 -31q-3 0 -9 -1t-9.5 -1.5t-7.5 -3t-7 -6.5v-17l4 -8q39 -5 114 7t85 13
q-4 -21 -6 -24q-11 -34 -35 -101.5t-35 -101.5q-11 -31 -32.5 -93t-33.5 -93q-8 -29 -2 -45q37 -4 56 2q38 106 166 473q73 17 102 20v-12q-36 -111 -45 -240q-14 -175 10 -292q17 -81 47 -134q40 -76 125 -82q96 -7 168 17q145 44 262 164q17 17 8 45z" />
    <glyph glyph-name="S" unicode="S" horiz-adv-x="905" 
d="M588 770q-28 -54 -17 -131q3 -14 13 -31q16 -32 51 -35q103 -10 160 50l16 14q98 101 143 244q19 63 11 120q-9 58 -52 95q-45 39 -98 53q-106 29 -215 2q-108 -24 -197 -123q-76 -87 -122 -205q-48 -113 -29 -243q18 -141 133 -244q45 -39 98 -74q4 -3 121 -80
q50 -35 86 -63q44 -35 74 -84q24 -39 22.5 -66t-34.5 -69q-24 -30 -78 -60q-47 -25 -107 -45q-126 -41 -276 -63q-92 -13 -133 -11q-51 3 -92 23q-58 27 -80 90q-14 45 10 86q15 25 53 55q54 36 117 58q82 30 190 47l66 10v31q-35 6 -70 0q-91 -14 -151 -29
q-88 -19 -158 -55q-51 -28 -78 -55q-50 -47 -47 -113q0 -29 4 -43q12 -81 88 -117q34 -19 80 -22q81 -8 186 2q137 16 265 49q93 23 168 57q54 28 94 68q40 42 45 98.5t-21 95.5q-14 28 -45 62q-29 37 -82 71q-20 13 -59.5 39t-58.5 39q-56 38 -111 78q-50 35 -90 92
q-104 148 -57 307q47 168 172 287q63 63 145 84q47 9 61 8q90 -6 156 -63q61 -58 41 -135q-40 -156 -160 -273q-21 -18 -45 -30q-24 -16 -43 6q-18 20 -21 49t11 49q0 2 4 6q20 6 12 35q-26 9 -69 2z" />
    <glyph glyph-name="T" unicode="T" horiz-adv-x="712" 
d="M170 707q-1 15 -2 23t7 17.5t13 13.5t15 11q66 49 92 64q131 78 301 135l22 6q1 -7 -4 -33q-37 -143 -150.5 -544.5t-148.5 -538.5q-6 -22 -17 -68.5t-17 -68.5q-9 -26 2 -39q35 -4 55 4q45 173 178 651t180 659q16 6 29 9q86 24 254 47q130 17 238 14q152 -4 231 -39
q28 -11 63 4q1 20 -1 25t-17 12q-47 20 -135 31q-140 15 -334 -2q-158 -13 -295 -45l-4 -1q-4 -1 -6.5 0t-5.5 5l6 35q4 18 -8 26q-3 0 -12 0.5t-14.5 0.5t-12.5 -1.5t-13 -5.5q-4 -13 -11 -39.5t-11 -40.5l-39 -12q-170 -50 -319 -131q-89 -52 -127 -84q-12 -8 -35 -31
q-15 -18 -15 -41q0 -19 6.5 -24.5t26.5 -5.5q4 0 15 1t20 1z" />
    <glyph glyph-name="U" unicode="U" horiz-adv-x="851" 
d="M403 991q2 -1 8.5 -4.5t8.5 -5.5q68 -50 45 -127q-4 -11 -10.5 -34.5t-10.5 -35.5q-56 -152 -145 -342q-9 -18 -67 -137t-87 -182q-38 -74 -69 -180q-30 -90 8 -203q14 -41 57 -41q60 0 109 14q89 27 164 90q72 58 168 177q13 22 24 28l-6 -31q-22 -98 -39 -182
q-10 -41 2 -78q6 -32 37 -32q46 -6 90 6q101 30 178 104q20 20 9 43q-46 10 -76 -20q-47 -49 -135 -84q-5 -2 -29 -8q-16 11 -16 32q0 13 4 37q25 133 55 221q34 102 115 287q138 318 186 459l31 88q7 25 2 45q-32 3 -56 -2q-5 -8 -14 -31q-18 -50 -39 -102
q-8 -21 -44.5 -118t-59.5 -148q-88 -201 -256 -455l-23 -31q-82 -105 -164 -174q-79 -63 -172 -90q-23 -8 -36 14l-7 13q-30 88 -6 159q39 110 68 170l88 179q143 294 203 458q24 74 28 90q16 64 6 115q-14 59 -77 86q-6 4 -19 4q-49 3 -88 -10q-56 -19 -131 -72
q-40 -32 -25 -82q22 -6 29 -6t29 6l2 15q0 17 16 30q66 53 137 78z" />
    <glyph glyph-name="V" unicode="V" horiz-adv-x="602" 
d="M213 -315q16 -2 41 -2q20 0 31 14q6 8 23.5 31t25.5 36q1 2 67 125l136 258q81 150 149 291q17 38 37.5 81t46 95.5t39.5 81.5q38 77 65 144q39 90 130 268q22 43 34 72q8 15 23.5 45.5t23.5 44.5q16 22 5 43q-36 8 -58 -2q-36 -73 -53 -107q-10 -23 -33 -67
q-72 -134 -119 -244q-41 -94 -90 -193q-13 -31 -67 -141q-82 -181 -176 -358q-43 -78 -156 -295q-7 -15 -22.5 -42.5t-22.5 -41.5l-12 -12q0 24 2 34q12 142 16 209q13 158 35 289q7 40 22.5 112.5t20.5 98.5q20 98 16 149q0 31 -8 52q-10 34 -45 37q-97 7 -158 -29
q-51 -29 -88 -64q-8 -6 -22 -20q-16 -16 -6 -39h53q57 57 127 94q7 3 22 9t19 8q19 6 30 -13q15 -15 15 -37q-5 -70 -6 -75q-4 -22 -23 -107q-39 -171 -59 -385q-25 -292 -29 -344q-4 -66 -2 -104z" />
    <glyph glyph-name="W" unicode="W" horiz-adv-x="1206" 
d="M350 819q17 -10 21 -35q6 -42 -4 -86q-21 -108 -60 -206q-66 -178 -143 -338q-53 -106 -94 -244q-19 -63 8 -121q20 -50 78 -53q192 -6 301 125l12 12q17 21 100 129q2 3 8.5 8.5t8.5 7.5q-21 -164 -23 -186q-7 -55 0 -90q6 -28 20 -41t42 -16q133 -13 233 57
q50 36 70 59q92 85 153 224q36 74 68 155q67 171 139 395q29 88 88 265.5t88 265.5q26 86 45 158q8 35 -2 55q-16 -2 -51 -2q-4 -16 -4 -21q-9 -31 -26.5 -92t-26.5 -92l-191 -577q-94 -278 -161 -433q-43 -101 -91 -170q-54 -80 -118 -133q-52 -43 -119 -67q-9 -4 -35 -8
q-24 -3 -40 8.5t-19 34.5q-2 12 -2 32q12 118 20 170q5 31 43 148q13 36 55 150.5t69 191.5t50 153q6 23 20 65t19 60q9 35 0 51q-37 5 -53 -4q-1 -3 -4 -8t-4 -8q-13 -32 -55 -136t-64 -161q-75 -189 -123 -291q-69 -149 -205 -299q-75 -81 -178 -104q-41 -6 -61 20
q-37 44 -21 92q48 150 88 230q53 109 113 256q66 159 92 287q16 67 10 126q-4 32 -10 48q-7 25 -33 28q-61 4 -90 -10q-103 -49 -176 -98q-24 -15 -16 -43q45 -6 79 14q42 28 129 76q14 8 33 16z" />
    <glyph glyph-name="X" unicode="X" horiz-adv-x="1097" 
d="M1423 1022q-38 3 -48.5 -0.5t-33.5 -28.5l-8 -8q-48 -48 -135 -137t-158 -161t-135 -136q-56 -56 -252 -238q-5 -6 -12 -11.5t-16 -4.5l-13 96q-16 148 -18 225q0 54 -4 160q-2 29 -10 78q-12 69 -54 119q-18 21 -47 24h-43q-73 3 -145 -49q-20 -11 -17 -32q0 -19 17 -19
q18 -2 57 -2q0 28 33 43q4 2 13.5 6.5t13.5 5.5q23 10 35.5 7t27.5 -23q32 -38 45 -90q11 -50 14 -113q0 -29 5 -162q2 -83 22 -247q2 -15 5 -44.5t5 -43.5l-49 -43q-52 -45 -157.5 -135.5t-157.5 -135.5l-187 -160q-23 -20 -12 -41q47 -11 84 23q42 37 252 217l213 182
q1 1 4.5 4t5.5 4.5t6.5 3t8.5 -0.5q1 -3 2 -9t2 -8q18 -116 73 -315q11 -42 37 -86q30 -42 72 -47q21 -6 43 -6q98 -2 260 41q2 0 8 6v26q-27 8 -76 -4q-99 -24 -147 -28q-66 -9 -104 51q-26 47 -33 80q-50 180 -66 270q-13 69 -12 90q23 23 35 33q31 28 200 184
q264 255 541 545q18 21 10 45z" />
    <glyph glyph-name="Y" unicode="Y" horiz-adv-x="786" 
d="M369 965q2 42 47 63q5 4 14.5 7.5t11.5 4.5q20 9 37 -8q24 -21 13 -49q-2 -5 -5.5 -15.5l-6.5 -19.5t-7 -16q-22 -46 -47 -86q-21 -38 -62 -105.5t-53 -87.5q-43 -73 -65 -118q-9 -18 -21 -54q-13 -37 -6 -86q3 -42 45 -51q24 -4 39 -4q65 -3 133 16q120 34 236 125
q88 71 180 176q9 10 88 111q9 9 14 6q-1 -2 -1 -5t-1 -5q-11 -27 -46 -117.5t-56 -138.5q-93 -217 -270 -385q-262 -247 -555 -395q-15 -8 -25 -15v-22q0 -2 4 -6q47 -6 80 12q13 7 44.5 24t47.5 27q180 106 348 244q132 109 209 203q125 152 199 337q32 82 94.5 246
t93.5 246q1 4 6.5 18.5t6.5 22.5q4 26 -5 37h-24q-5 0 -14.5 -1t-14.5 -1q-11 -19 -49 -84q-105 -183 -233 -332q-96 -113 -205 -192q-98 -72 -197 -99q-27 -9 -55 -12q-31 -3 -46.5 15.5t-6.5 47.5q9 38 24 68q41 76 84 150l107 178q12 23 45 90q15 37 12 90
q-2 29 -19.5 47.5t-46.5 19.5q-33 0 -47 -2q-59 -3 -106 -41q-19 -16 -25 -36q-4 -31 4 -43h54z" />
    <glyph glyph-name="Z" unicode="Z" horiz-adv-x="1542" 
d="M725 676l31 102q38 115 155 133q5 1 16.5 2t16.5 2h84q90 -2 240 9q162 12 168 12q135 2 405 2q11 0 12 -6q0 -1 -1 -3t-1 -3q-3 -2 -26 -19q-369 -251 -633 -401q-241 -137 -365 -213q-460 -276 -761 -430q-68 -35 -132 -72q-10 -5 -22 -14q-15 -10 -14 -31.5t18 -28.5
q30 -13 55 -16q66 -12 156 -16q204 -7 362 20q40 7 140 25t153 28q284 58 533 146q85 30 166 65q45 17 82 47q30 24 18 62h-51q-2 -3 -6.5 -10t-5.5 -8.5t-4.5 -6t-5.5 -5.5t-5.5 -4t-7.5 -5.5t-10 -5.5q-59 -32 -101 -49q-130 -54 -319 -111q-152 -44 -434 -100
q-218 -38 -305 -47q-134 -12 -267 6q-11 1 -33 6t-30 6q-2 0 -14 8l32 21q29 15 88 46.5t88 47.5q302 160 515 289q397 235 456 268q301 171 518 317q43 27 244 166q11 7 37 29q12 10 13 18t-7 27h-43q-132 -4 -197 -4q-68 -2 -202 -2q-139 0 -277 -12q-115 -11 -184 -9
h-102q-77 -4 -113 -10q-110 -25 -146 -123l-47 -157q-7 -22 4 -39q21 -4 62 0q26 3 20 26q-2 7 -16 25z" />
    <glyph glyph-name="bracketleft" unicode="[" horiz-adv-x="344" 
d="M322 631q-13 4 -60 4q-37 -2 -47 -9t-22 -42q-9 -22 -26 -69t-26 -69q-22 -64 -32 -88q-32 -78 -84 -262q-5 -15 -5 -37q0 -13 17 -16q66 -4 110 6q3 3 9 6q0 4 -1 13t-1 14q-12 3 -33 1.5t-31 0.5q2 8 2 20q6 18 16.5 54t16.5 55l55 145q10 29 32 89t32 90q12 42 26 57
q7 2 26 2.5t28 7.5q0 17 -2 27z" />
    <glyph glyph-name="backslash" unicode="\" horiz-adv-x="350" 
d="M25 793q-8 -18 4 -54l233 -649q3 -11 10 -29q44 0 54 5q8 20 -4 53l-234 651q-4 14 -10 27q-40 4 -53 -4z" />
    <glyph glyph-name="bracketright" unicode="]" horiz-adv-x="446" 
d="M174 45q7 17 22.5 49t22.5 49q7 15 21 48.5t25.5 58t23.5 45.5q16 28 24 53q32 76 86 168l21 35q12 28 2 55l-4 4q-71 6 -142 -6q-2 0 -8 -6q1 -3 2 -13t2 -14q27 -2 80 -2q-2 -3 -4 -9.5t-4 -8.5q-23 -41 -29 -55l-79 -162q-33 -65 -80 -172q-7 -21 -23 -53
q-13 -22 -16 -29q-5 0 -46 1t-46 -5q-8 -19 4 -31q78 -13 145 0z" />
    <glyph glyph-name="asciicircum" unicode="^" horiz-adv-x="227" 
d="M205 408q3 6 1.5 21t-2 19t-4.5 18.5t-5 18.5t-5.5 33t-11.5 45h-22q-30 3 -52 -22q-57 -57 -69 -68q-19 -19 -10 -47q27 -6 51 0q6 5 16.5 15.5t19 18.5t17.5 13q6 -11 10 -33.5t11 -33.5q37 -4 55 2z" />
    <glyph glyph-name="underscore" unicode="_" horiz-adv-x="370" 
d="M350 59l-12 4h-37q-73 -4 -108 -2q-17 1 -48.5 5.5t-46.5 5.5q-31 3 -61 0q-14 0 -17 -15q0 -3 1.5 -9t1.5 -9q125 -18 163 -19q115 -3 164 9v30z" />
    <glyph glyph-name="grave" unicode="`" horiz-adv-x="192" 
d="M168 350q9 25 -10 51q-21 25 -62 80q-3 3 -8 10.5t-8 10.5h-43q-6 0 -14 -4q-6 -19 2 -33q6 -9 26 -37t34 -45.5t30 -32.5h53z" />
    <glyph glyph-name="a" unicode="a" horiz-adv-x="532" 
d="M424 279q-10 -10 -16 -19l-103 -80q-68 -50 -110 -78q-57 -36 -95 -47q-12 -4 -18 -4q-8 0 -13 8t-1 15q4 12 12 20q107 150 280 187l37 6q7 0 27 -8zM0 55q2 -22 10.5 -32t28.5 -13q29 -3 57 0q65 5 133 47l90 62q3 2 11.5 6.5t13.5 7.5q-2 -7 -5.5 -19.5t-4.5 -17.5
q0 -5 -0.5 -14t-0.5 -17t1 -14q0 -12 8 -20t20 -8q68 -7 109 16q79 47 150 102q12 9 13 15.5t-5 25.5q-33 3 -43.5 0.5t-36.5 -22.5l-109 -74q-10 -7 -43 -25v23q5 15 17 35q39 79 82 133q17 24 6 49q-9 0 -15 2q-14 0 -18 8q-5 17 -29 17q-42 2 -108 -9q-200 -35 -312 -196
q-23 -33 -20 -68z" />
    <glyph glyph-name="b" unicode="b" horiz-adv-x="430" 
d="M346 238q-10 -2 -25.5 -7t-23.5 -7t-23 -4t-24 3q-6 7 4 17q2 2 9 6.5t11 6.5t9.5 5t11 4t10.5 0q20 0 41 -24zM2 150q41 -7 70 8q38 19 55 22l-6 -30q0 -9 -4 -29q-4 -51 2 -76q3 -14 12.5 -23.5t22.5 -9.5q62 -8 98 11q92 45 166 129q20 19 19.5 55.5t-25.5 58.5
q-24 24 -52 35q-2 1 -8.5 2.5t-11.5 3.5q17 17 20 19q120 105 199 254q21 42 29 65q37 109 53 162q20 60 10 145q-8 47 -20 70q-9 15 -25 18q-80 7 -123 -41q-26 -34 -32 -47q-23 -38 -39 -71q-112 -239 -152 -330q-26 -56 -65 -166q-9 -22 -37 -109q-5 -16 -25 -26
q-15 -7 -53 -27t-60 -30q-17 -9 -19 -14.5t1 -28.5zM180 76q-3 26 2 47q4 39 17 59q9 0 26.5 -1t26.5 -1q21 0 53 4q1 0 55 6q-1 -6 -5 -12.5t-6.5 -9.5t-10 -10t-8.5 -8q-64 -64 -133 -95q-17 3 -17 21zM238 307l8 27q39 114 65 174q29 65 84.5 184t77.5 168q26 57 57 96
q24 28 41 33q28 -57 19 -117q0 -4 -6 -34l-56 -170q-12 -29 -34 -72q-87 -159 -228 -270q-5 -2 -28 -19z" />
    <glyph glyph-name="c" unicode="c" horiz-adv-x="442" 
d="M545 199q-37 3 -47 1t-35 -16q-45 -27 -60 -37q-89 -52 -198 -88q-25 -8 -35 -10q-51 -6 -90 23q-21 18 -10 45q3 10 10 20q51 94 180 121q7 2 25 -2q28 -14 61 -4q5 23 -1 34t-26 15h-14q-53 3 -90 -6q-72 -18 -117 -47q-75 -48 -92 -121q-24 -98 72 -113q92 -13 170 9
q141 44 297 145v31z" />
    <glyph glyph-name="d" unicode="d" horiz-adv-x="489" 
d="M258 158q-72 -68 -121 -92q-13 -9 -22 -11q-22 -8 -38 3.5t-16 35.5q0 21 15 51q30 60 114 88q4 1 8 0t9 -3t8 -3q21 -9 43 -20v-49zM0 70q3 -54 59 -60q101 -10 172 45q5 5 14.5 12t12.5 9q10 -20 12 -23q19 -39 64 -39q16 3 28 0q39 0 72 23q20 12 64 43q16 11 43.5 32
t36.5 27q6 20 0 35q-42 10 -82 -22q-21 -16 -60.5 -43.5t-52.5 -36.5q-2 -2 -25 -13q-29 13 -36 47q-7 23 10 37q65 63 155 193q145 209 207 387q26 74 39 162q5 38 -2 94q-5 28 -14 36.5t-37 8.5q-3 0 -9 -1t-9 -1q-31 0 -46 -21q-22 -29 -34 -51q-39 -68 -84 -157
q-20 -41 -60 -124t-61 -124q-50 -102 -96 -246q-2 -5 -5.5 -15.5t-5.5 -15.5q-9 1 -25 4t-22 4q-70 6 -131 -28q-101 -55 -92 -178zM334 246l6 28q48 146 86 224q26 50 71.5 144.5t65.5 135.5q37 74 78 144q7 14 25 41q13 -32 6 -62q-7 -59 -37 -151q-60 -172 -201 -377
q-27 -44 -76 -107q-14 -19 -24 -20z" />
    <glyph glyph-name="e" unicode="e" horiz-adv-x="401" 
d="M88 111q17 29 45 55t53 37q20 8 29 -4q-12 -25 -43 -45q-45 -29 -84 -43zM8 109q-15 -32 -5 -58t42 -35q12 -6 29 -6q98 -6 186 17q90 22 207 69q6 0 6 2q5 5 10 15q1 3 -0.5 10.5t-1.5 9.5q-33 7 -75 -6q-97 -37 -158 -55q-48 -17 -111 -23q-32 -6 -57 12
q-11 8 -12 14.5t6 18.5q1 1 3 1t3 1q1 -3 4 -9t4 -9q33 -7 59 2q73 28 125 80q18 21 15 55q0 15 -13 21q-2 1 -18 6t-23 6q-35 0 -73 -6q-22 -3 -47 -17q-70 -45 -105 -116z" />
    <glyph glyph-name="f" unicode="f" horiz-adv-x="276" 
d="M420 913q-6 -151 -88 -336t-174 -284v10q10 27 45.5 125.5t60 161.5t51.5 123q32 69 86 176q4 6 19 24zM-123 -434q0 -4 1 -7.5t2.5 -8l2.5 -7.5h37q26 -3 45 19q29 34 41 51q19 29 71 104.5t79 118.5q27 46 51 96q28 49 20 99q0 4 2 6q36 13 101 67q0 4 -1 13.5t-1 13.5
q-51 12 -86 -20q-37 -34 -103 -52q-20 -4 -28 -8q-3 0 -6 -3.5t-3 -6.5q-12 -28 21 -31q16 0 24 -2q5 0 17 -8q-11 -45 -85.5 -166.5t-123.5 -173.5q13 55 39 135q56 163 102 330q6 23 25 39q94 78 158 180q150 228 194 469q11 60 8 127q0 13 -4 37q-3 14 -18 14h-23
q-37 3 -59 -26q-28 -36 -39 -58q-44 -84 -82 -170q-61 -143 -205 -540q-7 -22 -22 -29q-37 -21 -58 -29q-17 -9 -19.5 -15t3.5 -28q23 -7 65 4q-1 -7 -6 -32q-12 -36 -35 -106.5t-34 -106.5q-51 -174 -58 -199q-13 -49 -10 -90z" />
    <glyph glyph-name="g" unicode="g" horiz-adv-x="436" 
d="M16 55l7 17q25 35 63 59q103 59 219 74q4 2 14 2q13 0 17 -19q-10 -10 -14 -12q-133 -81 -263 -119q-26 -9 -43 -2zM-451 -743q0 -19 8 -27t27 -10q77 -7 129 16q50 21 90 53q93 70 154 148q132 162 246 325q27 40 39 49.5t57 24.5h4q103 36 297 51q80 5 211 -10
q40 -6 119 -10q24 -4 39 6q0 19 -2 29l-33 6q-24 2 -73 7t-73 7q-141 6 -145 6q-179 -6 -332 -41q-3 -1 -6.5 -1.5t-9 -1t-10.5 -1.5l8 17q18 34 55 102t55 102l25 56q11 25 8 43q0 2 -4 10l-31 6q-11 18 -15.5 21.5t-18.5 3.5q-71 6 -136 -8q-105 -19 -186 -66
q-46 -24 -76 -64q-18 -21 -20 -40q-1 -18 0 -30.5t11.5 -19t33.5 -6.5h8q72 -2 170 33q24 10 70.5 31.5t70.5 31.5q11 8 17 0q0 -4 -4 -8q-67 -137 -133 -233q-12 -18 -37 -33q-130 -64 -142 -70q-61 -32 -149 -88q-128 -82 -225 -202q-63 -72 -84 -160q-7 -32 -7 -55z
M-387 -727q4 22 8 33q19 68 76 135q88 111 205 190q93 62 190 111l12 6q5 -5 5 -6l-17 -23q-28 -37 -83 -110.5t-83 -110.5q-68 -89 -159 -164q-52 -43 -109 -65q-9 -4 -31 -8q-4 -1 -9 3t-5 9z" />
    <glyph glyph-name="h" unicode="h" horiz-adv-x="346" 
d="M254 449l10 22q82 166 178 324q17 30 50 67q1 3 14 12q2 -16 -8 -49q-20 -55 -49 -112q-60 -126 -177 -256l-14 -13q0 1 -4 5zM0 184q4 0 12 -1t11 -1q22 0 32 2q2 0 5.5 1t6 0.5t5.5 -5.5q-1 -2 -2 -7.5t-2 -8.5q-6 -16 -17.5 -47.5t-17.5 -46.5q-11 -33 -4 -56
q3 0 9 -1t9 -1q5 0 17 1t20 1l25 49q42 88 94 146q9 10 29 28.5t26 24.5q3 2 11.5 5.5t13.5 6.5q-2 -22 -19 -47q-20 -39 -57 -100q-23 -45 -29 -68q-2 -7 -3 -15.5t-1.5 -18.5t-1.5 -15q0 -16 12 -16q21 -5 46 -3t42 19q10 10 32 30t32 30q67 67 98 88q17 12 10 37
q-53 10 -82 -19q-29 -25 -75 -67q-11 -11 -19 -11q5 9 14 24.5t11 18.5l49 101q13 30 4 69q-40 12 -125 -2l19 21q15 16 62.5 69t72.5 82q102 119 166 273q16 46 22 69q12 45 4 86q-8 25 -24 25q-67 8 -97 -29q-35 -40 -47 -59q-27 -37 -49 -80q-148 -256 -227 -451
q-7 -15 -25 -30l-98 -74v-27z" />
    <glyph glyph-name="i" unicode="i" horiz-adv-x="221" 
d="M57 61q2 8 9 18.5t8 14.5l30 50t31 53q23 42 17 88q-3 23 -27 26q-49 3 -86 -12q-8 -3 -80 -35q0 -18 2 -28q56 -7 90 12q23 14 39 12q-2 -15 -16 -43q-8 -14 -17.5 -29t-21 -33t-17.5 -28q-25 -45 -28 -51q-10 -17 -13 -35q-2 -18 4.5 -24.5t24.5 -6.5q82 -6 146 35
q87 57 167 94l5 6v29q-46 7 -78 -10q-101 -56 -135 -78q-7 -5 -22.5 -13t-18.5 -10q-1 -1 -5.5 -1t-7.5 -1zM47 434l2 -20q18 -8 43 -4q11 0 17 6q8 9 38 18q35 10 84 23q-2 12 -2 32q-41 4 -59 -2l-88 -24q-9 -3 -21 -6q-14 -6 -14 -23z" />
    <glyph glyph-name="j" unicode="j" horiz-adv-x="272" 
d="M-41 -268q-10 -20 -12 -23q-112 -165 -244 -262q-23 -17 -160 -102q-82 -49 -176 -64q-45 -7 -108 -4q-7 0 -19 4q-20 9 -14 29q7 23 18 43q29 56 80 98q65 52 94 70q213 141 471 200q44 10 54 11h16zM-840 -715q2 -22 11 -32t32 -13q210 -22 375 62q70 37 127 75
q192 123 326 342q1 2 4.5 10t5.5 11q8 13 27 16q17 3 50.5 9t45.5 8q70 10 168 28q28 4 41 15q4 22 -4 30q-34 6 -64 -6q-6 -2 -19.5 -5t-19.5 -5l-137 -20q-12 -1 -55 -9l20 45q91 198 144 351q4 12 11 37.5t11 37.5q7 24 2 39q-22 3 -28.5 2.5t-28.5 -6.5
q-64 -225 -211 -518q-5 -2 -17.5 -5t-17.5 -5q-156 -33 -195 -43q-213 -56 -426 -199q-67 -43 -116 -104q-35 -44 -47 -74q-17 -40 -15 -74zM170 436q0 -12 2 -20q18 -8 43 -4q15 5 16 6q7 9 39 18q80 24 84 25q-2 12 -2 31q-40 3 -59 -3q-14 -4 -43.5 -11t-44.5 -11l-21 -8
q-14 -6 -14 -23z" />
    <glyph glyph-name="k" unicode="k" horiz-adv-x="505" 
d="M233 217q34 69 93 102q1 0 8 5t8 5.5l9 4.5t9.5 3t10.5 1.5t12 -0.5q-5 -26 -31 -49q-43 -46 -119 -72zM0 186q0 -14 2 -22q46 -13 121 18q3 -11 -2 -37l-23 -96q-7 -21 0 -37h56q3 9 18 49q2 4 5 15.5t7 20t9 14.5q7 -5 32 -35q27 -39 62 -56q22 -9 28 -10q64 -7 113 17
q33 15 98 57q7 21 0 33q-43 9 -77 -15q-7 -6 -31 -20q-26 -13 -47 -25q-16 -8 -33 2q-26 14 -49 41q-11 15 -37 45q-6 9 -14 17q7 2 20.5 8t20.5 8q55 19 98 53q28 21 45 41q33 36 24 88q-1 12 -6 16.5t-16 6.5q-4 1 -11.5 1t-11.5 1q-15 0 -20 6q1 1 3 5t3 5
q79 103 150 263q39 83 61 178q13 52 10 100q0 37 -16 64q-8 16 -21 16q-70 7 -106 -27l-31 -30q-21 -23 -59 -88q-67 -125 -127 -285q-74 -206 -90 -299q-6 -30 -33 -45q-93 -48 -119 -55q-2 0 -6 -7zM238 340q-5 4 0 14q38 131 77 234q50 132 121 264q34 62 74 100
q2 2 22 17q15 -15 15 -47q-8 -54 -15 -76q-27 -94 -49 -144q-54 -126 -129 -235q-36 -55 -110 -125q0 -2 -6 -2z" />
    <glyph glyph-name="l" unicode="l" horiz-adv-x="225" 
d="M281 377q0 5 1 10t1 6l135 377q30 85 69 148q14 28 33 47q14 -21 12 -43q0 -4 -6 -52q-11 -74 -20 -116q-42 -165 -154 -308l-51 -55q-12 -8 -20 -14zM4 160q50 -7 82 12q15 11 47 25v-15q-5 -18 -14.5 -54t-14.5 -54q-6 -21 -6 -43q4 -21 23 -21q54 -7 90 27
q23 19 62.5 52.5t73 61.5t63.5 52q21 18 10 41q-48 11 -76 -17q-10 -10 -16 -14q-68 -55 -125 -104q-3 -3 -12 -9.5t-13 -9.5q0 17 2 21q5 19 16.5 54t16.5 54q13 40 45 57q6 4 15.5 12t11.5 9q109 88 159 168q84 125 115 246q17 63 27 131q4 38 8 106q0 23 -6 41t-15 24.5
t-28 8.5h-25q-41 0 -61 -33q-18 -21 -29 -41q-42 -82 -51 -104q-40 -90 -70 -185q-9 -26 -127 -348q-9 -28 -32 -39l-136 -75q-9 -4 -11.5 -7t-2 -8.5t3.5 -21.5z" />
    <glyph glyph-name="m" unicode="m" horiz-adv-x="604" 
d="M84 229q1 -7 3.5 -16.5t2.5 -13.5q-4 -30 -8 -43q-3 -16 -16 -72q-9 -27 0 -61q57 -7 88 24q20 24 67 64q53 47 115 77q11 5 18 0q-7 -21 -22 -51q-5 -11 -33 -65q-11 -19 -2 -43q31 -3 53 2q49 76 87 111t81 46q2 -4 2 -7.5v-5t-3 -6t-3 -5.5q-13 -35 -37 -78
q-11 -25 -8 -57q4 -19 18 -19q72 -4 103 19l117 80q0 5 -1 14t-1 14q-50 9 -89 -20q-39 -28 -41 -29l-24 -16q-3 7 2 18q11 22 27 62q9 27 6 59q-4 27 -29 27q-57 0 -102 -19q-14 -3 -23 -8l-6 35q-12 4 -14 4q-53 3 -97 -14q-73 -32 -145 -91q-14 -14 -25 -16q0 5 1 14.5
t1 14.5q4 54 3 71q0 6 -3.5 19t-3.5 14q-7 17 -24 17q-65 6 -105 -31q-23 -20 -10 -43q51 -8 80 24z" />
    <glyph glyph-name="n" unicode="n" horiz-adv-x="497" 
d="M133 279q-1 -5 -2 -13t-2 -12q-8 -38 -16 -55q-27 -77 -78 -164q-19 -30 -29 -53q-12 -20 -2 -43q31 -3 53 2q36 45 52 90q15 35 47 75q63 80 135 109l20 6q8 -23 0 -53q-4 -10 -11 -32t-11 -32q-11 -32 -6 -53q5 -36 45 -39q71 -6 135 33q12 6 25 14.5t27.5 19
t23.5 15.5q28 16 16 47q-45 6 -76 -16q-27 -24 -76 -49q-27 -19 -49 -19q-8 14 -4 23l19 55q14 60 6 105q-6 23 -31 26q-58 3 -106 -16q-5 -2 -14.5 -7t-14.5 -7q-1 0 -4 -1.5t-5 -2t-4.5 0t-5.5 3.5q5 20 5 26q0 27 -2 41q-3 21 -25 21q-68 7 -123 -15q-15 -6 -18 -12
t0 -27q16 -6 51 -2q2 0 21 8t34 3z" />
    <glyph glyph-name="o" unicode="o" horiz-adv-x="432" 
d="M350 186q-62 -7 -88 23q3 6 19 6h22h21q7 -2 21 -22q3 -5 5 -7zM0 70q0 -46 45 -58q8 -2 25 -2h88q165 9 264 137q7 1 34.5 3.5t45 7.5t33.5 16q0 6 -1.5 15t-1.5 12q-24 8 -36.5 5.5t-34 -9.5t-35.5 -7q-2 3 -4 9t-4 8q-40 72 -115 72q-83 3 -164 -29q-49 -19 -84 -51
q-60 -57 -55 -129zM68 102q14 38 45 66q37 34 69 43q4 -4 4 -6q13 -51 76 -58h53q1 0 8 -1t11 -1q-2 -2 -3 -5t-1.5 -4t-1.5 -1q-78 -72 -187 -88q-32 -4 -51 6q-36 13 -22 49z" />
    <glyph glyph-name="p" unicode="p" horiz-adv-x="382" 
d="M-80 -115q-6 -30 -31 -89t-49 -101q-55 -98 -73 -123q15 67 63 165t90 148zM-328 -526q4 -12 4 -21q54 -12 93 25q31 24 57 65q78 121 117 217q21 48 94 226l12 24q6 0 17.5 1t17.5 1q49 2 129 41q24 14 41 25q42 29 94 41q15 3 52 10t57 10q31 4 45 13q7 21 -2 30
q-24 6 -68.5 -4t-66.5 -8q15 25 16 27l31 61q11 28 8 61q-6 34 -37 37q-97 11 -154 -34l-59 -48q-3 -3 -11.5 -9t-11.5 -9q2 9 19 49q9 19 0 37q-5 0 -17 1t-21 0.5t-17 -3.5l-13 -27q-12 -27 -34 -80.5t-33 -80.5q-8 -20 -27 -43q-34 -40 -63 -82q-23 -30 -63 -86.5
t-48 -67.5q-25 -36 -37 -63q-53 -109 -106 -259q-15 -38 -15 -77zM72 72q0 18 14 32q5 6 33.5 35t39 39.5t33 32.5t41 37.5t37.5 30.5q10 8 54 32q8 4 16 4q6 0 11 -6t5 -12q0 -2 -4 -14q-41 -94 -102 -138q-12 -11 -31 -18q-104 -40 -147 -55z" />
    <glyph glyph-name="q" unicode="q" horiz-adv-x="342" 
d="M285 221q-31 -41 -109.5 -84.5t-155.5 -62.5q-4 6 7 12q30 30 57 49q71 51 190 86h11zM-184 -547q0 -15 5.5 -21t22.5 -7q74 -7 123 32q53 43 72 66q32 33 90 104q45 55 86 101q1 2 23 20q-12 -65 -7 -90q73 -10 113 25q22 19 12 45q-8 3 -26 2t-27 2q5 12 14 31t11 24
t11.5 27.5t14.5 35.5q12 29 0 44q-50 13 -92 -29q-103 -98 -182 -199q-58 -71 -88 -102q-11 -14 -70 -68q-20 -16 -37 -20q1 4 2 10.5t2 9.5q9 19 27 47q85 160 227 332q76 94 148 195q18 24 47 73.5t33 55.5q18 29 6 51q-3 1 -10 2t-11.5 3t-7.5 7q-2 10 -18 10
q-29 2 -76 -8q-98 -23 -172 -65q-24 -13 -86 -56q-36 -29 -53 -57q-13 -24 -11 -43q0 -23 21 -23q41 0 70 5q85 16 184 65q2 1 6.5 4t7 3t8.5 -3q-14 -24 -20 -31q-15 -19 -65 -83.5t-78 -98.5q-135 -169 -209 -309q-15 -29 -33 -70q-12 -20 -8 -49z" />
    <glyph glyph-name="r" unicode="r" horiz-adv-x="485" 
d="M123 231q4 -17 4 -18q0 -14 -6 -29q-18 -58 -60 -127q-16 -31 -6 -49h54l94 117q2 2 5.5 6t6.5 7t6 5q43 46 98 60q4 -8 7.5 -31t11.5 -33q36 -6 54 -2.5t46 21.5q28 14 68 39v26q-9 3 -17.5 4t-18 0t-16 -2.5t-17 -5.5t-14.5 -6t-16.5 -8t-15.5 -8q-1 4 -4.5 15t-5.5 17
q-3 18 -23 21q-57 0 -77 -8q-7 -2 -68 -29q-12 -4 -20 -8v20q-3 9 -3 19q-3 23 -26 26q-89 10 -148 -26q-14 -9 -16 -17t4 -28q45 -7 72 14q18 15 47 18z" />
    <glyph glyph-name="s" unicode="s" horiz-adv-x="405" 
d="M92 51q36 24 119 39q-46 -42 -119 -39zM2 33q1 -5 2.5 -8t5 -5t5 -3t7.5 -3t7 -2q6 -2 20 -2h80q132 14 205 92q14 2 53 6.5t65.5 9t51.5 11.5q9 15 0 33q-52 0 -62 -2q-68 -15 -112 -17q-7 18 -41 35l-68 33q-3 1 -7.5 5.5l-6.5 6.5q44 29 80 19q31 -7 57 2q7 22 -4 35
q-24 6 -29 6q-71 4 -108 -6q-25 -6 -53 -23q-19 -13 -19 -38t23 -38l65 -30q2 -1 6.5 -3t7 -4t3.5 -6l-3 -2q-10 -2 -30.5 -5t-30.5 -5q-57 -6 -119 -31q-16 -4 -39 -20q-19 -11 -12 -41z" />
    <glyph glyph-name="t" unicode="t" horiz-adv-x="403" 
d="M598 997q12 -35 8 -98l-6 -39q-3 -11 -15.5 -55t-18.5 -62.5t-18 -51t-24 -58.5q-21 -46 -51 -101q-28 -60 -80 -98q-1 -1 -4 -2t-4 -2h-6q1 4 2 12.5t2 12.5q6 18 35.5 115t50.5 147q5 14 37 117q28 85 69 139q3 3 10.5 11t12.5 13zM-35 127h21q18 0 28 2l13 18
q28 33 78 79.5t79 62.5q9 4 23 11.5t21 10.5t18.5 7t25.5 6q1 0 3 -2t4 -3q-6 -31 -21 -65l-123 -55q-8 -19 2 -29q9 -2 19 -2.5t16 -0.5t19 3t16.5 4t19.5 6.5t17 5.5q-1 -6 -2 -15.5t-2 -14.5q-10 -58 -2 -105q3 -20 11 -29t27 -12q20 -2 62 -2q28 4 47 17l70 57
q19 14 8 39q-49 10 -78 -19q-4 -6 -16 -14q-30 -25 -39 -31t-17.5 -3t-11.5 14q-7 17 -4 32q7 72 25 125q19 9 77 34.5t88 39.5q10 20 0 33q-43 6 -77 -10q-8 -4 -25 -11.5t-25 -11.5q-13 -4 -18 2q2 8 7 24.5t7 24.5q20 13 37 19q92 43 144 143q65 117 116 301
q26 93 11 195q-4 34 -17 44.5t-47 8.5q-31 0 -49 -21q-15 -15 -39 -47q-37 -47 -72 -151q-8 -25 -53 -158q-6 -18 -17.5 -53.5t-17.5 -52.5l-55 -193q-24 -2 -119 -41q-42 -16 -109.5 -72.5t-97.5 -95.5q-19 -22 -6 -49z" />
    <glyph glyph-name="u" unicode="u" horiz-adv-x="473" 
d="M573 211q-37 4 -49.5 1.5t-38.5 -19.5q-9 -6 -18 -15q-87 -68 -113 -90q-26 -21 -28 -22q-5 -5 -17 -5q-7 19 0 43q7 31 37 97q21 43 57 129q9 21 3 41h-52q-57 -61 -71 -78q-76 -94 -185 -182q-7 -7 -9 -7q-3 -1 -7 2l6 13q9 21 27.5 61.5t27.5 61.5q2 5 10 24t11 29
q12 35 6 72q-3 14 -10 19t-23 7q-48 5 -104 -31q-24 -15 -13 -43h43q7 0 21 9t25 8q-3 -23 -25 -66q-14 -29 -39.5 -89t-38.5 -89q-6 -15 -6 -35q0 -17 7 -23.5t26 -8.5q55 -7 90 26q78 70 119 103q9 9 16 6l-12 -47q-7 -30 0 -74q7 -27 28 -27q66 -11 103 19q3 3 21.5 17.5
t29.5 21.5q55 45 133 102q18 13 12 39z" />
    <glyph glyph-name="v" unicode="v" horiz-adv-x="385" 
d="M217 322q-39 0 -57 2q-37 0 -80 -31q-25 -16 -14 -43q49 -7 73 14q1 1 6.5 2.5t8.5 3.5q-2 -18 -11 -45q-18 -52 -28 -125q-6 -38 2 -71q4 -19 20 -19q64 -7 99 25q52 45 79 74l121 135q16 19 99 112q21 21 12 52q-26 3 -53 -2l-78 -89q-25 -28 -75.5 -86t-76.5 -86
q-24 -28 -67 -65q-2 -2 -17 -12q-6 14 -2 38l23 91q11 34 16 57q9 29 0 68z" />
    <glyph glyph-name="w" unicode="w" horiz-adv-x="499" 
d="M682 342q0 3 1 9.5t0.5 12t-3.5 9.5q-59 11 -111 -25q-37 -26 -59 -53q-113 -129 -164 -186q-36 -40 -61 -50q-5 -3 -19 -6q-4 20 -4 23q3 17 10 30q16 39 52 113q12 29 4 47q-17 0 -25 2q-28 3 -51 -20q-16 -16 -102 -98q-9 -8 -25.5 -21t-22.5 -18q-3 -2 -13 -9
t-17 -10q-1 4 -3.5 10.5t-2.5 8.5q3 11 10 22q26 46 59 100q13 22 2 41h-37q-15 0 -24 -12q-47 -73 -70 -123q-9 -24 -6 -51q6 -36 45 -39q74 -7 121 35q12 12 20 16q5 5 17 11q-4 -28 -4 -33q0 -27 2 -39q7 -26 30 -29q94 -10 152 45l27 31q69 77 151 172q60 67 121 84z
" />
    <glyph glyph-name="x" unicode="x" horiz-adv-x="317" 
d="M156 84q20 -24 24 -27q32 -29 77 -31.5t79 23.5q2 2 72 66q20 20 8 47q-2 0 -8 1t-9 1q-30 3 -51 -21q-19 -19 -55 -51q-9 -9 -27 -18q-43 21 -53 53q4 3 9.5 8.5t8.5 7.5q53 37 105 78q15 11 17 17.5t-5 25.5q-38 10 -76 -16q-28 -25 -67 -49q-8 -8 -19 -11
q-7 10 -13.5 23t-10 22t-9 25t-8.5 23q-39 4 -57 -2q-3 -23 3 -44.5t21 -53t19 -40.5l-131 -104q0 -17 2 -23q36 -7 50.5 -3.5t39.5 24.5q11 9 32.5 25t31.5 24z" />
    <glyph glyph-name="y" unicode="y" horiz-adv-x="362" 
d="M86 -178q-2 -4 -4.5 -8.5t-4 -7.5t-3.5 -5q-63 -82 -160 -159q-59 -50 -131 -41q-7 1 -19.5 2.5t-20 2.5t-17.5 3.5t-19 5.5l-20 8q-15 9 -9 25q9 15 21 30q78 90 186 113q28 6 176 31h25zM-389 -379q3 -26 24 -35q35 -16 56 -18q70 -6 139 -6q85 0 147 53
q122 102 183 197l14 18q67 4 203.5 7t204.5 7q9 22 -2 35h-125q-86 -4 -125 -4q-83 -4 -127 -2l4 12q62 121 106 199q48 91 84 154q14 28 4 51q-17 6 -39 2q-15 -3 -24 -15l-164 -163q-8 -7 -23.5 -20.5t-23.5 -20.5q-6 -6 -16 -9v31q4 34 26 90q22 48 25 60q11 31 0 49
q-4 0 -11.5 0.5t-14 0.5t-11.5 -1q-2 0 -14 -4l-50 -127q-2 -6 -5 -17t-5 -16q-7 -36 -4 -90q3 -26 23 -29q71 -4 104 23q6 6 20 17t17 13q7 7 16 13q0 -2 1 -4.5t1 -3.5q-80 -155 -108 -197q-163 -27 -176 -29q-90 -13 -125 -20q-104 -25 -182 -119q-29 -41 -27 -82z" />
    <glyph glyph-name="z" unicode="z" horiz-adv-x="337" 
d="M258 268q-87 -70 -147 -104q-54 -31 -99 -70l-22 -22q-14 -16 -10 -41q0 -14 12 -17q2 0 12 -3t16 -3q16 1 46 2t45 2l155 19q21 2 68 14q17 3 22 16q7 14 -2 29q-36 8 -55 -4q-28 -15 -70 -18l-155 -19q-11 0 -13 8q34 34 86 64q45 24 121 80t90 65v35q-12 4 -18 4
q-107 8 -160 2q-64 -6 -117 -39q0 -3 -1 -9t-1 -9l5 -10q38 -7 73 8l31 12q43 16 88 8z" />
    <glyph glyph-name="braceleft" unicode="{" horiz-adv-x="354" 
d="M180 332q26 52 27 55q3 9 24 102l13 76q3 9 6 21l28 -3.5t26.5 -2t25.5 3.5q7 21 -4 34q-53 15 -113 9q-20 0 -27 -21l-4 -22q-8 -53 -10 -72q-7 -45 -29 -113q-13 -38 -49 -43q-3 -1 -8 -4t-8 -4v-26q18 -7 31 -15q25 -19 14 -43q-9 -24 -23 -45q-37 -57 -63 -90
q-20 -30 -17 -61q0 -20 21 -27q67 -20 125 0q18 6 22.5 15.5t1.5 33.5q-43 7 -65 -8q-13 -9 -18 -8t-21 12q10 14 16 25q62 89 62 90q38 58 16 131z" />
    <glyph glyph-name="bar" unicode="|" horiz-adv-x="571" 
d="M78 -227q5 11 14 39l443 1208q12 35 12 37q8 20 -2 30h-53q-2 -6 -7.5 -18t-7.5 -18l-368 -1008q-79 -215 -82 -225q-11 -26 -4 -45h55z" />
    <glyph glyph-name="braceright" unicode="}" horiz-adv-x="323" 
d="M25 55q-13 -41 18 -45q51 -7 82 2q51 18 65 82q7 58 3 90q0 7 -1.5 22t-1.5 23q-3 29 23 45q5 4 16.5 11.5t16.5 11.5q10 20 0 33l-35 16q3 8 8 15.5t12.5 15t10.5 12.5q24 26 47 68q21 49 8 114q-3 24 -29 27q-14 1 -42 4t-42 4h-24q-12 -2 -16.5 -6.5t-4.5 -17.5
q0 -11 2 -17q5 -1 16 -2t17 -2h39q22 -3 25 -22q6 -17 -2 -39q-13 -33 -41 -68l-45 -57q-20 -19 -9 -51q1 -3 6.5 -9t6.5 -8q-27 -31 -27 -78q0 -5 1 -14.5t1 -13.5q0 -8 1.5 -34t0.5 -40q-3 -50 -41 -72q-41 7 -65 0z" />
    <glyph glyph-name="asciitilde" unicode="~" horiz-adv-x="315" 
d="M98 174q6 -4 29 -33q13 -22 39 -22q72 -7 106 37q2 3 13 14q17 12 6 39q-5 0 -14 1t-13 1q-30 0 -43 -18q-5 -6 -15 -15t-13 -12q-3 6 -10 14t-9 10q-4 4 -11 13.5t-11 13.5q-8 9 -19 12q-65 16 -106 -41q-10 -16 -4 -38q20 -6 41.5 -2t33.5 26z" />
    <glyph glyph-name="exclamdown" unicode="&#xa1;" horiz-adv-x="466" 
d="M78 -76q35 102 45 135q40 109 166 371q18 36 50 107.5t36 80.5q11 26 4 48q-16 4 -53 0l-11 -19q-41 -95 -84 -186l-86 -185q-69 -149 -110 -272q0 -2 -5.5 -22t-6.5 -31q-5 -18 4 -27h51zM365 776q-1 -3 0.5 -11.5t1.5 -12.5q38 -4 57 4q1 10 12 44.5t8 55.5
q-20 4 -27 4t-30 -4q-17 -42 -22 -80z" />
    <glyph glyph-name="cent" unicode="&#xa2;" horiz-adv-x="360" 
d="M150 293q-2 -19 -14.5 -62t-24.5 -69q-16 3 -23 20q-4 13 -2 21q12 58 59 90h5zM20 193q-6 -53 46 -76q4 -2 13 -5.5t13 -5.5q1 -12 -8.5 -40.5t-1.5 -45.5q35 -4 55 0q4 14 13.5 42t13.5 42q82 12 151 52q0 5 -1 14.5t-1 13.5q-47 6 -77 -8q-6 -5 -19.5 -9.5t-17.5 -6.5
q-10 -5 -17 2q26 113 62 188q6 0 19 1t20 1q31 0 47 2q2 0 10 4q0 19 -2 27q-14 7 -41 7t-39 3q2 12 6 23l19 59q7 22 0 39q-38 4 -56 -4q0 -2 -4 -14q-30 -82 -35 -99q-7 -20 -20 -22q-60 -17 -113 -88q-32 -40 -35 -96z" />
    <glyph glyph-name="sterling" unicode="&#xa3;" horiz-adv-x="395" 
d="M197 332q-26 68 18 121q8 12 10 14q19 22 31 23.5t35 -13.5h4q24 -16 8 -37q-12 -19 -2 -37h55q19 25 19 54q6 41 -33 61q-57 25 -135 8q-14 -3 -25 -14q-51 -51 -57 -111v-45q0 -3 -1 -9.5t-1 -10.5q-12 -1 -31 0.5t-35.5 1t-31.5 -5.5v-29q22 -5 60.5 -7t47.5 -3
q5 -9 11 -26t8 -21q-51 -52 -113 -86q-15 -9 -17 -14t3 -25q14 -3 88 -10t98 -7q29 0 41 7q0 1 0.5 3t0.5 3.5v3.5t-1 4q0 13 -4.5 17.5t-18.5 4.5h-26q-7 0 -23 1.5t-24 1.5q-3 0 -11 4q4 7 9.5 13t13.5 12.5t12 10.5q6 4 19 14.5t20 14.5q4 7 2.5 19t-2.5 17.5t-5 17
t-5 16.5q5 4 11 5t15 0t11 -1q12 2 37 2q10 18 2 37h-88z" />
    <glyph glyph-name="yen" unicode="&#xa5;" horiz-adv-x="413" 
d="M299 289l8 12t8 14q38 57 72 136q11 26 4 47q-31 3 -55 -2q-1 -2 -17 -29q-37 -59 -100 -109q-12 -8 -22 0q18 69 47 111q16 22 4 41q-5 0 -17 1t-18 1q-21 -3 -35 -23q-34 -70 -43 -116q-2 -12 -2 -35q3 -35 39 -35h49q-5 -29 -35 -29q-16 -1 -47.5 -4t-46.5 -4
q-29 -4 -39 -12q-4 -22 2 -31q37 -4 62 4q27 8 49 2q-6 -22 -13 -28t-24 -8h-78q-25 -5 -31 -11v-24q14 -6 43 -6h20.5t29.5 -5q-11 -18 -23 -34q-14 -17 -8 -43q27 -6 57 0l45 67q16 25 45 25q17 0 45 4q9 19 -2 33q-10 0 -34 4q1 2 2 7t2 7q17 27 45 25q23 -4 39 4
q9 18 0 37z" />
    <glyph glyph-name="section" unicode="&#xa7;" horiz-adv-x="466" 
d="M160 272q-7 -27 0 -63q9 -49 57 -55q46 -8 94 4q51 16 60 67q16 134 -90 197q-7 4 -19.5 12t-13.5 8l-29 25q-14 17 -8 37q14 53 47 80q56 50 119 4l6 -37q5 0 14 -1t13 -1q10 0 26 4q15 38 5.5 59.5t-46.5 30.5q-18 6 -37 6q-26 0 -84 -4q-63 -3 -104 -67
q-21 -39 -23 -70q-10 -54 25 -86q4 -4 6 -10l-43 -13q-73 -19 -96 -100q-12 -36 -8 -92q0 -76 73 -107q4 -2 13.5 -5t13.5 -5q26 -4 35 -8q51 -13 74 -49q21 -31 4 -56q-26 -38 -62 -55q-36 -20 -71 4q-11 11 -17 15q-13 16 0 32q10 14 39 39q10 9 11 15t-7 26h-31
q-20 -4 -26 -8q-28 -21 -43 -41q-23 -30 -16 -63t38 -54q28 -14 52 -14h61q74 0 127 74q3 4 14 37q1 5 1 11t-0.5 13.5t-0.5 11.5q-3 48 -41 72q-29 22 -55 27q-6 2 -19 5t-20 5q-33 10 -55 29q-23 20 -29 49q-10 45 19 100q25 52 90 62q55 11 76 -33q18 -31 22 -41
q12 -27 6 -57q-3 -15 -19 -30t-28 -15q-12 1 -24 14.5t-17 28.5v18q-2 6 -2 18q-27 9 -57 0z" />
    <glyph glyph-name="dieresis" unicode="&#xa8;" horiz-adv-x="243" 
d="M219 436q-9 -1 -25 -2t-24 -2q-18 -3 -18 -22q-4 -31 6 -41q8 -4 10 -4q36 0 47 4q10 35 4 67zM25 379q7 -2 43 -2q22 1 31 20.5t-3 38.5q-4 8 -14 8q-31 0 -45 -2q-14 -23 -15 -30.5t3 -32.5z" />
    <glyph glyph-name="copyright" unicode="&#xa9;" horiz-adv-x="772" 
d="M688 362q0 -53 -20 -108q-77 -197 -269 -279q-12 -5 -43 -14q-79 -26 -161.5 20t-106.5 142q-11 55 2 119q28 117 120.5 211.5t209.5 126.5q68 20 138 -11t104 -98q26 -51 26 -109zM23 131q8 -80 57 -137t127 -74q7 -2 82 -8l76 6q21 3 47 10q116 34 205 125.5t120 208.5
q23 95 6 176q-14 72 -64 122.5t-120 62.5q-107 16 -205 -13q-167 -54 -266 -211q-77 -120 -65 -268zM197 248q-14 -43 -4 -65t45 -38l24 -6q47 -6 94 6q76 18 187 82q7 24 -2 33q-35 8 -76 -12q-55 -32 -135 -64q-36 -12 -70 19q-11 7 -4 20l6 13q48 76 150 106q9 3 18 0
q21 -7 57 0q7 20 -2 37q-12 4 -16 4q-132 15 -227 -74q-36 -32 -45 -61z" />
    <glyph glyph-name="ordfeminine" unicode="&#xaa;" horiz-adv-x="276" 
d="M74 481q-15 10 -8 25q4 8 16 24q27 30 68 45q7 -5 2 -16q-25 -39 -78 -78zM4 463q4 -26 29 -29q71 -8 104 21q2 2 17 12l8 -8q7 -23 39 -27q52 -5 102 35q20 20 12 45q-32 5 -41 2.5t-32 -20.5l-17 -7q-7 14 -2 56t4 53q-16 8 -18 10q-7 15 -29 15q-90 6 -153 -60
q-36 -36 -23 -98z" />
    <glyph glyph-name="guillemotleft" unicode="&#xab;" horiz-adv-x="423" 
d="M104 244l37 28q11 8 109 80q22 19 12 45h-35q-20 0 -30 -10l-160 -121q-23 -17 -12 -45l32 -18q65 -36 76 -45q29 -18 76 -15q13 0 16 17q0 3 -1 8.5t-1 7.5l-57 33q-9 5 -29.5 16.5t-32.5 18.5zM207 270q-13 -32 16 -43l33 -20q42 -23 61 -51q3 -8 13 -15q2 -2 14 -8
q30 -4 51 4q0 3 0.5 8.5t1 9t-1 8.5t-4.5 9q-5 5 -22 23.5t-29 29t-27 17.5l-16 12l106 100q0 4 -1 13t-1 14q-24 0 -36 2q-20 0 -39 -16l-50 -50q-2 -1 -10 -8.5t-10.5 -10t-10 -8.5t-12.5 -8.5l-12 -6t-14 -5.5z" />
    <glyph glyph-name="registered" unicode="&#xae;" horiz-adv-x="548" 
d="M467 537q-1 -5 -4 -24t-6 -28q-47 -142 -191 -186q-29 -7 -55 2q-68 14 -105 76t-14 133q46 139 189 186q36 9 67 -2q53 -17 85.5 -60t33.5 -97zM27 397q24 -104 127 -131q13 -4 71 -10q64 4 72 6q111 19 180 115.5t45 216.5q-11 57 -50.5 96.5t-96.5 46.5
q-77 10 -137 -6q-110 -26 -173 -125t-38 -209zM111 406q31 -3 53 2q5 6 12.5 18.5t9.5 15.5q3 -2 11.5 -7.5t11.5 -8.5q12 -10 35 -33q43 -38 108 -22q0 3 1 7.5t1 6.5l-2 14q-37 11 -80 58q4 3 11 6.5t11.5 6.5t8.5 7q27 21 51 45q35 35 25 88q-6 31 -33 31q-72 3 -115 -25
q-21 -14 -36 -14q-4 1 -10 -0.5t-7 -1.5q-6 -14 -27.5 -60t-31.5 -71q-4 -5 -8 -23q-6 -20 0 -40zM207 487q4 24 45 68q30 30 55 39q2 0 10 -4q-1 -6 -2.5 -11t-5.5 -11t-5.5 -8l-7.5 -10l-7 -7q-41 -41 -82 -56z" />
    <glyph glyph-name="degree" unicode="&#xb0;" horiz-adv-x="237" 
d="M145 633q-10 -15 -34 -25q-11 -4 -19 8q-10 10 4 19q10 12 20 11.5t29 -13.5zM20 614q3 -34 33 -43q13 -4 43 -8q40 4 54 8q20 6 40 19q33 20 27 61q0 12 -10 19q-49 22 -60 24q-19 4 -57 0q-30 -4 -50 -27t-20 -53z" />
    <glyph glyph-name="uni00B2" unicode="&#xb2;" horiz-adv-x="284" 
d="M195 647l4 -8q-2 -38 -27 -82q-9 -12 -25 -20q-38 -23 -71 -21q-37 0 -53 -10q-3 -23 0 -29t22 -12q8 -4 14 -4q75 -20 164 -23q13 0 33 4q2 0 6 4q4 21 -4 31q-12 1 -34.5 2t-33.5 2q-2 0 -3.5 1l-4.5 3l-6 4q24 12 29 17q24 19 28 26q23 48 29 95v32q-3 15 -10.5 22.5
t-24.5 8.5q-43 3 -90 -6l-28 -12q-38 -18 -27 -60q28 -6 53 0q33 37 60 35z" />
    <glyph glyph-name="uni00B3" unicode="&#xb3;" horiz-adv-x="266" 
d="M193 592q29 29 34 35q23 26 17 63q-3 16 -17 19q-50 9 -100 -9q-6 -2 -18 -10q-15 -15 -17 -22q-8 -17 4 -27q4 0 12.5 -1t12.5 -1l6 1q6 1 10 0t8 -5q-7 -8 -17 -15.5t-17.5 -12t-21 -12t-19.5 -11.5v-29q8 -2 51 -2q43 -4 55 -25q-30 -59 -94 -30q-28 14 -62 0v-21
q0 -17 19 -22q6 -2 20 -2q29 -2 84 -2q34 5 45 8q24 5 45 30q15 25 8.5 53t-30.5 40z" />
    <glyph glyph-name="acute" unicode="&#xb4;" horiz-adv-x="210" 
d="M82 356q6 8 42.5 52t57.5 67q13 16 6 37q-50 14 -84 -29q-36 -45 -71 -86q-19 -19 -8 -43q27 -6 57 2z" />
    <glyph glyph-name="periodcentered" unicode="&#xb7;" horiz-adv-x="131" 
d="M92 164q24 31 17 59q-33 7 -68 0l-12 -12q-12 -15 -7 -30.5t25 -16.5h45z" />
    <glyph glyph-name="cedilla" unicode="&#xb8;" horiz-adv-x="258" 
d="M20 -215q68 -20 127 -10q47 6 74 47q20 36 17 76q-1 20 -11 30t-30 13q-5 1 -15 2t-16 2q5 15 6 16q1 3 16 33q11 20 2 45q-40 4 -53 -4q-2 -4 -12 -23t-16 -28q-14 -28 -29 -52q-13 -26 -4 -41q50 -4 71 7q6 3 13 1t10 -8q4 -13 2 -20q-14 -34 -39 -51q-20 -11 -53 0
q-27 6 -53 0l-7 -6v-29z" />
    <glyph glyph-name="uni00B9" unicode="&#xb9;" horiz-adv-x="174" 
d="M113 492q-4 9 -1 29.5t5 28t8 27t8 27.5q2 7 4.5 15.5t6.5 19t6 16.5q4 20 4 33q0 6 -4.5 11.5t-10.5 5.5q-44 0 -61 -5l-43 -12q-15 -4 -15 -16q0 -3 5 -23q9 -1 26.5 -2t26.5 -2q-14 -41 -19 -65q-12 -39 -16 -64q-4 -17 10 -29h37q3 0 11.5 2t11.5 3z" />
    <glyph glyph-name="ordmasculine" unicode="&#xba;" horiz-adv-x="190" 
d="M88 549q36 -17 74 -2q6 -4 2 -17q-9 -27 -39 -65q-11 -13 -29 -4q-23 9 -28.5 27t6.5 40zM8 541q-15 -37 2 -88q5 -15 25 -27q43 -22 98 -16q31 6 51 26q30 37 39 66q4 15 8 53q3 29 -26 39q-7 4 -21 8q-42 4 -69 8l-35 -6q-54 -9 -72 -63z" />
    <glyph glyph-name="guillemotright" unicode="&#xbb;" horiz-adv-x="393" 
d="M147 98q10 -2 23 -2q35 -5 61 27q35 41 109 119l22 22q12 13 10.5 28t-16.5 25q-37 24 -80 74l-20 21q-4 0 -13 0.5t-14.5 0.5t-12.5 -1t-13 -4q-9 -24 10 -43q40 -45 49 -54q3 -3 31 -26q-7 -7 -10 -13l-99 -106l-39 -39q0 -17 2 -29zM20 377l101 -92q-3 -4 -9.5 -11.5
t-9.5 -11.5q-57 -67 -71 -82q-18 -21 -4 -43h51q16 20 53 62q11 14 55 63q26 30 -4 57q-70 57 -96 87q-7 7 -30.5 8.5t-30.5 -4.5q-1 0 -5 -4v-29z" />
    <glyph glyph-name="questiondown" unicode="&#xbf;" horiz-adv-x="518" 
d="M373 600q-15 -26 -19 -41q-48 -111 -125 -194q-28 -27 -45 -50q-32 -37 -73 -88q-47 -62 -74 -133q-23 -59 -14 -125q5 -34 24.5 -56t50.5 -26q52 -9 105 7q60 19 71 75q9 45 9 62q0 19 -7 43q-4 12 -16 12q-33 4 -47 -2q-9 -11 -2 -33q8 -12 8 -18q0 -73 -51 -99
q-32 -17 -57 11q-36 36 -27 86q10 41 37 90q37 71 90 129q5 6 96 108q66 74 117 203q11 23 2 41q-26 3 -53 -2zM416 686h35q20 0 30 23l13 36q7 21 2 39q-29 6 -58 0q-1 -6 -13.5 -40.5t-8.5 -57.5z" />
    <glyph glyph-name="Agrave" unicode="&#xc0;" horiz-adv-x="849" 
d="M487 383q2 4 5 8q2 3 2 4q42 43 81 87.5t100 118.5t75 91q249 299 356 426l18 19q2 -10 -8 -29q-51 -117 -72 -162q-28 -62 -87 -186.5t-87 -186.5q-8 -22 -32 -34q-141 -62 -332 -150q-2 -1 -8 -2.5t-11 -3.5zM8 170q12 -38 51 -41q64 -3 105 14q22 11 26 11q28 0 52 24
q21 18 41 29q79 48 125 74q45 25 100 51.5t94.5 44.5t105.5 48t97 44l20 4q-2 -5 -20 -47q-86 -192 -176 -453q-39 -125 -49 -172q-8 -37 -5 -80q3 -40 46 -43q82 -12 143 46q23 20 12 45q-49 11 -76 -19q-20 -23 -47 -29q-23 17 -16 43q24 93 31 115q94 300 239 617l4 10
q6 13 17 18q12 2 26 13l131 61q17 7 19 14t-4 27q-45 6 -78 -12q-4 -3 -49 -25q-13 -6 -19 0l25 51q27 60 83.5 180t84.5 179q52 110 78 202q14 44 14 76q0 7 -4 19q-50 11 -80 -29q-299 -363 -600 -723q-102 -127 -209 -217q-108 -93 -190 -139q-32 -21 -62 -29
q-22 17 -26.5 31.5t4.5 36.5q24 56 69 98q7 7 33 20q16 9 35 4q33 -6 67 0q6 19 -2 33q-35 15 -100 11q-56 -3 -92 -39q-44 -41 -70 -101q-20 -47 -4 -96zM1188 1608q-6 -19 2 -33q6 -9 26 -37t34 -45.5t30 -32.5h53q9 25 -10 51q-13 16 -61 80q-3 3 -8.5 10.5t-8.5 10.5
h-43q-6 0 -14 -4z" />
    <glyph glyph-name="Aacute" unicode="&#xc1;" horiz-adv-x="849" 
d="M487 383q2 4 5 8q2 3 2 4q42 43 81 87.5t100 118.5t75 91q249 299 356 426l18 19q2 -10 -8 -29q-51 -117 -72 -162q-28 -62 -87 -186.5t-87 -186.5q-8 -22 -32 -34q-141 -62 -332 -150q-2 -1 -8 -2.5t-11 -3.5zM8 170q12 -38 51 -41q64 -3 105 14q22 11 26 11q28 0 52 24
q21 18 41 29q79 48 125 74q45 25 100 51.5t94.5 44.5t105.5 48t97 44l20 4q-2 -5 -20 -47q-86 -192 -176 -453q-39 -125 -49 -172q-8 -37 -5 -80q3 -40 46 -43q82 -12 143 46q23 20 12 45q-49 11 -76 -19q-20 -23 -47 -29q-23 17 -16 43q24 93 31 115q94 300 239 617l4 10
q6 13 17 18q12 2 26 13l131 61q17 7 19 14t-4 27q-45 6 -78 -12q-4 -3 -49 -25q-13 -6 -19 0l25 51q27 60 83.5 180t84.5 179q52 110 78 202q14 44 14 76q0 7 -4 19q-50 11 -80 -29q-299 -363 -600 -723q-102 -127 -209 -217q-108 -93 -190 -139q-32 -21 -62 -29
q-22 17 -26.5 31.5t4.5 36.5q24 56 69 98q7 7 33 20q16 9 35 4q33 -6 67 0q6 19 -2 33q-35 15 -100 11q-56 -3 -92 -39q-44 -41 -70 -101q-20 -47 -4 -96zM1180 1464q27 -6 57 2q7 8 43 52t57 67q13 16 6 37q-49 13 -83 -29q-25 -31 -72 -86q-19 -19 -8 -43z" />
    <glyph glyph-name="Acircumflex" unicode="&#xc2;" horiz-adv-x="849" 
d="M487 383q2 4 5 8q2 3 2 4q42 43 81 87.5t100 118.5t75 91q249 299 356 426l18 19q2 -10 -8 -29q-51 -117 -72 -162q-28 -62 -87 -186.5t-87 -186.5q-8 -22 -32 -34q-141 -62 -332 -150q-2 -1 -8 -2.5t-11 -3.5zM8 170q12 -38 51 -41q64 -3 105 14q22 11 26 11q28 0 52 24
q21 18 41 29q79 48 125 74q45 25 100 51.5t94.5 44.5t105.5 48t97 44l20 4q-2 -5 -20 -47q-86 -192 -176 -453q-39 -125 -49 -172q-8 -37 -5 -80q3 -40 46 -43q82 -12 143 46q23 20 12 45q-49 11 -76 -19q-20 -23 -47 -29q-23 17 -16 43q24 93 31 115q94 300 239 617l4 10
q6 13 17 18q12 2 26 13l131 61q17 7 19 14t-4 27q-45 6 -78 -12q-4 -3 -49 -25q-13 -6 -19 0l25 51q27 60 83.5 180t84.5 179q52 110 78 202q14 44 14 76q0 7 -4 19q-50 11 -80 -29q-299 -363 -600 -723q-102 -127 -209 -217q-108 -93 -190 -139q-32 -21 -62 -29
q-22 17 -26.5 31.5t4.5 36.5q24 56 69 98q7 7 33 20q16 9 35 4q33 -6 67 0q6 19 -2 33q-35 15 -100 11q-56 -3 -92 -39q-44 -41 -70 -101q-20 -47 -4 -96zM1147 1464q2 -1 7 -2t7 -2q42 -3 62 25q12 22 37 37l65 -76q5 0 13 -0.5t13.5 -0.5t12 1t12.5 4q12 27 -10 49
q-31 37 -72 90h-20q-35 3 -62 -24q-9 -10 -28.5 -30t-28.5 -30q-16 -19 -8 -41z" />
    <glyph glyph-name="Atilde" unicode="&#xc3;" horiz-adv-x="849" 
d="M487 383q2 4 5 8q2 3 2 4q42 43 81 87.5t100 118.5t75 91q249 299 356 426l18 19q2 -10 -8 -29q-51 -117 -72 -162q-28 -62 -87 -186.5t-87 -186.5q-8 -22 -32 -34q-141 -62 -332 -150q-2 -1 -8 -2.5t-11 -3.5zM8 170q12 -38 51 -41q64 -3 105 14q22 11 26 11q28 0 52 24
q21 18 41 29q79 48 125 74q45 25 100 51.5t94.5 44.5t105.5 48t97 44l20 4q-2 -5 -20 -47q-86 -192 -176 -453q-39 -125 -49 -172q-8 -37 -5 -80q3 -40 46 -43q82 -12 143 46q23 20 12 45q-49 11 -76 -19q-20 -23 -47 -29q-23 17 -16 43q24 93 31 115q94 300 239 617l4 10
q6 13 17 18q12 2 26 13l131 61q17 7 19 14t-4 27q-45 6 -78 -12q-4 -3 -49 -25q-13 -6 -19 0l25 51q27 60 83.5 180t84.5 179q52 110 78 202q14 44 14 76q0 7 -4 19q-50 11 -80 -29q-299 -363 -600 -723q-102 -127 -209 -217q-108 -93 -190 -139q-32 -21 -62 -29
q-22 17 -26.5 31.5t4.5 36.5q24 56 69 98q7 7 33 20q16 9 35 4q33 -6 67 0q6 19 -2 33q-35 15 -100 11q-56 -3 -92 -39q-44 -41 -70 -101q-20 -47 -4 -96zM1147 1538q-8 -29 2 -41h49q7 12 23 31q2 -4 4.5 -8.5t4 -7.5t3.5 -5q12 -26 43 -26h47q25 4 35 18q29 36 18 74
q-29 6 -53 0q-4 -4 -10 -21t-17 -20q-8 17 -16 27q-7 11 -16 14q-57 4 -86 -6q-21 -6 -31 -29z" />
    <glyph glyph-name="Adieresis" unicode="&#xc4;" horiz-adv-x="849" 
d="M487 383q2 4 5 8q2 3 2 4q42 43 81 87.5t100 118.5t75 91q249 299 356 426l18 19q2 -10 -8 -29q-51 -117 -72 -162q-28 -62 -87 -186.5t-87 -186.5q-8 -22 -32 -34q-141 -62 -332 -150q-2 -1 -8 -2.5t-11 -3.5zM8 170q12 -38 51 -41q64 -3 105 14q22 11 26 11q28 0 52 24
q21 18 41 29q79 48 125 74q45 25 100 51.5t94.5 44.5t105.5 48t97 44l20 4q-2 -5 -20 -47q-86 -192 -176 -453q-39 -125 -49 -172q-8 -37 -5 -80q3 -40 46 -43q82 -12 143 46q23 20 12 45q-49 11 -76 -19q-20 -23 -47 -29q-23 17 -16 43q24 93 31 115q94 300 239 617l4 10
q6 13 17 18q12 2 26 13l131 61q17 7 19 14t-4 27q-45 6 -78 -12q-4 -3 -49 -25q-13 -6 -19 0l25 51q27 60 83.5 180t84.5 179q52 110 78 202q14 44 14 76q0 7 -4 19q-50 11 -80 -29q-299 -363 -600 -723q-102 -127 -209 -217q-108 -93 -190 -139q-32 -21 -62 -29
q-22 17 -26.5 31.5t4.5 36.5q24 56 69 98q7 7 33 20q16 9 35 4q33 -6 67 0q6 19 -2 33q-35 15 -100 11q-56 -3 -92 -39q-44 -41 -70 -101q-20 -47 -4 -96zM1165 1489q7 -2 43 -2q22 2 31.5 21t-2.5 38q-4 8 -14 8q-31 0 -45 -2q-14 -24 -15.5 -30.5t2.5 -32.5zM1292 1520
q-4 -31 6 -41q8 -4 11 -4q36 0 47 4q10 35 4 67q-9 -1 -25 -2t-24 -2q-19 -3 -19 -22z" />
    <glyph glyph-name="Aring" unicode="&#xc5;" horiz-adv-x="849" 
d="M487 383q2 4 5 8q2 3 2 4q42 43 81 87.5t100 118.5t75 91q249 299 356 426l18 19q2 -10 -8 -29q-51 -117 -72 -162q-28 -62 -87 -186.5t-87 -186.5q-8 -22 -32 -34q-141 -62 -332 -150q-2 -1 -8 -2.5t-11 -3.5zM8 170q12 -38 51 -41q64 -3 105 14q22 11 26 11q28 0 52 24
q21 18 41 29q79 48 125 74q45 25 100 51.5t94.5 44.5t105.5 48t97 44l20 4q-2 -5 -20 -47q-86 -192 -176 -453q-39 -125 -49 -172q-8 -37 -5 -80q3 -40 46 -43q82 -12 143 46q23 20 12 45q-49 11 -76 -19q-20 -23 -47 -29q-23 17 -16 43q24 93 31 115q94 300 239 617l4 10
q6 13 17 18q12 2 26 13l131 61q17 7 19 14t-4 27q-45 6 -78 -12q-4 -3 -49 -25q-13 -6 -19 0l25 51q27 60 83.5 180t84.5 179q52 110 78 202q14 44 14 76q0 7 -4 19q-50 11 -80 -29q-299 -363 -600 -723q-102 -127 -209 -217q-108 -93 -190 -139q-32 -21 -62 -29
q-22 17 -26.5 31.5t4.5 36.5q24 56 69 98q7 7 33 20q16 9 35 4q33 -6 67 0q6 19 -2 33q-35 15 -100 11q-56 -3 -92 -39q-44 -41 -70 -101q-20 -47 -4 -96zM1147 1487q-3 -50 47 -76q33 -19 94 -12q26 3 45 22q43 56 43 121q0 55 -53 70q-1 0 -59 12v-4h-27q-28 2 -57 -27
q-20 -17 -27 -49q-2 -11 -4 -33t-2 -24zM1210 1493q-6 50 41 82q1 0 3 1t3 1q18 3 39 -15.5t15 -35.5q-8 -23 -21 -53q-11 -21 -26 -29q-48 9 -54 49z" />
    <glyph glyph-name="AE" unicode="&#xc6;" horiz-adv-x="1245" 
d="M487 383q12 2 19 6l315 143l2 5q11 3 29 10l10 12q89 202 242 557q-129 -153 -354 -424q-21 -25 -61.5 -74t-65.5 -79t-61 -71t-68 -75zM8 168q-17 47 2 96q24 58 70 101q41 38 92 41h17h17.5t16 -0.5t17 -1.5t15.5 -3.5t17 -5.5q9 -11 2 -33q-25 -7 -67 0q-16 5 -35 -4
q-27 -16 -33 -22q-44 -38 -69 -96q-9 -21 -4 -37t28 -31q13 3 62 27q100 61 190 141q96 83 209 217q68 82 188.5 227t221 266t188.5 228q35 41 80 31q4 -12 4 -21q2 -29 -12 -74l-6 -18h6q24 3 67.5 10.5t63.5 10.5q94 13 213 20q34 0 43 -4q2 -8 2 -27l-12 -6
q-56 -4 -86 -8q-159 -12 -314 -47q-30 -75 -57 -133q-30 -67 -88 -189t-80 -170l-23 -53q6 -2 7 -2.5t6 2t6 2.5q12 4 49 23q37 21 76 12q0 -1 1 -2t1 -2q107 33 221 61q17 4 53 11.5t53 11.5q21 6 60 2l4 -8v-23q-4 -2 -39 -12q-238 -52 -498 -146q-4 -1 -12 -4t-12 -4
q-12 -3 -19 -14v-2q-4 -8 -6 -10l-18 -43q-10 -22 -31.5 -73.5t-34.5 -78.5q-45 -107 -106 -276h10q99 27 201 51q58 15 98 6q4 -21 -4 -31q-23 -6 -71.5 -17.5t-71.5 -17.5q-77 -20 -142 -39q-30 -9 -41 -14q-6 -15 -15 -44t-13 -40q-14 -42 -29 -117q-7 -26 14 -41
q29 6 49 29q29 29 76 19q9 -26 -14 -45q-60 -57 -144 -48q-40 6 -43 45q-3 40 3 80q4 21 40 146q-16 0 -26 2q-4 31 14 37q11 3 21 28q131 302 137 316q5 15 12 30.5t15.5 34.5t13.5 31l14 37q2 2 2 8l-16 -4q-16 -7 -77 -34t-86.5 -38.5t-73 -33.5t-85.5 -41t-75 -39
q-78 -45 -125 -74q-21 -12 -43 -31q-26 -22 -50 -22q-1 0 -28 -11q-41 -18 -103 -14q-38 3 -51 39z" />
    <glyph glyph-name="Ccedilla" unicode="&#xc7;" horiz-adv-x="677" 
d="M743 610q15 0 21 -2q33 -3 61 25q17 18 52 54t51 54q36 39 63 101q17 40 15 69q-3 61 -62 76q-10 2 -29 2q-87 7 -151 -33q-7 -5 -51.5 -31.5t-67.5 -43.5q-243 -178 -432 -404q-169 -205 -283 -448q-33 -72 -45 -123q-14 -74 -2 -125q8 -41 38 -70t71 -33h4
q-6 -14 -16 -28q-13 -27 -5 -41q52 -4 72 6q16 8 23 -6q4 -13 2 -21q-14 -34 -39 -51q-20 -11 -53 0q-27 6 -54 0l-6 -6v-29q68 -20 127 -10q47 6 74 47q19 34 16 76q-1 20 -11 30t-30 13q-5 1 -14.5 2t-15.5 2q1 3 2 7.5t2 6.5q43 6 88 21q41 14 121 55q144 80 348 234
q2 0 6 4q10 9 11 15.5t-5 25.5q-38 7 -78 -21q-102 -74 -207 -147q-110 -72 -202 -115l-58 -20q2 12 -4 28q-40 4 -53 -4q-14 -23 -17 -31l-12 -20q-2 -4 -6 -11.5t-6 -11.5q51 -4 74 -2l2 2q1 3 16 33q6 9 6 17q-12 -3 -24 -9q-22 -8 -50 2l-10 5q-42 16 -61 63
q-15 33 -4 82q14 70 51 143q79 169 188 320q184 256 447 461q85 71 149 108q15 7 43.5 20.5t42.5 20.5q27 14 58 -10q25 -18 14 -53q-11 -25 -20 -39q-23 -39 -56 -80q-26 -29 -106 -109q-20 -20 -13 -43z" />
    <glyph glyph-name="Egrave" unicode="&#xc8;" horiz-adv-x="733" 
d="M414 872l-226 -583q-7 -2 -19 -8t-15 -7q-148 -65 -281 -151q-9 -6 -25.5 -18.5t-19.5 -14.5q-19 -19 -10 -41l4 -4h6q39 -6 63 18q11 11 35 27q111 69 203 115q6 3 27 10q-1 -3 -2 -9.5t-2 -8.5q-10 -30 -27 -70l-148 -383q0 -1 -2.5 -9.5t-6 -12.5t-9.5 -7
q-20 -7 -12 -37q45 -7 78 9q8 4 63 26q15 4 63.5 20t75.5 23q108 32 144 41q7 12 0 31q-40 7 -97 -8q-25 -7 -93 -28.5t-105 -31.5q-6 -2 -23 -2q1 2 1.5 5t1 5t1.5 3l181 469q6 18 24 24q3 2 11.5 5t11.5 5q233 96 491 166q30 9 39 13v22q-4 4 -6 8q-33 4 -59 -4
q-35 -8 -105 -28q-161 -46 -344 -115q-17 -9 -27 -2q16 41 94.5 245.5t120.5 311.5q9 6 11 6q150 39 317 61q16 2 46 5.5t42 5.5q10 5 13 8q-1 5 -2.5 14t-2.5 13q-7 2 -43 2q-130 -14 -213 -31l-129 -25h-14q-5 19 -8 27q-5 0 -13.5 0.5t-13.5 0.5t-12.5 -1t-13.5 -4
l-19 -45l-8 -2t-8.5 -2t-7.5 -2q-92 -25 -174 -58q-38 -17 -58 -28q-21 -11 -12 -39q43 -6 76 12q54 31 172 63zM541 1294q-6 -18 2 -32q6 -9 26 -37t34 -45.5t30 -32.5h53q9 25 -10 51q-21 25 -62 80q-3 3 -8 10t-8 10h-43q-6 0 -14 -4z" />
    <glyph glyph-name="Eacute" unicode="&#xc9;" horiz-adv-x="733" 
d="M414 872l-226 -583q-7 -2 -19 -8t-15 -7q-148 -65 -281 -151q-9 -6 -25.5 -18.5t-19.5 -14.5q-19 -19 -10 -41l4 -4h6q39 -6 63 18q11 11 35 27q111 69 203 115q6 3 27 10q-1 -3 -2 -9.5t-2 -8.5q-10 -30 -27 -70l-148 -383q0 -1 -2.5 -9.5t-6 -12.5t-9.5 -7
q-20 -7 -12 -37q45 -7 78 9q8 4 63 26q15 4 63.5 20t75.5 23q108 32 144 41q7 12 0 31q-40 7 -97 -8q-25 -7 -93 -28.5t-105 -31.5q-6 -2 -23 -2q1 2 1.5 5t1 5t1.5 3l181 469q6 18 24 24q3 2 11.5 5t11.5 5q233 96 491 166q30 9 39 13v22q-4 4 -6 8q-33 4 -59 -4
q-35 -8 -105 -28q-161 -46 -344 -115q-17 -9 -27 -2q16 41 94.5 245.5t120.5 311.5q9 6 11 6q150 39 317 61q16 2 46 5.5t42 5.5q10 5 13 8q-1 5 -2.5 14t-2.5 13q-7 2 -43 2q-130 -14 -213 -31l-129 -25h-14q-5 19 -8 27q-5 0 -13.5 0.5t-13.5 0.5t-12.5 -1t-13.5 -4
l-19 -45l-8 -2t-8.5 -2t-7.5 -2q-92 -25 -174 -58q-38 -17 -58 -28q-21 -11 -12 -39q43 -6 76 12q54 31 172 63zM532 1151q27 -6 58 2q7 8 43 52t57 67q13 16 6 37q-50 14 -84 -29q-36 -46 -71 -86q-19 -19 -9 -43z" />
    <glyph glyph-name="Ecircumflex" unicode="&#xca;" horiz-adv-x="733" 
d="M414 872l-226 -583q-7 -2 -19 -8t-15 -7q-148 -65 -281 -151q-9 -6 -25.5 -18.5t-19.5 -14.5q-19 -19 -10 -41l4 -4h6q39 -6 63 18q11 11 35 27q111 69 203 115q6 3 27 10q-1 -3 -2 -9.5t-2 -8.5q-10 -30 -27 -70l-148 -383q0 -1 -2.5 -9.5t-6 -12.5t-9.5 -7
q-20 -7 -12 -37q45 -7 78 9q8 4 63 26q15 4 63.5 20t75.5 23q108 32 144 41q7 12 0 31q-40 7 -97 -8q-25 -7 -93 -28.5t-105 -31.5q-6 -2 -23 -2q1 2 1.5 5t1 5t1.5 3l181 469q6 18 24 24q3 2 11.5 5t11.5 5q233 96 491 166q30 9 39 13v22q-4 4 -6 8q-33 4 -59 -4
q-35 -8 -105 -28q-161 -46 -344 -115q-17 -9 -27 -2q16 41 94.5 245.5t120.5 311.5q9 6 11 6q150 39 317 61q16 2 46 5.5t42 5.5q10 5 13 8q-1 5 -2.5 14t-2.5 13q-7 2 -43 2q-130 -14 -213 -31l-129 -25h-14q-5 19 -8 27q-5 0 -13.5 0.5t-13.5 0.5t-12.5 -1t-13.5 -4
l-19 -45l-8 -2t-8.5 -2t-7.5 -2q-92 -25 -174 -58q-38 -17 -58 -28q-21 -11 -12 -39q43 -6 76 12q54 31 172 63zM500 1151q3 -1 7.5 -2t6.5 -2q42 -3 61 24q12 22 37 37l66 -75q5 0 13 -0.5t13.5 -0.5t12 1t12.5 4q12 27 -10 49q-31 37 -72 90h-20q-34 3 -62 -25
q-9 -10 -28.5 -29.5t-28.5 -29.5q-16 -19 -8 -41z" />
    <glyph glyph-name="Edieresis" unicode="&#xcb;" horiz-adv-x="733" 
d="M414 872l-226 -583q-7 -2 -19 -8t-15 -7q-148 -65 -281 -151q-9 -6 -25.5 -18.5t-19.5 -14.5q-19 -19 -10 -41l4 -4h6q39 -6 63 18q11 11 35 27q111 69 203 115q6 3 27 10q-1 -3 -2 -9.5t-2 -8.5q-10 -30 -27 -70l-148 -383q0 -1 -2.5 -9.5t-6 -12.5t-9.5 -7
q-20 -7 -12 -37q45 -7 78 9q8 4 63 26q15 4 63.5 20t75.5 23q108 32 144 41q7 12 0 31q-40 7 -97 -8q-25 -7 -93 -28.5t-105 -31.5q-6 -2 -23 -2q1 2 1.5 5t1 5t1.5 3l181 469q6 18 24 24q3 2 11.5 5t11.5 5q233 96 491 166q30 9 39 13v22q-4 4 -6 8q-33 4 -59 -4
q-35 -8 -105 -28q-161 -46 -344 -115q-17 -9 -27 -2q16 41 94.5 245.5t120.5 311.5q9 6 11 6q150 39 317 61q16 2 46 5.5t42 5.5q10 5 13 8q-1 5 -2.5 14t-2.5 13q-7 2 -43 2q-130 -14 -213 -31l-129 -25h-14q-5 19 -8 27q-5 0 -13.5 0.5t-13.5 0.5t-12.5 -1t-13.5 -4
l-19 -45l-8 -2t-8.5 -2t-7.5 -2q-92 -25 -174 -58q-38 -17 -58 -28q-21 -11 -12 -39q43 -6 76 12q54 31 172 63zM518 1176q7 -2 43 -2q22 2 31.5 21t-2.5 38q-4 8 -15 8q-31 0 -45 -2q-14 -23 -15 -30.5t3 -32.5zM645 1206q-4 -31 6 -41q8 -4 11 -4q36 0 47 4q10 35 4 68
q-9 -1 -25 -2t-24 -2q-19 -3 -19 -23z" />
    <glyph glyph-name="Igrave" unicode="&#xcc;" horiz-adv-x="315" 
d="M55 -145l13 39l49 124q74 193 174 498q80 237 123 344q53 121 84 166q12 3 35 8t34 8l240 50q2 1 8.5 4t11.5 4q0 18 -2 28q-37 6 -67 -2l-238 -49q-35 -8 -104.5 -24.5t-104.5 -24.5q-39 -13 -53 -20q-17 -9 -22.5 -19.5t-2.5 -27.5q4 -29 29 -29q33 -4 49 4v37
q39 21 95 31l-9 -23q-5 -10 -14 -30.5t-14 -30.5q-43 -100 -107 -291q-8 -24 -57.5 -170t-68.5 -200t-57.5 -158.5t-72.5 -186.5q-2 -6 -7.5 -20.5t-8 -22.5t-5 -20t-1.5 -23q-5 -2 -18.5 -7.5t-20.5 -8.5q-37 -16 -111 -52q-24 -12 -43 -28q-24 -21 -8 -56h51
q9 21 13.5 26.5t21.5 14.5q110 54 121 58q125 54 344 116l35 13v30q-45 4 -68 -4q-35 -10 -104.5 -31.5t-104.5 -31.5q-11 -2 -37 -12zM440 1393q-6 -19 2 -33q6 -9 26 -37t34 -45.5t30 -32.5h54q8 24 -11 51q-13 16 -61 80q-3 3 -8 10.5t-8 10.5h-43q-7 0 -15 -4z" />
    <glyph glyph-name="Iacute" unicode="&#xcd;" horiz-adv-x="315" 
d="M55 -145l13 39l49 124q74 193 174 498q80 237 123 344q53 121 84 166q12 3 35 8t34 8l240 50q2 1 8.5 4t11.5 4q0 18 -2 28q-37 6 -67 -2l-238 -49q-35 -8 -104.5 -24.5t-104.5 -24.5q-39 -13 -53 -20q-17 -9 -22.5 -19.5t-2.5 -27.5q4 -29 29 -29q33 -4 49 4v37
q39 21 95 31l-9 -23q-5 -10 -14 -30.5t-14 -30.5q-43 -100 -107 -291q-8 -24 -57.5 -170t-68.5 -200t-57.5 -158.5t-72.5 -186.5q-2 -6 -7.5 -20.5t-8 -22.5t-5 -20t-1.5 -23q-5 -2 -18.5 -7.5t-20.5 -8.5q-37 -16 -111 -52q-24 -12 -43 -28q-24 -21 -8 -56h51
q9 21 13.5 26.5t21.5 14.5q110 54 121 58q125 54 344 116l35 13v30q-45 4 -68 -4q-35 -10 -104.5 -31.5t-104.5 -31.5q-11 -2 -37 -12zM432 1249q27 -6 57 2q96 113 101 119q13 16 6 37q-50 14 -84 -29q-25 -31 -72 -86q-19 -19 -8 -43z" />
    <glyph glyph-name="Icircumflex" unicode="&#xce;" horiz-adv-x="315" 
d="M55 -145l13 39l49 124q74 193 174 498q80 237 123 344q53 121 84 166q12 3 35 8t34 8l240 50q2 1 8.5 4t11.5 4q0 18 -2 28q-37 6 -67 -2l-238 -49q-35 -8 -104.5 -24.5t-104.5 -24.5q-39 -13 -53 -20q-17 -9 -22.5 -19.5t-2.5 -27.5q4 -29 29 -29q33 -4 49 4v37
q39 21 95 31l-9 -23q-5 -10 -14 -30.5t-14 -30.5q-43 -100 -107 -291q-8 -24 -57.5 -170t-68.5 -200t-57.5 -158.5t-72.5 -186.5q-2 -6 -7.5 -20.5t-8 -22.5t-5 -20t-1.5 -23q-5 -2 -18.5 -7.5t-20.5 -8.5q-37 -16 -111 -52q-24 -12 -43 -28q-24 -21 -8 -56h51
q9 21 13.5 26.5t21.5 14.5q110 54 121 58q125 54 344 116l35 13v30q-45 4 -68 -4q-35 -10 -104.5 -31.5t-104.5 -31.5q-11 -2 -37 -12zM399 1249q3 -1 8 -2t7 -2q41 -3 61 25q12 22 37 37l66 -76q5 0 13 -0.5t13.5 -0.5t12 1t12.5 4q12 26 -11 49q-23 27 -71 90h-21
q-34 3 -61 -24q-9 -10 -28.5 -30t-28.5 -30q-17 -20 -9 -41z" />
    <glyph glyph-name="Idieresis" unicode="&#xcf;" horiz-adv-x="315" 
d="M55 -145l13 39l49 124q74 193 174 498q80 237 123 344q53 121 84 166q12 3 35 8t34 8l240 50q2 1 8.5 4t11.5 4q0 18 -2 28q-37 6 -67 -2l-238 -49q-35 -8 -104.5 -24.5t-104.5 -24.5q-39 -13 -53 -20q-17 -9 -22.5 -19.5t-2.5 -27.5q4 -29 29 -29q33 -4 49 4v37
q39 21 95 31l-9 -23q-5 -10 -14 -30.5t-14 -30.5q-43 -100 -107 -291q-8 -24 -57.5 -170t-68.5 -200t-57.5 -158.5t-72.5 -186.5q-2 -6 -7.5 -20.5t-8 -22.5t-5 -20t-1.5 -23q-5 -2 -18.5 -7.5t-20.5 -8.5q-37 -16 -111 -52q-24 -12 -43 -28q-24 -21 -8 -56h51
q9 21 13.5 26.5t21.5 14.5q110 54 121 58q125 54 344 116l35 13v30q-45 4 -68 -4q-35 -10 -104.5 -31.5t-104.5 -31.5q-11 -2 -37 -12zM418 1274q7 -2 43 -2q22 1 31 20.5t-3 38.5q-4 8 -14 8q-31 0 -45 -2q-14 -23 -15 -30.5t3 -32.5zM545 1305q-4 -31 6 -41q8 -4 10 -4
q36 0 47 4q10 35 4 67q-9 -1 -25 -2t-24 -2q-18 -3 -18 -22z" />
    <glyph glyph-name="Ntilde" unicode="&#xd1;" horiz-adv-x="950" 
d="M197 301q-2 -2 -2 -8q-2 2 -2 4zM-78 -154q-8 -27 2 -41h53q46 72 109 177q32 51 93 153.5t93 153.5q26 44 78 123.5t74 115.5q115 185 229 324q76 91 195 170q42 27 100 47q23 6 43 -6q60 -40 60 -113q-3 -77 -35 -159q-26 -67 -72 -150q-177 -316 -282 -487
q-96 -153 -154 -344q-11 -33 -23 -89q-7 -24 2 -40q10 -5 17 -5q35 0 53 2q58 5 125 48l111 81q8 6 20 16t17 14t13 10t12.5 9t10 7.5t11.5 8t11.5 7.5t15 9.5t17.5 10t23 13.5q4 3 13.5 8t13.5 8q4 23 0 31q-35 5 -45.5 3t-38.5 -17q-60 -36 -75.5 -47t-72.5 -56
q-66 -53 -92 -69q-6 -4 -76 -43q-8 -8 -18 0l6 24q58 209 152 357q96 155 290 501q25 44 66 131q35 73 45 183q4 55 -6 90q-15 74 -90 96q-31 9 -86 -2q-87 -20 -150 -63q-108 -73 -190 -175q-118 -143 -238 -337q-45 -74 -139 -218q-1 -1 -3.5 -6.5t-5 -8t-7.5 -1.5
q0 1 4 15.5t8 21.5q12 28 37.5 83t38.5 83q42 85 61 158q18 73 6 145q-7 33 -24 47q-12 12 -25 12q-53 4 -80 -6q-89 -35 -207 -119q-12 -9 -13 -18t5 -29h39q10 0 16 6q44 38 162 105l39 18q17 -15 22 -25t7 -30q5 -45 -10 -96q-25 -80 -68 -164q-46 -90 -84 -191
q-11 -26 -35 -79.5t-35 -79.5q-64 -136 -114 -248q-9 -18 -25 -64zM932 1395q-8 -29 2 -41h49q5 9 23 30q2 -4 4.5 -8.5t4 -7t3.5 -4.5q12 -27 43 -27h47q25 4 35 19q29 36 18 74q-29 6 -53 0q-4 -4 -10 -21t-17 -20q-7 14 -16 26q-8 12 -16 15q-55 4 -86 -7q-22 -6 -31 -28
z" />
    <glyph glyph-name="Ograve" unicode="&#xd2;" horiz-adv-x="700" 
d="M893 911q3 -27 -19 -41q-150 -100 -262 -147q-22 -11 -53 -18q-10 -3 -16 2t-4 14q0 8 4 24q17 42 35 72q66 110 167 178q24 16 58 33q28 13 49 -8q19 -23 25 -35q16 -33 16 -74zM-39 -182q0 -49 19 -101q14 -38 59 -41q62 -3 113 23q17 9 84 51q78 52 170 141
q78 81 145 166q103 133 332 592q51 103 63 185q6 21 23 32q33 22 80 62q0 5 -1 15t-1 15q-13 0 -25 3q-26 3 -49 -17q-3 -4 -17 -8q-1 5 -2 14t-2 13q-17 57 -18 59q-23 50 -84 53q-84 6 -152 -41q-122 -83 -186 -200q-16 -27 -29 -64q-13 -38 -8 -72q3 -36 39 -36
q71 -4 111 12q36 13 67 26q73 33 160 86q9 9 16 2q-4 -16 -8 -24q-27 -65 -51 -115q-231 -455 -332 -581q-99 -127 -203 -213q-81 -68 -153 -111q-39 -22 -55 -25q-15 6 -29 33q-12 47 -12 49q-8 67 4 140q18 99 59 196q75 195 205.5 441.5t243.5 394.5l28 33q13 16 35 16
q23 0 35 2q7 26 -2 35q-14 14 -25 16q-23 5 -47 0t-41 -26q-7 -9 -31 -37t-36 -45q-168 -222 -297 -486q-26 -53 -79.5 -191t-76.5 -206q-47 -140 -39 -266zM719 1464q-6 -18 2 -32q6 -9 26 -37t34 -45.5t30 -32.5h53q9 25 -10 51q-13 16 -61 80q-3 3 -8.5 10t-8.5 10h-43
q-6 0 -14 -4z" />
    <glyph glyph-name="Oacute" unicode="&#xd3;" horiz-adv-x="700" 
d="M893 911q3 -27 -19 -41q-150 -100 -262 -147q-22 -11 -53 -18q-10 -3 -16 2t-4 14q0 8 4 24q17 42 35 72q66 110 167 178q24 16 58 33q28 13 49 -8q19 -23 25 -35q16 -33 16 -74zM-39 -182q0 -49 19 -101q14 -38 59 -41q62 -3 113 23q17 9 84 51q78 52 170 141
q78 81 145 166q103 133 332 592q51 103 63 185q6 21 23 32q33 22 80 62q0 5 -1 15t-1 15q-13 0 -25 3q-26 3 -49 -17q-3 -4 -17 -8q-1 5 -2 14t-2 13q-17 57 -18 59q-23 50 -84 53q-84 6 -152 -41q-122 -83 -186 -200q-16 -27 -29 -64q-13 -38 -8 -72q3 -36 39 -36
q71 -4 111 12q36 13 67 26q73 33 160 86q9 9 16 2q-4 -16 -8 -24q-27 -65 -51 -115q-231 -455 -332 -581q-99 -127 -203 -213q-81 -68 -153 -111q-39 -22 -55 -25q-15 6 -29 33q-12 47 -12 49q-8 67 4 140q18 99 59 196q75 195 205.5 441.5t243.5 394.5l28 33q13 16 35 16
q23 0 35 2q7 26 -2 35q-14 14 -25 16q-23 5 -47 0t-41 -26q-7 -9 -31 -37t-36 -45q-168 -222 -297 -486q-26 -53 -79.5 -191t-76.5 -206q-47 -140 -39 -266zM711 1321q27 -6 57 2q6 8 42.5 52t57.5 67q13 16 6 37q-49 13 -83 -29q-25 -31 -72 -86q-19 -19 -8 -43z" />
    <glyph glyph-name="Ocircumflex" unicode="&#xd4;" horiz-adv-x="700" 
d="M893 911q3 -27 -19 -41q-150 -100 -262 -147q-22 -11 -53 -18q-10 -3 -16 2t-4 14q0 8 4 24q17 42 35 72q66 110 167 178q24 16 58 33q28 13 49 -8q19 -23 25 -35q16 -33 16 -74zM-39 -182q0 -49 19 -101q14 -38 59 -41q62 -3 113 23q17 9 84 51q78 52 170 141
q78 81 145 166q103 133 332 592q51 103 63 185q6 21 23 32q33 22 80 62q0 5 -1 15t-1 15q-13 0 -25 3q-26 3 -49 -17q-3 -4 -17 -8q-1 5 -2 14t-2 13q-17 57 -18 59q-23 50 -84 53q-84 6 -152 -41q-122 -83 -186 -200q-16 -27 -29 -64q-13 -38 -8 -72q3 -36 39 -36
q71 -4 111 12q36 13 67 26q73 33 160 86q9 9 16 2q-4 -16 -8 -24q-27 -65 -51 -115q-231 -455 -332 -581q-99 -127 -203 -213q-81 -68 -153 -111q-39 -22 -55 -25q-15 6 -29 33q-12 47 -12 49q-8 67 4 140q18 99 59 196q75 195 205.5 441.5t243.5 394.5l28 33q13 16 35 16
q23 0 35 2q7 26 -2 35q-14 14 -25 16q-23 5 -47 0t-41 -26q-7 -9 -31 -37t-36 -45q-168 -222 -297 -486q-26 -53 -79.5 -191t-76.5 -206q-47 -140 -39 -266zM678 1321q3 -1 7.5 -2t6.5 -2q43 -3 62 24q12 22 37 37l65 -75q5 0 13 -0.5t13.5 -0.5t12 1t12.5 4q12 27 -10 49
q-32 37 -72 90h-20q-34 3 -62 -25q-9 -10 -28.5 -29.5t-28.5 -29.5q-16 -19 -8 -41z" />
    <glyph glyph-name="Otilde" unicode="&#xd5;" horiz-adv-x="700" 
d="M893 911q3 -27 -19 -41q-150 -100 -262 -147q-22 -11 -53 -18q-10 -3 -16 2t-4 14q0 8 4 24q17 42 35 72q66 110 167 178q24 16 58 33q28 13 49 -8q19 -23 25 -35q16 -33 16 -74zM-39 -182q0 -49 19 -101q14 -38 59 -41q62 -3 113 23q17 9 84 51q78 52 170 141
q78 81 145 166q103 133 332 592q51 103 63 185q6 21 23 32q33 22 80 62q0 5 -1 15t-1 15q-13 0 -25 3q-26 3 -49 -17q-3 -4 -17 -8q-1 5 -2 14t-2 13q-17 57 -18 59q-23 50 -84 53q-84 6 -152 -41q-122 -83 -186 -200q-16 -27 -29 -64q-13 -38 -8 -72q3 -36 39 -36
q71 -4 111 12q36 13 67 26q73 33 160 86q9 9 16 2q-4 -16 -8 -24q-27 -65 -51 -115q-231 -455 -332 -581q-99 -127 -203 -213q-81 -68 -153 -111q-39 -22 -55 -25q-15 6 -29 33q-12 47 -12 49q-8 67 4 140q18 99 59 196q75 195 205.5 441.5t243.5 394.5l28 33q13 16 35 16
q23 0 35 2q7 26 -2 35q-14 14 -25 16q-23 5 -47 0t-41 -26q-7 -9 -31 -37t-36 -45q-168 -222 -297 -486q-26 -53 -79.5 -191t-76.5 -206q-47 -140 -39 -266zM678 1395q-8 -29 2 -41h49q5 9 23 30q2 -4 4.5 -8.5t4 -7t3.5 -4.5q12 -27 43 -27h47q25 4 35 19q29 36 18 74
q-29 6 -53 0q-4 -4 -10 -21t-17 -20q-7 14 -16 26q-8 12 -16 15q-55 4 -86 -7q-22 -6 -31 -28z" />
    <glyph glyph-name="Odieresis" unicode="&#xd6;" horiz-adv-x="700" 
d="M893 911q3 -27 -19 -41q-150 -100 -262 -147q-22 -11 -53 -18q-10 -3 -16 2t-4 14q0 8 4 24q17 42 35 72q66 110 167 178q24 16 58 33q28 13 49 -8q19 -23 25 -35q16 -33 16 -74zM-39 -182q0 -49 19 -101q14 -38 59 -41q62 -3 113 23q17 9 84 51q78 52 170 141
q78 81 145 166q103 133 332 592q51 103 63 185q6 21 23 32q33 22 80 62q0 5 -1 15t-1 15q-13 0 -25 3q-26 3 -49 -17q-3 -4 -17 -8q-1 5 -2 14t-2 13q-17 57 -18 59q-23 50 -84 53q-84 6 -152 -41q-122 -83 -186 -200q-16 -27 -29 -64q-13 -38 -8 -72q3 -36 39 -36
q71 -4 111 12q36 13 67 26q73 33 160 86q9 9 16 2q-4 -16 -8 -24q-27 -65 -51 -115q-231 -455 -332 -581q-99 -127 -203 -213q-81 -68 -153 -111q-39 -22 -55 -25q-15 6 -29 33q-12 47 -12 49q-8 67 4 140q18 99 59 196q75 195 205.5 441.5t243.5 394.5l28 33q13 16 35 16
q23 0 35 2q7 26 -2 35q-14 14 -25 16q-23 5 -47 0t-41 -26q-7 -9 -31 -37t-36 -45q-168 -222 -297 -486q-26 -53 -79.5 -191t-76.5 -206q-47 -140 -39 -266zM696 1346q11 -3 43 -3q22 2 31.5 21.5t-2.5 38.5q-4 8 -14 8q-31 0 -45 -2q-14 -24 -15.5 -30.5t2.5 -32.5z
M823 1376q-4 -31 6 -41q8 -4 11 -4q36 0 47 4q10 35 4 68q-9 -1 -25 -2t-24 -2q-19 -3 -19 -23z" />
    <glyph glyph-name="multiply" unicode="&#xd7;" horiz-adv-x="288" 
d="M168 379q-22 35 -25 39q-19 28 -25 31t-42 2l-10 -5q0 -1 -1.5 -2t-1.5 -2q-7 -17 11 -39q3 -6 10 -17t10 -17q18 -27 21 -39q-8 -6 -22 -18t-15 -13l-45 -47q-17 -17 -8 -41q18 -4 53 0l15.5 15.5t19 19.5t16.5 16q7 7 16 10q18 -27 50 -77q34 -3 55 2q9 21 -8 49
q-6 8 -23 37q-17 34 -18 41l55 59q21 18 8 45q-38 4 -53 0z" />
    <glyph glyph-name="Oslash" unicode="&#xd8;" horiz-adv-x="866" 
d="M979 870q21 13 18 39q0 43 -16 74l-6 12q-26 -39 -78.5 -116.5t-67.5 -100.5q86 49 150 92zM2 -369q-5 24 14 50q36 54 54 83l-7 52q-6 130 41 268q19 61 74 201t82 196q120 253 297 486q11 16 35.5 44t32.5 38q25 34 88 26q8 -2 22 -16q12 -12 2 -35q-23 -4 -32 -2
q-24 0 -35 -16l-29 -33q-112 -147 -243 -393.5t-208 -442.5q-41 -102 -57 -198q-8 -39 -8 -89q16 21 33 52q106 162 508 757q-27 0 -48 3q-20 0 -28.5 8.5t-11.5 27.5q-3 35 10 72q14 39 26 64q67 117 189 200q58 41 139 41q10 16 29 45t26 41l25 37q35 -7 55 -12
q7 -10 -2 -33q-3 -5 -11 -17.5t-11 -19.5l-41 -61q9 -7 26 -33q4 -9 19 -59q2 -8 2 -29q16 8 18 10q20 17 49 17q12 -3 25 -3q0 -20 2 -30q-48 -41 -82 -62q-17 -14 -20 -32q-15 -81 -66 -185q-212 -436 -330 -592q-71 -90 -147 -166q-82 -82 -170 -141q-40 -27 -84 -51
q-46 -26 -113 -23q-22 0 -35 13l-20 -33q-12 -18 -27 -39q-17 5 -57 14zM143 -254q7 -19 27 -27q17 4 55 25q75 44 152 111q109 91 205 213q102 129 331 581q31 63 52 115q4 8 8 24q-7 8 -17 -2q-90 -54 -159 -86q-4 -2 -12.5 -5t-12.5 -5q-40 -60 -282.5 -423t-346.5 -521z
M641 721q0 -9 6 -14t15 -2l40 12q45 65 121 180t88 133q-2 -2 -6 -2q-8 -5 -27 -15.5t-28 -17.5q-106 -71 -170 -178q-18 -35 -33 -72z" />
    <glyph glyph-name="Ugrave" unicode="&#xd9;" horiz-adv-x="851" 
d="M403 991q2 -1 8.5 -4.5t8.5 -5.5q68 -50 45 -127q-4 -11 -10.5 -34.5t-10.5 -35.5q-56 -152 -145 -342q-9 -18 -67 -137t-87 -182q-38 -74 -69 -180q-30 -90 8 -203q14 -41 57 -41q60 0 109 14q89 27 164 90q72 58 168 177q13 22 24 28l-6 -31q-22 -98 -39 -182
q-10 -41 2 -78q6 -32 37 -32q46 -6 90 6q101 30 178 104q20 20 9 43q-46 10 -76 -20q-47 -49 -135 -84q-5 -2 -29 -8q-16 11 -16 32q0 13 4 37q25 133 55 221q34 102 115 287q138 318 186 459l31 88q7 25 2 45q-32 3 -56 -2q-5 -8 -14 -31q-18 -50 -39 -102
q-8 -21 -44.5 -118t-59.5 -148q-88 -201 -256 -455l-23 -31q-82 -105 -164 -174q-79 -63 -172 -90q-23 -8 -36 14l-7 13q-30 88 -6 159q39 110 68 170l88 179q143 294 203 458q24 74 28 90q16 64 6 115q-14 59 -77 86q-6 4 -19 4q-49 3 -88 -10q-56 -19 -131 -72
q-40 -32 -25 -82q22 -6 29 -6t29 6l2 15q0 17 16 30q66 53 137 78zM690 1321q-6 -19 2 -33q7 -10 21 -29t22.5 -31t21.5 -27t25 -27h54q8 24 -11 51q-13 16 -61 80q-3 3 -8 10t-8 10h-43q-7 0 -15 -4z" />
    <glyph glyph-name="Uacute" unicode="&#xda;" horiz-adv-x="851" 
d="M403 991q2 -1 8.5 -4.5t8.5 -5.5q68 -50 45 -127q-4 -11 -10.5 -34.5t-10.5 -35.5q-56 -152 -145 -342q-9 -18 -67 -137t-87 -182q-38 -74 -69 -180q-30 -90 8 -203q14 -41 57 -41q60 0 109 14q89 27 164 90q72 58 168 177q13 22 24 28l-6 -31q-22 -98 -39 -182
q-10 -41 2 -78q6 -32 37 -32q46 -6 90 6q101 30 178 104q20 20 9 43q-46 10 -76 -20q-47 -49 -135 -84q-5 -2 -29 -8q-16 11 -16 32q0 13 4 37q25 133 55 221q34 102 115 287q138 318 186 459l31 88q7 25 2 45q-32 3 -56 -2q-5 -8 -14 -31q-18 -50 -39 -102
q-8 -21 -44.5 -118t-59.5 -148q-88 -201 -256 -455l-23 -31q-82 -105 -164 -174q-79 -63 -172 -90q-23 -8 -36 14l-7 13q-30 88 -6 159q39 110 68 170l88 179q143 294 203 458q24 74 28 90q16 64 6 115q-14 59 -77 86q-6 4 -19 4q-49 3 -88 -10q-56 -19 -131 -72
q-40 -32 -25 -82q22 -6 29 -6t29 6l2 15q0 17 16 30q66 53 137 78zM682 1178q27 -6 57 2q81 95 101 118q13 16 6 37q-51 14 -84 -28q-25 -31 -72 -86q-19 -19 -8 -43z" />
    <glyph glyph-name="Ucircumflex" unicode="&#xdb;" horiz-adv-x="851" 
d="M403 991q2 -1 8.5 -4.5t8.5 -5.5q68 -50 45 -127q-4 -11 -10.5 -34.5t-10.5 -35.5q-56 -152 -145 -342q-9 -18 -67 -137t-87 -182q-38 -74 -69 -180q-30 -90 8 -203q14 -41 57 -41q60 0 109 14q89 27 164 90q72 58 168 177q13 22 24 28l-6 -31q-22 -98 -39 -182
q-10 -41 2 -78q6 -32 37 -32q46 -6 90 6q101 30 178 104q20 20 9 43q-46 10 -76 -20q-47 -49 -135 -84q-5 -2 -29 -8q-16 11 -16 32q0 13 4 37q25 133 55 221q34 102 115 287q138 318 186 459l31 88q7 25 2 45q-32 3 -56 -2q-5 -8 -14 -31q-18 -50 -39 -102
q-8 -21 -44.5 -118t-59.5 -148q-88 -201 -256 -455l-23 -31q-82 -105 -164 -174q-79 -63 -172 -90q-23 -8 -36 14l-7 13q-30 88 -6 159q39 110 68 170l88 179q143 294 203 458q24 74 28 90q16 64 6 115q-14 59 -77 86q-6 4 -19 4q-49 3 -88 -10q-56 -19 -131 -72
q-40 -32 -25 -82q22 -6 29 -6t29 6l2 15q0 17 16 30q66 53 137 78zM649 1178q3 -1 8 -2t7 -2q42 -3 61 24q12 22 37 37l65 -76q3 0 16 -1t21 0t15 5q12 26 -11 49q-17 20 -71 91h-21q-33 3 -61 -25q-9 -10 -29 -29.5t-29 -29.5q-16 -19 -8 -41z" />
    <glyph glyph-name="Udieresis" unicode="&#xdc;" horiz-adv-x="851" 
d="M403 991q2 -1 8.5 -4.5t8.5 -5.5q68 -50 45 -127q-4 -11 -10.5 -34.5t-10.5 -35.5q-56 -152 -145 -342q-9 -18 -67 -137t-87 -182q-38 -74 -69 -180q-30 -90 8 -203q14 -41 57 -41q60 0 109 14q89 27 164 90q72 58 168 177q13 22 24 28l-6 -31q-22 -98 -39 -182
q-10 -41 2 -78q6 -32 37 -32q46 -6 90 6q101 30 178 104q20 20 9 43q-46 10 -76 -20q-47 -49 -135 -84q-5 -2 -29 -8q-16 11 -16 32q0 13 4 37q25 133 55 221q34 102 115 287q138 318 186 459l31 88q7 25 2 45q-32 3 -56 -2q-5 -8 -14 -31q-18 -50 -39 -102
q-8 -21 -44.5 -118t-59.5 -148q-88 -201 -256 -455l-23 -31q-82 -105 -164 -174q-79 -63 -172 -90q-23 -8 -36 14l-7 13q-30 88 -6 159q39 110 68 170l88 179q143 294 203 458q24 74 28 90q16 64 6 115q-14 59 -77 86q-6 4 -19 4q-49 3 -88 -10q-56 -19 -131 -72
q-40 -32 -25 -82q22 -6 29 -6t29 6l2 15q0 17 16 30q66 53 137 78zM668 1202q7 -2 43 -2q22 1 31 21t-3 39q-4 8 -14 8q-31 0 -45 -2q-13 -23 -15 -31t3 -33zM795 1233q-4 -31 6 -41q8 -4 10 -4q36 0 47 4q10 35 4 68q-8 -1 -24 -2.5t-25 -2.5q-18 -3 -18 -22z" />
    <glyph glyph-name="Yacute" unicode="&#xdd;" horiz-adv-x="786" 
d="M369 965q2 42 47 63q5 4 14.5 7.5t11.5 4.5q20 9 37 -8q24 -21 13 -49q-2 -5 -5.5 -15.5l-6.5 -19.5t-7 -16q-22 -46 -47 -86q-21 -38 -62 -105.5t-53 -87.5q-43 -73 -65 -118q-9 -18 -21 -54q-13 -37 -6 -86q3 -42 45 -51q24 -4 39 -4q65 -3 133 16q120 34 236 125
q88 71 180 176q9 10 88 111q9 9 14 6q-1 -2 -1 -5t-1 -5q-11 -27 -46 -117.5t-56 -138.5q-93 -217 -270 -385q-262 -247 -555 -395q-15 -8 -25 -15v-22q0 -2 4 -6q47 -6 80 12q13 7 44.5 24t47.5 27q180 106 348 244q132 109 209 203q125 152 199 337q32 82 94.5 246
t93.5 246q1 4 6.5 18.5t6.5 22.5q4 26 -5 37h-24q-5 0 -14.5 -1t-14.5 -1q-11 -19 -49 -84q-105 -183 -233 -332q-96 -113 -205 -192q-98 -72 -197 -99q-27 -9 -55 -12q-31 -3 -46.5 15.5t-6.5 47.5q9 38 24 68q41 76 84 150l107 178q12 23 45 90q15 37 12 90
q-2 29 -19.5 47.5t-46.5 19.5q-33 0 -47 -2q-59 -3 -106 -41q-19 -16 -25 -36q-4 -31 4 -43h54zM705 1257q25 -5 57 3q97 115 100 118q13 16 6 37q-50 14 -84 -29q-36 -46 -71 -86q-19 -19 -8 -43z" />
    <glyph glyph-name="germandbls" unicode="&#xdf;" horiz-adv-x="585" 
d="M303 651q145 105 238 201q63 67 90 109q24 35 39 69q19 45 -11 94q-17 35 -57 54q-49 25 -108 22q-7 0 -27 -4q3 -18 -12 -68q-8 -21 -23.5 -65t-23.5 -66l-111 -317q-1 -3 -3.5 -9t-3.5 -9t-1 -8.5t2 -10.5q8 4 12 8zM4 4q-8 14 0 39l25 72q4 12 6 16l129 365
q34 99 127 362q10 30 31.5 90.5t31.5 91.5q15 46 33 90q3 8 9 34.5t14 43.5t24 25q8 4 18.5 6t18.5 1.5t21 -1t20 -0.5q36 3 84 -4q45 -10 78 -31q59 -39 65 -114q7 -76 -32 -132q-17 -27 -60 -81q-60 -73 -155 -154q-12 -9 -21 -18q2 -10 12 -5q112 12 170 2q43 -5 86 -28
q46 -28 69.5 -71t22 -84.5t-15.5 -82.5q-14 -32 -47 -74q-38 -44 -90 -83q-48 -42 -146 -105q-146 -87 -264 -143q-9 -4 -19.5 -0.5t-15.5 12.5q-10 23 13 35q122 60 233 131q67 43 146 102q47 36 90 88q28 32 47 78q12 37 -2 72q-17 48 -64 80q-74 51 -170 35
q-58 -8 -131 -35q-51 -19 -92 -51q-2 -1 -10.5 -9t-13.5 -10q-30 -15 -48 -61q-97 -281 -161 -461q-1 -7 -11 -31q-26 -12 -55 -2z" />
    <glyph glyph-name="agrave" unicode="&#xe0;" horiz-adv-x="532" 
d="M424 279q-10 -10 -16 -19l-103 -80q-68 -50 -110 -78q-57 -36 -95 -47q-12 -4 -18 -4q-8 0 -13 8t-1 15q4 12 12 20q107 150 280 187l37 6q7 0 27 -8zM0 55q2 -22 10.5 -32t28.5 -13q29 -3 57 0q65 5 133 47l90 62q3 2 11.5 6.5t13.5 7.5q-2 -7 -5.5 -19.5t-4.5 -17.5
q0 -5 -0.5 -14t-0.5 -17t1 -14q0 -12 8 -20t20 -8q68 -7 109 16q79 47 150 102q12 9 13 15.5t-5 25.5q-33 3 -43.5 0.5t-36.5 -22.5l-109 -74q-10 -7 -43 -25v23q5 15 17 35q39 79 82 133q17 24 6 49q-9 0 -15 2q-14 0 -18 8q-5 17 -29 17q-42 2 -108 -9q-200 -35 -312 -196
q-23 -33 -20 -68zM332 672q-6 -19 2 -33q6 -9 26 -37t34 -45.5t30 -32.5h53q9 25 -10 51q-13 16 -61 80q-3 3 -8.5 10.5t-8.5 10.5h-43q-6 0 -14 -4z" />
    <glyph glyph-name="aacute" unicode="&#xe1;" horiz-adv-x="532" 
d="M424 279q-10 -10 -16 -19l-103 -80q-68 -50 -110 -78q-57 -36 -95 -47q-12 -4 -18 -4q-8 0 -13 8t-1 15q4 12 12 20q107 150 280 187l37 6q7 0 27 -8zM0 55q2 -22 10.5 -32t28.5 -13q29 -3 57 0q65 5 133 47l90 62q3 2 11.5 6.5t13.5 7.5q-2 -7 -5.5 -19.5t-4.5 -17.5
q0 -5 -0.5 -14t-0.5 -17t1 -14q0 -12 8 -20t20 -8q68 -7 109 16q79 47 150 102q12 9 13 15.5t-5 25.5q-33 3 -43.5 0.5t-36.5 -22.5l-109 -74q-10 -7 -43 -25v23q5 15 17 35q39 79 82 133q17 24 6 49q-9 0 -15 2q-14 0 -18 8q-5 17 -29 17q-42 2 -108 -9q-200 -35 -312 -196
q-23 -33 -20 -68zM324 528q27 -6 57 2q6 8 42.5 52t57.5 67q13 16 6 37q-50 14 -84 -29q-36 -46 -71 -86q-19 -19 -8 -43z" />
    <glyph glyph-name="acircumflex" unicode="&#xe2;" horiz-adv-x="532" 
d="M424 279q-10 -10 -16 -19l-103 -80q-68 -50 -110 -78q-57 -36 -95 -47q-12 -4 -18 -4q-8 0 -13 8t-1 15q4 12 12 20q107 150 280 187l37 6q7 0 27 -8zM0 55q2 -22 10.5 -32t28.5 -13q29 -3 57 0q65 5 133 47l90 62q3 2 11.5 6.5t13.5 7.5q-2 -7 -5.5 -19.5t-4.5 -17.5
q0 -5 -0.5 -14t-0.5 -17t1 -14q0 -12 8 -20t20 -8q68 -7 109 16q79 47 150 102q12 9 13 15.5t-5 25.5q-33 3 -43.5 0.5t-36.5 -22.5l-109 -74q-10 -7 -43 -25v23q5 15 17 35q39 79 82 133q17 24 6 49q-9 0 -15 2q-14 0 -18 8q-5 17 -29 17q-42 2 -108 -9q-200 -35 -312 -196
q-23 -33 -20 -68zM291 528q3 -1 7.5 -2t6.5 -2q42 -3 62 25q13 23 36 37l66 -76q5 0 13 -0.5t13.5 -0.5t12 1t12.5 4q12 27 -10 49q-31 37 -72 90h-20q-35 3 -62 -24q-9 -10 -28.5 -30t-28.5 -30q-16 -19 -8 -41z" />
    <glyph glyph-name="atilde" unicode="&#xe3;" horiz-adv-x="532" 
d="M424 279q-10 -10 -16 -19l-103 -80q-68 -50 -110 -78q-57 -36 -95 -47q-12 -4 -18 -4q-8 0 -13 8t-1 15q4 12 12 20q107 150 280 187l37 6q7 0 27 -8zM0 55q2 -22 10.5 -32t28.5 -13q29 -3 57 0q65 5 133 47l90 62q3 2 11.5 6.5t13.5 7.5q-2 -7 -5.5 -19.5t-4.5 -17.5
q0 -5 -0.5 -14t-0.5 -17t1 -14q0 -12 8 -20t20 -8q68 -7 109 16q79 47 150 102q12 9 13 15.5t-5 25.5q-33 3 -43.5 0.5t-36.5 -22.5l-109 -74q-10 -7 -43 -25v23q5 15 17 35q39 79 82 133q17 24 6 49q-9 0 -15 2q-14 0 -18 8q-5 17 -29 17q-42 2 -108 -9q-200 -35 -312 -196
q-23 -33 -20 -68zM291 602q-8 -29 2 -41h49q7 12 23 31q2 -4 4.5 -8.5t4 -7.5t3.5 -5q12 -26 43 -26h47q25 4 35 18q29 36 18 74q-29 6 -53 0q-4 -4 -10 -21t-17 -20q-8 17 -16 27q-7 11 -16 14q-57 4 -86 -6q-21 -6 -31 -29z" />
    <glyph glyph-name="adieresis" unicode="&#xe4;" horiz-adv-x="532" 
d="M424 279q-10 -10 -16 -19l-103 -80q-68 -50 -110 -78q-57 -36 -95 -47q-12 -4 -18 -4q-8 0 -13 8t-1 15q4 12 12 20q107 150 280 187l37 6q7 0 27 -8zM0 55q2 -22 10.5 -32t28.5 -13q29 -3 57 0q65 5 133 47l90 62q3 2 11.5 6.5t13.5 7.5q-2 -7 -5.5 -19.5t-4.5 -17.5
q0 -5 -0.5 -14t-0.5 -17t1 -14q0 -12 8 -20t20 -8q68 -7 109 16q79 47 150 102q12 9 13 15.5t-5 25.5q-33 3 -43.5 0.5t-36.5 -22.5l-109 -74q-10 -7 -43 -25v23q5 15 17 35q39 79 82 133q17 24 6 49q-9 0 -15 2q-14 0 -18 8q-5 17 -29 17q-42 2 -108 -9q-200 -35 -312 -196
q-23 -33 -20 -68zM309 553q7 -2 43 -2q22 2 31.5 21t-2.5 38q-4 8 -14 8q-31 0 -45 -2q-14 -24 -15.5 -30.5t2.5 -32.5zM436 584q-4 -31 6 -41q8 -4 11 -4q36 0 47 4q10 35 4 67q-9 -1 -25 -2t-24 -2q-19 -3 -19 -22z" />
    <glyph glyph-name="aring" unicode="&#xe5;" horiz-adv-x="532" 
d="M424 279q-10 -10 -16 -19l-103 -80q-68 -50 -110 -78q-57 -36 -95 -47q-12 -4 -18 -4q-8 0 -13 8t-1 15q4 12 12 20q107 150 280 187l37 6q7 0 27 -8zM0 55q2 -22 10.5 -32t28.5 -13q29 -3 57 0q65 5 133 47l90 62q3 2 11.5 6.5t13.5 7.5q-2 -7 -5.5 -19.5t-4.5 -17.5
q0 -5 -0.5 -14t-0.5 -17t1 -14q0 -12 8 -20t20 -8q68 -7 109 16q79 47 150 102q12 9 13 15.5t-5 25.5q-33 3 -43.5 0.5t-36.5 -22.5l-109 -74q-10 -7 -43 -25v23q5 15 17 35q39 79 82 133q17 24 6 49q-9 0 -15 2q-14 0 -18 8q-5 17 -29 17q-42 2 -108 -9q-200 -35 -312 -196
q-23 -33 -20 -68zM291 551q-3 -50 47 -76q33 -19 94 -12q26 3 45 22q43 56 43 121q0 55 -53 70q-2 0 -59 12v-4h-27q-28 2 -57 -27q-20 -17 -27 -49q-2 -11 -4 -33t-2 -24zM354 557q-6 50 41 82q1 0 3 1t3 1q18 3 39 -15.5t15 -35.5q-8 -23 -21 -53q-11 -21 -26 -29
q-48 9 -54 49z" />
    <glyph glyph-name="ae" unicode="&#xe6;" horiz-adv-x="706" 
d="M303 180l105 80q2 2 4 4.5t5 7l5 7.5q-19 8 -25 6q-13 0 -37 -4q-172 -36 -280 -187q-2 -2 -14 -20q-3 -8 3 -16t13 -7q6 0 18 4q42 13 95 47q55 38 108 78zM0 55q-3 35 20 68q112 161 312 196q52 9 108 9q22 0 29 -17q3 -6 18 -10q11 0 15 -2q11 -23 -6 -47
q-5 -3 -9 -10q38 7 72 4q15 0 41 -13q11 -3 14 -20q4 -33 -16 -53q-49 -52 -123 -80q-24 -9 -61 -2l-6 18q-2 -2 -7 -2q-1 -2 -2 -6t-2 -6q-3 -3 0 -12q3 -6 9 -9q25 -17 59 -14q67 11 108 25q77 23 158 55q37 12 76 6q4 -13 2 -20q0 -3 -1.5 -5.5t-3.5 -5.5t-3 -4
q-2 -2 -8 -2q-131 -52 -205 -69q-89 -23 -189 -17q-8 0 -28 4q-3 1 -9.5 4.5t-9.5 4.5q-12 8 -16 14q-21 27 -2 72q2 2 6 10q1 2 2 6.5t2 7.5q-16 -8 -25 -14q-12 -8 -43 -29.5t-49 -32.5q-65 -42 -131 -47q-28 -3 -57 0q-20 3 -28.5 13t-10.5 32zM416 111q28 9 82 43
q20 13 27.5 20.5t17.5 24.5q-13 13 -31 2q-23 -9 -51 -35t-45 -55z" />
    <glyph glyph-name="ccedilla" unicode="&#xe7;" horiz-adv-x="442" 
d="M545 199q-37 3 -47 1t-35 -16q-45 -27 -60 -37q-89 -52 -198 -88q-25 -8 -35 -10q-51 -6 -90 23q-21 18 -10 45q3 10 10 20q51 94 180 121q7 2 25 -2q28 -14 61 -4q5 23 -1 34t-26 15h-14q-53 3 -90 -6q-72 -18 -117 -47q-75 -48 -92 -121q-24 -98 72 -113q38 -6 72 -6
q-6 -12 -15 -24q-14 -28 -29 -52q-13 -26 -4 -41q51 -4 72 7q6 3 13 1t10 -8q4 -13 2 -20q-14 -34 -39 -51q-20 -11 -54 0q-27 6 -53 0l-6 -6v-29q68 -20 127 -10q47 6 74 47q19 34 16 76q-1 20 -11 30t-30 13q-5 1 -14.5 2t-15.5 2q5 15 6 16q1 3 16 33q6 12 6 22
q0 7 -4 23q-40 4 -53 -4l-14 -27q38 0 71 8l27 7q141 44 297 145v31z" />
    <glyph glyph-name="egrave" unicode="&#xe8;" horiz-adv-x="401" 
d="M88 111q17 29 45 55t53 37q20 8 29 -4q-12 -25 -43 -45q-45 -29 -84 -43zM8 109q-15 -32 -5 -58t42 -35q12 -6 29 -6q98 -6 186 17q90 22 207 69q6 0 6 2q5 5 10 15q1 3 -0.5 10.5t-1.5 9.5q-33 7 -75 -6q-97 -37 -158 -55q-48 -17 -111 -23q-32 -6 -57 12
q-11 8 -12 14.5t6 18.5q1 1 3 1t3 1q1 -3 4 -9t4 -9q33 -7 59 2q73 28 125 80q18 21 15 55q0 15 -13 21q-2 1 -18 6t-23 6q-35 0 -73 -6q-22 -3 -47 -17q-70 -45 -105 -116zM127 498q-6 -19 2 -33q6 -9 26 -37t34 -45.5t30 -32.5h53q9 25 -10 51q-13 16 -61 80
q-3 3 -8.5 10.5t-8.5 10.5h-43q-6 0 -14 -4z" />
    <glyph glyph-name="eacute" unicode="&#xe9;" horiz-adv-x="401" 
d="M88 111q17 29 45 55t53 37q20 8 29 -4q-12 -25 -43 -45q-45 -29 -84 -43zM8 109q-15 -32 -5 -58t42 -35q12 -6 29 -6q98 -6 186 17q90 22 207 69q6 0 6 2q5 5 10 15q1 3 -0.5 10.5t-1.5 9.5q-33 7 -75 -6q-97 -37 -158 -55q-48 -17 -111 -23q-32 -6 -57 12
q-11 8 -12 14.5t6 18.5q1 1 3 1t3 1q1 -3 4 -9t4 -9q33 -7 59 2q73 28 125 80q18 21 15 55q0 15 -13 21q-2 1 -18 6t-23 6q-35 0 -73 -6q-22 -3 -47 -17q-70 -45 -105 -116zM119 354q27 -6 57 2q7 8 43 52t57 67q14 17 7 37q-50 14 -84 -29q-25 -31 -72 -86q-19 -19 -8 -43z
" />
    <glyph glyph-name="ecircumflex" unicode="&#xea;" horiz-adv-x="401" 
d="M88 111q17 29 45 55t53 37q20 8 29 -4q-12 -25 -43 -45q-45 -29 -84 -43zM8 109q-15 -32 -5 -58t42 -35q12 -6 29 -6q98 -6 186 17q90 22 207 69q6 0 6 2q5 5 10 15q1 3 -0.5 10.5t-1.5 9.5q-33 7 -75 -6q-97 -37 -158 -55q-48 -17 -111 -23q-32 -6 -57 12
q-11 8 -12 14.5t6 18.5q1 1 3 1t3 1q1 -3 4 -9t4 -9q33 -7 59 2q73 28 125 80q18 21 15 55q0 15 -13 21q-2 1 -18 6t-23 6q-35 0 -73 -6q-22 -3 -47 -17q-70 -45 -105 -116zM86 354q3 -1 7.5 -2t6.5 -2q42 -3 62 25q12 22 37 37l65 -76q5 0 13 -0.5t13.5 -0.5t12 1t12.5 4
q12 27 -10 49q-31 37 -72 90h-20q-34 3 -61 -24q-9 -10 -29 -30t-29 -30q-16 -19 -8 -41z" />
    <glyph glyph-name="edieresis" unicode="&#xeb;" horiz-adv-x="401" 
d="M88 111q17 29 45 55t53 37q20 8 29 -4q-12 -25 -43 -45q-45 -29 -84 -43zM8 109q-15 -32 -5 -58t42 -35q12 -6 29 -6q98 -6 186 17q90 22 207 69q6 0 6 2q5 5 10 15q1 3 -0.5 10.5t-1.5 9.5q-33 7 -75 -6q-97 -37 -158 -55q-48 -17 -111 -23q-32 -6 -57 12
q-11 8 -12 14.5t6 18.5q1 1 3 1t3 1q1 -3 4 -9t4 -9q33 -7 59 2q73 28 125 80q18 21 15 55q0 15 -13 21q-2 1 -18 6t-23 6q-35 0 -73 -6q-22 -3 -47 -17q-70 -45 -105 -116zM104 379q7 -2 43 -2q22 2 31.5 21t-2.5 38q-4 8 -14 8q-31 0 -45 -2q-14 -24 -15.5 -30.5
t2.5 -32.5zM231 410q-4 -30 7 -41q8 -4 10 -4q36 0 47 4q10 35 4 67q-9 -1 -25 -2t-24 -2q-19 -3 -19 -22z" />
    <glyph glyph-name="igrave" unicode="&#xec;" horiz-adv-x="262" 
d="M98 61q2 8 9 18.5t8 14.5q8 15 29.5 50t31.5 53q23 42 17 88q-3 23 -27 26q-49 3 -86 -12q-7 -3 -80 -35q0 -18 2 -28q56 -7 90 12q23 14 39 12q-2 -15 -16 -43q-8 -14 -17.5 -29t-21 -33t-17.5 -28q-25 -45 -28 -51q-10 -17 -13 -35q-2 -18 4.5 -24.5t24.5 -6.5
q82 -6 146 35q87 57 167 94l5 6v29q-46 7 -78 -10q-101 -56 -135 -78q-7 -5 -22.5 -13t-18.5 -10q-1 -1 -5.5 -1t-7.5 -1zM57 580q-6 -19 2 -33q7 -9 21 -29t22.5 -31.5t22 -27t25.5 -27.5h53q9 25 -10 51q-21 25 -62 80q-3 3 -8 10.5t-8 10.5h-43q-7 0 -15 -4z" />
    <glyph glyph-name="iacute" unicode="&#xed;" horiz-adv-x="262" 
d="M98 61q2 8 9 18.5t8 14.5q8 15 29.5 50t31.5 53q23 42 17 88q-3 23 -27 26q-49 3 -86 -12q-7 -3 -80 -35q0 -18 2 -28q56 -7 90 12q23 14 39 12q-2 -15 -16 -43q-8 -14 -17.5 -29t-21 -33t-17.5 -28q-25 -45 -28 -51q-10 -17 -13 -35q-2 -18 4.5 -24.5t24.5 -6.5
q82 -6 146 35q87 57 167 94l5 6v29q-46 7 -78 -10q-101 -56 -135 -78q-7 -5 -22.5 -13t-18.5 -10q-1 -1 -5.5 -1t-7.5 -1zM49 436q27 -6 57 2q96 113 101 119q13 16 6 37q-50 14 -84 -29q-25 -31 -72 -86q-19 -19 -8 -43z" />
    <glyph glyph-name="icircumflex" unicode="&#xee;" horiz-adv-x="262" 
d="M98 61q2 8 9 18.5t8 14.5q8 15 29.5 50t31.5 53q23 42 17 88q-3 23 -27 26q-49 3 -86 -12q-7 -3 -80 -35q0 -18 2 -28q56 -7 90 12q23 14 39 12q-2 -15 -16 -43q-8 -14 -17.5 -29t-21 -33t-17.5 -28q-25 -45 -28 -51q-10 -17 -13 -35q-2 -18 4.5 -24.5t24.5 -6.5
q82 -6 146 35q87 57 167 94l5 6v29q-46 7 -78 -10q-101 -56 -135 -78q-7 -5 -22.5 -13t-18.5 -10q-1 -1 -5.5 -1t-7.5 -1zM16 436q3 -1 8 -2t7 -2q41 -3 61 25q12 22 37 37l66 -76q5 0 13 -0.5t13.5 -0.5t12 1t12.5 4q12 27 -10 49q-32 37 -72 90h-21q-34 3 -61 -24
q-9 -10 -28.5 -30t-28.5 -30q-17 -20 -9 -41z" />
    <glyph glyph-name="idieresis" unicode="&#xef;" horiz-adv-x="262" 
d="M98 61q2 8 9 18.5t8 14.5q8 15 29.5 50t31.5 53q23 42 17 88q-3 23 -27 26q-49 3 -86 -12q-7 -3 -80 -35q0 -18 2 -28q56 -7 90 12q23 14 39 12q-2 -15 -16 -43q-8 -14 -17.5 -29t-21 -33t-17.5 -28q-25 -45 -28 -51q-10 -17 -13 -35q-2 -18 4.5 -24.5t24.5 -6.5
q82 -6 146 35q87 57 167 94l5 6v29q-46 7 -78 -10q-101 -56 -135 -78q-7 -5 -22.5 -13t-18.5 -10q-1 -1 -5.5 -1t-7.5 -1zM35 461q7 -2 43 -2q22 1 31 20.5t-3 38.5q-4 8 -14 8q-31 0 -45 -2q-14 -23 -15 -30.5t3 -32.5zM162 492q-4 -31 6 -41l10 -5q34 0 47 5q10 35 4 67
q-9 -1 -25 -2t-24 -2q-18 -3 -18 -22z" />
    <glyph glyph-name="ntilde" unicode="&#xf1;" horiz-adv-x="497" 
d="M133 279q-1 -5 -2 -13t-2 -12q-8 -38 -16 -55q-27 -77 -78 -164q-19 -30 -29 -53q-12 -20 -2 -43q31 -3 53 2q36 45 52 90q15 35 47 75q63 80 135 109l20 6q8 -23 0 -53q-4 -10 -11 -32t-11 -32q-11 -32 -6 -53q5 -36 45 -39q71 -6 135 33q12 6 25 14.5t27.5 19
t23.5 15.5q28 16 16 47q-45 6 -76 -16q-27 -24 -76 -49q-27 -19 -49 -19q-8 14 -4 23l19 55q14 60 6 105q-6 23 -31 26q-58 3 -106 -16q-5 -2 -14.5 -7t-14.5 -7q-1 0 -4 -1.5t-5 -2t-4.5 0t-5.5 3.5q5 20 5 26q0 27 -2 41q-3 21 -25 21q-68 7 -123 -15q-15 -6 -18 -12
t0 -27q16 -6 51 -2q2 0 21 8t34 3zM180 449q-8 -29 2 -41h49q5 9 23 30q2 -4 4.5 -8.5t4 -7t3.5 -4.5q12 -27 43 -27h47q25 4 35 19q29 36 19 73q-30 6 -54 0q-4 -4 -9.5 -21t-16.5 -20q-6 13 -17 27q-7 11 -16 14q-57 4 -86 -6q-22 -6 -31 -28z" />
    <glyph glyph-name="ograve" unicode="&#xf2;" horiz-adv-x="432" 
d="M350 186q-62 -7 -88 23q3 6 19 6h22h21q7 -2 21 -22q3 -5 5 -7zM0 70q0 -46 45 -58q8 -2 25 -2h88q165 9 264 137q7 1 34.5 3.5t45 7.5t33.5 16q0 6 -1.5 15t-1.5 12q-24 8 -36.5 5.5t-34 -9.5t-35.5 -7q-2 3 -4 9t-4 8q-40 72 -115 72q-83 3 -164 -29q-49 -19 -84 -51
q-60 -57 -55 -129zM68 102q14 38 45 66q37 34 69 43q4 -4 4 -6q13 -51 76 -58h53q1 0 8 -1t11 -1q-2 -2 -3 -5t-1.5 -4t-1.5 -1q-78 -72 -187 -88q-32 -4 -51 6q-36 13 -22 49zM143 498q-6 -19 2 -33q7 -9 21 -29t22.5 -31.5t22 -27t25.5 -27.5h53q9 25 -10 51
q-21 25 -62 80q-3 3 -8 10.5t-8 10.5h-43q-7 0 -15 -4z" />
    <glyph glyph-name="oacute" unicode="&#xf3;" horiz-adv-x="432" 
d="M350 186q-62 -7 -88 23q3 6 19 6h22h21q7 -2 21 -22q3 -5 5 -7zM0 70q0 -46 45 -58q8 -2 25 -2h88q165 9 264 137q7 1 34.5 3.5t45 7.5t33.5 16q0 6 -1.5 15t-1.5 12q-24 8 -36.5 5.5t-34 -9.5t-35.5 -7q-2 3 -4 9t-4 8q-40 72 -115 72q-83 3 -164 -29q-49 -19 -84 -51
q-60 -57 -55 -129zM68 102q14 38 45 66q37 34 69 43q4 -4 4 -6q13 -51 76 -58h53q1 0 8 -1t11 -1q-2 -2 -3 -5t-1.5 -4t-1.5 -1q-78 -72 -187 -88q-32 -4 -51 6q-36 13 -22 49zM135 354q27 -6 58 2q6 8 42.5 52t57.5 67q13 16 6 37q-50 14 -84 -29q-25 -31 -72 -86
q-19 -19 -8 -43z" />
    <glyph glyph-name="ocircumflex" unicode="&#xf4;" horiz-adv-x="432" 
d="M350 186q-62 -7 -88 23q3 6 19 6h22h21q7 -2 21 -22q3 -5 5 -7zM0 70q0 -46 45 -58q8 -2 25 -2h88q165 9 264 137q7 1 34.5 3.5t45 7.5t33.5 16q0 6 -1.5 15t-1.5 12q-24 8 -36.5 5.5t-34 -9.5t-35.5 -7q-2 3 -4 9t-4 8q-40 72 -115 72q-83 3 -164 -29q-49 -19 -84 -51
q-60 -57 -55 -129zM68 102q14 38 45 66q37 34 69 43q4 -4 4 -6q13 -51 76 -58h53q1 0 8 -1t11 -1q-2 -2 -3 -5t-1.5 -4t-1.5 -1q-78 -72 -187 -88q-32 -4 -51 6q-36 13 -22 49zM102 354q3 -1 8 -2t7 -2q41 -3 61 25q12 22 37 37l66 -76q5 0 13 -0.5t13.5 -0.5t12 1t12.5 4
q12 27 -10 49q-32 37 -72 90h-21q-34 3 -61 -24q-9 -10 -28.5 -30t-28.5 -30q-17 -20 -9 -41z" />
    <glyph glyph-name="otilde" unicode="&#xf5;" horiz-adv-x="432" 
d="M350 186q-62 -7 -88 23q3 6 19 6h22h21q7 -2 21 -22q3 -5 5 -7zM0 70q0 -46 45 -58q8 -2 25 -2h88q165 9 264 137q7 1 34.5 3.5t45 7.5t33.5 16q0 6 -1.5 15t-1.5 12q-24 8 -36.5 5.5t-34 -9.5t-35.5 -7q-2 3 -4 9t-4 8q-40 72 -115 72q-83 3 -164 -29q-49 -19 -84 -51
q-60 -57 -55 -129zM68 102q14 38 45 66q37 34 69 43q4 -4 4 -6q13 -51 76 -58h53q1 0 8 -1t11 -1q-2 -2 -3 -5t-1.5 -4t-1.5 -1q-78 -72 -187 -88q-32 -4 -51 6q-36 13 -22 49zM102 428q-8 -29 2 -41h50q10 16 22 31q2 -4 4.5 -8.5t4 -7.5t3.5 -5q12 -26 43 -26h48
q24 3 34 18q29 37 19 74q-29 6 -53 0q-4 -4 -10 -21t-17 -20q-8 17 -16 27q-7 11 -17 14q-57 4 -86 -6q-21 -6 -31 -29z" />
    <glyph glyph-name="odieresis" unicode="&#xf6;" horiz-adv-x="432" 
d="M350 186q-62 -7 -88 23q3 6 19 6h22h21q7 -2 21 -22q3 -5 5 -7zM0 70q0 -46 45 -58q8 -2 25 -2h88q165 9 264 137q7 1 34.5 3.5t45 7.5t33.5 16q0 6 -1.5 15t-1.5 12q-24 8 -36.5 5.5t-34 -9.5t-35.5 -7q-2 3 -4 9t-4 8q-40 72 -115 72q-83 3 -164 -29q-49 -19 -84 -51
q-60 -57 -55 -129zM68 102q14 38 45 66q37 34 69 43q4 -4 4 -6q13 -51 76 -58h53q1 0 8 -1t11 -1q-2 -2 -3 -5t-1.5 -4t-1.5 -1q-78 -72 -187 -88q-32 -4 -51 6q-36 13 -22 49zM121 379q7 -2 43 -2q22 2 31.5 21t-2.5 38q-4 8 -15 8q-31 0 -45 -2q-14 -23 -15 -30.5t3 -32.5
zM248 410q-4 -31 6 -41q8 -4 10 -4q36 0 47 4q10 35 4 67q-9 -1 -25 -2t-24 -2q-18 -3 -18 -22z" />
    <glyph glyph-name="oslash" unicode="&#xf8;" horiz-adv-x="401" 
d="M317 131q1 4 2.5 14.5t2.5 14.5q0 38 -29 67q-22 -33 -37 -53q-37 -45 -102 -145l20 -6q21 -4 31 0q84 24 112 108zM45 70q-17 73 24 139.5t115 85.5q43 8 92 2q3 0 9.5 -1t9.5 -1q3 3 8 10t8 10l27 -16l-10 -20q39 -25 49 -78q17 -79 -30 -144t-122 -77q-18 -5 -47 -5
q-21 0 -49 7h-4q-7 -14 -19 -23q-2 1 -5.5 2t-4.5 2q-17 14 -8 27q0 2 1 4.5t1 3.5q-36 25 -45 72zM104 145q-14 -50 19 -92q49 77 102 150l35 47q-4 0 -6 2q-21 6 -39 0q-83 -24 -111 -107z" />
    <glyph glyph-name="ugrave" unicode="&#xf9;" horiz-adv-x="473" 
d="M573 211q-37 4 -49.5 1.5t-38.5 -19.5q-9 -6 -18 -15q-87 -68 -113 -90q-26 -21 -28 -22q-5 -5 -17 -5q-7 19 0 43q7 31 37 97q21 43 57 129q9 21 3 41h-52q-57 -61 -71 -78q-76 -94 -185 -182q-7 -7 -9 -7q-3 -1 -7 2l6 13q9 21 27.5 61.5t27.5 61.5q2 5 10 24t11 29
q12 35 6 72q-3 14 -10 19t-23 7q-48 5 -104 -31q-24 -15 -13 -43h43q7 0 21 9t25 8q-3 -23 -25 -66q-14 -29 -39.5 -89t-38.5 -89q-6 -15 -6 -35q0 -17 7 -23.5t26 -8.5q55 -7 90 26q78 70 119 103q9 9 16 6l-12 -47q-7 -30 0 -74q7 -27 28 -27q66 -11 103 19q3 3 21.5 17.5
t29.5 21.5q55 45 133 102q18 13 12 39zM184 641q-6 -19 2 -33q7 -10 21 -29t22.5 -31t21.5 -27t25 -27h54q8 24 -11 51q-13 16 -61 80q-3 3 -8 10t-8 10h-43q-7 0 -15 -4z" />
    <glyph glyph-name="uacute" unicode="&#xfa;" horiz-adv-x="473" 
d="M573 211q-37 4 -49.5 1.5t-38.5 -19.5q-9 -6 -18 -15q-87 -68 -113 -90q-26 -21 -28 -22q-5 -5 -17 -5q-7 19 0 43q7 31 37 97q21 43 57 129q9 21 3 41h-52q-57 -61 -71 -78q-76 -94 -185 -182q-7 -7 -9 -7q-3 -1 -7 2l6 13q9 21 27.5 61.5t27.5 61.5q2 5 10 24t11 29
q12 35 6 72q-3 14 -10 19t-23 7q-48 5 -104 -31q-24 -15 -13 -43h43q7 0 21 9t25 8q-3 -23 -25 -66q-14 -29 -39.5 -89t-38.5 -89q-6 -15 -6 -35q0 -17 7 -23.5t26 -8.5q55 -7 90 26q78 70 119 103q9 9 16 6l-12 -47q-7 -30 0 -74q7 -27 28 -27q66 -11 103 19q3 3 21.5 17.5
t29.5 21.5q55 45 133 102q18 13 12 39zM176 498q27 -6 57 2q81 95 101 118q13 16 6 37q-51 14 -84 -28q-25 -31 -72 -86q-19 -19 -8 -43z" />
    <glyph glyph-name="ucircumflex" unicode="&#xfb;" horiz-adv-x="473" 
d="M573 211q-37 4 -49.5 1.5t-38.5 -19.5q-9 -6 -18 -15q-87 -68 -113 -90q-26 -21 -28 -22q-5 -5 -17 -5q-7 19 0 43q7 31 37 97q21 43 57 129q9 21 3 41h-52q-57 -61 -71 -78q-76 -94 -185 -182q-7 -7 -9 -7q-3 -1 -7 2l6 13q9 21 27.5 61.5t27.5 61.5q2 5 10 24t11 29
q12 35 6 72q-3 14 -10 19t-23 7q-48 5 -104 -31q-24 -15 -13 -43h43q7 0 21 9t25 8q-3 -23 -25 -66q-14 -29 -39.5 -89t-38.5 -89q-6 -15 -6 -35q0 -17 7 -23.5t26 -8.5q55 -7 90 26q78 70 119 103q9 9 16 6l-12 -47q-7 -30 0 -74q7 -27 28 -27q66 -11 103 19q3 3 21.5 17.5
t29.5 21.5q55 45 133 102q18 13 12 39zM143 498q3 -1 8 -2t7 -2q42 -3 61 24q12 22 37 37l66 -76q5 0 13 -0.5t13.5 -0.5t12 1t12.5 4q12 26 -11 49q-17 20 -71 91h-21q-33 3 -61 -25q-9 -10 -28.5 -29.5t-28.5 -29.5q-17 -20 -9 -41z" />
    <glyph glyph-name="udieresis" unicode="&#xfc;" horiz-adv-x="473" 
d="M573 211q-37 4 -49.5 1.5t-38.5 -19.5q-9 -6 -18 -15q-87 -68 -113 -90q-26 -21 -28 -22q-5 -5 -17 -5q-7 19 0 43q7 31 37 97q21 43 57 129q9 21 3 41h-52q-57 -61 -71 -78q-76 -94 -185 -182q-7 -7 -9 -7q-3 -1 -7 2l6 13q9 21 27.5 61.5t27.5 61.5q2 5 10 24t11 29
q12 35 6 72q-3 14 -10 19t-23 7q-48 5 -104 -31q-24 -15 -13 -43h43q7 0 21 9t25 8q-3 -23 -25 -66q-14 -29 -39.5 -89t-38.5 -89q-6 -15 -6 -35q0 -17 7 -23.5t26 -8.5q55 -7 90 26q78 70 119 103q9 9 16 6l-12 -47q-7 -30 0 -74q7 -27 28 -27q66 -11 103 19q3 3 21.5 17.5
t29.5 21.5q55 45 133 102q18 13 12 39zM162 522q7 -2 43 -2q22 1 31 21t-3 39q-4 8 -14 8q-31 0 -45 -2q-14 -23 -15 -31t3 -33zM289 553q-4 -31 6 -41q8 -4 10 -4q36 0 47 4q10 35 4 68q-8 -1 -24 -2.5t-25 -2.5q-18 -3 -18 -22z" />
    <glyph glyph-name="yacute" unicode="&#xfd;" horiz-adv-x="362" 
d="M86 -178q-2 -4 -4.5 -8.5t-4 -7.5t-3.5 -5q-63 -82 -160 -159q-59 -50 -131 -41q-7 1 -19.5 2.5t-20 2.5t-17.5 3.5t-19 5.5l-20 8q-15 9 -9 25q9 15 21 30q78 90 186 113q28 6 176 31h25zM-389 -379q3 -26 24 -35q35 -16 56 -18q70 -6 139 -6q85 0 147 53
q122 102 183 197l14 18q67 4 203.5 7t204.5 7q9 22 -2 35h-125q-86 -4 -125 -4q-83 -4 -127 -2l4 12q62 121 106 199q48 91 84 154q14 28 4 51q-17 6 -39 2q-15 -3 -24 -15l-164 -163q-8 -7 -23.5 -20.5t-23.5 -20.5q-6 -6 -16 -9v31q4 34 26 90q22 48 25 60q11 31 0 49
q-4 0 -11.5 0.5t-14 0.5t-11.5 -1q-2 0 -14 -4l-50 -127q-2 -6 -5 -17t-5 -16q-7 -36 -4 -90q3 -26 23 -29q71 -4 104 23q6 6 20 17t17 13q7 7 16 13q0 -2 1 -4.5t1 -3.5q-80 -155 -108 -197q-163 -27 -176 -29q-90 -13 -125 -20q-104 -25 -182 -119q-29 -41 -27 -82z
M182 401q27 -6 58 2q7 8 43 52t57 67q13 16 6 37q-50 14 -84 -29q-25 -31 -72 -86q-19 -19 -8 -43z" />
    <glyph glyph-name="ydieresis" unicode="&#xff;" horiz-adv-x="362" 
d="M86 -178q-2 -4 -4.5 -8.5t-4 -7.5t-3.5 -5q-63 -82 -160 -159q-59 -50 -131 -41q-7 1 -19.5 2.5t-20 2.5t-17.5 3.5t-19 5.5l-20 8q-15 9 -9 25q9 15 21 30q78 90 186 113q28 6 176 31h25zM-389 -379q3 -26 24 -35q35 -16 56 -18q70 -6 139 -6q85 0 147 53
q122 102 183 197l14 18q67 4 203.5 7t204.5 7q9 22 -2 35h-125q-86 -4 -125 -4q-83 -4 -127 -2l4 12q62 121 106 199q48 91 84 154q14 28 4 51q-17 6 -39 2q-15 -3 -24 -15l-164 -163q-8 -7 -23.5 -20.5t-23.5 -20.5q-6 -6 -16 -9v31q4 34 26 90q22 48 25 60q11 31 0 49
q-4 0 -11.5 0.5t-14 0.5t-11.5 -1q-2 0 -14 -4l-50 -127q-2 -6 -5 -17t-5 -16q-7 -36 -4 -90q3 -26 23 -29q71 -4 104 23q6 6 20 17t17 13q7 7 16 13q0 -2 1 -4.5t1 -3.5q-80 -155 -108 -197q-163 -27 -176 -29q-90 -13 -125 -20q-104 -25 -182 -119q-29 -41 -27 -82z
M168 426q7 -2 43 -2q22 2 31.5 21t-2.5 38q-4 9 -15 9q-24 0 -45 -3q-14 -23 -15 -30.5t3 -32.5zM295 457q-4 -31 6 -41q8 -4 10 -4q36 0 47 4q10 35 4 67q-9 -1 -25 -2t-24 -2q-18 -3 -18 -22z" />
    <glyph glyph-name="dotlessi" unicode="&#x131;" horiz-adv-x="262" 
d="M98 61q2 8 9 18.5t8 14.5q8 15 29.5 50t31.5 53q23 42 17 88q-3 23 -27 26q-49 3 -86 -12q-7 -3 -80 -35q0 -18 2 -28q56 -7 90 12q23 14 39 12q-2 -15 -16 -43q-8 -14 -17.5 -29t-21 -33t-17.5 -28q-25 -45 -28 -51q-10 -17 -13 -35q-2 -18 4.5 -24.5t24.5 -6.5
q82 -6 146 35q87 57 167 94l5 6v29q-46 7 -78 -10q-101 -56 -135 -78q-7 -5 -22.5 -13t-18.5 -10q-1 -1 -5.5 -1t-7.5 -1z" />
    <glyph glyph-name="OE" unicode="&#x152;" horiz-adv-x="1189" 
d="M653 723q106 45 262 147q19 14 19 39q0 43 -16 74q-6 14 -27 35q-20 23 -49 10q-51 -28 -58 -33q-105 -73 -168 -178q-14 -26 -32 -72q-6 -12 -6 -24q0 -9 5.5 -14t14.5 -2q29 6 55 18zM0 -184q-6 135 39 268q21 62 75.5 202t80.5 195q125 256 299 486q10 14 32.5 40.5
t32.5 41.5q27 34 90 26q9 -2 23 -16q12 -12 2 -35q-12 -2 -33 -2q-24 0 -35 -16q-18 -18 -28 -33q-112 -147 -243 -393.5t-208 -442.5q-45 -113 -57 -198q-13 -71 -4 -138q3 -25 12 -49q7 -25 26 -33q24 5 56 25q73 41 153 111q109 91 205 213q105 132 332 581l12 27
q7 20 22.5 57.5t22.5 57.5q-5 4 -14 -5q-102 -60 -160 -86q-31 -13 -67 -26q-49 -19 -113 -12q-36 0 -39 36q-3 41 10 72q5 21 27 64q68 118 188 200q64 44 152 41q62 -3 82 -53q4 -6 7.5 -18t4.5 -13l6 17q8 4 16.5 5t22.5 0t17 -1l6 -27h14l129 25q105 21 213 30
q37 0 45 -2q0 -5 1 -13.5t1 -12.5l-12 -6l-86 -13q-130 -17 -271 -49v-16q-43 -40 -79 -62l-4 -4l-25 -63q-17 -71 -57 -150q0 -1 -1 -3t-1 -3q-94 -241 -107 -274q8 -3 10.5 -3.5t8.5 2.5t8 3q161 61 344 116q18 5 52.5 14.5t51.5 14.5q28 6 60 2q2 -2 3.5 -3t2 -1.5
t0.5 -1.5v-23q-5 -3 -37 -14q-253 -68 -494 -166q-4 -1 -22 -10q-15 -5 -25 -25q-77 -203 -180 -467q0 -2 -1 -6.5t-1 -7.5q14 0 20 2q165 50 199 60q62 16 98 10q4 -22 -2 -33q-84 -22 -143 -39q-54 -16 -139 -45q-38 -11 -64 -27q-25 -12 -78 -8q-3 11 -1 22t14 15
q5 2 8.5 6t4.5 7t2.5 9.5t2.5 8.5l148 383l4 8q-39 -66 -76 -115q-67 -85 -148 -166q-92 -89 -170 -141q-40 -27 -84 -51q-46 -26 -112 -23q-44 3 -58 41q-16 36 -20 99z" />
    <glyph glyph-name="oe" unicode="&#x153;" horiz-adv-x="690" 
d="M141 47q109 15 189 86l4 12h-17q-9 1 -27.5 1t-27.5 1q-64 7 -74 58q0 2 -4 6q-30 -11 -71 -43q-32 -32 -43 -66q-17 -36 22 -51q20 -8 49 -4zM0 70q-3 72 57 129q35 32 84 51q74 29 162 29q68 0 109 -60l10 6q23 13 47 19q50 4 72 4q9 -1 41 -12q10 -5 14 -21
q4 -35 -14 -55q-57 -54 -125 -80q-21 -6 -60 -2q-4 6 -8 18q-6 0 -6 -2q-8 -12 -7 -19t11 -14q26 -18 59 -12q60 7 111 23q17 6 49 17t58 20t49 18q44 13 78 6l2 -20q-4 -8 -11 -15q-1 0 -3 -1t-3 -1q-123 -47 -207 -69q-89 -23 -188 -17q-15 0 -27 6q-32 8 -43 33
q-74 -36 -153 -39q-29 -2 -86 -2q-11 0 -27 4q-42 11 -45 58zM262 209q28 -30 88 -23q-16 27 -24 27q-8 2 -23 2h-20q-17 0 -21 -6zM397 111q34 12 82 43q-9 -2 -27.5 -4.5t-27.5 -4.5q-11 -14 -21 -22z" />
    <glyph glyph-name="Scaron" unicode="&#x160;" horiz-adv-x="905" 
d="M588 770q-28 -54 -17 -131q3 -14 13 -31q16 -32 51 -35q103 -10 160 50l16 14q98 101 143 244q19 63 11 120q-9 58 -52 95q-45 39 -98 53q-106 29 -215 2q-108 -24 -197 -123q-76 -87 -122 -205q-48 -113 -29 -243q18 -141 133 -244q45 -39 98 -74q4 -3 121 -80
q50 -35 86 -63q44 -35 74 -84q24 -39 22.5 -66t-34.5 -69q-24 -30 -78 -60q-47 -25 -107 -45q-126 -41 -276 -63q-92 -13 -133 -11q-51 3 -92 23q-58 27 -80 90q-14 45 10 86q15 25 53 55q54 36 117 58q82 30 190 47l66 10v31q-35 6 -70 0q-91 -14 -151 -29
q-88 -19 -158 -55q-51 -28 -78 -55q-50 -47 -47 -113q0 -29 4 -43q12 -81 88 -117q34 -19 80 -22q81 -8 186 2q137 16 265 49q93 23 168 57q54 28 94 68q40 42 45 98.5t-21 95.5q-14 28 -45 62q-29 37 -82 71q-20 13 -59.5 39t-58.5 39q-56 38 -111 78q-50 35 -90 92
q-104 148 -57 307q47 168 172 287q63 63 145 84q47 9 61 8q90 -6 156 -63q61 -58 41 -135q-40 -156 -160 -273q-21 -18 -45 -30q-24 -16 -43 6q-18 20 -21 49t11 49q0 2 4 6q20 6 12 35q-26 9 -69 2zM692 1458q3 -8 8 -16q5 -11 17 -32t18 -32q2 -4 17 -24q15 -19 32 -17h23
q19 0 33 17q10 13 57 65q16 19 6 39q-52 15 -82 -26q-15 -20 -24 -23l-45 78q-27 0 -39 -2q-12 0 -18 -7.5t-3 -19.5z" />
    <glyph glyph-name="scaron" unicode="&#x161;" horiz-adv-x="405" 
d="M92 51q36 24 119 39q-46 -42 -119 -39zM2 33q1 -5 2.5 -8t5 -5t5 -3t7.5 -3t7 -2q6 -2 20 -2h80q132 14 205 92q14 2 53 6.5t65.5 9t51.5 11.5q9 15 0 33q-52 0 -62 -2q-68 -15 -112 -17q-7 18 -41 35l-68 33q-3 1 -7.5 5.5l-6.5 6.5q44 29 80 19q31 -7 57 2q7 22 -4 35
q-24 6 -29 6q-71 4 -108 -6q-25 -6 -53 -23q-19 -13 -19 -38t23 -38l65 -30q2 -1 6.5 -3t7 -4t3.5 -6l-3 -2q-10 -2 -30.5 -5t-30.5 -5q-57 -6 -119 -31q-16 -4 -39 -20q-19 -11 -12 -41zM127 479q3 -8 8 -16q5 -11 17 -32t18 -32q4 -8 16 -24q16 -19 33 -17h23q18 0 32 17
q3 4 58 65q16 19 6 39q-52 15 -82 -26q-15 -20 -25 -23l-45 78q-27 0 -39 -2q-12 0 -17.5 -7.5t-2.5 -19.5z" />
    <glyph glyph-name="Ydieresis" unicode="&#x178;" horiz-adv-x="786" 
d="M369 965q2 42 47 63q5 4 14.5 7.5t11.5 4.5q20 9 37 -8q24 -21 13 -49q-2 -5 -5.5 -15.5l-6.5 -19.5t-7 -16q-22 -46 -47 -86q-21 -38 -62 -105.5t-53 -87.5q-43 -73 -65 -118q-9 -18 -21 -54q-13 -37 -6 -86q3 -42 45 -51q24 -4 39 -4q65 -3 133 16q120 34 236 125
q88 71 180 176q9 10 88 111q9 9 14 6q-1 -2 -1 -5t-1 -5q-11 -27 -46 -117.5t-56 -138.5q-93 -217 -270 -385q-262 -247 -555 -395q-15 -8 -25 -15v-22q0 -2 4 -6q47 -6 80 12q13 7 44.5 24t47.5 27q180 106 348 244q132 109 209 203q125 152 199 337q32 82 94.5 246
t93.5 246q1 4 6.5 18.5t6.5 22.5q4 26 -5 37h-24q-5 0 -14.5 -1t-14.5 -1q-11 -19 -49 -84q-105 -183 -233 -332q-96 -113 -205 -192q-98 -72 -197 -99q-27 -9 -55 -12q-31 -3 -46.5 15.5t-6.5 47.5q9 38 24 68q41 76 84 150l107 178q12 23 45 90q15 37 12 90
q-2 29 -19.5 47.5t-46.5 19.5q-33 0 -47 -2q-59 -3 -106 -41q-19 -16 -25 -36q-4 -31 4 -43h54zM690 1282q7 -2 43 -2q22 2 31.5 21t-2.5 38q-4 9 -14 9q-32 0 -46 -2q-13 -23 -15 -31t3 -33zM817 1313q-4 -31 6 -41q8 -4 11 -4q36 0 47 4q10 35 4 67q-9 -1 -25 -2t-24 -2
q-19 -3 -19 -22z" />
    <glyph glyph-name="zcaron" unicode="&#x17e;" horiz-adv-x="337" 
d="M258 268q-87 -70 -147 -104q-54 -31 -99 -70l-22 -22q-14 -16 -10 -41q0 -14 12 -17q2 0 12 -3t16 -3q16 1 46 2t45 2l155 19q21 2 68 14q17 3 22 16q7 14 -2 29q-36 8 -55 -4q-28 -15 -70 -18l-155 -19q-11 0 -13 8q34 34 86 64q45 24 121 80t90 65v35q-12 4 -18 4
q-107 8 -160 2q-64 -6 -117 -39q0 -3 -1 -9t-1 -9l5 -10q38 -7 73 8l31 12q43 16 88 8zM90 526q3 -8 8 -16q5 -11 17 -32t18 -32q2 -4 17 -24q15 -18 32 -16h23q20 0 33 16q10 13 57 65q16 19 6 39q-52 15 -82 -26q-15 -20 -24 -23l-45 78q-27 0 -39 -2q-12 0 -18 -7.5
t-3 -19.5z" />
    <glyph glyph-name="circumflex" unicode="&#x2c6;" horiz-adv-x="276" 
d="M170 479h-20q-35 3 -62 -24q-9 -10 -28.5 -30t-28.5 -30q-16 -19 -8 -41q3 -1 7.5 -2t6.5 -2q41 -3 61 25q12 22 37 37l66 -76q5 0 13 -0.5t13.5 -0.5t12 1t12.5 4q12 27 -10 49q-32 37 -72 90z" />
    <glyph glyph-name="caron" unicode="&#x2c7;" horiz-adv-x="258" 
d="M82 494q-27 0 -39 -2q-12 0 -17.5 -7.5t-2.5 -19.5q3 -8 8 -16q5 -11 17 -32t18 -32t16 -25q15 -19 33 -16h22q20 0 33 16q16 20 57 66q16 19 6 39q-50 14 -81 -27q-14 -18 -25 -22z" />
    <glyph glyph-name="dotaccent" unicode="&#x2d9;" horiz-adv-x="223" 
d="M203 418q0 23 -2 33q-34 3 -58 -2l-88 -25q-3 -1 -10 -3t-10 -3q-18 -7 -15 -23v-22q17 -6 46 -2q10 0 16 6q10 12 39 16z" />
    <glyph glyph-name="ring" unicode="&#x2da;" horiz-adv-x="270" 
d="M137 334q-47 9 -53 49q-6 50 41 82q1 0 3 1t3 1q18 3 38.5 -15.5t14.5 -35.5q-12 -36 -20 -54q-10 -19 -27 -28zM20 377q-3 -50 48 -76q33 -19 94 -12q26 3 45 22q43 56 43 121q0 55 -53 70q-8 3 -18 5t-22.5 4t-19.5 3v-4h-26q-29 2 -58 -27q-19 -16 -26 -49
q-1 -6 -7 -57z" />
    <glyph glyph-name="tilde" unicode="&#x2dc;" horiz-adv-x="276" 
d="M98 418q12 -20 13 -21q12 -26 43 -26h47q25 4 35 18q29 36 18 74q-29 6 -53 0q-4 -4 -10 -21t-17 -20q-8 17 -16 27q-7 11 -17 14q-57 4 -86 -6q-20 -6 -30 -29q-8 -29 2 -41h49q10 16 22 31z" />
    <glyph glyph-name="gravecomb" unicode="&#x300;" 
d="M168 350q9 25 -10 51q-21 25 -62 80q-3 3 -8 10.5t-8 10.5h-43q-6 0 -14 -4q-6 -19 2 -33q6 -9 26 -37t34 -45.5t30 -32.5h53z" />
    <glyph glyph-name="acutecomb" unicode="&#x301;" 
d="M82 356q6 8 42.5 52t57.5 67q13 16 6 37q-50 14 -84 -29q-36 -45 -71 -86q-19 -19 -8 -43q27 -6 57 2z" />
    <glyph glyph-name="uni0302" unicode="&#x302;" 
d="M170 479h-20q-35 3 -62 -24q-9 -10 -28.5 -30t-28.5 -30q-16 -19 -8 -41q3 -1 7.5 -2t6.5 -2q41 -3 61 25q12 22 37 37l66 -76q5 0 13 -0.5t13.5 -0.5t12 1t12.5 4q12 27 -10 49q-32 37 -72 90z" />
    <glyph glyph-name="tildecomb" unicode="&#x303;" 
d="M98 418q12 -20 13 -21q12 -26 43 -26h47q25 4 35 18q29 36 18 74q-29 6 -53 0q-4 -4 -10 -21t-17 -20q-8 17 -16 27q-7 11 -17 14q-57 4 -86 -6q-20 -6 -30 -29q-8 -29 2 -41h49q10 16 22 31z" />
    <glyph glyph-name="uni0307" unicode="&#x307;" 
d="M203 418q0 23 -2 33q-34 3 -58 -2l-88 -25q-3 -1 -10 -3t-10 -3q-18 -7 -15 -23v-22q17 -6 46 -2q10 0 16 6q10 12 39 16z" />
    <glyph glyph-name="uni0308" unicode="&#x308;" 
d="M219 436q-9 -1 -25 -2t-24 -2q-18 -3 -18 -22q-4 -31 6 -41q8 -4 10 -4q36 0 47 4q10 35 4 67zM25 379q7 -2 43 -2q22 1 31 20.5t-3 38.5q-4 8 -14 8q-31 0 -45 -2q-14 -23 -15 -30.5t3 -32.5z" />
    <glyph glyph-name="uni030A" unicode="&#x30a;" 
d="M137 334q-47 9 -53 49q-6 50 41 82q1 0 3 1t3 1q18 3 38.5 -15.5t14.5 -35.5q-12 -36 -20 -54q-10 -19 -27 -28zM20 377q-3 -50 48 -76q33 -19 94 -12q26 3 45 22q43 56 43 121q0 55 -53 70q-8 3 -18 5t-22.5 4t-19.5 3v-4h-26q-29 2 -58 -27q-19 -16 -26 -49
q-1 -6 -7 -57z" />
    <glyph glyph-name="uni030C" unicode="&#x30c;" 
d="M82 494q-27 0 -39 -2q-12 0 -17.5 -7.5t-2.5 -19.5q3 -8 8 -16q5 -11 17 -32t18 -32t16 -25q15 -19 33 -16h22q20 0 33 16q16 20 57 66q16 19 6 39q-50 14 -81 -27q-14 -18 -25 -22z" />
    <glyph glyph-name="uni0327" unicode="&#x327;" 
d="M20 -215q68 -20 127 -10q47 6 74 47q20 36 17 76q-1 20 -11 30t-30 13q-5 1 -15 2t-16 2q5 15 6 16q1 3 16 33q11 20 2 45q-40 4 -53 -4q-2 -4 -12 -23t-16 -28q-14 -28 -29 -52q-13 -26 -4 -41q50 -4 71 7q6 3 13 1t10 -8q4 -13 2 -20q-14 -34 -39 -51q-20 -11 -53 0
q-27 6 -53 0l-7 -6v-29z" />
    <glyph glyph-name="endash" unicode="&#x2013;" horiz-adv-x="452" 
d="M432 209q-103 8 -139 10q-122 4 -182 4q-3 0 -72 -6q-11 -2 -15 -6t-4 -16q0 -1 1.5 -5t1.5 -6q19 -6 53 -2q122 3 207 -4q25 -2 69 -2.5t58 -1.5q6 0 22 4v31z" />
    <glyph glyph-name="emdash" unicode="&#x2014;" horiz-adv-x="747" 
d="M727 195q-16 4 -22 4h-58q-79 -3 -178 4q-67 3 -121 -2q-59 -5 -133 -2q-19 1 -55.5 4t-53.5 4q-60 0 -77 -4q-14 -14 -4 -33q4 0 10.5 -1t9.5 -1q14 -1 42 -2t42 -2q147 -11 238 -2q20 2 61 2q44 -1 132 -2t132 -2q11 0 35 4v31z" />
    <glyph glyph-name="quoteleft" unicode="&#x2018;" horiz-adv-x="174" 
d="M113 524q9 27 -9 45q-5 2 -8 9q-18 18 -4 45q23 42 62 47q1 23 -2 27.5t-21 4.5q-14 2 -41 -2q-16 -4 -24 -12q-52 -42 -46 -106q3 -27 31 -52q4 -4 10 -6t10.5 -2.5t13 0t11.5 0.5q2 0 8 1t9 1z" />
    <glyph glyph-name="quoteright" unicode="&#x2019;" horiz-adv-x="131" 
d="M23 655q-9 -28 10 -47q27 -31 6 -61q-10 -15 -4 -37h53q21 27 23.5 63t-15.5 60q-8 12 -14 16q-8 8 -16 8q-27 0 -43 -2z" />
    <glyph glyph-name="quotesinglbase" unicode="&#x201a;" horiz-adv-x="151" 
d="M25 -41q40 -8 53.5 -0.5t34.5 41.5q4 5 8 23q15 39 6 81q-5 15 -11.5 21t-21.5 6h-26q-23 0 -19 -29q2 -4 8 -10q14 -14 6 -41q-15 -38 -32 -55q-14 -17 -6 -37z" />
    <glyph glyph-name="quotedblleft" unicode="&#x201c;" horiz-adv-x="237" 
d="M217 705h-49q-17 0 -29 -15q-38 -44 -35 -98q4 -24 13 -31q40 -4 57 4q-1 5 -2 16t-2 17q0 14 2 20q15 44 45 58v29zM27 664q-13 -37 2 -66q38 -4 55 2q2 6 2 16q-3 26 20 56q7 10 21 20q15 15 6 43l-21 1q-20 0 -20 -1q-10 0 -18 -8q-34 -31 -47 -63z" />
    <glyph glyph-name="quotedblright" unicode="&#x201d;" horiz-adv-x="219" 
d="M190 549q15 44 0 88q-22 54 -71 49q-4 -1 -14.5 -2t-14.5 -2q-3 -2 -6.5 -9t-5.5 -9q-6 -2 -26 -2.5t-29 -8.5q-7 -25 10 -37l2 -2q21 -25 6 -45q-9 -12 0 -28q8 -2 27 -2q25 0 33.5 7.5t9.5 31.5v32q0 2 -1 10t-1 13q12 -8 18 -19.5t6.5 -20t0 -24.5t-0.5 -24
q39 -4 57 4z" />
    <glyph glyph-name="quotedblbase" unicode="&#x201e;" horiz-adv-x="223" 
d="M133 113q-9 -17 -2 -39q4 -9 8 -31q3 -40 -35 -68q2 7 4 15.5t3 11.5q13 37 10 68q-5 40 -14.5 48t-53.5 1l-2 -2q-5 -25 0 -35q13 -27 0 -57q-19 -32 -20 -33q-14 -17 -6 -37q47 -4 67 8h6l6 -20q10 -2 27 -2q40 -3 59 36q13 30 13 68q-4 48 -19 70q-34 4 -51 -2z" />
    <glyph glyph-name="dagger" unicode="&#x2020;" horiz-adv-x="323" 
d="M113 215q69 188 73 197q19 4 57 5t58 5q0 3 1 7.5t1 6.5q0 3 -1 8.5t-1 8.5q-16 4 -47 2.5t-47 1.5q5 21 6 22q2 9 9.5 27t8.5 20q8 24 -2 39q-28 2 -53 -4q-8 -16 -22 -53.5t-25 -56.5q-10 -1 -32.5 -2.5t-33.5 -2.5q-20 0 -28 -2q-15 0 -15 -14q0 -3 1.5 -8.5t1.5 -9.5
q13 -5 44.5 -2.5t43.5 0.5v-13l-50 -129q-14 -28 -6 -51q18 -6 58 -2z" />
    <glyph glyph-name="bullet" unicode="&#x2022;" horiz-adv-x="169" 
d="M150 260q-24 10 -54 10.5t-51 -2.5q-21 -62 -23.5 -76.5t3.5 -33.5q59 -14 112 0q0 1 7.5 40t5.5 62z" />
    <glyph glyph-name="ellipsis" unicode="&#x2026;" horiz-adv-x="466" 
d="M20 88h54q12 2 16 7t4 18q0 2 -1 5t-1 5q-57 14 -72 -4v-31zM203 88h53q12 2 16 7t4 18q0 2 -1 5t-1 5q-56 14 -71 -4v-31zM373 88h53q12 2 16 7t4 18q0 2 -1 5t-1 5q-56 14 -71 -4v-31z" />
    <glyph glyph-name="perthousand" unicode="&#x2030;" horiz-adv-x="432" 
d="M25 20h41q13 0 22 15q16 23 59 82q81 110 215 286q0 2 5 7q15 21 2 43h-54q-172 -234 -260 -351q-18 -27 -26 -41q-15 -18 -4 -41zM145 406q3 -24 27 -27q31 0 45 2q19 0 33 18q10 17 10 43q-4 22 -22 25q-5 1 -16 2t-17 2v-2h-25q-20 -1 -27 -8t-8 -27v-28zM188 94
q-4 -23 5 -39h57q29 3 29 33t-19 47q-19 0 -27 -2q-24 0 -33 -7.5t-12 -31.5zM319 94q0 -27 7 -39h57q26 3 29 33q0 29 -21 47q-16 0 -26 -2q-23 0 -32 -8t-14 -31z" />
    <glyph glyph-name="guilsinglleft" unicode="&#x2039;" horiz-adv-x="249" 
d="M225 584q-6 2 -16 2q-35 5 -62 -25q-26 -33 -69 -67q-21 -16 -55 -39q-8 -30 14 -52l110 -100q8 -8 19 -8q37 -4 55 2v27q-59 48 -83.5 71t-33.5 41q82 74 123 113q7 17 -2 35z" />
    <glyph glyph-name="guilsinglright" unicode="&#x203a;" horiz-adv-x="233" 
d="M78 274q23 21 133 132q7 20 -14 45q-5 6 -44 51.5t-57 72.5q-4 0 -13 0.5t-14.5 0.5t-13.5 -1t-14 -4q-8 -28 10 -49q12 -15 35.5 -42.5t34.5 -41.5l16 -24q-15 -10 -18 -13q-43 -45 -88 -88q-17 -20 -6 -39h53z" />
    <glyph glyph-name="Euro" unicode="&#x20ac;" horiz-adv-x="423" 
d="M102 272q0 -10 -2 -12q0 -6 -4 -6q-4 -4 -10 -4h-29q-31 -5 -37 -10v-25q12 -6 36 -5.5t36 -4.5q3 -50 49 -62q67 -22 154 -12q2 2 4 2q8 14 -2 35q-18 6 -41 2q-38 -3 -74 16q-12 4 -10 13q10 0 64.5 -3t64.5 5q9 19 -4 32q-13 1 -39.5 2t-48 3.5t-39.5 7.5q4 18 8 21
t17 3q12 3 24 0q11 0 35 -1t35 -1q23 -4 37 8q0 3 -1 12t-1 13q-31 8 -93 8q-1 0 -4.5 -0.5t-5.5 0t-4.5 2.5t-3.5 6q38 47 94 64q21 7 39 2h47q1 0 2.5 1t3.5 2.5t4 2.5q0 19 -2 25q-5 5 -11.5 8t-10.5 3.5l-12 1.5t-11 1q-55 3 -118 -20q-50 -19 -109 -93h-37
q-25 0 -37 -2q-9 -2 -12.5 -6t-3.5 -14q0 -2 1 -6.5t1 -7.5z" />
    <glyph glyph-name="minus" unicode="&#x2212;" horiz-adv-x="258" 
d="M238 403q-51 4 -144 0q-3 0 -57 -6q-17 -3 -17 -16q0 -3 5 -23q5 0 14.5 -1t17 -1t13.5 2q54 12 129 9q30 0 39 6v30z" />
    <glyph glyph-name="F_i" horiz-adv-x="1122" 
d="M-51 674q41 33 51 39q200 128 428 205q11 4 18 -5q-18 -51 -63 -176t-70 -192q-5 -2 -17.5 -8.5t-19.5 -8.5q-109 -53 -139 -75q-16 -10 -32 -22.5t-35.5 -28t-30.5 -23.5q-20 -14 -10 -41q48 -9 80 20q57 54 153 105q15 5 21 8q0 -13 -9 -35q-40 -117 -71 -200l-62 -173
q-1 -2 -3 -8t-2.5 -9.5t-1 -8.5t0.5 -9.5t4 -9.5q25 -6 56 0q29 82 176 492q52 25 102 31q23 4 39 -4q26 -13 23 -37q0 -16 -7 -33l-49 -162q-4 -12 -25 -80t-30 -104q-5 -16 -10 -58q-4 -26 6 -40q65 -14 112 30q15 13 68 66l68 76q4 9 12 4q-2 -7 -18 -45q-19 -54 -23 -70
q-3 -22 0 -47q0 -8 5.5 -14.5t14.5 -6.5q60 -7 91 19q38 25 67 69q15 21 6 43h-51q-7 -8 -19.5 -23.5t-23 -26.5t-24.5 -19q2 7 3.5 14.5t2.5 9.5q16 36 22 54l31 82q7 36 -2 63q-23 0 -33 2q-28 2 -57 -20q-48 -42 -84 -80q-45 -53 -72 -82q-17 -21 -33 -27q1 5 5 19.5
t6 21.5q10 35 32.5 103.5t32.5 103.5q33 118 35 127q4 18 4 61q-3 36 -41 45q-15 5 -20 5q-87 0 -121 -5q-6 -2 -23 -2q17 48 63 176t70 197q32 9 37 10q203 54 559 109q35 9 47 -10q5 -2 7 -2q36 0 47 4q2 4 2 14q2 17 -4 25.5t-29 11.5h-8q-45 0 -68 -2q-18 -2 -55 -8
t-57 -8q-195 -30 -351 -66q-14 -3 -48.5 -10t-53.5 -10q-1 6 -2 18.5t-2 19.5q-35 4 -55 -4q-3 -9 -10.5 -27.5t-10.5 -27.5l-8 -4q-4 -1 -12.5 -4t-12.5 -4q-235 -71 -461 -205q-9 -5 -63 -43q-24 -15 -12 -49h47zM752 422q0 -15 2 -21q18 -8 43 -4q10 0 16 6q9 10 39 19
q8 2 84 22q-2 12 -2 33q-43 4 -60 -2l-88 -24q-1 0 -8 -3t-12 -4q-14 -6 -14 -22z" />
    <glyph glyph-name="l_l" horiz-adv-x="499" 
d="M662 944v-29q-17 -94 -44 -167q-8 -22 -50 -139.5t-66 -178.5q-5 -16 -13 -33.5t-18.5 -38.5t-15.5 -32q-2 -3 -6 -9.5t-5 -9.5q-8 2 -8 15q11 61 13 71q17 73 49 156l141 352q8 28 23 43zM4 193q-9 -18 2 -35q5 0 16 -1t17 -1q5 0 15.5 1t15.5 1q4 0 14.5 2.5t17.5 1.5
v-43q-2 -47 33 -105q11 -19 35 -22q73 -3 125 35q13 9 34.5 28.5t30.5 26.5l19 14q1 -4 4 -8.5t4 -5.5q14 -33 53 -33q7 0 23 1t24 1q25 0 43 15q59 39 99 104q14 20 2 47h-25q-27 0 -37 -20q-18 -33 -63 -78q-6 -5 -16 -12t-13 -9q-11 -9 -20 0q-14 14 -23 58q-2 10 12 28
q61 85 109 205q63 149 135 369q47 147 39 276q0 4 -1 12.5t-1 12.5q-62 13 -88 -29l-21 -24q-32 -62 -38 -78l-142 -350q-3 -9 -9 -28t-9 -28q-52 -144 -49 -280v-33q0 -19 -13 -35q-58 -72 -112 -111q-28 -20 -47 -22q-35 51 -33 96q2 12 2 37q3 40 33 70q86 77 149 213
q54 124 74 200q48 157 61 232q11 71 11 119q-4 38 -19 53q-47 3 -60.5 -2.5t-41.5 -44.5l-19 -31q-3 -6 -15 -33t-17 -43q-54 -137 -82 -223q-66 -206 -121 -414q-4 -20 -10 -26q-49 -49 -91 -49q-3 0 -8.5 -1t-7.5 -1zM213 362l27 95q68 232 139 417q1 4 37 78q1 3 5 9.5
t5 9.5q6 -13 2 -31q-6 -39 -22 -117l-44 -151q-38 -128 -98 -242q-29 -52 -51 -68z" />
    <glyph glyph-name="s_t" horiz-adv-x="688" 
d="M174 47q3 -34 -27 -51q-38 -23 -77 -4q2 2 4 7t4 7q38 35 96 41zM0 -20q2 -14 7 -20t20 -9q65 -17 143 0q65 14 68 82q2 12 2 39q33 19 98 43.5t92 38.5q17 34 23 43q11 16 30 32q7 7 37 27q20 14 43 16q-11 -30 -16 -49q-5 -27 -35 -43l-98 -61q-20 -10 -13 -37
q56 -7 84 16q1 1 33 19q-2 -10 -2 -21v-78q3 -31 37 -34q74 -7 115 26q18 14 51.5 41t36.5 29q19 16 8 41q-49 13 -78 -21q-18 -18 -33 -28l-49 -37q-3 -1 -10 -3t-10 -3q-12 22 -6 41q2 15 7 40.5t7 36.5q6 21 20 29q9 5 27 16.5t27 16.5q0 3 1 11t0.5 12.5t-5.5 9.5
q-4 0 -17 1t-20 1q2 7 6.5 20.5t5.5 20.5q5 19 31 34q238 131 311 410q19 74 16 145q-3 45 -18 89q-6 18 -15 24t-30 8q-58 6 -84 -45q-35 -73 -41 -88q-87 -203 -150 -356l-61 -148q-2 -6 -10 -18l-47 -18q-64 -18 -113 -64q-19 -12 -31 -31q-4 -5 -6.5 -12t-5 -16
t-4.5 -15l-180 -69q-42 29 -54 45q-15 18 -4 37q14 33 43 53q18 13 35 -2q19 -16 10 -37q-7 -10 -10 -23q-6 -15 0 -32h53q25 41 25 77q-2 28 -18.5 46.5t-45.5 19.5q-22 3 -43 0q-40 -2 -70 -24.5t-42 -61.5q-19 -66 26 -104q6 -3 9 -9q2 -2 10 -14l-37 -12
q-40 -14 -61 -35q-25 -22 -25 -59zM688 403q0 15 2 19q3 7 10.5 21.5t10.5 21.5l153 369q4 12 10.5 25t14.5 28.5t12 23.5q1 2 12 19q22 -45 19 -88q-2 -41 -17 -105q-64 -213 -219 -329q-2 -2 -8 -5z" />
    <glyph glyph-name="t_i" horiz-adv-x="757" 
d="M401 623q0 -15 -16 -39q-65 -108 -170 -232q-27 -29 -76 -71q-10 -9 -49 -33q-38 -20 -72 -12q-37 7 -59 -5q-1 -23 1.5 -27t21.5 -7q117 -22 202 43q70 59 103 98q121 149 182 262q2 4 10 12q-2 -39 -16 -92q-22 -104 -66 -289q-21 -99 -16 -170q0 -22 6 -43
q3 -13 19 -16q63 -7 92 37q5 8 16 23.5t16 23.5q12 21 33 53q4 8 12 6q0 -1 1.5 -5.5t1.5 -6.5q0 -9 -1.5 -26.5t-1.5 -26.5q0 -13 13 -43q17 -21 30 -23q77 -8 107 31q0 1 1 2t1 2q56 60 137 168q16 23 8 45q-26 6 -53 0q-9 -12 -26.5 -35t-26.5 -34q-9 -13 -28.5 -36
t-24.5 -30q-3 -3 -16 -19t-23 -25.5t-21 -16.5q-18 18 -14 55q4 58 4 86q2 13 -2 33q-3 14 -14 14q-55 7 -78 -27l-62 -86q-7 -9 -17 -27t-15 -26q-1 0 -5.5 -3t-7.5 -7q0 44 9 84q13 70 30 148t40 174.5t34 148.5l6 22q84 13 160 27l158 25l81 9t80 9q51 6 160 14v31
q-8 4 -39 4q-53 -2 -145 -10q-210 -23 -424 -62h-19q4 25 7 31l67 252q3 15 10.5 41t10.5 37q4 29 -4 41h-35q-3 0 -9.5 -2t-9.5 -2q-8 -23 -10 -37q-19 -91 -70 -195q-54 -106 -79 -161q-14 -36 -52 -39q-8 0 -24 -4q-60 -12 -232 -52q-13 -2 -41 -14q-12 -6 -12 -20
q0 -15 2 -21q22 -6 47 -2q7 0 15 4q9 10 39 19l184 43q16 0 24 2zM598 356q0 -4 1 -11t1 -11q21 -5 45 -2q11 0 14 6q3 4 8.5 7.5t10 4.5t11 3t9.5 3q15 3 43.5 11.5t40.5 11.5q0 6 -1 17t-1 16q-33 3 -59 -2l-86 -25q-12 -3 -21 -6q-16 -6 -16 -23z" />
    <glyph glyph-name="t_l" horiz-adv-x="669" 
d="M629 657q-4 -20 -4 -22q-7 -21 -15 -37q-47 -137 -69 -256q-8 -26 -17 -43l-67 -125q-33 -51 -70 -88q-27 -31 -59 -41q-24 14 -21 47q5 61 8 74q6 31 35 149q28 108 94 281q1 4 4.5 11t4.5 11q55 16 176 39zM-78 455q33 -5 45.5 -3t38.5 15q105 59 266 106h19
q-95 -154 -121 -186q-47 -61 -160 -170q-1 -1 -4.5 -2t-5.5 -2q-4 28 -4 41q-22 6 -47 2q-21 -4 -21 -23q-3 -13 0 -26q7 -38 41 -45q71 -7 105 31l20 20q51 51 76 78q56 56 106 135l64 104q1 1 2.5 3.5t2.5 4.5t3.5 3.5t5.5 1.5q-3 -8 -8 -24.5t-8 -24.5q-44 -125 -74 -250
q-18 -88 -18 -152q0 -31 2 -47q3 -18 13.5 -30t25.5 -13q91 -11 141 39q11 10 57 61q6 12 15 9q2 -6 2 -23q1 -5 2 -15t2 -14q10 -32 43 -32q65 -3 108 20q36 23 50 33q66 51 163 172q15 22 7 41q-6 2 -17 2q-31 5 -57 -27q-20 -24 -59.5 -67t-45.5 -49q-38 -41 -86 -66
q-23 -14 -34 -14q-8 8 -11 14q-4 24 -2 37q3 22 11.5 65.5t11.5 65.5q4 31 26 76q101 164 158 323q2 5 7 15.5t7 15.5q1 0 9.5 3t13.5 3q295 46 344 53t147.5 22.5t147.5 22.5q11 1 31 6t30 7q-1 5 -2 15t-2 15q-23 7 -78 -2q-27 -5 -83 -14t-84 -14q-45 -6 -135.5 -19.5
t-135.5 -19.5l-153 -25q-20 -5 -29 4l12 33q13 39 40.5 117t41.5 117q14 45 12 75q0 9 -4 21q-73 19 -112 -47q-5 -5 -9 -13q-35 -63 -47 -90q-25 -55 -79 -206q-1 -4 -7 -18.5t-8 -22.5q-134 -28 -174 -35q2 8 2 16l23 66q14 43 42.5 129t43.5 129q11 30 2 51q-43 0 -56 -4
q-56 -144 -206 -422q-25 -9 -33 -10l-125 -37q-126 -40 -232 -98q-13 -7 -15 -12.5t3 -24.5zM729 735q0 11 2 15l47 127q10 19 17 22v6q0 -1 1 -3t1 -3q-37 -98 -47 -125q-6 -21 -21 -39z" />
    </font>
</defs>
</svg>
